<svg version="1.1" id="Map" class="gen-by-synoptic-designer" xmlns="http://www.w3.org/2000/svg" xmlns:xlink="http://www.w3.org/1999/xlink" viewBox="2374.3565957571923 -3196.021188092055 2296.000000000004 1907.7500000000005" xml:space="preserve"><image width="2296.000000000004" height="1907.7500000000005" xlink:href=""/><polygon id="50224300412" title="412" points="2838.356595757197,-2571.2711880920538,2838.356595757197,-2453.5211880920538,3078.3565957571946,-2453.5211880920538,3078.3565957571946,-2571.2711880920538,2838.356595757197,-2571.2711880920538" /><polygon id="50224300411" title="411" points="2838.3565957571964,-2448.5211880920538,2838.3565957571964,-2326.271188092054,3078.3565957571946,-2326.271188092054,3078.3565957571946,-2448.5211880920538,2838.3565957571964,-2448.5211880920538" /><polygon id="50224300410" title="410" points="2838.356595757196,-2321.271188092054,2838.356595757196,-2203.0211880920538,3078.3565957571946,-2203.0211880920538,3078.3565957571946,-2321.271188092054,2838.356595757196,-2321.271188092054" /><polygon id="50224300409" title="409" points="3078.356595757193,-2089.771188093892,3078.356595757193,-2198.0211880920538,2838.356595757194,-2198.0211880920538,2838.3565957571946,-2070.6176368999186,3078.356595757193,-2089.771188093892" /><polygon id="50224300415" title="415" points="3160.356595757194,-2387.271188092054,3160.356595757194,-2272.2711880920556,3376.356595757195,-2272.2711880920556,3376.356595757195,-2387.271188092054,3160.356595757194,-2387.271188092054" /><polygon id="50224300414" title="414" points="3160.3565957571946,-2265.021188092055,3160.3565957571946,-2148.0211880920547,3376.356595757195,-2148.0211880920547,3376.356595757195,-2265.021188092055,3160.3565957571946,-2265.021188092055" /><polygon id="50224300440" title="440" points="3458.3565957571955,-2338.7711880920547,3458.3565957571955,-2221.7711880920547,3698.3565957571955,-2221.7711880920547,3698.3565957571955,-2338.7711880920547,3458.3565957571955,-2338.7711880920547" /><polygon id="50224300441" title="441" points="3698.3565957571955,-2135.7711880920547,3698.3565957571955,-2214.271188092054,3458.3565957571955,-2214.271188092054,3458.3565957571955,-2097.2711880920538,3666.3565957571955,-2097.2711880920538,3666.3565957571955,-2135.771188092054,3698.3565957571955,-2135.7711880920547" /><polygon id="50224300450" title="450" points="3780.356595757195,-2338.7711880920547,3780.356595757195,-2221.771188092054,3996.356595757195,-2221.771188092054,3996.356595757195,-2338.7711880920547,3780.356595757195,-2338.7711880920547" /><polygon id="50224300449" title="449" points="3780.356595757195,-2216.771188092054,3780.356595757195,-2097.271188092054,3996.356595757195,-2097.271188092054,3996.356595757195,-2216.771188092054,3780.356595757195,-2216.771188092054" /><polygon id="50224300455" title="455" points="3457.3565957571955,-2017.7711880920547,3457.3565957571955,-1895.5211880920547,3698.8565957571855,-1895.5211880920547,3698.8565957571855,-2017.7711880920547,3457.3565957571955,-2017.7711880920547" /><polygon id="50224300456A" title="456A" points="3482.8565957571855,-1890.5211880920547,3482.8565957571855,-1794.5211880920547,3621.8565957571855,-1794.5211880920547,3621.8565957571855,-1890.5211880920547,3482.8565957571855,-1890.5211880920547" /><polygon id="50224300456C" title="456C" points="3482.8565957571855,-1789.5211880920547,3482.8565957571855,-1717.5211880920547,3578.856595757186,-1717.5211880920547,3578.856595757186,-1789.5211880920547,3482.8565957571855,-1789.5211880920547" /><polygon id="50224300456D" title="456D" points="3482.8565957571855,-1712.5211880920547,3482.8565957571855,-1637.0211880920547,3578.8565957571855,-1637.0211880920547,3578.8565957571855,-1712.5211880920547,3482.8565957571855,-1712.5211880920547" /><polygon id="50224300456B" title="456B" points="3698.856595757185,-1637.0211880920544,3698.856595757185,-1663.271188092055,3667.3565957571855,-1663.2711880920547,3667.3565957571855,-1707.0211880920547,3698.8565957571855,-1707.0211880920547,3698.8565957571855,-1789.5211880920547,3583.8565957571855,-1789.5211880920547,3583.856595757185,-1637.0211880920544,3698.856595757185,-1637.0211880920544" /><polygon id="50224300430" title="430" points="3381.3565957571955,-2648.271188092054,3381.3565957571955,-2472.2711880920547,3510.6065957571946,-2472.2711880920547,3510.6065957571946,-2475.2711880920547,3546.8565957572036,-2475.2711880920547,3546.8565957572036,-2648.2711880920547,3381.3565957571955,-2648.271188092054" /><polygon id="50224300434" title="434" points="3311.3565957571955,-2746.771188092055,3397.8565957571955,-2746.771188092055,3397.8565957571955,-2829.5211880920547,3311.3565957571955,-2829.5211880920547,3311.3565957571955,-2746.771188092055" /><polygon id="50224300435" title="435" points="3311.356595757195,-2653.271188092054,3397.8565957571955,-2653.271188092054,3397.8565957571955,-2741.771188092055,3311.356595757195,-2741.771188092055,3311.356595757195,-2653.271188092054" /><polygon id="50224300433" title="433" points="3546.856595757195,-2660.6461880920547,3546.856595757195,-2829.5211880920547,3402.8565957571955,-2829.5211880920547,3402.8565957571955,-2653.2711880920547,3511.3565957571955,-2653.2711880920547,3511.3565957571955,-2660.6461880920547,3546.856595757195,-2660.6461880920547" /><polygon id="50224300436" title="436" points="3556.8565957572036,-2829.5211880920547,3556.8565957572036,-2730.521188092054,3626.8565957572036,-2730.521188092054,3626.8565957572036,-2829.5211880920547,3556.8565957572036,-2829.5211880920547" /><polygon id="50224300437A" title="437A" points="3631.8565957572036,-2730.521188092055,3698.3565957572014,-2730.521188092055,3698.3565957572014,-2829.521188092054,3631.8565957572036,-2829.521188092054,3631.8565957572036,-2730.521188092055" /><polygon id="50224300452" title="452" points="4099.856595757194,-2504.271188092056,4001.356595757195,-2504.271188092056,4001.3565957571955,-2134.771188092055,4066.3565957571955,-2134.771188092055,4066.3565957571955,-2097.2711880920556,4098.856595757196,-2097.2711880920556,4098.856595757196,-2138.021188092054,4132.856595757194,-2138.021188092054,4132.856595757194,-2097.2711880920556,4194.8565957571955,-2097.2711880920556,4194.8565957571955,-2504.271188092056,4132.856595757195,-2504.271188092056,4132.856595757195,-2473.7711880920538,4099.856595757194,-2473.7711880920538,4099.856595757194,-2504.271188092056" /><polygon id="50224300413" title="413" points="4001.356595757195,-2343.7711880920547,4001.356595757195,-2504.271188092056,3700.8565957571946,-2504.271188092056,3700.8565957571946,-2467.271188092055,3381.3565957571955,-2467.2711880920547,3381.3565957571955,-2453.771188092055,3155.3565957571946,-2453.771188092055,3155.3565957571946,-2510.271188092054,3083.3565957571946,-2510.271188092054,3083.3565957571946,-2143.0211880920547,3155.3565957571946,-2143.0211880920547,3155.3565957571946,-2393.771188092055,3381.3565957571955,-2393.771188092055,3381.3565957571955,-2092.2711880920538,3453.3565957571955,-2092.2711880920538,3453.3565957571955,-2343.7711880920547,4001.356595757195,-2343.7711880920547" /><polygon id="50224300403A" title="403A" points="3381.3565957571955,-2143.0211880920547,3268.8565957571955,-2143.0211880920547,3268.8565957571955,-2092.2711880920538,3235.8565957571955,-2092.2711880920538,3235.8565957571955,-2143.0211880920547,3083.356595757197,-2143.0211880920547,3083.3565957571973,-2091.501680188214,3086.741833933876,-2086.5435341264424,3089.704599352796,-2081.321937535824,3092.2245153205154,-2075.8728024302927,3094.284250881689,-2070.233605740981,3095.869640014318,-2064.4431315651605,3096.9697790578775,-2058.541204425019,3097.5771017042525,-2052.5684153708244,3097.68743103572,-2046.5658428122192,3097.300008252089,-2040.5747699976534,3096.4174978894193,-2034.6364010850239,3095.045969494428,-2028.7915777562623,3093.1948558806175,-2023.0804983248877,3090.8768882532313,-2017.5424412683838,3109.224353155525,-2016.823888346319,3127.439612852273,-2014.510859850439,3145.384365218715,-2010.6209178007712,3162.922361998068,-2005.1835971729138,3179.9204432870974,-1998.2401816492493,3196.2495485729014,-1989.843390166317,3211.785696644449,-1980.056976638285,3226.410926938749,-1968.9552458956764,3234.134646310211,-1975.6276873000795,3242.37425758295,-1981.6514835531434,3251.0754335239913,-1986.9869172250515,3260.1808036097896,-1991.5988095508685,3269.6303322942967,-1995.4567523789772,3279.361714848641,-1998.5353086648504,3289.3107881624865,-2000.8141801882157,3290.04348289294,-1994.8460476777768,3299.108714103601,-1996.2107011755868,3308.2518008799316,-1996.8775296935119,3317.4191056897766,-1996.842621310234,3326.5568489269103,-1996.1061808143086,3335.6114244068253,-1994.6725285027803,3344.5297138451456,-1992.5500748363436,3353.259398473799,-1989.7512710997307,3350.815583618964,-2022.7711880920547,3381.3565957571955,-2022.7711880920547,3381.3565957571955,-2143.0211880920547" /><polygon id="50224300454" title="454" points="3894.606595757195,-2092.2711880920538,3775.3565957571955,-2092.2711880920538,3775.3565957571955,-2343.7711880920547,3703.3565957571955,-2343.7711880920547,3703.3565957571955,-2092.2711880920538,3381.3565957571955,-2092.2711880920538,3381.3565957571955,-2022.7711880920547,3703.8565957571855,-2022.7711880920551,3703.856595757185,-1782.0211880920535,3815.3565957571936,-1782.0211880920535,3815.3565957571936,-1855.0211880920535,3782.6065957571936,-1855.0211880920538,3782.6065957571936,-2022.7711880920547,3787.6065957571936,-2022.7711880920547,3787.6065957571936,-1998.2631590558888,3894.606595757195,-1998.2631590558888,3894.606595757195,-2092.2711880920538" /><polygon id="50224300497" title="497" points="3388.106595757185,-1465.2711880920547,3388.106595757185,-1288.2711880920547,3518.606595757185,-1288.2711880920547,3518.606595757185,-1465.2711880920547,3388.106595757185,-1465.2711880920547" /><polygon id="50224300496" title="496" points="3523.606595757185,-1465.2711880920547,3523.606595757185,-1288.2711880920547,3653.606595757185,-1288.2711880920547,3653.606595757185,-1465.2711880920547,3523.606595757185,-1465.2711880920547" /><polygon id="50224300498" title="498" points="3383.8565957571946,-1319.2711880920547,3383.8565957571946,-1465.2711880920547,3233.3565957571946,-1465.2711880920547,3233.3565957571946,-1319.2711880920547,3268.1065957571827,-1319.2711880920547,3268.1065957571827,-1288.2711880920547,3383.106595757185,-1288.2711880920547,3383.106595757185,-1319.2711880920547,3383.8565957571946,-1319.2711880920547" /><polygon id="50224300488" title="488" points="3815.856595757185,-1465.2711880920547,3658.606595757185,-1465.2711880920547,3658.606595757185,-1318.7711880920538,3700.8565957571946,-1318.7711880920538,3700.8565957571946,-1288.2711880920547,3815.856595757185,-1288.2711880920547,3815.856595757185,-1465.2711880920547" /><polygon id="50224300487" title="487" points="3820.856595757185,-1465.2711880920547,3820.856595757185,-1288.2711880920547,3951.106595757185,-1288.2711880920547,3951.106595757185,-1465.2711880920547,3820.856595757185,-1465.2711880920547" /><polygon id="50224300486" title="486" points="3956.106595757185,-1465.2711880920547,3956.106595757185,-1288.2711880920547,4086.106595757185,-1288.2711880920547,4086.106595757185,-1465.2711880920547,3956.106595757185,-1465.2711880920547" /><polygon id="50224300485" title="485" points="4132.856595757195,-1318.7711880920538,4132.856595757195,-1288.2711880920547,4248.1065957571855,-1288.2711880920547,4248.1065957571855,-1465.2711880920547,4091.106595757185,-1465.2711880920547,4091.106595757185,-1318.7711880920538,4132.856595757195,-1318.7711880920538" /><polygon id="50224300484" title="484" points="4253.1065957571855,-1465.2711880920547,4253.1065957571855,-1288.2711880920547,4383.1065957571855,-1288.2711880920547,4383.1065957571855,-1465.2711880920547,4253.1065957571855,-1465.2711880920547" /><polygon id="50224300483" title="483" points="4388.1065957571855,-1465.2711880920547,4388.1065957571855,-1288.2711880920547,4518.8565957571855,-1288.2711880920547,4518.8565957571855,-1465.2711880920547,4388.1065957571855,-1465.2711880920547" /><polygon id="50224300482" title="482" points="4523.8565957571855,-1465.2711880920547,4523.8565957571855,-1288.2711880920547,4639.856595757195,-1288.2711880920547,4639.856595757195,-1318.7711880920542,4670.3565957571855,-1318.7711880920542,4670.3565957571855,-1465.2711880920547,4523.8565957571855,-1465.2711880920547" /><polygon id="50224300476" title="476" points="4493.1065957571855,-1547.2711880920547,4670.356595757196,-1547.2711880920547,4670.356595757196,-1663.7711880920547,4639.8565957572055,-1663.7711880920547,4639.8565957572055,-1677.0211880920547,4493.1065957571855,-1677.0211880920547,4493.1065957571855,-1547.2711880920547" /><polygon id="50224300475" title="475" points="4670.3565957571855,-1696.7711880920538,4670.3565957571855,-1813.0211880920547,4493.1065957571855,-1813.0211880920547,4493.1065957571855,-1682.0211880920547,4639.8565957572055,-1682.0211880920547,4639.8565957572055,-1696.7711880920538,4670.3565957571855,-1696.7711880920538" /><polygon id="50224300474" title="474" points="4493.1065957571855,-1947.7711880920547,4493.1065957571855,-1818.0211880920547,4670.3565957571855,-1818.0211880920547,4670.3565957571855,-1947.7711880920547,4493.1065957571855,-1947.7711880920547" /><polygon id="50224300472" title="472" points="4493.1065957571855,-2083.5211880920547,4493.1065957571855,-1952.7711880920547,4670.3565957571855,-1952.7711880920547,4670.3565957571855,-2083.5211880920547,4493.1065957571855,-2083.5211880920547" /><polygon id="50224300471" title="471" points="4670.3565957571855,-2128.7711880920538,4670.3565957571855,-2218.5211880920547,4493.1065957571855,-2218.5211880920547,4493.1065957571855,-2088.5211880920547,4639.856595757195,-2088.5211880920547,4639.856595757195,-2128.7711880920538,4670.3565957571855,-2128.7711880920538" /><polygon id="50224300470" title="470" points="4493.1065957571855,-2353.5211880920547,4493.1065957571855,-2223.5211880920547,4670.3565957571855,-2223.5211880920547,4670.3565957571855,-2353.5211880920547,4493.1065957571855,-2353.5211880920547" /><polygon id="50224300467" title="467" points="4199.8565957571955,-2296.271188092056,4302.106595757186,-2296.271188092056,4302.106595757186,-2504.271188092056,4199.8565957571955,-2504.271188092056,4199.8565957571955,-2296.271188092056" /><polygon id="50224300466" title="466" points="4307.106595757186,-2201.271188092056,4411.106595757186,-2201.271188092056,4411.106595757186,-2504.271188092056,4307.106595757186,-2504.271188092056,4307.106595757186,-2201.271188092056" /><polygon id="50224300489" title="489" points="3992.6065957571864,-1547.2711880920547,4128.606595757186,-1547.2711880920547,4128.606595757186,-1663.7711880920538,4097.856595757197,-1663.7711880920538,4097.856595757197,-1714.2711880920538,3992.6065957571864,-1714.2711880920538,3992.6065957571864,-1547.2711880920547" /><polygon id="50224300490" title="490" points="3881.8565957571855,-1714.2711880920538,3881.8565957571855,-1547.2711880920547,3987.6065957571864,-1547.2711880920547,3987.6065957571864,-1714.2711880920538,3881.8565957571855,-1714.2711880920538" /><polygon id="50224300491" title="491" points="3768.8565957571855,-1714.2711880920538,3768.8565957571855,-1547.2711880920547,3876.8565957571855,-1547.2711880920547,3876.8565957571855,-1714.2711880920538,3768.8565957571855,-1714.2711880920538" /><polygon id="50224300495" title="495" points="3482.8565957571855,-1547.2711880920547,3554.8565957571855,-1547.2711880920547,3554.8565957571855,-1632.0211880920547,3482.8565957571855,-1632.0211880920547,3482.8565957571855,-1547.2711880920547" /><polygon id="50224300492" title="492" points="3698.8565957571855,-1547.2711880920547,3698.8565957571855,-1632.0211880920547,3559.8565957571855,-1632.0211880920547,3559.8565957571855,-1547.2711880920547,3698.8565957571855,-1547.2711880920547" /><polygon id="50224300480" title="480" points="4272.106595757186,-1732.0211880920551,4272.106595757186,-1547.2711880920547,4411.1065957571855,-1547.2711880920547,4411.1065957571855,-1732.0211880920551,4272.106595757186,-1732.0211880920551" /><polygon id="50224300463" title="463" points="4273.1065957571855,-2015.2711880920551,4273.1065957571855,-1870.0211880920551,4411.1065957571855,-1870.0211880920551,4411.1065957571855,-2015.2711880920551,4273.1065957571855,-2015.2711880920551" /><polygon id="50224300462" title="462" points="4190.856595757194,-1978.7711880920556,4190.856595757194,-1870.0211880920551,4268.1065957571855,-1870.0211880920551,4268.1065957571855,-1978.7711880920556,4190.856595757194,-1978.7711880920556" /><polygon id="50224300461" title="461" points="4108.356595757197,-1978.7711880920556,4108.356595757197,-1870.0211880920551,4185.856595757194,-1870.0211880920551,4185.856595757194,-1978.7711880920556,4108.356595757197,-1978.7711880920556" /><polygon id="50224300479" title="479" points="4133.606595757186,-1542.2711880920547,4267.106595757186,-1542.2711880920547,4267.106595757186,-1732.0211880920551,4133.606595757186,-1732.0211880920551,4133.606595757186,-1542.2711880920547" /><polygon id="50224300477" title="477" points="4416.1065957571855,-1737.0211880920551,4416.1065957571855,-1865.0211880920551,4272.106595757186,-1865.0211880920551,4272.106595757186,-1737.0211880920551,4416.1065957571855,-1737.0211880920551" /><polygon id="50224300481" title="481" points="3315.9009735104937,-1542.2711880920547,3315.9009735104937,-1470.2711880920547,4670.3565957571855,-1470.2711880920547,4670.3565957571855,-1542.2711880920547,4488.1065957571855,-1542.2711880920547,4488.1065957571855,-1865.021188092055,4416.1065957571855,-1865.021188092055,4416.1065957571855,-1542.2711880920547,3763.8565957571855,-1542.2711880920547,3763.8565957571855,-1777.0211880920538,3703.8565957571855,-1777.0211880920538,3703.8565957571855,-1542.2711880920547,3315.9009735104937,-1542.2711880920547" /><polygon id="50224300499C" title="499C" points="3376.3565957571855,-1542.2711880920547,3477.8565957571855,-1542.2711880920547,3477.8565957571855,-1712.5211880920547,3376.3565957571855,-1712.5211880920547,3376.3565957571855,-1542.2711880920547" /><polygon id="50224300456" title="456" points="3626.8565957571855,-1890.5211880920547,3626.8565957571855,-1794.5211880920547,3698.8565957571855,-1794.5211880920547,3698.8565957571855,-1890.5211880920547,3626.8565957571855,-1890.5211880920547" /><polygon id="50224300468" title="468" points="4416.106595757186,-2319.771188092055,4488.1065957571855,-2319.771188092055,4488.1065957571855,-2358.5211880920547,4670.3565957571855,-2358.5211880920547,4670.3565957571855,-2473.7711880920538,4639.856595757195,-2473.7711880920538,4639.856595757195,-2504.271188092056,4416.106595757186,-2504.271188092056,4416.106595757186,-2319.771188092055" /><polygon id="50224300419" title="419" points="3160.3565957571946,-2571.2711880920547,3160.3565957571946,-2458.7711880920547,3235.8565957571946,-2458.7711880920547,3235.8565957571946,-2571.2711880920547,3160.3565957571946,-2571.2711880920547" /><polygon id="50224300418" title="418" points="3376.3565957571955,-2571.271188092055,3240.8565957571946,-2571.271188092055,3240.8565957571946,-2507.271188092053,3269.3565957571946,-2507.271188092053,3269.3565957571946,-2458.7711880920547,3376.3565957571955,-2458.7711880920547,3376.3565957571955,-2571.271188092055" /><polygon id="50224300464" title="464" points="4199.8565957571955,-2193.0211880920556,4199.8565957571955,-2097.2711880920556,4411.1065957571855,-2097.2711880920556,4411.1065957571855,-2193.0211880920556,4199.8565957571955,-2193.0211880920556" /><polygon id="50224300465" title="465" points="4205.8565957571955,-2291.271188092056,4205.8565957571955,-2201.271188092056,4302.106595757186,-2201.271188092056,4302.106595757186,-2291.271188092056,4205.8565957571955,-2291.271188092056" /><polygon id="50224300460" title="460" points="4416.106595757186,-1870.0211880920551,4488.1065957571855,-1870.0211880920551,4488.1065957571855,-2314.771188092055,4416.106595757186,-2314.771188092055,4416.106595757186,-2092.2711880920556,4061.3565957571955,-2092.2711880920538,4061.3565957571955,-2129.771188092055,4001.3565957571955,-2129.771188092055,4001.3565957571955,-2092.2711880920556,3899.606595757196,-2092.2711880920556,3899.606595757196,-1998.2678244374367,4108.356595757197,-1998.2678244374367,4108.356595757197,-1983.7711880920554,4268.1065957571855,-1983.7711880920554,4268.1065957571855,-2020.2711880920551,4416.106595757186,-2020.2711880920551,4416.106595757186,-1870.0211880920551" /><polygon id="50224300420" title="420" points="3198.3565957571955,-2829.5211880920547,3198.3565957571955,-2653.2711880920547,3306.3565957571955,-2653.2711880920547,3306.3565957571955,-2829.5211880920547,3198.3565957571955,-2829.5211880920547" /><polygon id="50224300421" title="421" points="3083.8565957571946,-2829.5211880920547,3083.8565957571946,-2653.271188092054,3193.3565957571955,-2653.271188092054,3193.3565957571955,-2829.5211880920547,3083.8565957571946,-2829.5211880920547" /><polygon id="50224300423" title="423" points="2934.8565957571946,-2829.5211880920547,2934.8565957571946,-2743.271188092054,3078.856595757196,-2743.271188092054,3078.856595757196,-2829.5211880920547,2934.8565957571946,-2829.5211880920547" /><polygon id="50224300422" title="422" points="2934.856595757196,-2738.2711880920538,2934.856595757196,-2653.271188092054,3078.8565957571973,-2653.271188092054,3078.8565957571973,-2738.2711880920538,2934.856595757196,-2738.2711880920538" /><polygon id="50224300424" title="424" points="2752.3565957571946,-2829.5211880920547,2752.3565957571946,-2653.2711880920538,2929.8565957571973,-2653.2711880920538,2929.8565957571973,-2829.5211880920547,2752.3565957571946,-2829.5211880920547" /><polygon id="50224300426" title="426" points="2535.356595757192,-2829.5211880920547,2535.356595757192,-2739.2711880920556,2747.356595757196,-2739.2711880920556,2747.356595757196,-2829.5211880920547,2535.356595757192,-2829.5211880920547" /><polygon id="50224300427" title="427" points="2535.356595757193,-2734.2711880920547,2535.356595757193,-2653.271188092053,2620.356595757196,-2653.271188092053,2620.356595757196,-2734.2711880920547,2535.356595757193,-2734.2711880920547" /><polygon id="50224300425" title="425" points="2625.356595757196,-2653.2711880920533,2747.356595757196,-2653.2711880920533,2747.356595757196,-2734.271188092055,2625.356595757196,-2734.271188092055,2625.356595757196,-2653.2711880920533" /><polygon id="50224300439" title="439" points="2615.3565957571955,-2648.2711880920533,2615.3565957571955,-2576.271188092055,3083.3565957571946,-2576.2711880920538,3083.3565957571946,-2515.271188092054,3155.356595757194,-2515.271188092054,3155.356595757194,-2576.271188092055,3376.3565957571946,-2576.271188092055,3376.3565957571946,-2648.2711880920533,2615.3565957571955,-2648.2711880920533" /><polygon id="50224300458" title="458" points="2805.3565957571855,-3177.2711880920538,2805.3565957571855,-3196.0211880920547,2403.3565957571936,-3196.0211880920547,2403.3565957571936,-3177.2711880920538,2377.3565957571936,-3177.2711880920538,2377.3565957571936,-2937.2711880920538,2403.3565957571964,-2937.2711880920538,2403.3565957571964,-2907.2711880920538,2377.3565957571936,-2907.2711880920538,2377.3565957571936,-2842.5211880920547,3701.3565957571946,-2842.5211880920547,3701.3565957571946,-2907.2711880920538,3669.356595757194,-2907.2711880920538,3669.356595757194,-2937.2711880920538,3701.3565957571946,-2937.2711880920538,3701.3565957571946,-3177.2711880920538,3669.3565957571946,-3177.2711880920538,3669.3565957571946,-3196.021188092055,3267.3565957571855,-3196.021188092055,3267.3565957571855,-3177.2711880920538,3237.3565957571855,-3177.2711880920538,3237.3565957571855,-3196.0211880920547,2835.3565957571855,-3196.0211880920547,2835.3565957571855,-3177.2711880920538,2805.3565957571855,-3177.2711880920538" /><polygon id="50224300429" title="429" points="2530.356595757197,-2829.5211880920547,2374.3565957571923,-2829.5211880920547,2374.3565957571923,-2648.2711880920533,2530.3565957571973,-2648.2711880920533,2530.356595757197,-2829.5211880920547" /><polygon id="50224300437" title="437" points="3556.8565957572036,-2725.5211880920547,3556.8565957572014,-2472.271188092055,3668.356595757202,-2472.271188092055,3668.356595757202,-2510.5211880920547,3698.356595757202,-2510.5211880920547,3698.356595757202,-2725.5211880920547,3556.8565957572036,-2725.5211880920547" /><polygon id="50224300469" title="469" points="2374.3565957571927,-2473.0211880920538,2374.3565957571927,-2248.7711880920538,2530.356595757197,-2248.7711880920538,2530.356595757197,-2508.2711880920547,2407.3565957571964,-2508.2711880920547,2407.3565957571964,-2473.0211880920538,2374.3565957571927,-2473.0211880920538" /><polygon id="50224300432" title="432" points="2540.3565957571977,-2524.2711880920533,2540.3565957571977,-2427.7711880920533,2675.3565957571955,-2427.7711880920533,2675.3565957571955,-2524.2711880920533,2540.3565957571977,-2524.2711880920533" /><polygon id="50224300431" title="431" points="2675.3565957571955,-2427.7711880920533,2540.3565957571955,-2427.7711880920533,2540.3565957571955,-2331.2711880920524,2675.3565957571955,-2331.2711880920524,2675.3565957571955,-2427.7711880920533" /><polygon id="50224300417" title="417" points="2685.3565957571964,-2566.2711880920533,2685.3565957571964,-2331.2711880920538,2793.3565957571964,-2331.2711880920538,2793.3565957571964,-2566.2711880920533,2685.3565957571964,-2566.2711880920533" /><polygon id="50224300445" title="445" points="2707.3565957571986,-2161.5211880920533,2707.3565957571986,-2238.271188092054,2647.356595757199,-2238.2711880920547,2647.356595757199,-2243.2711880920547,2707.356595757199,-2243.2711880920547,2707.356595757199,-2321.271188092053,2610.606595757195,-2321.271188092053,2610.6065957571955,-2101.2711880920547,2658.606595757194,-2101.2711880920547,2658.606595757194,-2161.5211880920533,2707.3565957571986,-2161.5211880920533" /><polygon id="50224300446" title="446" points="2757.3565957571946,-2100.5211880920538,2802.3565957571946,-2100.5211880920538,2802.3565957571946,-2130.271188092054,2832.6065957571946,-2130.271188092054,2832.6065957571946,-2321.271188092054,2731.3565957571946,-2321.271188092054,2731.3565957571946,-2243.2711880920547,2773.356595757198,-2243.2711880920547,2773.356595757198,-2238.2711880920547,2731.3565957571946,-2238.2711880920547,2731.3565957571946,-2161.5211880920538,2757.3565957571946,-2161.5211880920538,2757.3565957571946,-2100.5211880920538" /><polygon id="50224300442" title="442" points="2535.606595757195,-2303.646188092121,2535.606595757195,-2101.2711880920547,2605.3565957571955,-2101.2711880920547,2605.3565957571955,-2303.646188092121,2535.606595757195,-2303.646188092121" /><polygon id="50224300494" title="494" points="3875.3565957571936,-1993.2668142946832,3875.3565957571936,-1748.2711880920542,3980.356595757197,-1748.2711880920542,3980.356595757197,-1993.2668142946832,3875.3565957571936,-1993.2668142946832" /><polygon id="50224300499B" title="499B" points="3371.3565957571855,-1542.2711880920547,3371.3565957571855,-1712.5211880920547,3274.8565957571864,-1712.5211880920547,3274.8565957571864,-1644.8713933902354,3227.1293918526594,-1641.3390874214251,3224.5725834616696,-1675.885731030168,3219.4014812580735,-1671.0939504072549,3214.6666282649667,-1665.8706730192703,3210.40389235378,-1660.2554666927279,3206.64556497344,-1654.290868228426,3203.42011653337,-1648.0220611729633,3200.751980731961,-1641.4965335403958,3198.6613694642847,-1634.7637180768893,3197.1641197111885,-1627.8746177934695,3196.2715735696115,-1620.8814196035623,3195.990492332945,-1613.8370989921364,3196.3230052722934,-1606.7950187111874,3197.2665935066316,-1599.8085245415639,3198.8141090840545,-1592.930541183355,3200.9538291295653,-1586.2131713360857,3203.6695446492204,-1579.7073010058016,3206.940683317914,-1573.462214028958,3210.742465320651,-1567.5252187332017,3215.046091066761,-1561.941289563201,3219.8189593550733,-1556.75272638631,3225.0249143373762,-1551.998834058922,3230.624519409355,-1547.7156246808931,3236.575355954196,-1543.9355447935432,3242.832344675793,-1540.6872295877833,3249.3480870873645,-1537.9952859843222,3256.0732245686036,-1535.880106229172,3262.9568122714063,-1534.357713416528,3269.9467050417275,-1533.439640109228,3276.9899524341017,-1533.1328409762766,3315.900973510494,-1533.1328409762775,3315.9009735104937,-1542.2711880920547,3371.3565957571855,-1542.2711880920547" /><polygon id="50224300402" title="402" points="2811.704099247256,-1713.5211880920504,2842.356595757204,-1713.5211880920506,2842.356595757204,-1666.6028806418199,3222.8989254185226,-1698.499575752889,3215.9008521091664,-1793.0549383753767,3199.7802765765778,-1786.329513778298,3183.1687566589235,-1780.9293566011168,3166.175039392534,-1776.8898188821568,3148.9103738622684,-1774.2373453872947,3131.4877829112475,-1772.9893004897453,3114.021323238709,-1773.1538544944826,3096.6253387297393,-1774.729930151477,3079.413711904949,-1777.7072097078928,3050.4619992784546,-1789.1301194076912,3020.6798210235993,-1798.1692780196934,2990.2630823280456,-1804.76522655977,2959.4118624758285,-1808.87457731714,2928.3290987391324,-1810.4702992558457,2897.219251470414,-1809.541895823111,2866.2869591758003,-1806.095473994965,2835.73569241661,-1800.1537041049623,2805.7664153935334,-1791.755670720235,2800.7807539832097,-1791.3772789898671,2800.542143875545,-1794.5211880936374,2763.356595757195,-1794.5211880936558,2763.356595757195,-1718.5211880906686,2806.3102394485063,-1718.521188090668,2806.041327377055,-1722.0643536246985,2811.0269887873783,-1722.4427453550668,2811.704099247256,-1713.5211880920504" /><polygon id="50224300403" title="403" points="2969.535826252915,-2076.0706899390643,2970.0599372560678,-2069.503414790818,2997.6070869443815,-2071.701855381665,2998.0048545662303,-2066.717702402571,2965.473551898818,-2064.12149418992,2965.494604216803,-2063.7154934653413,2965.4804762193785,-2063.3091928523213,2965.4312737080563,-2062.905635048121,2965.3473651497825,-2062.5078422096985,2965.229378917571,-2062.1187933214337,2965.0781985847507,-2061.7414018861573,2964.8949563080787,-2061.378494106561,2964.6810243492628,-2061.0327877203763,2964.4380047983914,-2060.706871647827,2964.167717576227,-2060.4031866037662,2963.8721868052144,-2060.1240068196907,2963.553625651267,-2059.871423012515,2963.2144197498455,-2059.6473267276456,2962.857109340451,-2059.4533961736056,2962.4843702433245,-2059.291083654296,2962.0989938208036,-2059.1616046930067,2961.7038660734192,-2059.0659289296254,2961.3019460272612,-2059.004772859215,2960.896243574474,-2058.978594466335,2960.4897969328235,-2058.9875897952993,2960.0856498931485,-2059.0316914820373,2959.6868290250627,-2059.1105692585725,2959.2963210116377,-2059.2236324263267,2958.917050282777,-2059.370034279733,2958.5518571147936,-2059.5486784470318,2958.2034763601982,-2059.75822710076,2957.8745169669805,-2059.9971109764515,2957.567442440762,-2060.263541124519,2957.2845523961373,-2060.5555223073097,2957.0279653353587,-2060.870867941008,2956.79960278333,-2061.207216470487,2956.6011748977267,-2061.5620490544848,2956.43416766199,-2061.932708428659,2956.2998317571255,-2062.316418805266,2956.1991731956173,-2062.7103066604313,2956.1329457876245,-2063.1114222533497,2956.101645495856,-2063.516761716253,2956.1055067214147,-2063.9232895497266,2956.1445005484197,-2064.327961354906,2956.218334960549,-2064.7277466323203,2956.326457027887,-2065.119651476646,2959.6083266269325,-2075.278411304421,2833.356595757195,-2065.2027071771654,2833.356595757194,-2094.2711880920538,2757.3702708775672,-2094.2711880920538,2760.0073297093736,-2058.6402303876007,2763.356595757195,-1998.2711880920776,2776.607921338296,-1823.6727038151173,2803.1909170208423,-1825.6902465011888,2805.3771927349185,-1796.8840396388448,2835.519920351512,-1805.2397901061347,2866.2368494793554,-1811.1451147369064,2897.32911508493,-1814.5617817607983,2928.595422161952,-1815.467671271247,2959.833348939058,-1813.856918432379,2990.840657382305,-1809.7399514486538,3021.41660250813,-1803.1434240514318,3051.363232030124,-1794.1100429395665,3080.4866679255565,-1782.6982912911817,3081.9357881625115,-1789.4391801882105,3098.7561353778574,-1786.5538032893876,3115.7588648787773,-1785.085242833834,3132.824847470202,-1785.043788253312,3149.8345107758814,-1786.429729998294,3166.668677019219,-1789.2333575029272,3183.209398039355,-1793.4350272218692,3199.340781691981,-1799.005300262292,3214.949803844719,-1805.9051486467417,3216.19665109903,-1805.9974282197647,3210.7481838777408,-1814.0110749363712,3205.96579823575,-1822.4391895731876,3201.8808378957806,-1831.2265343246424,3198.5200756599074,-1840.3155169934546,3195.9055379407923,-1849.6465684495,3194.0543604007294,-1859.1585330454814,3188.1232881624833,-1858.251680188231,3187.007700882213,-1868.1693150330084,3186.682445401447,-1878.1441947198252,3187.1495721229285,-1888.1134378465788,3188.406136291018,-1898.014198543905,3190.4442165553633,-1907.784062654031,3193.2509649069016,-1917.361441188128,3196.8086876713987,-1926.6859585818177,3201.0949570499497,-1935.698833301281,3206.082752503282,-1944.3432484006364,3211.7406310885867,-1952.5647096946032,3218.032925675078,-1960.3113892885362,3204.461804349249,-1970.5829268935222,3190.0543360380834,-1979.6440899355246,3174.9181731088765,-1987.4271735526713,3159.166412723179,-1993.8740226716247,3142.9167517766537,-1998.936466541336,3126.2906074698035,-2002.5766786641088,3109.4122100806326,-2004.7674594345713,3109.308599676246,-2004.5007751617557,3083.7222660327398,-2005.46908002127,3079.937914498038,-2000.7308236587066,3075.7702828508,-1996.3259131773782,3071.248614371887,-1992.2852567873367,3066.404636534474,-1988.637206814238,3061.2723383799084,-1985.4073607578105,3055.8877320246875,-1982.6183816802818,3050.288599971993,-1980.2898391850583,3044.514230000844,-1978.4380721014677,3038.6051394930905,-1977.0760738390761,3032.602791132573,-1976.2134012160216,3026.5493019713217,-1975.856107401092,3020.487147904212,-1976.0066994400788,3014.4588656257065,-1976.664120664431,3008.506754159974,-1977.8237581056492,3002.672578058694,-1979.477474863388,2996.9972743491176,-1981.6136672001517,2991.5206652886804,-1984.2173459619646,2986.281178941683,-1987.2702417537005,2981.3155795386942,-1990.7509331310878,2976.658709510687,-1994.6349969098926,2972.3432450079754,-1998.8951795375992,2968.399466619436,-2003.5015883251108,2964.85504690081,-2008.4219011966459,2961.7348562029574,-2013.6215934860616,2959.0607881625137,-2019.064180188233,2958.9750851933522,-2019.2668769288714,2958.8900317562675,-2019.4698470755147,2958.805628723452,-2019.673088546775,2958.808497237682,-2019.6744547193123,2958.4215322535624,-2020.9940427653967,2958.4215322535624,-2023.6353703004672,2958.5654729943026,-2024.1865600218023,2958.7557391060504,-2024.723521708025,2958.9909537148715,-2025.2423695985938,2959.2694146739104,-2025.7393490147085,2959.5891068810943,-2026.2108635303032,2959.9477168615595,-2026.6535009978331,2960.3426495092726,-2027.0640582405179,2960.7710468666955,-2027.4395642323525,2961.2298088065936,-2027.7773015981436,2961.7156154663226,-2028.0748262779834,2962.2249512722433,-2028.32998521386,2962.754130380417,-2028.5409319304094,2963.2993233494694,-2028.706139897065,2963.8565848526096,-2028.8244135748998,2964.4218822282614,-2028.894897068229,2964.991124662699,-2028.917080318357,2965.5601927935045,-2028.8908027946534,2966.124968519621,-2028.816254656244,2966.6813648022753,-2028.69397537591,2967.22535524112,-2028.5248498361582,2967.753003211557,-2028.3101019257042,2968.2604903523966,-2028.0512856827193,2968.7441441976935,-2027.7502740489238,2969.2004647527997,-2027.4092453159142,2969.6261498223216,-2027.030667361806,2970.018118906685,-2026.6172797922611,2970.3735354943824,-2026.172074115141,2970.6898275885897,-2025.6982720922533,2970.964706319597,-2025.1993024248482,2971.1961825083736,-2024.6787759415834,2971.3825810614003,-2024.1404594685118,2973.5869484616665,-2019.5246808244478,2976.183280216113,-2015.1174470494816,2979.152015307431,-2010.9519626738147,2982.470786995159,-2007.0596108640361,2986.1145913288897,-2003.4697169792767,2990.055975530481,-2000.2093276310857,2994.2652448259673,-1997.3030069116146,2998.710686168892,-1994.7726513253454,3003.358807169501,-1992.637324818684,3008.1745884296793,-1990.9131151503252,3013.1217473825245,-1989.613012684504,3018.16301164875,-1988.7468125203227,3023.260399850437,-1988.3210406945157,3028.3755077664496,-1988.3389050136507,3033.46979767359,-1988.8002708862007,3038.504888693577,-1989.7016623365691,3043.442845958332,-1991.0362881934304,3048.2464664149866,-1992.7940932550791,3052.8795591173207,-1994.9618340463012,3057.3072178918887,-1997.5231785960134,3061.496084324545,-2000.4588294839286,3065.414599085996,-2003.7466692292082,3069.0332397028756,-2007.3619269257244,3072.324742982943,-2011.2773648684906,3075.2643104186427,-2015.4634837651924,3077.829795021481,-2019.8887449867418,3080.0018681796064,-2024.5198081823914,3081.764165281459,-2029.321782469198,3083.103409008356,-2034.2584893033454,3084.009509367106,-2039.2927350528319,3084.4756397090077,-2044.3865912179301,3084.4982881624865,-2049.5016801882125,3083.7664492277468,-2073.541799927404,3083.3565957571946,-2073.529323004221,3049.8400455488054,-2070.854485669797,3049.4422779269576,-2075.8386386488905,3078.3565957571946,-2078.1461880938923,3078.356595757194,-2084.75529068768,2969.535826252915,-2076.0706899390643" /><polygon id="50224300405A" title="405A" points="3216.196651099022,-1805.9974282197757,3318.2939110571515,-1813.553679817296,3318.6629533526975,-1808.5673176379012,3366.407360887117,-1812.100896852986,3353.2593985968797,-1989.7512710550038,3343.006455504296,-1992.7028855254944,3332.550527956633,-1994.8261964212868,3321.9584187386995,-1996.1076379367455,3311.2978006982207,-1996.5390229587317,3300.6367843848966,-1996.117595373963,3290.043482892986,-1994.8460476777855,3290.776177623392,-1988.8779151673375,3282.053362318047,-1986.8303131181433,3273.5188655924144,-1984.1022099963416,3265.2256872742773,-1980.7105475151093,3257.225328587055,-1976.6763881381373,3249.567472323567,-1972.0247842802435,3242.299674312376,-1966.7846227301056,3235.467068092733,-1960.9884452612632,3242.6132613300733,-1954.0057640317023,3249.4204357964927,-1946.6921950860508,3255.8732881624915,-1939.0641801882086,3246.530532671733,-1931.5333821003624,3240.378893484465,-1938.8016265392241,3233.886148645253,-1945.7668477393192,3227.067205333895,-1952.4130537269382,3221.3707819640376,-1945.4049767665222,3216.248546808267,-1937.9668930818116,3211.7328173557553,-1930.1457314415247,3207.852084496368,-1921.990837550992,3204.630832764368,-1913.5536627175034,3202.089385859233,-1904.8874392308771,3200.243778418255,-1896.0468445073543,3199.1056548499146,-1887.0876561158223,3198.682195866338,-1878.0663998628938,3198.9760731783517,-1869.0399931571635,3199.985432638974,-1860.0653859027468,3194.054360400727,-1859.1585330454957,3195.905537940789,-1849.646568449514,3198.5200756599033,-1840.3155169934682,3201.880837895775,-1831.2265343246556,3205.9657982357435,-1822.4391895732,3210.7481838777335,-1814.011074936383,3216.196651099022,-1805.9974282197757" /><polygon id="50224300405" title="405" points="3220.3052083196253,-1801.2878287628757,3226.5048047891914,-1717.5211880920547,3373.407235942371,-1717.5211880920551,3366.407360887118,-1812.1008968529857,3220.3052083196253,-1801.2878287628757" /><polygon id="50224300457" title="457" points="3356.199310374446,-2017.7711880920547,3371.0246806518476,-1817.45630131911,3391.060788162485,-1818.9391801882164,3391.429830458031,-1813.9528180088216,3366.407360887118,-1812.100896852985,3369.0644653698337,-1776.1990891579962,3394.086934985964,-1778.0510103171791,3394.4559772815105,-1773.0646481377844,3374.419869770873,-1771.5817692686774,3378.420911062744,-1717.521188092054,3477.8565957571855,-1717.5211880920544,3477.8565957571855,-1890.5211880920544,3452.356595757195,-1890.5211880920542,3452.356595757195,-2022.7711880920542,3391.356595757195,-2022.771188092055,3391.356595757195,-2017.7711880920547,3356.199310374446,-2017.7711880920547" /><polygon id="50224300459" title="459" points="3990.356595757197,-1988.2711880920535,3990.356595757197,-1753.271188092054,4098.356595757197,-1753.271188092054,4098.356595757197,-1988.2711880920535,3990.356595757197,-1988.2711880920535" /><polygon id="50224300407" title="407" points="2611.106595757192,-2094.2711880920424,2611.106595757192,-1998.2711880920538,2759.4615871513015,-1998.2711880920538,2752.3565957571946,-2094.2711880920547,2752.3565957571946,-2155.2711880920538,2662.6065957571946,-2155.2711880920538,2662.6065957571946,-2094.2711880920547,2611.106595757192,-2094.2711880920424" /><polygon id="50224300406" title="406" points="2523.3565957571946,-1998.2711880920538,2605.106595757192,-1998.2711880920538,2605.106595757192,-2094.2711880920547,2530.356595757195,-2094.2711880920547,2530.356595757195,-2242.7711880920533,2374.3565957571923,-2242.7711880920538,2374.3565957571923,-2129.521188092054,2407.3565957571964,-2129.521188092054,2407.3565957571964,-2095.021188092054,2374.356595757193,-2095.021188092054,2374.356595757193,-1983.2711880920556,2523.3565957571946,-1983.2711880920556,2523.3565957571946,-1998.2711880920538" /><polygon id="50224300428" title="428" points="2530.3565957571977,-2648.2711880920533,2374.3565957571927,-2648.2711880920533,2374.3565957571927,-2513.2711880920547,2530.3565957571977,-2513.2711880920547,2530.3565957571977,-2648.2711880920533" /><polygon id="50224300438" title="438" points="2530.3565957571946,-2648.2711880920533,2530.3565957571946,-2576.2711880920547,2610.3565957571955,-2576.2711880920547,2610.3565957571955,-2648.2711880920533,2530.3565957571946,-2648.2711880920533" /><polygon id="50224300499A" title="499A" points="2849.1065957572087,-1662.1511258641738,2849.1065957572005,-1324.5211880920533,3045.7955136673095,-1324.521188092053,3045.7955136673095,-1325.021188092053,3052.6890041763,-1325.0211880920533,3045.7955136673304,-1418.163466830279,3050.781875846747,-1418.5325091258374,3039.710606980363,-1568.1233745076665,3034.724244800939,-1567.7543322121185,3026.6366042599034,-1677.0315218488631,2849.1065957572087,-1662.1511258641738" /><polygon id="50224300499" title="499" points="3047.575499065019,-1529.5987918039234,3052.8897081208806,-1457.7951764206719,3064.856977351405,-1458.6808779299781,3074.721861764965,-1325.3902303875993,3074.721861764965,-1325.0211880920533,3225.356595757197,-1325.0211880920533,3225.356595757197,-1470.271188092055,3315.9009735104946,-1470.271188092055,3315.900973510494,-1533.1328409762775,3276.9899524340954,-1533.1328409762777,3269.9708961482966,-1533.4856066394486,3263.0086244748563,-1534.4439217763017,3256.155280827094,-1536.0006091572463,3249.462192810024,-1538.1440100884936,3242.9794878060925,-1540.8580717289722,3236.755717549893,-1544.1224673168813,3230.837494503579,-1547.9127484054543,3225.2691427563136,-1552.2005279677735,3220.0923660623153,-1556.953692999286,3215.3459355037085,-1562.1366450257515,3211.0653991174026,-1567.7105667153544,3207.2828156607247,-1573.6337125982095,3204.0265145097537,-1579.8617217159372,3201.320883488576,-1586.3479498597476,3199.186186218499,-1593.043818908754,3197.6384103551745,-1599.8991806521797,3196.689147850246,-1606.8626923706342,3196.345508134295,-1613.8822013635722,3196.610064871288,-1620.9051355430465,3197.480836683318,-1627.8788971684314,3198.9513019899823,-1634.7512567732697,3201.010447851273,-1641.4707443339582,3203.642852448167,-1647.9870347506421,3206.8288005831887,-1654.2513247532895,3210.544431335906,-1660.216698410134,3214.761916767513,-1665.8384785010394,3219.449670336094,-1671.0745611242007,3224.5725834616715,-1675.8857310301694,3223.3206271310446,-1693.4684792224864,3048.564366297744,-1678.8205761218487,3059.5427682955433,-1530.4844933132329,3047.575499065019,-1529.5987918039234" /><polygon id="50224300401" title="401" points="2744.856595757194,-1846.271188092054,2535.3565957571946,-1846.271188092054,2535.3565957571946,-1666.2711880920529,2744.856595757194,-1666.2711880920529,2744.856595757194,-1702.2711880920535,2758.3565957571955,-1702.2711880920535,2758.3565957571955,-1810.2711880920535,2744.856595757194,-1810.2711880920535,2744.856595757194,-1846.271188092054" /><polygon id="50224300447" title="447" points="2643.3565957571973,-1950.2711880920538,2540.356604485237,-1950.2711880920538,2540.356604485237,-1856.271188092054,2643.3565957571973,-1856.271188092054,2643.3565957571973,-1950.2711880920538" /><polygon id="50224300448" title="448" points="2643.3565957571973,-1950.2711880920538,2643.3565957571973,-1856.271188092054,2746.356595757197,-1856.271188092054,2746.356595757197,-1950.2711880920538,2643.3565957571973,-1950.2711880920538" /><polygon id="50224300443" title="443" points="2540.356604485237,-1656.271188092053,2540.356604485237,-1562.2711880920533,2643.356595757195,-1562.2711880920533,2643.356595757195,-1656.271188092053,2540.356604485237,-1656.271188092053" /><polygon id="50224300444" title="444" points="2643.3565957571955,-1562.2711880920533,2746.3565957571955,-1562.2711880920533,2746.3565957571955,-1656.2711880920529,2643.3565957571955,-1656.2711880920529,2643.3565957571955,-1562.2711880920533" /><polygon id="50224300493" title="493" points="3821.356595757194,-1993.2645649142942,3821.356595757194,-1748.271188092054,3868.8565957571946,-1748.271188092054,3868.8565957571946,-1993.2645649142942,3821.356595757194,-1993.2645649142942" /><polygon id="50224300442A" title="442A" points="2535.606595757195,-2321.271188092053,2535.606595757195,-2309.146188092121,2605.356595757195,-2309.146188092121,2605.356595757195,-2321.271188092053,2535.606595757195,-2321.271188092053" /><polygon id="50224300477A" title="477A" points="4267.106595757186,-1737.0211880920551,4267.106595757186,-1865.0211880920551,4112.3565957571855,-1865.0211880920551,4112.3565957571855,-1737.0211880920551,4267.106595757186,-1737.0211880920551" /><polygon id="50224300491A" title="491A" points="3768.8565957571855,-1777.0211880920538,3768.8565957571855,-1719.2711880920538,3815.3565957571946,-1719.2711880920538,3815.3565957571946,-1777.0211880920538,3768.8565957571855,-1777.0211880920538" /></svg>
