<svg version="1.1" id="Map" class="gen-by-synoptic-designer" xmlns="http://www.w3.org/2000/svg" xmlns:xlink="http://www.w3.org/1999/xlink" viewBox="25.454581464240942 -1944.4999999999998 2296.5000000000045 1923.9999999999998" xml:space="preserve"><image width="2296.5000000000045" height="1923.9999999999998" xlink:href=""/><polygon id="50224300503C" title="503C" points="345.44322203892534,-1672.0000000000068,345.44322203892534,-1458.1385446346223,558.189222038925,-1458.138544634623,558.189222038925,-1672.0000000000055,488.0755814642442,-1672.0000000000052,488.075581464245,-1641.5835376947348,454.0755814642452,-1641.583537694737,454.0755814642452,-1672.0000000000043,345.44322203892534,-1672.0000000000068" /><polygon id="50224300503A" title="503A" points="345.44322203892534,-1453.1385446346223,345.44322203892534,-1381.3885446346228,388.69322203892534,-1381.3885446346228,388.69322203892534,-1453.1385446346226,345.44322203892534,-1453.1385446346223" /><polygon id="50224300503" title="503" points="393.94322203892534,-1453.1385446346226,393.94322203892534,-1435.6385446346228,388.69322203892534,-1435.6385446346228,388.69322203892534,-1399.6385446346228,393.94322203892534,-1399.6385446346228,393.94322203892534,-1381.3885446346228,453.9432220389254,-1381.3885446346228,453.9432220389254,-1399.1385446346228,459.1932220389254,-1399.1385446346228,459.1932220389254,-1435.1385446346228,453.9432220389254,-1435.1385446346228,453.9432220389254,-1453.1385446346228,442.06713040303885,-1453.1385446346226,442.06713040303885,-1458.1385446346228,406.06713040303885,-1458.1385446346226,406.06713040303885,-1453.1385446346226,393.94322203892534,-1453.1385446346226" /><polygon id="50224300503B" title="503B" points="459.1932220389254,-1453.1385446346228,459.1932220389254,-1381.3885446346228,558.189222038925,-1381.3885446346228,558.189222038925,-1453.138544634623,459.1932220389254,-1453.1385446346228" /><polygon id="50224300506" title="506" points="564.939222038925,-1672.0000000000073,564.939222038925,-1381.3885446346228,869.3315145052975,-1381.3885446346228,869.3315145052983,-1432.929703394313,886.751463100235,-1423.3178055263204,944.2384530221647,-1527.5129747573924,932.5601066100528,-1533.9562003642247,934.9754933246526,-1538.3340887843349,961.1180927730691,-1523.9105856400456,1008.1932220389253,-1609.2342574344118,1008.1932220389253,-1631.5046313824737,876.4545814642463,-1631.504631382466,876.4545814642447,-1672.0000000000039,564.939222038925,-1672.0000000000073" /><polygon id="50224300508" title="508" points="890.0698940752192,-1415.777571954661,890.0698940752185,-1350.6788273600062,1261.0970900843427,-1145.9741674928862,1312.4129063353366,-1238.975455425279,1318.9545814642431,-1238.9754554244596,1318.9545814642431,-1241.9565338254297,1349.454581464413,-1242.0272388027329,1349.4545814640874,-1479.0046313636283,1166.7146004992949,-1479.004631386516,994.4807972408549,-1574.0301780118596,965.4959811931793,-1521.495198925446,1057.856562984825,-1470.5376365564562,995.5406914340017,-1357.587920199983,890.0698940752192,-1415.777571954661" /><polygon id="50224300508A" title="508A" points="948.6204304922161,-1525.095332015239,891.1347749084057,-1420.90055256067,993.5729788356745,-1364.3840232257746,1051.0631160404107,-1468.575229642507,1022.560970206403,-1484.300551482326,1024.9763569210027,-1488.678439902436,993.455560296209,-1506.0692242475538,991.0401735816092,-1501.691335827444,948.6204304922161,-1525.095332015239" /><polygon id="50224300508B" title="508B" points="1013.1932220389253,-1631.504631382469,1013.1932220389253,-1607.946447958362,996.896183955096,-1578.408066431421,1013.610199984353,-1569.1865403463864,1011.194813269811,-1564.8086519262442,1042.7156098950609,-1547.4178675819535,1045.1309966093756,-1551.7957560016835,1168.0024099756276,-1484.0046313863547,1229.8287715145998,-1484.004631378611,1229.8287714961255,-1631.5046313824737,1013.1932220389253,-1631.504631382469" /><polygon id="50224300508C" title="508C" points="1234.8287714961257,-1631.5046313824737,1234.828771509058,-1528.2546313778312,1229.8287715090576,-1528.2546313778312,1229.8287715135666,-1492.254631377205,1234.8287715135666,-1492.2546313778312,1234.8287715145998,-1484.0046313779849,1242.8287715105137,-1484.0046313769828,1242.8287715105137,-1479.0046313769828,1278.8287715098875,-1479.0046313724738,1278.8287715105137,-1484.0046313724738,1356.4545814642497,-1484.0046313724729,1356.4545814642502,-1522.5000000000027,1352.4545814642433,-1522.500000000003,1352.4545814642433,-1631.5046313824764,1234.8287714961257,-1631.5046313824737" /><polygon id="50224300508D" title="508D" points="1315.36466891355,-1233.9754554247813,1311.4991489768465,-1226.9698505468737,1307.121355349809,-1229.3854090659465,1289.7293340124832,-1197.8652949512734,1294.1071276395214,-1195.4497364322003,1265.4770149668045,-1143.5576572129064,1274.5289979873692,-1138.563459684319,1274.5289979873685,-1118.272254456171,1350.5711177540031,-1118.2722544561716,1350.5711177540031,-1209.0000000000011,1318.9545814647936,-1209.0000000000011,1318.9545814636924,-1233.9754554240203,1315.36466891355,-1233.9754554247813" /><polygon id="50224300581A" title="581A" points="563.708581464245,-1310.2331939378407,563.7085814642472,-1144.983193937842,647.4585814642465,-1144.9831939378432,647.458581464248,-1310.2331939378419,563.708581464245,-1310.2331939378407" /><polygon id="50224300581C" title="581C" points="563.7085814642436,-1139.9831939378419,563.7085814642423,-1008.2331939378425,647.4585814642453,-1008.2331939378436,647.4585814642465,-1139.983193937843,563.7085814642436,-1139.9831939378419" /><polygon id="50224300581E" title="581E" points="563.7085814642423,-1003.2331939378427,563.7085814642408,-833.4831939378412,647.4585814642437,-833.4831939378421,647.4585814642452,-1003.2331939378436,563.7085814642423,-1003.2331939378427" /><polygon id="50224300579C" title="579C" points="652.4585814642448,-951.7331939378412,652.4585814642437,-833.4831939378422,767.708581464243,-833.4831939378433,767.7085814642442,-951.7331939378422,652.4585814642448,-951.7331939378412" /><polygon id="50224300579B" title="579B" points="837.0993471606071,-951.7331939378431,837.099347160606,-842.3504905321723,886.9545814642516,-842.3504905321729,886.9545814642515,-864.0000000000013,911.6179240983297,-864.0000000000011,970.4517380178054,-897.967718303861,912.5688346386902,-998.2238478460874,838.650225333639,-951.7331939378429,837.0993471606071,-951.7331939378431" /><polygon id="50224300579A" title="579A" points="927.9541257678525,-867.0808574703495,936.7333832793976,-851.861633051178,981.9866698821415,-877.9886302529867,973.2017380178056,-893.2045785830469,927.9541257678525,-867.0808574703495" /><polygon id="50224300579" title="579" points="824.9585814642451,-774.7331939378439,824.958581464245,-762.9831939378431,876.2085814642452,-762.983193937843,876.2085814642453,-724.2331939378429,888.4585814642451,-724.2331939378429,888.4585814642447,-704.4831939378447,901.5069099530868,-681.8828260413217,916.3486819070124,-681.8828260413218,1050.4934770268005,-759.3313596141156,984.7366698821413,-873.2254905321722,922.5993471606076,-837.3504905321734,919.9545814642435,-837.3504905321734,919.9545814642435,-831.0000000000011,886.9545814642516,-831.0000000000011,886.9545814642516,-837.3504905321729,832.099347160606,-837.3504905321723,832.0993471606072,-951.7331939378428,772.7085814642443,-951.7331939378423,772.7085814642423,-774.7331939378432,824.9585814642451,-774.7331939378439" /><polygon id="50224300579D" title="579D" points="772.7085814642423,-762.9831939378428,772.7085814642414,-670.9831939378429,876.2085814642448,-670.983193937844,876.2085814642452,-762.983193937843,772.7085814642423,-762.9831939378428" /><polygon id="50224300581" title="581" points="836.2694335366243,-956.7331939378428,899.3884614467895,-996.4315176642308,899.3884614467895,-1210.5000000000011,888.4545814642476,-1210.5000000000007,888.4545814642476,-1240.500000000001,895.3884614467904,-1240.500000000001,895.3884614467906,-1264.45791699517,812.420771988195,-1310.2331939378435,652.4585814642481,-1310.2331939378419,652.4585814642448,-956.7331939378411,836.2694335366243,-956.7331939378428" /><polygon id="50224300509C" title="509C" points="908.0134614467903,-1070.6263780981526,908.0134614467898,-1016.1139856618969,982.6288289631407,-886.8763780981544,1057.7668447500243,-886.8763780981545,1057.7668447500264,-1070.6263780981546,908.0134614467903,-1070.6263780981526" /><polygon id="50224300509" title="509" points="1035.816796901063,-794.7521152783299,1148.9642339702823,-860.0778185283573,1195.4642339702832,-860.0778185283579,1195.464233970285,-1098.8988700856567,992.0518756976323,-1211.1263780981544,924.099347160607,-1211.1263780981537,924.099347160607,-1210.5000000000011,908.0134614467916,-1210.5000000000014,908.0134614467902,-1075.6263780981526,1074.5168447500262,-1075.6263780981546,1074.5168447500264,-1070.6263780981546,1062.7668447500264,-1070.6263780981546,1062.7668447500243,-891.8763780981545,1074.5168447500264,-891.8763780981546,1074.5168447500264,-886.8763780981543,982.6288289631409,-886.8763780981544,1035.816796901063,-794.7521152783299" /><polygon id="50224300543" title="543" points="1102.0307039298937,-826.6298793644348,1143.537511074551,-754.7379805299228,1195.4642339702825,-784.7178879719073,1195.464233970283,-855.0778185283577,1151.303979932438,-855.0778185283574,1102.0307039298937,-826.6298793644348" /><polygon id="50224300510" title="510" points="1356.0086177540065,-1239.5000000000032,1356.0086177540031,-1118.2722544561718,1457.0249979873656,-1118.2722544561734,1457.024997987367,-1239.5000000000027,1356.0086177540065,-1239.5000000000032" /><polygon id="50224300509A" title="509A" points="1338.3824283365266,-1050.8982544561682,1200.4642339702848,-1050.8982544561666,1200.4642339702843,-995.0222544561717,1195.464233970284,-995.0222544561718,1195.464233970284,-959.0222544561718,1200.464233970284,-959.0222544561718,1200.4642339702837,-952.5222544561707,1338.3824283365257,-952.5222544561724,1338.3824283365266,-1050.8982544561682" /><polygon id="50224300509B" title="509B" points="1200.464233970283,-834.5000000000001,1318.9545814642474,-834.5000000000014,1318.9545814642474,-863.2500000000007,1338.382428336525,-863.2500000000011,1338.3824283365257,-943.3347544561722,1200.4642339702839,-943.3347544561706,1200.464233970283,-834.5000000000001" /><polygon id="50224300576" title="576" points="898.5249979873696,-534.6717263067123,898.5249979873686,-441.54572630671146,935.5249979873689,-441.5457263067118,935.5249979873684,-436.1482544561725,1039.7749979873686,-436.1482544561739,1039.7749979873697,-534.6717263067139,898.5249979873696,-534.6717263067123" /><polygon id="50224300568" title="568" points="898.5249979873686,-52.50000000000102,918.4545814642432,-52.50000000000102,918.4545814642436,-20.499999999999943,930.4545814642433,-20.500000000000036,930.4545814642433,-23.00000000000024,1056.0289979873678,-23.000000000000213,1056.0289979873696,-174.2722544561716,898.5249979873686,-174.27225445617137,898.5249979873686,-52.50000000000102" /><polygon id="50224300566" title="566" points="1061.0289979873696,-174.27225445617162,1061.0289979873696,-23.000000000000227,1159.5289979873678,-23.000000000000227,1159.5289979873694,-174.27225445617185,1061.0289979873696,-174.27225445617162" /><polygon id="50224300531" title="531" points="181.45458146424565,-1248.000000000001,58.931874862446875,-1248.000000000001,58.931874862446875,-1203.6600217128016,25.45458146424164,-1203.6600217128016,25.45458146424164,-1038.3591939378443,181.45458146424565,-1038.3591939378443,181.45458146424565,-1248.000000000001" /><polygon id="50224300536" title="536" points="181.45458146424335,-1033.3591939378443,25.454581464241812,-1033.3591939378443,25.454581464241812,-864.0000000000017,55.9545814642448,-864.0000000000016,55.9545814642448,-831.0000000000011,25.45458146424204,-831.0000000000011,25.45458146424204,-725.0000000000018,174.45458146424338,-725.0000000000018,174.45458146424338,-733.5000000000008,202.45458146424494,-733.5000000000009,202.45458146424494,-829.5000000000017,181.45458146424392,-829.5000000000017,181.45458146424335,-1033.3591939378443" /><polygon id="50224300539" title="539" points="186.70458146424394,-836.5000000000018,256.45458146424386,-836.5000000000018,256.45458146424386,-908.488199201264,186.70458146424394,-908.488199201264,186.70458146424394,-836.5000000000018" /><polygon id="50224300538" title="538" points="256.4545814642438,-915.488199201264,256.4545814642438,-1033.3591939378443,186.70458146424338,-1033.3591939378443,186.70458146424338,-915.488199201264,256.4545814642438,-915.488199201264" /><polygon id="50224300540" title="540" points="261.704581464244,-836.5000000000018,309.70458146424323,-836.5000000000018,309.70458146424323,-896.7500000000007,358.45458146424744,-896.7500000000007,358.45458146424744,-973.5000000000018,298.4545814642472,-973.5000000000018,298.4545814642472,-978.500000000002,358.45458146424727,-978.500000000002,358.45458146424727,-1056.5,261.70458146424335,-1056.5,261.704581464244,-836.5000000000018" /><polygon id="50224300542" title="542" points="424.454581464247,-973.5000000000018,382.45458146424335,-973.5000000000018,382.45458146424335,-896.7500000000009,408.4545814642434,-896.7500000000009,408.4545814642435,-835.7500000000009,453.45458146424335,-835.7500000000009,453.45458146424335,-865.5000000000014,483.7045814642432,-865.5000000000014,483.7045814642432,-1056.5000000000011,382.45458146424323,-1056.5000000000011,382.45458146424323,-978.5000000000019,424.454581464247,-978.5000000000019,424.454581464247,-973.5000000000018" /><polygon id="50224300580" title="580" points="455.9545814642458,-532.0000000000019,455.9545814642458,-538.2500000000008,414.45458146424374,-538.2500000000008,414.45458146424374,-454.2500000000016,455.9545814642458,-454.2500000000016,455.95458146424585,-460.49999999999943,498.9545814642429,-460.49999999999943,498.9545814642429,-396.7500000000001,885.4545814642449,-396.7500000000001,885.4545814642449,-617.9831939378428,890.4384278691705,-617.9831939378428,890.4384278691705,-665.9831939378442,767.708581464243,-665.9831939378442,767.708581464243,-828.4831939378433,487.9545814642431,-828.4831939378404,487.9545814642431,-829.5000000000009,403.4545814642434,-829.5000000000018,403.4545814642434,-890.5000000000009,313.7045814642434,-890.5000000000009,313.7045814642434,-829.5000000000018,312.4545814642446,-829.5000000000018,312.4545814642446,-733.5000000000008,414.4545814642433,-733.5000000000008,414.4545814642433,-543.2499999999997,498.95458146424323,-543.2499999999997,498.9545814642433,-532.0000000000019,455.9545814642458,-532.0000000000019" /><polygon id="50224300594" title="594" points="294.4545814642461,-685.5000000000009,191.45458146424562,-685.5000000000009,191.45458146424562,-591.5000000000005,294.4545814642461,-591.5000000000005,294.4545814642461,-685.5000000000009" /><polygon id="50224300593" title="593" points="294.4545814642461,-685.5000000000009,294.4545814642461,-591.5000000000045,397.4545901922852,-591.5000000000045,397.4545901922852,-685.5000000000009,294.4545814642461,-685.5000000000009" /><polygon id="50224300537" title="537" points="414.45458146424374,-460.2500000000011,414.45458146424374,-532.2500000000011,397.4545814642462,-532.2500000000011,397.4545814642462,-581.5000000000015,186.4545814642436,-581.5000000000015,186.4545814642436,-401.4999999999996,397.4545814642462,-401.4999999999996,397.45458146424625,-460.2500000000011,414.45458146424374,-460.2500000000011" /><polygon id="50224300591" title="591" points="294.45458146424426,-297.50000000000074,294.45458146424426,-391.4999999999995,191.45459019228517,-391.4999999999995,191.45459019228517,-297.50000000000074,294.45458146424426,-297.50000000000074" /><polygon id="50224300592" title="592" points="294.45458146424426,-297.5000000000009,397.4545901922852,-297.5000000000009,397.4545901922852,-391.5000000000009,294.45458146424426,-391.5000000000009,294.45458146424426,-297.5000000000009" /><polygon id="50224300505" title="505" points="489.4545814642432,-1267.483193937842,489.4545814642432,-833.483193937841,558.7085814642408,-833.483193937841,558.7085814642408,-1267.483193937842,489.4545814642432,-1267.483193937842" /><polygon id="50224300596" title="596" points="336.4545814642452,-1301.5000000000007,336.4545814642452,-1066.5000000000011,444.45458146424505,-1066.5000000000011,444.45458146424505,-1301.5000000000007,336.4545814642452,-1301.5000000000007" /><polygon id="50224300599" title="599" points="326.4545814642446,-1163.000000000001,326.4545814642446,-1259.5000000000007,191.4545814642457,-1259.5000000000007,191.4545814642457,-1163.000000000001,326.4545814642446,-1163.000000000001" /><polygon id="50224300598" title="598" points="326.4545814642446,-1163.000000000001,191.4545814642448,-1163.000000000001,191.4545814642448,-1066.5000000000002,326.4545814642446,-1066.5000000000002,326.4545814642446,-1163.000000000001" /><polygon id="50224300502" title="502" points="244.69322203892537,-1453.138544634622,244.69322203892537,-1381.3885446346228,340.19322203892534,-1381.3885446346228,340.19322203892534,-1453.138544634622,244.69322203892537,-1453.138544634622" /><polygon id="50224300564" title="564" points="1164.528997987368,-23.0000000000002,1263.0289979873687,-23.0000000000002,1263.0289979873687,-165.7722544561711,1230.0289979873687,-165.7722544561711,1230.0289979873687,-174.2722544561718,1164.5289979873694,-174.2722544561718,1164.528997987368,-23.0000000000002" /><polygon id="50224300563" title="563" points="1268.028997987369,-174.27225445617194,1268.028997987369,-22.999999999999645,1318.9545814642474,-22.999999999999645,1318.9545814642474,-54.000000000000455,1351.9545814642393,-54.000000000000455,1351.9545814642393,-23.000000000000227,1430.0289979873694,-23.000000000000227,1430.0289979873694,-174.27225445617222,1268.028997987369,-174.27225445617194" /><polygon id="50224300562" title="562" points="1435.0289979873678,-23.00000000000037,1593.0249979873686,-23.00000000000037,1593.0249979873686,-174.27225445617233,1435.0289979873678,-174.27225445617233,1435.0289979873678,-23.00000000000037" /><polygon id="50224300561" title="561" points="1598.0249979873684,-174.27225445617248,1598.0249979873665,-23.000000000000227,1700.2749979873688,-23.000000000000227,1700.2749979873688,-167.8982544561725,1667.0249979873686,-167.89825445617268,1667.0249979873686,-174.27225445617248,1598.0249979873684,-174.27225445617248" /><polygon id="50224300560" title="560" points="1705.274997987369,-174.27225445617265,1705.274997987369,-22.99999999999966,1750.9545814642474,-22.99999999999966,1750.9545814642474,-54.00000000000046,1783.9545814642395,-54.00000000000046,1783.9545814642395,-23.000000000000227,1870.5249979873665,-23.000000000000227,1870.5249979873665,-174.2722544561725,1705.274997987369,-174.27225445617265" /><polygon id="50224300558" title="558" points="1875.5249979873686,-174.27225445617293,1875.5249979873686,-23.000000000000227,1971.7749979873672,-23.000000000000227,1971.7749979873672,-174.27225445617293,1875.5249979873686,-174.27225445617293" /><polygon id="50224300556" title="556" points="1976.7749979873695,-174.2722544561731,1976.7749979873695,-23.0000000000002,2079.5249979873665,-23.0000000000002,2079.5249979873665,-174.2722544561731,1976.7749979873695,-174.2722544561731" /><polygon id="50224300554" title="554" points="2084.5249979873665,-23.000000000000227,2184.6499979873656,-23.000000000000227,2184.6499979873656,-174.27225445617344,2084.5249979873665,-174.27225445617344,2084.5249979873665,-23.000000000000227" /><polygon id="50224300552" title="552" points="2321.954581464245,-59.12600000000202,2321.954581464245,-241.6482544561709,2190.1499979873665,-241.64825445617458,2190.1499979873665,-23.000000000000227,2290.075581464247,-23.000000000000227,2290.075581464247,-59.12600000000202,2321.954581464245,-59.12600000000202" /><polygon id="50224300551" title="551" points="2190.149997987367,-246.64825445617458,2321.954581464245,-246.64825445617458,2321.954581464245,-331.6482544561708,2190.149997987367,-331.6482544561708,2190.149997987367,-246.64825445617458" /><polygon id="50224300550" title="550" points="2290.075581464247,-453.78886784084375,2190.149997987369,-453.78886784084375,2190.1499979873674,-337.39825445617424,2321.954581464245,-337.39825445617424,2321.954581464245,-398.57342048150076,2290.075581464247,-398.57342048150076,2290.075581464247,-453.78886784084375" /><polygon id="50224300546" title="546" points="2190.14999798737,-572.8399843650586,2190.14999798737,-458.7888678408402,2321.954581464245,-458.7888678408402,2321.954581464245,-615.7888678408444,2219.422421361959,-615.7888678408447,2190.14999798737,-572.8399843650586" /><polygon id="50224300544" title="544" points="2219.4025721293383,-621.0388678408444,2321.954581464245,-621.0388678408444,2321.954581464245,-778.2799914263542,2189.8999979873674,-778.2799914263542,2189.8999979873674,-663.8417827845285,2219.4025721293383,-621.0388678408444" /><polygon id="50224300532" title="532" points="2189.6499979873643,-783.9049914263574,2321.954581464245,-783.9049914263574,2321.954581464245,-829.6629045778009,2290.0755814642457,-829.6629045778009,2290.0755814642457,-869.1260000000023,2321.954581464245,-869.1260000000023,2321.954581464245,-941.6482544561704,2189.6499979873643,-941.6482544561704,2189.6499979873643,-783.9049914263574" /><polygon id="50224300530" title="530" points="2189.6499979873684,-1115.8982544561718,2189.6499979873684,-945.6482544561703,2321.9545814642456,-945.6482544561703,2321.9545814642456,-1115.8982544561718,2189.6499979873684,-1115.8982544561718" /><polygon id="50224300524" title="524" points="2128.149997987369,-1239.5000000000032,2128.149997987369,-1118.2722544561823,2184.6499979873684,-1118.2722544561823,2184.649997987368,-1120.6482544561718,2321.954581464245,-1120.6482544561734,2321.954581464245,-1208.5734204815008,2290.0755814642457,-1208.5734204815008,2290.075581464248,-1239.5000000000032,2128.149997987369,-1239.5000000000032" /><polygon id="50224300522" title="522" points="2031.2749979873695,-1239.500000000003,2031.2749979873695,-1118.2722544561814,2123.1499979873656,-1118.2722544561814,2123.1499979873656,-1239.500000000003,2031.2749979873695,-1239.500000000003" /><polygon id="50224300518" title="518" points="1923.2749979873688,-1239.5000000000032,1923.2749979873688,-1118.2722544561802,2026.5249979873656,-1118.2722544561802,2026.5249979873656,-1239.5000000000032,1923.2749979873688,-1239.5000000000032" /><polygon id="50224300516" title="516" points="1919.024997987369,-1239.5000000000032,1784.833581464237,-1239.5000000000032,1784.833581464237,-1208.5734204815005,1769.2749979873688,-1208.5734204815003,1769.2749979873688,-1118.272254456179,1919.0249979873659,-1118.272254456179,1919.024997987369,-1239.5000000000032" /><polygon id="50224300514" title="514" points="1615.7749979873693,-1239.5000000000032,1615.7749979873659,-1118.2722544561752,1764.2749979873688,-1118.2722544561752,1764.2749979873688,-1208.5734204815003,1750.0755814642498,-1208.5734204815003,1750.0755814642498,-1239.5000000000032,1615.7749979873693,-1239.5000000000032" /><polygon id="50224300512" title="512" points="1462.0249979873656,-1118.2722544561734,1610.024997987369,-1118.2722544561734,1610.024997987369,-1239.5000000000032,1462.0249979873656,-1239.5000000000032,1462.0249979873656,-1118.2722544561734" /><polygon id="50224300511" title="511" points="1403.3824283365266,-1050.8982544561686,1403.3824283365266,-959.8982544561732,1512.3824283365266,-959.8982544561732,1512.3824283365266,-1050.8982544561686,1403.3824283365266,-1050.8982544561686" /><polygon id="50224300513" title="513" points="1517.3824283365266,-1050.89825445617,1517.3824283365266,-959.8982544561744,1620.1284283365255,-959.8982544561744,1620.1284283365255,-1050.89825445617,1517.3824283365266,-1050.89825445617" /><polygon id="50224300525" title="525" points="2035.0966090231539,-951.3982544561729,2035.0966090231539,-882.1482544561741,2119.8999979873674,-882.1482544561741,2119.8999979873674,-951.3982544561729,2035.0966090231539,-951.3982544561729" /><polygon id="50224300526" title="526" points="2119.8999979873674,-877.148254456174,2035.0966090231518,-877.148254456174,2035.0966090231518,-805.1482544561758,2119.8999979873674,-805.1482544561758,2119.8999979873674,-877.148254456174" /><polygon id="50224300527" title="527" points="2027.0966090231518,-805.1482544561757,2027.0966090231518,-951.3982544561718,1938.5249979873697,-951.3982544561718,1938.5249979873697,-805.1482544561757,2027.0966090231518,-805.1482544561757" /><polygon id="50224300559" title="559" points="1858.274997987368,-245.8982544561716,1948.274997987369,-245.8982544561716,1948.274997987369,-336.89825445617515,1858.274997987368,-336.89825445617515,1858.274997987368,-245.8982544561716" /><polygon id="50224300557" title="557" points="1953.274997987368,-245.89825445617245,2013.274997987369,-245.89825445617245,2013.274997987369,-336.898254456176,1953.274997987368,-336.898254456176,1953.274997987368,-245.89825445617245" /><polygon id="50224300555" title="555" points="2018.2749979873677,-245.8982544561733,2078.5249979873693,-245.8982544561733,2078.5249979873693,-336.89825445617663,2018.2749979873677,-336.89825445617663,2018.2749979873677,-245.8982544561733" /><polygon id="50224300571" title="571" points="898.5249979873686,-224.64825445617248,898.5249979873686,-179.2722544561716,965.774997987477,-179.2722544561716,965.774997987477,-224.64825445617248,898.5249979873686,-224.64825445617248" /><polygon id="50224300572" title="572" points="1039.7749979873665,-229.64825445617416,1039.7749979873665,-319.39825445617157,898.5249979873686,-319.39825445617157,898.5249979873686,-229.64825445617416,1039.7749979873665,-229.64825445617416" /><polygon id="50224300577" title="577" points="1109.7749979873681,-478.3534277371314,1109.7749979873681,-416.64825445617237,1199.7749979873684,-416.6482544561728,1199.7749979873693,-510.5115031102243,1146.1998530923267,-541.4431274372495,1109.7749979873681,-478.3534277371314" /><polygon id="50224300586" title="586" points="1519.9545814642427,-728.5028916139362,1472.4545814642433,-728.5028916139362,1472.4545814642433,-590.2500000000009,1401.4545814642483,-590.2500000000009,1401.4545814642483,-492.25000000000125,1472.4545814642433,-492.25000000000125,1472.4545814642433,-483.5000000000008,1519.9545814642427,-483.5000000000008,1519.9545814642427,-728.5028916139362" /><polygon id="50224300587" title="587" points="1526.4545814642433,-483.500000000001,1631.4545814642463,-483.500000000001,1631.4545814642463,-728.5000000000009,1526.4545814642433,-728.5000000000009,1526.4545814642433,-483.500000000001" /><polygon id="50224300589" title="589" points="1641.454581464246,-723.5000000000008,1641.454581464246,-488.50000000000125,1749.4545814642456,-488.50000000000125,1749.4545814642456,-723.5000000000008,1641.454581464246,-723.5000000000008" /><polygon id="50224300501" title="501" points="25.454581464240942,-1640.8750427229393,25.454581464241155,-1419.8885446346226,239.6932220389254,-1419.8885446346226,239.69322203892537,-1458.1385446346221,340.19322203892534,-1458.1385446346221,340.19322203892534,-1672.0000000000055,56.07558146424526,-1672.0000000000055,56.07558146424529,-1640.875042722937,25.454581464240942,-1640.8750427229393" /><polygon id="50224300504" title="504" points="239.6932220389253,-1376.3885446346226,239.6932220389253,-1414.8885446346226,119.19322203892534,-1414.8885446346228,119.19322203892534,-1376.3885446346228,114.19322203892533,-1376.3885446346228,114.19322203892533,-1414.8885446346228,25.454581464241386,-1414.8885446346228,25.454581464241386,-1254.000000000001,181.45458146424568,-1254.000000000001,181.45458146424568,-1311.5000000000016,489.4545814642432,-1311.500000000001,489.4545814642432,-1272.4831939378432,558.7085814642447,-1272.4831939378432,558.7085814642447,-1315.233193937844,813.7085814642452,-1315.2331939378437,873.9545814642441,-1353.8595187447927,873.9545814642444,-1376.3885446346228,239.6932220389253,-1376.3885446346226" /><polygon id="50224300520" title="520" points="1269.5289979873694,-1113.272254456171,1269.5289979873694,-1055.8982544561682,2184.649997987368,-1055.898254456173,2184.649997987368,-1113.272254456182,1269.5289979873694,-1113.272254456171" /><polygon id="50224300570" title="570" points="1264.7749979873672,-240.89825445617194,1264.7749979873672,-179.27225445617344,2184.649997987366,-179.27225445617344,2184.649997987366,-240.89825445617194,1264.7749979873672,-240.89825445617194" /><polygon id="50224300529" title="529" points="2124.6499979873693,-240.8982544561719,2184.649997987369,-240.89825445617188,2184.6499979873674,-573.6482544562181,2215.1499979873665,-618.39825445617,2184.649997987367,-662.6482544561744,2184.6499979873693,-1055.8982544561727,2124.6499979873693,-1055.898254456173,2124.6499979873693,-240.8982544561719" /><polygon id="50224300575" title="575" points="970.774997987477,-224.648254456174,970.774997987477,-179.27225445617142,1264.7749979873672,-179.27225445617142,1264.7749979873674,-411.6482544561728,1044.7749979873668,-411.6482544561727,1044.7749979873665,-224.648254456174,970.774997987477,-224.648254456174" /><polygon id="50224300578" title="578" points="1039.346657970475,-539.6717263067139,1044.7749979873695,-539.6717263067139,1044.7749979873688,-411.6482544561725,1104.7749979873681,-411.6482544561722,1104.7749979873681,-479.6931736992876,1179.4257923795421,-608.9921424119011,1179.425792379543,-685.1120951750631,1141.4957847180503,-747.208336307299,1097.278934102038,-823.8601683955045,1044.423888560297,-793.370569003642,1063.4306957049573,-760.4498133394279,918.6884278691682,-676.8828260413218,895.4384278691704,-676.8828260413218,895.4384278691704,-610.6328260413216,916.4384278691695,-610.6328260413216,1039.346657970475,-539.6717263067139" /><polygon id="50224300584" title="584" points="886.4545814642463,-1912.5000000000007,886.4545814642463,-1672.5000000000002,918.4545814642435,-1672.5000000000002,918.4545814642435,-1641.5046313824716,1320.4545814642433,-1641.5046313824716,1320.4545814642433,-1672.500000000001,1352.4545814642433,-1672.500000000001,1352.4545814642433,-1912.500000000001,1320.4545814642433,-1912.500000000001,1320.4545814642433,-1944.4999999999998,918.4545814642435,-1944.4999999999998,918.4545814642435,-1912.5000000000007,886.4545814642463,-1912.5000000000007" /><polygon id="50224300545" title="545" points="2119.149997987367,-728.5000000000032,2010.5249979873672,-728.5000000000032,2010.5249979873672,-656.0000000000016,2119.149997987367,-656.0000000000016,2119.149997987367,-728.5000000000032" /><polygon id="50224300549" title="549" points="1840.7749979873654,-568.0000000000008,1840.7749979873654,-596.0000000000008,1759.4545901922877,-596.0000000000008,1759.4545901922877,-503.9999999999995,1783.9545814642397,-503.9999999999995,1783.9545814642397,-498.9999999999998,1759.4545814642456,-498.9999999999997,1759.4545814642456,-444.0153624222549,1783.9545814642395,-444.0153624222549,1783.9545814642395,-399.01536242225484,1754.4545814642465,-399.01536242225484,1754.4545814642465,-341.8982544561774,2119.149997987364,-341.8982544561773,2119.149997987364,-651.0000000000003,2005.0249979873665,-651.0000000000003,2005.0249979873665,-728.5000000000007,1846.274997987367,-728.5000000000007,1846.2749979873652,-568.0000000000008,1840.7749979873654,-568.0000000000008" /><polygon id="50224300565" title="565" points="1466.4545901922847,-487.2500000000008,1397.704581464248,-487.2500000000008,1397.704581464248,-314.14825445617254,1373.7045814642465,-314.14825445617254,1373.7045814642465,-245.8982544561772,1853.2749979873677,-245.89825445617862,1853.2749979873677,-336.8982544561733,1754.4545814642458,-336.8982544561733,1754.4545814642458,-312.8982544561786,1749.4545814642458,-312.8982544561786,1749.4545814642458,-449.50000000000074,1466.4545901922847,-449.50000000000074,1466.4545901922847,-487.2500000000008" /><polygon id="50224300567" title="567" points="1269.7749979873684,-314.1482544561713,1269.7749979873684,-245.8982544561732,1368.7045814642456,-245.8982544561732,1368.7045814642456,-314.1482544561713,1269.7749979873684,-314.1482544561713" /><polygon id="50224300569" title="569" points="1318.9545814642474,-399.0000000000018,1318.9545814642474,-412.1482544561731,1269.7749979873681,-412.1482544561731,1269.7749979873681,-319.1482544561713,1392.704581464246,-319.1482544561726,1392.704581464246,-412.1482544561734,1351.9545814642393,-412.1482544561734,1351.9545814642393,-399.0000000000018,1318.9545814642474,-399.0000000000018" /><polygon id="50224300547" title="547" points="1759.4545814642454,-728.4999999999998,1759.4545814642454,-601.0000000000008,1840.7749979873652,-601.0000000000008,1840.7749979873652,-728.4999999999998,1759.4545814642454,-728.4999999999998" /><polygon id="50224300573" title="573" points="1351.9545814642393,-417.1482544561739,1392.7045814642472,-417.1482544561739,1392.7045814642481,-492.2500000000009,1396.4545814642495,-492.2500000000009,1396.4545814642495,-595.2500000000009,1433.7045901922834,-595.2500000000009,1433.7045901922834,-728.5000000000008,1264.5758479703072,-728.5000000000011,1184.425792379543,-682.225343829115,1184.4257923795424,-613.4258991416419,1259.9482816923012,-569.8229696070512,1257.4482816923014,-565.492842588129,1184.4257923795428,-607.6523964497457,1148.6998530923267,-545.7732544561718,1204.7749979873695,-513.3982544561724,1204.7749979873695,-411.6482544561728,1264.774997987369,-411.6482544561728,1264.774997987369,-417.14825445617316,1318.9545814642474,-417.14825445617316,1318.9545814642474,-432.00000000000074,1351.9545814642393,-432.00000000000074,1351.9545814642393,-417.1482544561739" /><polygon id="50224300553" title="553" points="2083.5249979873693,-336.89825445617674,2083.5249979873693,-245.89825445617473,2119.1499979873624,-245.89825445617473,2119.1499979873624,-336.89825445617674,2083.5249979873693,-336.89825445617674" /><polygon id="50224300519" title="519" points="1771.704581464246,-1050.8982544561725,1771.704581464246,-1002.8982544561735,1933.5249979873697,-1002.8982544561735,1933.5249979873697,-1050.8982544561725,1771.704581464246,-1050.8982544561725" /><polygon id="50224300528" title="528" points="1933.5249979873702,-992.3982544561735,1780.4545814642458,-992.3982544561735,1780.4545814642458,-959.3982544561726,1771.7045814642445,-959.3982544561726,1771.7045814642445,-894.1482544561726,1784.0755814642455,-894.1482544561726,1784.0755814642455,-831.000000000003,1755.9545814642472,-831.000000000003,1755.9545814642472,-805.1482544561749,1933.5249979873674,-805.1482544561749,1933.5249979873702,-992.3982544561735" /><polygon id="50224300517" title="517" points="1430.882428336525,-954.8982544561723,1430.882428336525,-805.148254456172,1685.9545814642443,-805.148254456172,1685.9545814642443,-954.8982544561723,1430.882428336525,-954.8982544561723" /><polygon id="50224300535" title="535" points="1343.3824283365268,-1055.8982544561682,1343.3824283365252,-886.022254456182,1365.8824283365248,-886.022254456182,1365.8824283365248,-829.5000000000003,1425.882428336524,-829.5000000000003,1425.882428336525,-954.8982544561723,1398.3824283365261,-954.8982544561723,1398.3824283365261,-1055.8982544561682,1343.3824283365268,-1055.8982544561682" /><polygon id="50224300533" title="533" points="1766.7045814642463,-959.8982544561744,1722.1284283365264,-959.8982544561744,1722.1284283365264,-954.8982544561751,1690.954581464246,-954.8982544561751,1690.9545814642454,-800.1482544561702,1750.954581464247,-800.1482544561702,1750.954581464247,-894.1482544561725,1766.7045814642443,-894.1482544561725,1766.7045814642463,-959.8982544561744" /><polygon id="50224300534" title="534" points="1425.882428336523,-800.1482544561702,1425.882428336523,-829.5,1200.4642339702827,-829.5,1200.4642339702823,-781.2537863567692,1141.4957847180538,-747.2083363072928,1179.425792379543,-685.1120951750632,1263.2361020081564,-733.5000000000038,2124.649997987369,-733.5000000000038,2124.6499979873693,-800.1482544561702,1425.882428336523,-800.1482544561702" /><polygon id="50224300574" title="574" points="1039.774997987368,-357.89825445617265,1039.7749979873688,-431.1482544561739,935.5249979873638,-431.1482544561739,935.5249979873638,-389.45427369328917,898.5249979873686,-389.45427369328945,898.5249979873686,-324.3982544561731,1030.7749979873686,-324.3982544561731,1030.7749979873686,-357.89825445617265,1039.774997987368,-357.89825445617265" /><polygon id="50224300507" title="507" points="873.9545814642443,-1353.859518744793,813.7085814642456,-1315.2331939378437,1200.464233970285,-1101.8507649689939,1200.464233970284,-1055.8982544561666,1269.5289979873694,-1055.8982544561673,1269.528997987369,-1135.6115648009816,873.9545814642443,-1353.859518744793" /><polygon id="50224300515" title="515" points="1632.1284283365264,-1055.8982544561713,1632.1284283365264,-1050.898254456171,1625.1284283365267,-1050.898254456171,1625.1284283365267,-959.8982544561754,1766.704581464245,-959.8982544561754,1766.7045814642463,-1055.8982544561713,1632.1284283365264,-1055.8982544561713" /><polygon id="50224300521" title="521" points="1938.5249979873695,-1050.8982544561748,1938.5249979873695,-961.1482544561718,2029.2124979873693,-961.1482544561718,2029.2124979873693,-1050.8982544561748,1938.5249979873695,-1050.8982544561748" /><polygon id="50224300523" title="523" points="2119.8999979873697,-1050.8982544561763,2034.2124979873688,-1050.8982544561763,2034.2124979873688,-961.148254456173,2119.8999979873697,-961.148254456173,2119.8999979873697,-1050.8982544561763" /></svg>
