<svg version="1.1" id="Map" class="gen-by-synoptic-designer" xmlns="http://www.w3.org/2000/svg" xmlns:xlink="http://www.w3.org/1999/xlink" viewBox="1041.6250000000016 2.0000000000009095 1789.8750000000066 2535.750000000002" xml:space="preserve"><image width="1789.8750000000066" height="2535.750000000002" xlink:href=""/><polygon id="50224300EC030" title="EC030" points="1898.2500000000084,388.0000000000018,1898.2500000000086,2.000000000000682,1041.6250000000016,2.000000000000682,1041.6250000000016,388.0000000000018,1898.2500000000084,388.0000000000018" /><polygon id="50224300EC029A" title="EC029A" points="1082.3750000000082,433.1250000000018,1082.3750000000082,399.500000000002,1041.6250000000016,399.500000000002,1041.6250000000016,699.7500000000014,1082.3750000000082,699.7500000000014,1082.3750000000082,664.8750000000018,1117.7500000000068,664.8750000000018,1117.7500000000068,433.1250000000018,1082.3750000000082,433.1250000000018" /><polygon id="50224300EC029" title="EC029" points="1122.7500000000068,399.5000000000018,1122.7500000000068,699.7500000000013,1218.2500000000068,699.7500000000013,1218.2500000000068,399.5000000000018,1122.7500000000068,399.5000000000018" /><polygon id="50224300EC021" title="EC021" points="1514.7500000000068,399.50000000000176,1223.2500000000068,399.50000000000176,1223.2500000000068,603.7500000000019,1550.2500000000073,603.7500000000019,1550.2500000000073,435.25000000000216,1514.7500000000068,435.2500000000022,1514.7500000000068,399.50000000000176" /><polygon id="50224300EC028" title="EC028" points="1041.6250000000016,704.7500000000014,1041.6250000000016,765.2500000000014,1117.7500000000068,765.2500000000014,1117.7500000000068,704.7500000000014,1041.6250000000016,704.7500000000014" /><polygon id="50224300EC032" title="EC032" points="1218.2500000000068,890.0153370895415,1218.2500000000068,704.7505000000015,1122.7500000000068,704.7505000000015,1122.7500000000068,1026.5000000000016,1217.0000000000082,1026.5000000000016,1217.0000000000082,986.0153370895413,1248.5000000000082,986.0153370895415,1248.5000000000082,1026.5000000000014,1369.0000000000082,1026.5000000000014,1369.0000000000082,986.0153370895413,1478.2500000000082,986.0153370895416,1478.2500000000082,1006.7806741790812,1508.2500000000082,1006.7806741790812,1508.2500000000082,986.0153370895413,1797.2500000000082,986.0153370895413,1797.2500000000082,890.0153370895415,1218.2500000000068,890.0153370895415" /><polygon id="50224300EC024" title="EC024" points="1041.6250000000016,770.2500000000014,1041.6250000000016,1026.5000000000016,1117.7500000000068,1026.5000000000016,1117.7500000000068,770.2500000000014,1041.6250000000016,770.2500000000014" /><polygon id="50224300EC027" title="EC027" points="1223.2500000000068,765.2653370895415,1541.1250000000082,765.2653370895415,1541.1250000000082,702.0000000000018,1514.3750000000082,702.0000000000018,1514.3750000000082,662.5000000000018,1550.250000000007,662.5000000000018,1550.250000000007,608.7500000000019,1223.2500000000066,608.7500000000019,1223.2500000000068,765.2653370895415" /><polygon id="50224300EC023" title="EC023" points="1573.250000000007,770.2653370895415,1223.2500000000068,770.2653370895415,1223.2500000000068,885.0153370895415,1638.2500000000066,885.0153370895414,1638.2500000000066,770.2653370895415,1578.2500000000068,770.2653370895415,1578.250000000007,837.0153370895414,1573.250000000007,837.0153370895414,1573.250000000007,770.2653370895415" /><polygon id="50224300EC019P" title="EC019P" points="1555.265625000007,704.7653370895413,1555.265625000007,765.2653370895417,1638.2500000000068,765.2653370895417,1638.2500000000068,704.7653370895413,1555.265625000007,704.7653370895413" /><polygon id="50224300EC019O" title="EC019O" points="1638.2500000000068,699.7653370895413,1638.2500000000068,633.0153370895413,1555.2500000000073,633.0153370895413,1555.2500000000073,699.7653370895413,1638.2500000000068,699.7653370895413" /><polygon id="50224300EC019K" title="EC019K" points="1577.5000000000082,400.6403370895414,1577.5000000000082,424.5153370895413,1555.250000000007,424.5153370895413,1555.250000000007,628.0153370895413,1695.7500000000082,628.0153370895413,1695.750000000008,400.6403370895414,1577.5000000000082,400.6403370895414" /><polygon id="50224300EC019J" title="EC019J" points="1700.7500000000084,400.6403370895415,1700.7500000000084,558.3903370895414,1893.2500000000086,558.3903370895414,1893.2500000000086,400.6403370895415,1700.7500000000084,400.6403370895415" /><polygon id="50224300EC019" title="EC019" points="1893.2500000000086,563.3903370895414,1700.7500000000082,563.3903370895414,1700.7500000000082,628.0153370895413,1797.2500000000082,628.0153370895413,1797.250000000008,837.3903370895414,1882.7500000000082,837.3903370895414,1882.7500000000082,750.1403370895414,1893.2500000000086,750.1403370895414,1893.2500000000086,563.3903370895414" /><polygon id="50224300EC019M" title="EC019M" points="1703.2500000000066,793.7653370895412,1703.2500000000066,885.0153370895416,1792.250000000008,885.0153370895416,1792.250000000008,793.7653370895412,1703.2500000000066,793.7653370895412" /><polygon id="50224300EC019N" title="EC019N" points="1643.2500000000068,800.7653370895413,1643.2500000000068,885.0153370895417,1698.2500000000068,885.0153370895417,1698.2500000000068,800.7653370895413,1643.2500000000068,800.7653370895413" /><polygon id="50224300EC019L" title="EC019L" points="1797.2500000000082,756.0153370895413,1797.2500000000082,675.2653370895413,1762.2500000000082,675.2653370895413,1762.2500000000082,670.2653370895413,1792.2500000000082,670.2653370895413,1792.2500000000082,633.0153370895413,1643.2500000000068,633.0153370895413,1643.2500000000068,788.7653370895413,1792.2500000000082,788.7653370895413,1792.2500000000082,761.0153370895413,1762.2500000000082,761.0153370895413,1762.2500000000082,756.0153370895413,1797.2500000000082,756.0153370895413" /><polygon id="50224300EC019C" title="EC019C" points="2395.000000000008,521.7500000000026,2395.000000000008,434.2500000000017,2377.500000000008,434.2500000000017,2377.500000000008,414.25000000000165,1985.5000000000105,414.25000000000165,1985.5000000000105,434.2500000000017,1945.5000000000082,434.2500000000017,1945.5000000000082,414.2500000000016,1898.2500000000086,414.2500000000016,1898.2500000000086,521.7500000000017,2395.000000000008,521.7500000000026" /><polygon id="50224300EC019D" title="EC019D" points="2056.37500000001,540.8750000000027,2056.37500000001,686.2742220895059,2104.6253705704225,738.562469452582,2375.375000000008,738.562469452582,2375.375000000008,540.8750000000027,2056.37500000001,540.8750000000027" /><polygon id="50224300EC019B" title="EC019B" points="1986.2500000000084,688.7500000000018,2037.2500000000093,688.7500000000018,2037.2500000000093,526.7500000000018,1951.2500000000084,526.7500000000017,1951.2500000000086,552.5000000000018,1946.2500000000084,552.5000000000018,1946.2500000000084,526.7500000000017,1898.2500000000086,526.7500000000017,1898.2500000000086,704.0000000000018,1946.2500000000084,704.0000000000018,1946.2500000000084,664.0000000000018,1986.2500000000084,664.0000000000018,1986.2500000000084,688.7500000000018" /><polygon id="50224300EC019A" title="EC019A" points="2042.8448275862156,907.0000000000018,2096.250000000008,849.1874694525865,2096.250000000009,757.6874694525833,2037.2500000000084,693.7500000000022,1986.2500000000084,693.7500000000022,1986.2500000000082,704.0000000000018,1898.2500000000084,704.0000000000018,1898.2500000000086,755.1403370895414,1882.7500000000082,755.1403370895414,1882.7500000000082,837.3903370895414,1898.2500000000084,837.3903370895414,1898.2500000000084,898.5000000000018,1986.2500000000084,898.5000000000018,1986.2500000000084,907.0000000000018,2042.8448275862156,907.0000000000018" /><polygon id="50224300EC019E" title="EC019E" points="2101.250000000008,757.6874694525825,2101.250000000008,848.1874694525832,2395.000000000008,848.1874694525832,2395.000000000008,823.062469452583,2414.000000000008,823.062469452583,2414.000000000008,782.812469452583,2395.000000000008,782.812469452583,2395.000000000008,757.6874694525825,2101.250000000008,757.6874694525825" /><polygon id="50224300EC019F" title="EC019F" points="2056.375000000009,920.6007168156638,2056.375000000009,1059.6250000000023,2375.375000000008,1059.625000000002,2375.375000000008,867.3124694525839,2105.5481471598837,867.3124694525836,2056.375000000009,920.6007168156638" /><polygon id="50224300EC019G" title="EC019G" points="1946.2500000000084,898.5000000000018,1898.2500000000084,898.5000000000018,1898.2500000000084,1073.750000000002,1946.2500000000084,1073.750000000002,1946.2500000000084,1048.5000000000018,1951.3750000000077,1048.5000000000018,1951.3750000000077,1073.7500000000018,2037.250000000009,1073.7500000000018,2037.250000000009,912.0000000000018,1986.2500000000084,912.0000000000018,1986.2500000000084,938.5000000000018,1946.2500000000084,938.5000000000018,1946.2500000000084,898.5000000000018" /><polygon id="50224300EC019H" title="EC019H" points="2379.500000000008,1205.2500000000018,2379.500000000008,1078.7500000000018,1984.6250000000084,1078.7500000000018,1984.6250000000086,1135.1250000000018,1946.3750000000077,1135.1250000000018,1946.3750000000077,1078.7500000000018,1898.2500000000084,1078.7500000000018,1898.2500000000084,1205.2500000000018,2379.500000000008,1205.2500000000018" /><polygon id="50224300EC013E" title="EC013E" points="2515.250000000008,1117.1250000000018,2416.625000000008,1117.1250000000018,2416.625000000008,1135.1250000000018,2384.500000000008,1135.1250000000018,2384.500000000008,1246.2500000000018,2515.250000000008,1246.2500000000018,2515.250000000008,1117.1250000000018" /><polygon id="50224300EC013D" title="EC013D" points="2231.2500000000077,1246.2500000000018,2379.500000000008,1246.2500000000018,2379.500000000008,1210.2500000000018,2231.2500000000077,1210.2500000000018,2231.2500000000077,1246.2500000000018" /><polygon id="50224300EC013B" title="EC013B" points="2226.2500000000077,1210.250000000002,1898.2500000000084,1210.250000000002,1898.2500000000084,1473.0000000000018,2226.2500000000077,1473.0000000000018,2226.2500000000077,1210.250000000002" /><polygon id="50224300EC013C" title="EC013C" points="2226.2500000000077,1251.2500000000018,2226.2500000000077,1510.5000000000018,2379.000000000008,1510.5000000000018,2379.000000000008,1474.5000000000018,2515.250000000008,1474.5000000000018,2515.250000000008,1251.2500000000018,2226.2500000000077,1251.2500000000018" /><polygon id="50224300EC013G" title="EC013G" points="2515.250000000008,1479.5000000000018,2417.500000000008,1479.5000000000018,2417.500000000008,1513.1250000000018,2384.000000000008,1513.1250000000018,2384.000000000008,1606.000000000002,2515.250000000008,1606.000000000002,2515.250000000008,1479.5000000000018" /><polygon id="50224300EC013" title="EC013" points="2347.750000000008,1510.5000000000018,2226.2500000000077,1510.5000000000018,2226.2500000000077,1478.0000000000018,1990.250000000008,1478.0000000000018,1990.250000000008,1606.000000000002,2379.000000000008,1606.000000000002,2379.000000000008,1515.5000000000018,2347.750000000008,1515.5000000000018,2347.750000000008,1510.5000000000018" /><polygon id="50224300EC013A" title="EC013A" points="1946.2500000000084,1478.000000000002,1898.2500000000084,1478.000000000002,1898.2500000000084,1606.0000000000023,1985.250000000008,1606.0000000000023,1985.250000000008,1518.0000000000016,1946.2500000000084,1518.0000000000018,1946.2500000000084,1478.000000000002" /><polygon id="50224300EC013F" title="EC013F" points="2520.250000000008,1606.000000000002,2693.500000000008,1606.000000000002,2693.500000000008,1602.1250000000018,2810.3750000000077,1602.1250000000018,2810.3750000000077,1474.8750000000018,2828.3750000000077,1474.8750000000018,2828.3750000000077,1135.1250000000018,2810.3750000000077,1135.1250000000018,2810.3750000000077,1117.1250000000018,2520.250000000008,1117.1250000000018,2520.250000000008,1606.000000000002" /><polygon id="50224300EC018" title="EC018" points="1725.5000000000082,991.0153370895412,1725.5000000000082,1049.9846629104618,1792.250000000008,1049.9846629104618,1792.250000000008,991.0153370895412,1725.5000000000082,991.0153370895412" /><polygon id="50224300EC020" title="EC020" points="1654.5000000000084,991.0153370895412,1654.5000000000084,1049.9846629104618,1720.5000000000082,1049.9846629104618,1720.5000000000082,991.0153370895412,1654.5000000000084,991.0153370895412" /><polygon id="50224300EC022" title="EC022" points="1553.2500000000082,991.0153370895413,1553.2500000000082,1133.2500000000016,1649.5000000000084,1133.2500000000016,1649.5000000000084,991.0153370895413,1553.2500000000082,991.0153370895413" /><polygon id="50224300EC016" title="EC016" points="1792.2500000000082,1061.750000000001,1690.2500000000082,1061.750000000001,1690.2500000000082,1072.9085697075086,1685.2500000000082,1072.9085697075086,1685.2500000000082,1061.750000000001,1654.5000000000086,1061.750000000001,1654.5000000000086,1109.750000000001,1685.2500000000082,1109.750000000001,1685.2500000000082,1102.9085697075086,1690.2500000000082,1102.9085697075086,1690.2500000000082,1114.750000000001,1654.5000000000086,1114.750000000001,1654.5000000000086,1208.750000000001,1792.2500000000082,1208.750000000001,1792.2500000000082,1061.750000000001" /><polygon id="50224300EC014" title="EC014" points="1649.5000000000086,1138.2500000000018,1553.2500000000082,1138.2500000000018,1553.250000000008,1508.2500000000011,1792.250000000008,1508.2500000000011,1792.250000000008,1213.750000000001,1649.5000000000086,1213.750000000001,1649.5000000000086,1138.2500000000018" /><polygon id="50224300EC042" title="EC042" points="1466.2500000000084,1444.4846629104616,1466.2500000000084,1508.2500000000011,1515.5000000000082,1508.2500000000011,1515.5000000000082,1476.0000000000018,1548.2500000000082,1476.0000000000018,1548.2500000000082,1287.3749999999995,1516.7500000000182,1287.3749999999995,1516.7500000000182,1285.0000000000018,1438.7500000000082,1285.0000000000018,1438.7500000000082,1363.5000000000018,1482.7500000000082,1363.5000000000018,1482.7500000000082,1370.4846629104613,1438.7500000000082,1370.4846629104613,1438.7500000000082,1444.4846629104616,1466.2500000000084,1444.4846629104616" /><polygon id="50224300EC040" title="EC040" points="1420.2500000000082,1444.4846629104616,1420.2500000000082,1370.4846629104613,1360.2500000000084,1370.4846629104613,1360.2500000000084,1363.5000000000018,1420.2500000000082,1363.5000000000018,1420.2500000000082,1285.0000000000018,1318.2500000000077,1285.0000000000018,1318.250000000008,1508.2500000000018,1366.7500000000084,1508.2500000000018,1366.7500000000084,1444.4846629104616,1420.2500000000082,1444.4846629104616" /><polygon id="50224300EC038" title="EC038" points="1248.2500000000184,1508.2500000000016,1313.2500000000077,1508.2500000000016,1313.2500000000077,1302.000000000002,1248.2500000000184,1302.000000000002,1248.2500000000184,1508.2500000000016" /><polygon id="50224300EC031" title="EC031" points="1243.2500000000182,1031.5000000000014,1041.6250000000018,1031.5000000000016,1041.6250000000018,1344.5000000000016,1243.2500000000184,1344.5000000000014,1243.2500000000182,1031.5000000000014" /><polygon id="50224300EC036" title="EC036" points="1476.2115734862364,1796.5000000000005,1547.750000000008,1796.5000000000005,1547.750000000008,1626.5000000000016,1746.750000000008,1626.5000000000016,1746.750000000008,1513.5000000000011,1461.2500000000084,1513.5000000000016,1461.2500000000084,1449.4846629104616,1371.7500000000084,1449.4846629104616,1371.7500000000084,1513.500000000001,1243.2500000000184,1513.500000000001,1243.2500000000184,1349.5000000000014,1041.6250000000016,1349.5000000000014,1041.6250000000016,1474.0000000000023,1122.5000000000082,1474.0000000000023,1122.5000000000082,1513.500000000001,1041.6250000000016,1513.5000000000011,1041.6250000000016,1610.5000000000011,1476.2115734862364,1610.500000000001,1476.2115734862364,1796.5000000000005" /><polygon id="50224300EC044" title="EC044" points="1552.750000000008,1631.5000000000016,1552.750000000008,2002.000000000002,1547.750000000008,2002.000000000002,1547.750000000008,1946.5000000000018,1522.2115734862364,1946.5000000000018,1522.2115734862364,1963.0153370895418,1517.2115734862364,1963.0153370895418,1517.2115734862364,1946.500000000002,1476.2115734862364,1946.500000000002,1476.2115734862364,2041.125000000002,1792.250000000008,2041.125000000002,1792.250000000008,1932.5000000000025,1810.5000000000082,1932.5000000000025,1810.5000000000082,1766.5000000000025,1792.250000000008,1766.5000000000025,1792.250000000008,1631.5000000000016,1552.750000000008,1631.5000000000016" /><polygon id="50224300EC044A" title="EC044A" points="1890.7500000000082,1710.0000000000023,1797.250000000008,1710.0000000000023,1797.250000000008,1761.500000000002,1815.500000000008,1761.500000000002,1815.500000000008,1779.250000000002,1890.7500000000082,1779.250000000002,1890.7500000000082,1710.0000000000023" /><polygon id="50224300EC012" title="EC012" points="1815.5000000000082,2041.1250000000023,1946.2500000000077,2041.1250000000023,1946.2500000000077,1784.2500000000025,1815.5000000000084,1784.2500000000025,1815.5000000000084,1937.5000000000027,1797.2500000000082,1937.5000000000027,1797.2500000000082,1986.5000000000027,1815.5000000000082,1986.5000000000027,1815.5000000000082,2041.1250000000023" /><polygon id="50224300EC006" title="EC006" points="2515.250000000008,1712.0000000000018,1951.2500000000077,1712.0000000000018,1951.2500000000077,1908.0000000000018,1983.5000000000082,1908.0000000000018,1983.5000000000082,1944.0000000000018,1951.2500000000077,1944.0000000000018,1951.2500000000077,2041.125000000002,2515.250000000008,2041.125000000002,2515.250000000008,1712.0000000000018" /><polygon id="50224300EC002" title="EC002" points="2520.250000000008,1712.0000000000018,2520.250000000008,1808.0000000000023,2693.500000000008,1808.0000000000023,2693.500000000008,1712.0000000000018,2520.250000000008,1712.0000000000018" /><polygon id="50224300EC002A" title="EC002A" points="2520.250000000008,1813.000000000002,2520.250000000008,2041.1250000000025,2693.500000000008,2041.1250000000025,2693.500000000008,1813.000000000002,2520.250000000008,1813.000000000002" /><polygon id="50224300EC002B" title="EC002B" points="2698.500000000008,2041.1250000000027,2831.500000000008,2041.1250000000027,2831.500000000008,1944.0000000000018,2811.500000000008,1944.0000000000018,2811.500000000008,1863.0000000000018,2698.500000000008,1863.0000000000018,2698.500000000008,2041.1250000000027" /><polygon id="50224300EC033" title="EC033" points="1895.7500000000084,1779.250000000002,1946.2500000000077,1779.250000000002,1946.2500000000077,1611.0000000000023,1893.2500000000084,1611.0000000000025,1893.2500000000084,842.3903370895415,1797.2500000000082,842.3903370895415,1797.2500000000082,1513.5000000000014,1751.750000000008,1513.5000000000014,1751.750000000008,1626.5000000000016,1797.2500000000086,1626.5000000000016,1797.2500000000086,1705.0000000000023,1895.7500000000086,1705.0000000000023,1895.7500000000084,1779.250000000002" /><polygon id="50224300EC035D" title="EC035D" points="2387.500000000008,2440.500000000002,2831.500000000008,2440.500000000002,2831.500000000008,2322.000000000002,2811.500000000008,2322.000000000002,2811.500000000008,2286.000000000002,2831.500000000008,2286.000000000002,2831.500000000008,2054.0000000000023,2387.500000000008,2054.0000000000023,2387.500000000008,2286.000000000002,2415.500000000008,2286.000000000002,2415.500000000008,2322.000000000002,2387.500000000008,2322.000000000002,2387.500000000008,2440.500000000002" /><polygon id="50224300EC035C" title="EC035C" points="2379.500000000008,2054.0000000000023,1971.7500000000018,2054.0000000000023,1971.7500000000018,2286.000000000002,1983.5000000000082,2286.000000000002,1983.5000000000082,2322.000000000002,1971.7500000000018,2322.000000000002,1971.7500000000018,2537.750000000002,2379.500000000008,2537.750000000002,2379.500000000008,2054.0000000000023" /><polygon id="50224300EC035A" title="EC035A" points="1041.6250000000016,2148.000000000002,1041.6250000000016,2261.500000000002,1247.2500000000018,2261.500000000002,1247.2500000000018,2148.000000000002,1041.6250000000016,2148.000000000002" /><polygon id="50224300EC037" title="EC037" points="1476.2115734862364,1888.1250000000016,1476.2115734862364,1906.0000000000011,1547.750000000008,1906.0000000000011,1547.750000000008,1801.7500000000007,1476.2115734862364,1801.7500000000007,1476.2115734862364,1811.8750000000027,1457.9615734862368,1811.8750000000027,1457.9615734862368,1760.875000000002,1429.6250000000082,1760.875000000002,1429.6250000000082,1750.0000000000023,1389.3750000000082,1750.0000000000023,1389.3750000000082,1760.875000000002,1325.6250000000082,1760.8750000000064,1325.6250000000082,1750.0000000000061,1285.3750000000082,1750.0000000000061,1285.3750000000082,1760.875000000002,1248.750000000008,1760.875000000002,1248.750000000008,1939.1250000000018,1285.3750000000082,1939.125000000002,1285.3750000000082,1950.0000000000016,1325.6250000000082,1950.0000000000016,1325.6250000000082,1939.1250000000018,1389.3750000000082,1939.125000000002,1389.3750000000082,1950.0000000000016,1429.6250000000082,1950.0000000000016,1429.6250000000082,1939.1250000000018,1457.9615734862368,1939.1250000000018,1457.9615734862364,1888.1250000000016,1476.2115734862364,1888.1250000000016" /><polygon id="50224300EC994" title="EC994" points="1253.5000000000082,1750.0000000000023,1354.3365734862364,1750.0000000000023,1354.3365734862364,1656.000000000003,1253.5000000000082,1656.000000000003,1253.5000000000082,1750.0000000000023" /><polygon id="50224300EC993" title="EC993" points="1360.3365734862364,1656.0000000000027,1360.3365734862364,1750.000000000002,1459.5000000000082,1750.000000000002,1459.5000000000082,1656.0000000000027,1360.3365734862364,1656.0000000000027" /><polygon id="50224300EC992" title="EC992" points="1360.3365734862364,1950.0000000000023,1360.3365734862364,2044.0000000000023,1459.5000000000082,2044.0000000000023,1459.5000000000082,1950.0000000000023,1360.3365734862364,1950.0000000000023" /><polygon id="50224300EC991" title="EC991" points="1354.3365734862364,2044.0000000000023,1354.3365734862364,1950.000000000002,1253.5000000000082,1950.000000000002,1253.5000000000082,2044.0000000000023,1354.3365734862364,2044.0000000000023" /><polygon id="50224300EC989" title="EC989" points="2703.500000000008,1618.0000000000018,2703.500000000008,1853.0000000000018,2811.500000000008,1853.0000000000018,2811.500000000008,1618.0000000000018,2703.500000000008,1618.0000000000018" /><polygon id="50224300EC996" title="EC996" points="1398.2500000000184,1275.0000000000018,1506.7500000000182,1275.0000000000018,1506.7500000000182,1040.0000000000016,1449.2500000000184,1040.0000000000018,1449.2500000000184,991.0153370895413,1398.1766166903399,991.0153370895413,1398.1766166903399,1030.0000000000018,1398.2500000000182,1030.0000000000018,1398.2500000000184,1275.0000000000018" /><polygon id="50224300EC999" title="EC999" points="1253.2500000000182,1092.0000000000018,1253.2500000000182,1175.7500000000018,1388.2500000000182,1175.7500000000018,1388.2500000000182,1092.0000000000018,1253.2500000000182,1092.0000000000018" /><polygon id="50224300EC998" title="EC998" points="1388.2500000000182,1181.2500000000018,1253.2500000000182,1181.2500000000018,1253.2500000000182,1275.0000000000018,1388.2500000000182,1275.0000000000018,1388.2500000000182,1181.2500000000018" /><polygon id="50224300EC034" title="EC034" points="1946.2500000000075,1707.0000000000018,2693.500000000008,1707.0000000000018,2693.500000000008,1611.0000000000018,1946.2500000000075,1611.0000000000018,1946.2500000000075,1707.0000000000018" /><polygon id="50224300EC038A" title="EC038A" points="1248.2500000000182,1285.0000000000018,1248.2500000000182,1297.000000000002,1313.2500000000077,1297.000000000002,1313.2500000000077,1285.0000000000018,1248.2500000000182,1285.0000000000018" /><polygon id="50224300EC035" title="EC035" points="1041.6250000000016,1615.7500000000014,1041.6250000000016,2143.000000000002,1100.250000000009,2143.000000000002,1100.250000000009,2046.0000000000016,1243.5000000000082,2046.0000000000016,1243.5000000000082,1615.7500000000014,1041.6250000000016,1615.7500000000014" /><polygon id="50224300EC035B" title="EC035B" points="1100.250000000009,2054.000000000002,1100.250000000009,2143.000000000002,1252.2500000000018,2143.000000000002,1252.2500000000018,2261.500000000002,1285.7500000000018,2261.500000000002,1285.7500000000018,2306.000000000002,1515.5000000000082,2306.000000000002,1515.5000000000082,2286.0000000000014,1551.5000000000082,2286.0000000000014,1551.5000000000082,2322.000000000002,1537.7500000000018,2322.000000000002,1537.7500000000018,2537.7500000000027,1963.7500000000018,2537.7500000000027,1963.7500000000018,2322.000000000002,1947.5000000000082,2322.000000000002,1947.5000000000082,2286.000000000002,1963.7500000000018,2286.000000000002,1963.7500000000018,2054.0000000000023,1100.250000000009,2054.000000000002" /></svg>
