<svg version="1.1" id="Map" class="gen-by-synoptic-designer" xmlns="http://www.w3.org/2000/svg" xmlns:xlink="http://www.w3.org/1999/xlink" viewBox="2294.0454916098497 -2792.8945079038376 2296.5000000000045 1921.500000000001" xml:space="preserve"><image width="2296.5000000000045" height="1921.500000000001" xlink:href=""/><polygon id="50224300646" title="646" points="4436.0454916098515,-871.3945079038369,4436.0454916098515,-1019.6445079038374,4280.0454916098515,-1019.6445079038374,4280.0454916098515,-871.3945079038369,4436.0454916098515,-871.3945079038369" /><polygon id="50224300634" title="634" points="3620.2954916098524,-871.3945079038368,3734.0454916098515,-871.3945079038368,3734.0454916098515,-1055.3945079038372,3604.795491609852,-1055.3945079038372,3604.795491609852,-902.1445079038369,3620.2954916098524,-902.1445079038369,3620.2954916098524,-871.3945079038368" /><polygon id="50224300633B" title="633B" points="3599.795491609851,-902.1445079038369,3599.795491609851,-1055.3945079038372,3400.866559421717,-1055.3945079038374,3363.5454916098524,-1018.0734400919727,3363.5454916098524,-871.3945079038367,3587.7954916098524,-871.3945079038369,3587.7954916098524,-902.1445079038369,3599.795491609851,-902.1445079038369" /><polygon id="50224300632A" title="632A" points="3150.194487238812,-1020.1445079038374,3150.194487238812,-929.6445079038373,3199.5454916098524,-929.6445079038373,3199.5454916098524,-871.3945079038369,3358.545491609852,-871.3945079038369,3358.545491609852,-1020.1445079038374,3150.194487238812,-1020.1445079038374" /><polygon id="50224300633C" title="633C" points="3253.2954916098524,-1286.3945079038378,3253.2954916098524,-1149.8945079038374,3407.5454916098515,-1149.8945079038374,3407.5454916098515,-1286.3945079038378,3253.2954916098524,-1286.3945079038378" /><polygon id="50224300633A" title="633A" points="3407.5454916098515,-1291.3945079038378,3407.5454916098515,-1405.3945079038378,3253.2954916098524,-1405.3945079038378,3253.2954916098524,-1291.3945079038378,3407.5454916098515,-1291.3945079038378" /><polygon id="50224300675" title="675" points="3253.2954916098524,-1410.3945079038378,3407.5454916098515,-1410.3945079038378,3407.5454916098515,-1515.3945079038378,3253.2954916098524,-1515.3945079038378,3253.2954916098524,-1410.3945079038378" /><polygon id="50224300667" title="667" points="3412.545491609851,-1149.8945079038374,3625.045491609851,-1149.8945079038374,3625.045491609851,-1245.8945079038374,3585.2954916098515,-1245.8945079038374,3585.2954916098515,-1294.6445079038378,3625.0454916098515,-1294.6445079038378,3625.0454916098515,-1515.3945079038378,3412.5454916098515,-1515.3945079038378,3412.545491609851,-1149.8945079038374" /><polygon id="50224300664" title="664" points="4441.0454916098515,-1887.3945079038397,4590.545491609854,-1887.3945079038397,4590.545491609854,-2057.3945079038385,4559.545491609854,-2057.3945079038385,4559.545491609854,-2087.89450790384,4441.0454916098515,-2087.89450790384,4441.0454916098515,-1887.3945079038397" /><polygon id="50224300600F" title="600F" points="3492.795491609852,-1814.6445079038376,3253.295491609852,-1814.6445079038376,3253.295491609852,-1684.644507903838,3492.795491609852,-1684.644507903838,3492.795491609852,-1814.6445079038376" /><polygon id="50224300673" title="673" points="3253.2954916098524,-1679.6445079038383,3253.2954916098524,-1578.6445079038378,3406.5454916098524,-1578.6445079038378,3406.5454916098524,-1679.6445079038383,3253.2954916098524,-1679.6445079038383" /><polygon id="50224300671" title="671" points="3411.5454916098524,-1578.6445079038378,3625.0454916098515,-1578.6445079038378,3625.0454916098515,-1679.6445079038383,3411.5454916098524,-1679.6445079038383,3411.5454916098524,-1578.6445079038378" /><polygon id="50224300669" title="669" points="3253.2954916098524,-1573.6445079038378,3253.2954916098524,-1520.3945079038378,3625.0454916098515,-1520.3945079038378,3625.0454916098515,-1573.6445079038378,3253.2954916098524,-1573.6445079038378" /><polygon id="50224300677" title="677" points="3155.7954916098543,-1698.8945079038378,3057.9204916098515,-1698.8945079038378,3057.9204916098515,-1520.3945079038376,3169.0454916098524,-1520.3945079038378,3169.0454916098524,-1679.644507903838,3155.7954916098543,-1679.644507903838,3155.7954916098543,-1698.8945079038378" /><polygon id="50224300607" title="607" points="3052.9204916098515,-1652.3945079038378,2956.6704916098515,-1652.3945079038378,2956.6704916098515,-1520.3945079038378,3052.9204916098515,-1520.3945079038378,3052.9204916098515,-1652.3945079038378" /><polygon id="50224300605" title="605" points="3169.0454916098524,-1719.144507903838,3169.0454916098524,-1814.6445079038378,2956.6704916098515,-1814.6445079038378,2956.6704916098515,-1657.3945079038378,3052.9204916098515,-1657.3945079038378,3052.9204916098515,-1703.8945079038378,3155.7954916098543,-1703.8945079038378,3155.7954916098543,-1719.144507903838,3169.0454916098524,-1719.144507903838" /><polygon id="50224300601A" title="601A" points="3402.7954916098593,-2136.0195079038376,3402.7954916098593,-2297.6445079038385,3284.5454916098593,-2297.6445079038385,3284.5454916098593,-2136.0195079038376,3402.7954916098593,-2136.0195079038376" /><polygon id="50224300601B" title="601B" points="3157.1704916098515,-2192.2695079038376,3279.5454916098597,-2192.2695079038376,3279.5454916098597,-2297.6445079038385,3157.1704916098515,-2297.6445079038385,3157.1704916098515,-2192.2695079038376" /><polygon id="50224300601D" title="601D" points="3152.1704916098515,-2194.1445079038385,3152.1704916098515,-2297.6445079038385,2956.6704916098515,-2297.6445079038385,2956.6704916098515,-2194.1445079038385,3152.1704916098515,-2194.1445079038385" /><polygon id="50224300609" title="609" points="2758.0454916098524,-1520.394507903838,2886.6704916098515,-1520.394507903838,2886.6704916098515,-1622.644507903838,2758.0454916098524,-1622.644507903838,2758.0454916098524,-1520.394507903838" /><polygon id="50224300613" title="613" points="2886.6704916098515,-1627.644507903838,2886.6704916098515,-1730.144507903838,2758.0454916098524,-1730.144507903838,2758.0454916098524,-1627.644507903838,2886.6704916098515,-1627.644507903838" /><polygon id="50224300611" title="611" points="2758.0454916098524,-1735.144507903838,2886.6704916098515,-1735.144507903838,2886.6704916098515,-1836.894507903838,2758.0454916098524,-1836.894507903838,2758.0454916098524,-1735.144507903838" /><polygon id="50224300615" title="615" points="2886.6704916098515,-1841.894507903838,2886.6704916098515,-1933.3945079038385,2758.0454916098524,-1933.3945079038385,2758.0454916098524,-1841.894507903838,2886.6704916098515,-1841.894507903838" /><polygon id="50224300617" title="617" points="2758.0454916098524,-1938.3945079038385,2886.6704916098515,-1938.3945079038385,2886.6704916098515,-2040.3945079038385,2758.0454916098524,-2040.3945079038385,2758.0454916098524,-1938.3945079038385" /><polygon id="50224300619" title="619" points="2886.6704916098515,-2045.3945079038385,2886.6704916098515,-2147.8945079038385,2758.0454916098524,-2147.8945079038385,2758.0454916098524,-2045.3945079038385,2886.6704916098515,-2045.3945079038385" /><polygon id="50224300621" title="621" points="2758.0454916098524,-2152.8945079038385,2886.6704916098515,-2152.8945079038385,2886.6704916098515,-2297.6445079038385,2758.0454916098524,-2297.6445079038385,2758.0454916098524,-2152.8945079038385" /><polygon id="50224300661" title="661" points="3707.2954916098515,-1791.6445079038374,3707.2954916098515,-1634.8945079038374,3826.670491609855,-1634.8945079038374,3826.670491609855,-1791.6445079038374,3707.2954916098515,-1791.6445079038374" /><polygon id="50224300659A" title="659A" points="3831.670491609855,-1721.8895277169543,3915.670491609855,-1721.8895277169543,3915.670491609855,-1791.6445079038374,3831.670491609855,-1791.6445079038374,3831.670491609855,-1721.8895277169543" /><polygon id="50224300657" title="657" points="3884.7954916098556,-1716.8895277169543,3884.7954916098556,-1634.8945079038376,4018.0454916098556,-1634.8945079038376,4018.0454916098556,-1791.6445079038374,3961.670491609855,-1791.6445079038374,3961.670491609855,-1773.6445079038374,3920.670491609855,-1773.6445079038374,3920.670491609855,-1716.8895277169543,3884.7954916098556,-1716.8895277169543" /><polygon id="50224300647" title="647" points="4028.045491609855,-1417.6445079038374,4028.045491609855,-1281.8945079038374,4286.6704916098515,-1281.8945079038374,4286.6704916098515,-1791.6445079038374,4023.0454916098556,-1791.6445079038374,4023.0454916098556,-1730.3945079038397,4052.545491609852,-1730.3945079038394,4052.545491609852,-1679.3945079038397,4023.0454916098556,-1679.3945079038397,4023.0454916098556,-1585.6445079038374,4076.045491609855,-1585.6445079038374,4076.045491609855,-1555.6445079038374,4028.045491609855,-1555.6445079038374,4028.045491609855,-1447.6445079038374,4076.045491609855,-1447.6445079038374,4076.045491609855,-1417.6445079038374,4028.045491609855,-1417.6445079038374" /><polygon id="50224300645" title="645" points="4170.4204916098515,-1173.8945079038374,4286.6704916098515,-1173.8945079038374,4286.6704916098515,-1276.8945079038374,4170.4204916098515,-1276.8945079038374,4170.4204916098515,-1173.8945079038374" /><polygon id="50224300643" title="643" points="4052.545491609851,-1173.8945079038374,4165.4204916098515,-1173.8945079038374,4165.4204916098515,-1276.8945079038374,4052.545491609851,-1276.8945079038374,4052.545491609851,-1173.8945079038374" /><polygon id="50224300641" title="641" points="4018.045491609855,-1247.3945079038394,4018.045491609855,-1297.8945079038385,3952.7954916098515,-1297.8945079038385,3952.795491609851,-1173.8945079038374,4047.5454916098506,-1173.8945079038374,4047.5454916098506,-1247.3945079038394,4018.045491609855,-1247.3945079038394" /><polygon id="50224300639" title="639" points="3858.2954916098515,-1297.8945079038374,3858.2954916098515,-1181.644507903838,3947.7954916098515,-1181.644507903838,3947.7954916098515,-1297.8945079038374,3858.2954916098515,-1297.8945079038374" /><polygon id="50224300686" title="686" points="3741.045491609852,-1576.887884726078,3741.045491609852,-1331.8945079038376,3788.5454916098524,-1331.8945079038376,3788.5454916098524,-1576.887884726078,3741.045491609852,-1576.887884726078" /><polygon id="50224300688" title="688" points="3795.0454916098515,-1576.8878847260783,3795.0454916098515,-1331.894507903838,3900.045491609854,-1331.894507903838,3900.045491609854,-1576.8878847260783,3795.0454916098515,-1576.8878847260783" /><polygon id="50224300608" title="608" points="3269.7954916098597,-2472.1445079038376,3269.7954916098597,-2367.7695079038385,3387.0454916098597,-2367.7695079038385,3387.0454916098597,-2472.1445079038376,3269.7954916098597,-2472.1445079038376" /><polygon id="50224300637" title="637" points="3707.2954916098515,-1292.8945079038374,3707.2954916098515,-1173.8945079038374,3799.7954916098515,-1173.8945079038374,3799.7954916098515,-1292.8945079038374,3707.2954916098515,-1292.8945079038374" /><polygon id="50224300606" title="606" points="3473.0454916098597,-2472.1445079038376,3473.0454916098597,-2277.144507903838,3618.0454916098597,-2277.144507903838,3618.0454916098597,-2472.1445079038376,3473.0454916098597,-2472.1445079038376" /><polygon id="50224300604" title="604" points="3473.0454916098593,-2272.144507903838,3473.0454916098597,-2075.1445079038376,3582.7954916098515,-2075.1445079038376,3582.7954916098515,-2098.644507903838,3618.0454916098593,-2098.644507903838,3618.0454916098593,-2272.144507903838,3473.0454916098593,-2272.144507903838" /><polygon id="50224300602" title="602" points="3473.0454916098597,-1872.6445079038376,3625.0454916098515,-1872.6445079038376,3625.0454916098515,-2057.3945079038385,3582.7954916098515,-2057.3945079038385,3582.7954916098515,-2070.1445079038376,3473.0454916098597,-2070.1445079038376,3473.0454916098597,-1872.6445079038376" /><polygon id="50224300600E" title="600E" points="3613.1704916098515,-1715.1445079038378,3613.1704916098515,-1814.6445079038378,3497.7954916098524,-1814.6445079038378,3497.795491609852,-1684.644507903838,3582.795491609853,-1684.644507903838,3582.795491609853,-1715.1445079038378,3613.1704916098515,-1715.1445079038378" /><polygon id="50224300659" title="659" points="3702.2954916098515,-1814.6445079038378,3618.1704916098515,-1814.6445079038378,3618.1704916098515,-1715.144507903838,3630.0454916098515,-1715.1445079038378,3630.0454916098515,-1144.8945079038376,3702.2954916098515,-1144.8945079038376,3702.2954916098515,-1297.8945079038374,3735.045491609852,-1297.8945079038374,3735.045491609852,-1438.6445079038376,3702.295491609851,-1438.6445079038376,3702.2954916098515,-1581.8862705917109,4018.045491609855,-1581.894507903838,4018.045491609855,-1629.8945079038374,3879.7954916098556,-1629.8945079038374,3879.7954916098556,-1716.8895277169543,3831.670491609855,-1716.8895277169543,3831.670491609855,-1629.8945079038374,3702.2954916098515,-1629.8945079038374,3702.2954916098515,-1814.6445079038378" /><polygon id="50224300610" title="610" points="3039.7954916098597,-2520.394507903842,3039.7954916098597,-2367.7695079038385,3264.7954916098597,-2367.7695079038385,3264.7954916098597,-2472.1445079038376,3143.2954916098597,-2472.1445079038376,3143.2954916098597,-2520.394507903842,3039.7954916098597,-2520.394507903842" /><polygon id="50224300614" title="614" points="2931.5454916098597,-2520.394507903842,2931.5454916098597,-2367.7695079038385,3034.7954916098597,-2367.7695079038385,3034.7954916098597,-2520.394507903842,2931.5454916098597,-2520.394507903842" /><polygon id="50224300616" title="616" points="2926.5454916098597,-2367.7695079038385,2926.5454916098597,-2520.394507903842,2757.5454916098597,-2520.394507903842,2757.5454916098597,-2483.0195079038385,2715.5454916098597,-2483.0195079038385,2715.5454916098597,-2367.7695079038385,2926.5454916098597,-2367.7695079038385" /><polygon id="50224300618" title="618" points="2607.0454916098597,-2520.394507903842,2607.0454916098597,-2367.7695079038385,2710.5454916098597,-2367.7695079038385,2710.5454916098597,-2520.394507903842,2607.0454916098597,-2520.394507903842" /><polygon id="50224300620" title="620" points="2499.0454916098597,-2520.394507903842,2499.0454916098597,-2367.7695079038385,2602.0454916098597,-2367.7695079038385,2602.0454916098597,-2520.394507903842,2499.0454916098597,-2520.394507903842" /><polygon id="50224300625" title="625" points="2499.0454916098597,-2297.6445079038385,2499.0454916098597,-2237.6445079038385,2587.0454916098597,-2237.6445079038385,2587.0454916098597,-2297.6445079038385,2499.0454916098597,-2297.6445079038385" /><polygon id="50224300623" title="623" points="2596.3579916098515,-2297.6445079038385,2596.3579916098515,-2237.6445079038385,2686.8579916098515,-2237.6445079038385,2686.8579916098515,-2297.6445079038385,2596.3579916098515,-2297.6445079038385" /><polygon id="50224300627" title="627" points="2344.5454916098515,-2232.6445079038385,2344.5454916098515,-2102.3945079038376,2450.0454916098524,-2102.3945079038376,2450.0454916098524,-2159.8945079038363,2752.2954916098524,-2159.8945079038363,2752.2954916098524,-2297.6445079038385,2691.8579916098515,-2297.6445079038385,2691.8579916098515,-2232.6445079038385,2344.5454916098515,-2232.6445079038385" /><polygon id="50224300629" title="629" points="2450.0454916098524,-1826.3945079038376,2294.0454916098506,-1826.3945079038376,2294.0454916098506,-1712.3945079038363,2325.5454916098506,-1712.3945079038363,2325.5454916098506,-1676.8945079038394,2294.0454916098506,-1676.8945079038394,2294.0454916098506,-1570.8945079038394,2443.0454916098515,-1570.8945079038394,2443.0454916098515,-1581.8945079038376,2524.7954916098497,-1581.8945079038374,2524.7954916098497,-1677.8945079038383,2450.0454916098524,-1677.8945079038383,2450.0454916098524,-1826.3945079038376" /><polygon id="50224300681" title="681" points="2530.79549160985,-1677.8945079038385,2530.79549160985,-1581.8945079038378,2683.0454916098524,-1581.8945079038376,2683.0454916098524,-1386.6362705917106,2752.2954916098524,-1386.6362705917106,2752.2954916098524,-1677.8945079038385,2672.0454916098524,-1677.8945079038374,2672.0454916098524,-1738.8945079038376,2582.2954916098524,-1738.8945079038376,2582.2954916098524,-1677.8945079038385,2530.79549160985,-1677.8945079038385" /><polygon id="50224300630" title="630" points="2664.5454916098524,-1429.894507903838,2455.0454916098524,-1429.894507903838,2455.0454916098524,-1249.8945079038376,2664.5454916098524,-1249.8945079038376,2664.5454916098524,-1285.8945079038378,2678.0454916098533,-1285.8945079038378,2678.0454916098533,-1393.8945079038376,2664.5454916098524,-1393.8945079038376,2664.5454916098524,-1429.894507903838" /><polygon id="50224300626" title="626" points="2294.0454916098506,-2096.3945079038376,2294.0454916098506,-2091.3945079038394,2325.5454916098506,-2091.3945079038394,2325.545491609851,-2057.3945079038394,2294.0454916098506,-2057.3945079038394,2294.0454916098506,-1832.3945079038376,2450.0454916098524,-1832.3945079038376,2450.045491609855,-2096.3945079038376,2294.0454916098506,-2096.3945079038376" /><polygon id="50224300627A" title="627A" points="2294.0454916098506,-2232.6445079038385,2294.0454916098506,-2102.3945079038376,2339.5454916098515,-2102.3945079038376,2339.5454916098515,-2232.6445079038385,2294.0454916098506,-2232.6445079038385" /><polygon id="50224300696" title="696" points="2605.0454916098547,-2149.894507903837,2605.0454916098547,-1914.8945079038378,2713.0454916098543,-1914.8945079038378,2713.0454916098543,-2149.894507903837,2605.0454916098547,-2149.894507903837" /><polygon id="50224300699" title="699" points="2595.045491609854,-2011.3945079038376,2595.045491609854,-2107.894507903837,2460.0454916098547,-2107.894507903837,2460.0454916098547,-2011.3945079038376,2595.045491609854,-2011.3945079038376" /><polygon id="50224300698" title="698" points="2460.0454916098547,-2011.3945079038376,2460.0454916098547,-1914.8945079038374,2595.045491609853,-1914.8945079038374,2595.045491609853,-2011.3945079038376,2460.0454916098547,-2011.3945079038376" /><polygon id="50224300682" title="682" points="2455.2954916098524,-1887.2695079039054,2455.2954916098524,-1684.8945079038385,2525.045491609853,-1684.8945079038385,2525.045491609853,-1887.2695079039054,2455.2954916098524,-1887.2695079039054" /><polygon id="50224300682A" title="682A" points="2455.2954916098524,-1904.8945079038367,2455.2954916098524,-1892.7695079039052,2525.0454916098524,-1892.7695079039052,2525.0454916098524,-1904.8945079038367,2455.2954916098524,-1904.8945079038367" /><polygon id="50224300684" title="684" points="2627.0454916098565,-1826.8945079038385,2627.0454916098565,-1904.8945079038372,2530.2954916098524,-1904.8945079038372,2530.295491609853,-1684.8945079038385,2578.2954916098524,-1684.8945079038385,2578.2954916098524,-1745.1445079038376,2627.0454916098565,-1745.1445079038376,2627.0454916098565,-1821.8945079038385,2567.045491609845,-1821.8945079038385,2567.045491609845,-1826.8945079038385,2627.0454916098565,-1826.8945079038385" /><polygon id="50224300683" title="683" points="2752.2954916098524,-1904.8945079038378,2651.0454916098524,-1904.8945079038378,2651.0454916098524,-1826.8945079038385,2693.045491609856,-1826.8945079038385,2693.045491609856,-1821.8945079038385,2651.0454916098524,-1821.8945079038385,2651.0454916098524,-1745.1445079038376,2677.0454916098524,-1745.1445079038376,2677.0454916098524,-1684.1445079038376,2722.0454916098524,-1684.1445079038376,2722.0454916098524,-1713.8945079038376,2752.2954916098524,-1713.8945079038376,2752.2954916098524,-1904.8945079038378" /><polygon id="50224300694" title="694" points="2563.045491609855,-1533.8945079038376,2460.0455003378943,-1533.8945079038376,2460.0455003378943,-1439.8945079038372,2563.045491609855,-1439.8945079038372,2563.045491609855,-1533.8945079038376" /><polygon id="50224300693" title="693" points="2563.045491609855,-1533.8945079038376,2563.045491609855,-1439.8945079038415,2666.0455003378943,-1439.8945079038415,2666.0455003378943,-1533.8945079038376,2563.045491609855,-1533.8945079038376" /><polygon id="50224300632" title="632" points="3145.194487238812,-908.644507903837,3145.194487238812,-1284.1445079038378,2848.2954916098515,-1284.1445079038378,2848.2954916098515,-1251.144507903838,2815.2954916098515,-1251.144507903838,2815.2954916098515,-1284.1445079038378,2768.7954916098574,-1284.1445079038378,2768.7954916098574,-908.6445079038369,3145.194487238812,-908.644507903837" /><polygon id="50224300691" title="691" points="2563.0454916098533,-1145.8945079038372,2563.0454916098533,-1239.8945079038363,2460.0455003378943,-1239.8945079038363,2460.0455003378943,-1145.8945079038372,2563.0454916098533,-1145.8945079038372" /><polygon id="50224300692" title="692" points="2563.0454916098533,-1145.8945079038372,2666.045491609854,-1145.8945079038372,2666.045491609854,-1239.8945079038372,2563.0454916098533,-1239.8945079038372,2563.0454916098533,-1145.8945079038372" /><polygon id="50224300689" title="689" points="3910.045491609855,-1571.8945079038374,3910.045491609855,-1336.8945079038378,4018.0454916098547,-1336.8945079038378,4018.0454916098547,-1571.8945079038374,3910.045491609855,-1571.8945079038374" /><polygon id="50224300647B" title="647B" points="4071.045491609855,-1580.6445079038374,4028.045491609855,-1580.6445079038374,4028.045491609855,-1560.6445079038374,4071.045491609855,-1560.6445079038374,4071.045491609855,-1580.6445079038374" /><polygon id="50224300647A" title="647A" points="4028.045491609855,-1442.6445079038374,4028.045491609855,-1422.6445079038374,4071.045491609855,-1422.6445079038374,4071.045491609855,-1442.6445079038374,4028.045491609855,-1442.6445079038374" /><polygon id="50224300666" title="666" points="3155.0454916098524,-2477.1445079038376,3621.0454916098524,-2477.1445079038376,3621.0454916098524,-2490.8945079038376,3589.0454916098524,-2490.8945079038376,3589.0454916098524,-2520.8945079038376,3621.0454916098524,-2520.8945079038376,3621.0454916098524,-2760.8945079038376,3589.0454916098524,-2760.8945079038376,3589.0454916098524,-2792.8945079038376,3187.0454916098524,-2792.8945079038376,3187.0454916098524,-2760.8945079038376,3155.0454916098524,-2760.8945079038376,3155.0454916098524,-2520.8945079038376,3187.0454916098524,-2520.8945079038376,3187.0454916098524,-2490.8945079038376,3155.0454916098524,-2490.8945079038376,3155.0454916098524,-2477.1445079038376" /><polygon id="50224300680" title="680" points="3627.727034749032,-2087.8945079038167,3734.295491609852,-2087.8945079038167,3734.295491609852,-1896.8945079038142,3627.727034749032,-1896.8945079038142,3627.727034749032,-2087.8945079038167" /><polygon id="50224300678" title="678" points="3739.295491609852,-2087.8945079038167,3842.295491609852,-2087.8945079038167,3842.295491609852,-1896.8945079038142,3739.295491609852,-1896.8945079038142,3739.295491609852,-2087.8945079038167" /><polygon id="50224300672" title="672" points="4063.545491609852,-2087.8945079038167,4166.5454916098515,-2087.8945079038167,4166.5454916098515,-1896.8945079038142,4063.545491609852,-1896.8945079038142,4063.545491609852,-2087.8945079038167" /><polygon id="50224300670" title="670" points="4171.5454916098515,-2087.8945079038167,4274.2954916098515,-2087.8945079038167,4274.2954916098515,-1896.8945079038142,4171.5454916098515,-1896.8945079038142,4171.5454916098515,-2087.8945079038167" /><polygon id="50224300662" title="662" points="4393.0454916098515,-1882.39450790384,4590.545491609854,-1882.39450790384,4590.545491609854,-1779.3945079038401,4393.0454916098515,-1779.3945079038401,4393.0454916098515,-1882.39450790384" /><polygon id="50224300660" title="660" points="4393.0454916098515,-1774.3945079038401,4590.545491609854,-1774.3945079038401,4590.545491609854,-1713.8945079038403,4558.545491609854,-1713.8945079038403,4558.545491609854,-1671.3945079038403,4393.0454916098515,-1671.3945079038403,4393.0454916098515,-1774.3945079038401" /><polygon id="50224300658" title="658" points="4393.0454916098515,-1666.3945079038403,4590.545491609854,-1666.3945079038401,4590.545491609854,-1563.1445079038403,4393.0454916098515,-1563.1445079038403,4393.0454916098515,-1666.3945079038403" /><polygon id="50224300656" title="656" points="4393.0454916098515,-1558.1445079038403,4590.545491609854,-1558.1445079038403,4590.545491609854,-1454.8945079038403,4393.0454916098515,-1454.8945079038403,4393.0454916098515,-1558.1445079038403" /><polygon id="50224300652" title="652" points="4393.0454916098515,-1449.8945079038403,4590.545491609854,-1449.8945079038403,4590.545491609854,-1281.1445079038403,4558.545491609854,-1281.1445079038403,4558.545491609854,-1238.6445079038403,4393.0454916098515,-1238.6445079038403,4393.0454916098515,-1449.8945079038403" /><polygon id="50224300650" title="650" points="4393.0454916098515,-1233.6445079038403,4590.545491609854,-1233.6445079038403,4590.545491609854,-1130.6445079038403,4393.0454916098515,-1130.6445079038403,4393.0454916098515,-1233.6445079038403" /><polygon id="50224300644" title="644" points="4172.0454916098515,-1067.6445079038376,4275.0454916098515,-1067.6445079038376,4275.0454916098515,-871.3945079038372,4172.0454916098515,-871.3945079038372,4172.0454916098515,-1067.6445079038376" /><polygon id="50224300640" title="640" points="3955.045491609852,-1067.6445079038376,4058.795491609852,-1067.6445079038376,4058.795491609852,-902.3945079038373,4019.5454916098543,-902.3945079038373,4019.5454916098543,-871.3945079038372,3955.045491609852,-871.3945079038372,3955.045491609852,-1067.6445079038376" /><polygon id="50224300638" title="638" points="3847.045491609852,-1067.6445079038376,3950.045491609852,-1067.6445079038376,3950.045491609852,-871.3945079038372,3847.045491609852,-871.3945079038372,3847.045491609852,-1067.6445079038376" /><polygon id="50224300642" title="642" points="4063.795491609852,-1067.6445079038376,4167.0454916098515,-1067.6445079038376,4167.0454916098515,-871.3945079038372,4063.795491609852,-871.3945079038372,4063.795491609852,-1067.6445079038376" /><polygon id="50224300636" title="636" points="3739.0454916098515,-1067.6445079038376,3842.045491609852,-1067.6445079038376,3842.045491609852,-871.3945079038372,3739.0454916098515,-871.3945079038372,3739.0454916098515,-1067.6445079038376" /><polygon id="50224300631A" title="631A" points="3187.7954916098524,-1284.1445079038394,3187.7954916098524,-1410.8945079038397,3073.194487238812,-1410.8945079038413,3073.194487238812,-1383.5195079038406,3069.694487238812,-1383.5195079038406,3069.694487238812,-1311.5195079038406,3073.194487238812,-1311.5195079038406,3073.194487238812,-1284.1445079038394,3187.7954916098524,-1284.1445079038394" /><polygon id="50224300622A" title="622A" points="2299.04549160985,-2243.8945079038403,2494.0454916098597,-2243.8945079038394,2494.0454916098597,-2311.868267159219,2429.0454916098597,-2311.868267159219,2429.0454916098597,-2327.894507903846,2294.04549160985,-2327.894507903846,2294.0454916098497,-2265.894507903844,2299.04549160985,-2265.894507903844,2299.04549160985,-2243.8945079038403" /><polygon id="50224300622B" title="622B" points="2294.0454916098497,-2332.894507903846,2429.0454916098597,-2332.894507903846,2429.0454916098597,-2431.3945079038463,2294.0454916098497,-2431.3945079038463,2294.0454916098497,-2332.894507903846" /><polygon id="50224300622C" title="622C" points="2294.0454916098497,-2436.3945079038467,2494.0454916098597,-2436.3945079038463,2494.0454916098593,-2520.394507903842,2325.5454916098506,-2520.3945079038426,2325.545491609851,-2489.3945079038417,2294.0454916098497,-2489.3945079038394,2294.0454916098497,-2436.3945079038467" /><polygon id="50224300622" title="622" points="2434.0454916098597,-2316.868267159219,2499.0454916098597,-2316.868267159219,2499.0454916098597,-2352.868267159219,2494.0454916098597,-2352.868267159219,2494.0454916098597,-2431.3945079038463,2434.0454916098597,-2431.3945079038463,2434.0454916098597,-2316.868267159219" /><polygon id="50224300648" title="648" points="4393.0454916098515,-1125.6445079038397,4393.0454916098515,-1024.6445079038601,4441.0454916098515,-1024.6445079038372,4441.0454916098515,-873.3945079038597,4554.545491609854,-873.3945079038597,4554.545491609854,-903.6445079038365,4588.0454916098515,-903.6445079038365,4588.0454916098515,-1125.6445079038365,4393.0454916098515,-1125.6445079038397" /><polygon id="50224300631" title="631" points="3248.29549160985,-1410.8945079038358,3248.2954916098524,-1515.394507903838,2951.6704916098515,-1515.394507903838,2951.6704916098515,-1557.3945079038378,2891.6704916098515,-1557.3945079038378,2891.6704916098515,-1515.394507903838,2752.2954916098524,-1515.394507903838,2752.2954916098524,-1444.3945079038378,2767.045491609853,-1444.3945079038378,2767.045491609853,-1376.1445079054397,2726.045491609853,-1376.1445079054397,2726.045491609853,-1381.6362705917106,2683.045491609853,-1381.6362705917106,2683.045491609853,-1298.6527452191688,2726.045491609853,-1298.6527452191688,2726.045491609853,-1304.1445079054397,2768.7954916098574,-1304.1445079054397,2768.7954916098574,-1284.1445079038378,3073.194487238812,-1284.1445079038378,3073.194487238812,-1311.519507903839,3069.694487238812,-1311.519507903839,3069.694487238812,-1383.519507903839,3073.194487238812,-1383.519507903839,3073.194487238812,-1410.8945079038397,3145.194487238812,-1410.894507903838,3145.194487238812,-1444.3945079038378,3187.7954916098524,-1444.3945079038378,3187.795491609856,-1410.8945079038383,3248.29549160985,-1410.8945079038358" /><polygon id="50224300633" title="633" points="3734.045491609851,-1144.8945079038374,3248.2954916098524,-1144.8945079038374,3248.29549160985,-1410.8945079038358,3187.7954916098593,-1410.8945079038383,3187.7954916098524,-1247.394507903838,3150.194487238812,-1247.394507903838,3150.194487238812,-1025.1445079038374,3363.545491609851,-1025.1445079038372,3398.795491609851,-1060.3945079038374,3734.045491609851,-1060.3945079038374,3734.045491609851,-1144.8945079038374" /><polygon id="50224300635" title="635" points="3627.727034749032,-1891.8945079038374,3627.727034749032,-1814.6445079038579,3702.2954916098515,-1814.644507903861,3702.2954916098515,-1796.6445079038606,3920.670491609855,-1796.6445079038606,3920.670491609855,-1778.6445079038606,3956.670491609855,-1778.6445079038606,3956.670491609855,-1796.6445079038606,4291.6704916098515,-1796.6445079038606,4291.6704916098515,-1168.8945079038606,3853.2954916098515,-1168.8945079038606,3853.2954916098515,-1292.8945079038606,3804.7954916098515,-1292.8945079038606,3804.7954916098515,-1168.8945079038606,3739.0454916098515,-1168.8945079038606,3739.0454916098515,-1072.6445079038374,4280.045491609852,-1072.6445079038374,4280.045491609852,-1024.6445079038606,4388.0454916098515,-1024.6445079038606,4388.0454916098515,-1887.3945079038397,4436.0454916098515,-1887.3945079038629,4436.0454916098515,-1949.14450790384,4279.2954916098515,-1949.14450790384,4279.2954916098515,-1891.8945079038374,3627.727034749032,-1891.8945079038374" /><polygon id="50224300668" title="668" points="4279.2954916098515,-1954.14450790384,4436.0454916098515,-1954.14450790384,4436.0454916098515,-2087.89450790384,4279.2954916098515,-2087.89450790384,4279.2954916098515,-1954.14450790384" /><polygon id="50224300674" title="674" points="4015.5454916098515,-2087.89450790384,3955.295491609852,-2087.8945079038167,3955.295491609852,-1896.8945079038142,4058.5454916098515,-1896.8945079038142,4058.5454916098515,-2057.6445079038376,4015.5454916098515,-2057.6445079038376,4015.5454916098515,-2087.89450790384" /><polygon id="50224300676" title="676" points="3847.2954916098515,-1896.894507903814,3950.2954916098515,-1896.894507903814,3950.2954916098515,-2087.8945079038167,3847.2954916098515,-2087.8945079038167,3847.2954916098515,-1896.894507903814" /><polygon id="50224300601" title="601" points="3392.0454916098597,-2302.6445079038385,3392.0454916098597,-2362.7695079038385,2499.0454916098597,-2362.7695079038385,2499.0454916098597,-2302.6445079038385,2891.6704916098515,-2302.6445079038385,2891.6704916098515,-1562.3945079038378,2951.6704916098515,-1562.3945079038378,2951.6704916098515,-2302.6445079038385,3392.0454916098597,-2302.6445079038385" /><polygon id="50224300600" title="600" points="3630.0454916098515,-1819.6445079038378,3630.0454916098515,-1867.6445079038376,3468.0454916098597,-1867.6445079038376,3468.0454916098597,-2472.1445079038376,3392.0454916098597,-2472.1445079038376,3392.0454916098597,-2302.6445079038385,3407.7954916098597,-2302.6445079038385,3407.7954916098597,-1879.8945079038374,3246.4273638846225,-1879.8945079038374,3246.4273638846225,-1884.8945079038374,3256.6704916098515,-1884.8945079038374,3256.6704916098515,-1987.8945079038374,3279.5454916098597,-1987.8945079038374,3279.545491609861,-2049.3945079038363,3187.4204916098515,-2049.3945079038363,3187.4204916098515,-1884.8945079038374,3198.4273638846225,-1884.8945079038374,3198.4273638846225,-1879.8945079038374,2951.6704916098515,-1879.8945079038374,2951.6704916098515,-1819.6445079038378,3186.0454916098515,-1819.6445079038378,3186.0454916098515,-1814.6445079038376,3174.0454916098524,-1814.6445079038376,3174.0454916098524,-1719.1445079038376,3188.2954916098543,-1719.1445079038376,3188.2954916098543,-1679.644507903838,3174.0454916098524,-1679.644507903838,3174.0454916098524,-1520.3945079038378,3186.0454916098515,-1520.3945079038378,3186.0454916098515,-1515.394507903838,3248.2954916098524,-1515.394507903838,3248.2954916098524,-1819.6445079038378,3630.0454916098515,-1819.6445079038378" /><polygon id="50224300603" title="603" points="2956.6704916180347,-1987.8945086921242,3152.1704916098515,-1987.8945079038372,3152.1704916098515,-2090.6445079038385,2956.6704916098515,-2090.6445079038385,2956.6704916180347,-1987.8945086921242" /><polygon id="50224300600C" title="600C" points="2956.6704916098515,-1975.3945086921237,2956.6704916098515,-1884.8945079038372,3023.9204916098515,-1884.8945079038372,3023.9204916098515,-1975.39450795839,2956.6704916098515,-1975.3945086921237" /><polygon id="50224300600B" title="600B" points="3028.9204916098515,-1982.8945079038372,3028.9204916098515,-1884.8945079038372,3146.4204916098515,-1884.8945079038372,3146.4204916098515,-1879.8945079038372,3182.4204916098515,-1879.8945079038372,3182.4204916098515,-1982.8945079038372,3028.9204916098515,-1982.8945079038372" /><polygon id="50224300600D" title="600D" points="3279.545491609861,-2054.394507903844,3279.545491609861,-2189.138737163742,3157.170491609852,-2189.144507903845,3157.170491609852,-2094.019507903845,3187.420491609852,-2094.019507903844,3187.4204916098515,-2054.394507903844,3279.545491609861,-2054.394507903844" /><polygon id="50224300600H" title="600H" points="3157.170491609852,-1987.8945079038442,3182.420491609852,-1987.8945079038442,3182.420491609852,-2060.894507903845,3157.170491609852,-2060.894507903845,3157.170491609852,-1987.8945079038442" /><polygon id="50224300600G" title="600G" points="3261.670491609852,-1884.8945079038442,3402.795491609861,-1884.8945079038442,3402.795491609861,-1982.8945079038442,3261.670491609852,-1982.894507903844,3261.670491609852,-1884.8945079038442" /><polygon id="50224300600A" title="600A" points="3284.545491609861,-1987.8945079038442,3402.795491609861,-1987.8945079038442,3402.795491609861,-2131.019507903845,3284.545491609861,-2131.019507903845,3284.545491609861,-1987.8945079038442" /><polygon id="50224300601C" title="601C" points="2956.6704916098515,-2095.6445079038385,3152.1704916098515,-2095.6445079038385,3152.1704916098515,-2189.1445079038385,2951.6704916098515,-2189.1445079038385,2951.6704916098515,-2120.7695079038376,2956.6704916098515,-2120.7695079038376,2956.6704916098515,-2095.6445079038385" /></svg>
