<svg version="1.1" id="Map" class="gen-by-synoptic-designer" xmlns="http://www.w3.org/2000/svg" xmlns:xlink="http://www.w3.org/1999/xlink" viewBox="1080.711573486239 402.5000000000009 1760.7884177857304 1641.5000000000002" xml:space="preserve"><image width="1760.7884177857304" height="1641.5000000000002" xlink:href=""/><polygon id="50224300EP031A" title="EP031A" points="2044.5000000000182,1728.7500000000002,2044.5000000000182,1697.375000000002,1947.0865734862364,1697.375000000002,1947.0865734862364,1728.7500000000002,1939.3365734862364,1728.7500000000002,1939.3365734862364,1946.750000000028,2149.5240734862364,1946.7500000000266,2149.5240734862364,1728.75,2044.5000000000182,1728.7500000000002" /><polygon id="50224300EP031" title="EP031" points="2290.6640620216062,1723.4999999999993,2296.6032905066168,1710.9140011261345,2301.463164146484,1697.873164080353,2305.2092595419567,1684.469859564745,2307.815042394619,1670.799025706678,2309.2620554543155,1656.957495594181,2309.5400492553254,1643.0433113889642,2308.64705471526,1629.155029875346,2306.589397082439,1615.391024364006,2303.3816511329715,1601.8487878953213,2299.0465379348716,1588.624242677819,2293.6147639104597,1575.8110606531297,2287.124803336998,1563.500000000001,2259.000000000018,1563.5,2259.000000000018,1568.75,2160.000000000018,1568.75,2160.000000000018,1593,2125.000000000018,1593,2125.000000000018,1563.5,2053.000000000018,1563.5,2053.000000000018,1586.250000000002,2051.250000000018,1586.250000000002,2051.250000000018,1692.125000000002,2053.000000000018,1692.125000000002,2053.000000000018,1723.5,2125.000000000018,1723.5,2125.000000000018,1699,2160.000000000018,1699,2160.000000000018,1723.5,2290.6640620216062,1723.4999999999993" /><polygon id="50224300EP031G" title="EP031G" points="2504.750000000018,1695.7500000000002,2504.750000000018,1563.5,2618.250000000018,1563.5,2618.250000000018,1515.5,2053.000000000018,1515.5,2053.000000000018,1563.5,2320.750000000018,1563.5,2320.750000000018,1695.7500000000002,2380.750000000018,1695.7500000000002,2380.7500000000186,1764.5000000000014,2444.750000000018,1764.5000000000007,2444.750000000018,1695.7500000000002,2504.750000000018,1695.7500000000002" /><polygon id="50224300EP031J" title="EP031J" points="2409.500000000018,1764.5000000000007,2409.500000000018,1810.2499999999998,2384.750000000019,1810.2499999999998,2384.750000000019,1866.2499999999998,2409.500000000018,1866.2499999999998,2409.500000000018,1906.7500000000002,2418.250000000018,1906.75,2418.250000000018,1946.750000000011,2534.750000000018,1946.750000000011,2534.750000000018,1900,2505.500000000018,1900,2505.500000000018,1894.75,2529.5000000000186,1894.75,2529.500000000018,1769.7500000000002,2444.750000000018,1769.7500000000002,2444.750000000018,1764.5000000000007,2409.500000000018,1764.5000000000007" /><polygon id="50224300EP031K" title="EP031K" points="2534.750000000018,1946.750000000011,2802.000000000018,1946.750000000011,2802.000000000018,1894.7500000000005,2534.750000000018,1894.7500000000005,2534.750000000018,1946.750000000011" /><polygon id="50224300EP031H" title="EP031H" points="2450.000000000018,1701.0000000000002,2450.000000000018,1764.5000000000002,2529.500000000019,1764.5000000000002,2529.500000000019,1701.0000000000002,2450.000000000018,1701.0000000000002" /><polygon id="50224300EP031N" title="EP031N" points="2534.750000000018,1563.5,2534.750000000018,1653.875,2582.000000000018,1653.875,2582.000000000018,1633.25,2627.250000000018,1633.25,2627.250000000018,1585.0000000000002,2569.250000000018,1585.0000000000005,2569.250000000018,1563.5,2534.750000000018,1563.5" /><polygon id="50224300EP031L" title="EP031L" points="2627.250000000018,1662.5,2627.250000000018,1638.5,2587.250000000018,1638.5,2587.250000000018,1821.25,2582.000000000018,1821.25,2582.000000000018,1659.125,2534.750000000018,1659.125,2534.750000000018,1856.2500000000002,2693.500000000008,1856.2500000000002,2693.500000000008,1671.4112551957005,2657.250000000018,1671.4112551957005,2657.250000000018,1662.5,2627.250000000018,1662.5" /><polygon id="50224300EP031M" title="EP031M" points="2632.500000000018,1585.0000000000002,2632.500000000018,1657.25,2689.125000000009,1657.25,2689.125000000009,1585.0000000000002,2632.500000000018,1585.0000000000002" /><polygon id="50224300EP988" title="EP988" points="2753.8365734862364,1513.75,2623.500000000018,1513.75,2623.500000000018,1573.5000000000002,2697.3365734862364,1573.5000000000002,2697.3365734862364,1607.25,2753.8365734862364,1607.25,2753.8365734862364,1513.75" /><polygon id="50224300EP031P" title="EP031P" points="2420.250000000018,1313,2420.250000000018,1433,2565.500000000018,1433,2565.500000000018,1313,2420.250000000018,1313" /><polygon id="50224300EP031F" title="EP031F" points="2420.250000000018,1438.25,2420.250000000018,1510.25,2524.500000000018,1510.25,2524.500000000018,1486.25,2529.750000000018,1486.25,2529.750000000018,1510.25,2565.500000000018,1510.25,2565.500000000018,1438.25,2420.250000000018,1438.25" /><polygon id="50224300EP031O" title="EP031O" points="2679.3749912719695,1503.75,2679.3749912719695,1104.000000000001,2570.750000000018,1104.000000000001,2570.750000000018,1515.5000000000002,2618.250000000018,1515.5000000000002,2618.250000000018,1503.75,2679.3749912719695,1503.75" /><polygon id="50224300EP031Q" title="EP031Q" points="2679.6249912719695,1503.75,2810.2499912719695,1503.75,2810.2499912719695,1456.75,2841.4999912719695,1456.75,2841.4999912719695,1408.75,2699.9999912719695,1408.75,2699.9999912719695,1406.25,2679.6249912719695,1406.25,2679.6249912719695,1503.75" /><polygon id="50224300EP031R" title="EP031R" points="2679.6249912719695,1305,2679.6249912719695,1406,2699.9999912719695,1406,2699.9999912719695,1403.5,2841.4999912719695,1403.5,2841.4999912719695,1307.5,2699.9999912719695,1307.5,2699.9999912719695,1305,2679.6249912719695,1305" /><polygon id="50224300EP031S" title="EP031S" points="2679.6249912719695,1304.75,2699.9999912719695,1304.75,2699.9999912719695,1302.25,2841.4999912719695,1302.25,2841.4999912719695,1205.25,2699.9999912719695,1205.25,2699.9999912719695,1202.75,2679.6249912719695,1202.75,2679.6249912719695,1304.75" /><polygon id="50224300EP031T" title="EP031T" points="2810.2499912719695,1135.250000000001,2810.2499912719695,1104.000000000001,2679.6249912719695,1104.000000000001,2679.6249912719695,1202.5,2699.9999912719695,1202.5,2699.9999912719695,1200,2841.4999912719695,1200,2841.4999912719695,1135.250000000001,2810.2499912719695,1135.250000000001" /><polygon id="50224300EP032" title="EP032" points="2053.000000000018,1307.75,2565.500000000018,1307.75,2565.500000000018,1139.875,2419.750000000018,1139.875,2419.750000000018,1182.5,2414.500000000018,1182.5,2414.500000000018,1170.75,2374.7499912719686,1170.75,2374.7499912719686,1091.5,2326.1249912719686,1091.5,2326.1249912719686,1170.75,2320.8749912719686,1170.75,2320.8749912719686,1139.875,2225.375000000018,1139.875,2225.375000000018,1170.75,2220.125000000018,1170.75,2220.125000000018,1139.875,2059.500000000018,1139.875,2059.500000000018,1220.0282829120233,2050.750000000018,1220.0282829120233,2050.750000000018,1280.7782829120233,2053.000000000018,1280.7782829120233,2053.000000000018,1307.75" /><polygon id="50224300EP032A" title="EP032A" points="2216.750000000018,878.3750000000001,2216.750000000018,1134.875,2320.8749912719686,1134.875,2320.8749912719686,1086.5,2408.9999912719686,1086.5,2408.9999912719686,878.3750000000001,2216.750000000018,878.3750000000001" /><polygon id="50224300EP032B" title="EP032B" points="2021.000000000018,878.3749999999999,2021.000000000018,841.6249999999975,1947.9797067454406,841.6249999999975,1947.9797067454408,1096.750000000001,1984.7499912719686,1096.750000000001,1984.7499912719686,1134.875,2211.500000000018,1134.875,2211.500000000018,878.3750000000001,2021.000000000018,878.3749999999999" /><polygon id="50224300EP970" title="EP970" points="1947.9797067454408,1139.875,1947.9797067454408,1215.0282829120233,2054.250000000018,1215.0282829120233,2054.250000000018,1139.875,1947.9797067454408,1139.875" /><polygon id="50224300EP045" title="EP045" points="1984.500000000018,1279.8749999999975,1984.500000000018,1293.3749999999977,2044.500000000018,1293.3749999999977,2044.500000000018,1280.7782829120233,2046.7500000000182,1280.7782829120233,2046.7500000000182,1220.0282829120233,1942.4797067454408,1220.0282829120233,1942.4797067454408,920.3749999999976,1888.7500000000182,920.3749999999976,1888.7500000000182,957.3749999999986,1823.3750000000082,957.3749999999986,1823.3750000000082,1031.124999999999,1884.7500000000082,1031.1249999999993,1884.7500000000082,1036.1249999999993,1824.5000000000182,1036.1249999999993,1824.5000000000182,1096.8749999999975,1883.0000000000186,1096.8749999999975,1883.0000000000186,1279.8749999999975,1984.500000000018,1279.8749999999975" /><polygon id="50224300EP046" title="EP046" points="1785.5000000000184,1284.6249999999989,1877.5000000000186,1284.6249999999989,1877.5000000000186,1183.8749999999975,1785.5000000000184,1183.8749999999975,1785.5000000000184,1284.6249999999989" /><polygon id="50224300EP047" title="EP047" points="1877.5000000000186,1150.3749999999973,1877.5000000000186,1102.3749999999975,1785.5000000000184,1102.3749999999975,1785.5000000000184,1150.3749999999973,1877.5000000000186,1150.3749999999973" /><polygon id="50224300EP048" title="EP048" points="1883.2500000000182,952.3749999999986,1883.2500000000182,855.9999999999976,1823.3750000000082,855.9999999999976,1823.3750000000082,952.3749999999986,1883.2500000000182,952.3749999999986" /><polygon id="50224300EP049" title="EP049" points="1818.3750000000082,855.1249999999986,1738.0000000000082,855.1249999999986,1738.0000000000082,952.3749999999986,1818.3750000000082,952.3749999999986,1818.3750000000082,855.1249999999986" /><polygon id="50224300EP034B" title="EP034B" points="1570.1250000000082,855.1249999999986,1570.1250000000082,915.1249999999986,1685.0000000000082,915.1249999999986,1685.0000000000082,1031.1249999999993,1818.3750000000082,1031.1249999999993,1818.3750000000082,957.3749999999986,1733.0000000000082,957.3749999999986,1733.0000000000082,855.1249999999986,1570.1250000000082,855.1249999999986" /><polygon id="50224300EP041" title="EP041" points="1575.2500000000182,1036.1249999999993,1575.2500000000182,1096.8749999999975,1619.6250000000182,1096.8749999999975,1619.6250000000182,1156.8749999999975,1712.0000000000184,1156.8749999999975,1712.0000000000184,1096.8749999999975,1816.5000000000182,1096.8749999999975,1816.5000000000182,1036.1249999999993,1575.2500000000182,1036.1249999999993" /><polygon id="50224300EP042" title="EP042" points="1780.0000000000184,1102.3749999999975,1717.5000000000184,1102.3749999999975,1717.5000000000184,1162.3749999999975,1678.5000000000182,1162.3749999999975,1678.5000000000182,1203.1249999999975,1744.0000000000182,1203.1249999999975,1744.0000000000182,1210.1249999999975,1678.5000000000182,1210.1249999999975,1678.5000000000182,1276.1249999999975,1780.0000000000184,1276.1249999999975,1780.0000000000184,1102.3749999999975" /><polygon id="50224300EP040" title="EP040" points="1614.1250000000182,1162.3749999999975,1614.1250000000182,1102.3749999999975,1563.1238013221237,1102.3749999999975,1563.1238013221239,1276.1249999999975,1653.1250000000182,1276.1249999999975,1653.1250000000182,1210.1249999999975,1599.1238013221237,1210.1249999999975,1599.1238013221237,1203.1249999999975,1653.1250000000182,1203.1249999999975,1653.1250000000182,1162.3749999999975,1614.1250000000182,1162.3749999999975" /><polygon id="50224300EP034C" title="EP034C" points="1570.1250000000082,920.1249999999986,1570.1250000000082,1031.1249999999993,1680.0000000000082,1031.1249999999993,1680.0000000000082,920.1249999999986,1570.1250000000082,920.1249999999986" /><polygon id="50224300EP036" title="EP036" points="1243.2500000000182,1034.1249999999986,1084.7499912719686,1034.1249999999986,1084.7499912719686,1096.750000000001,1120.7499912719686,1096.750000000001,1120.7499912719686,1135.250000000001,1084.7499912719686,1135.250000000001,1084.7499912719686,1284.6249999999989,1243.2500000000182,1284.6249999999989,1243.2500000000182,1263.7500000000014,1253.2500000000182,1263.7500000000014,1253.2500000000182,1213.7500000000018,1243.2500000000182,1213.7500000000018,1243.2500000000182,1165.250000000001,1253.2500000000182,1165.250000000001,1253.2500000000182,1115.2500000000014,1243.2500000000182,1115.2500000000014,1243.2500000000182,1034.1249999999986" /><polygon id="50224300EP034" title="EP034" points="1243.2500000000182,707.3749999999986,1093.0000000000082,707.3749999999986,1093.0000000000082,715.6249999999986,1080.7500000000086,715.6249999999986,1080.7500000000086,982.8749999999976,1093.0000000000082,982.8749999999976,1093.0000000000082,991.3749999999986,1105.5000000000082,991.3749999999986,1105.5000000000082,1029.1249999999986,1243.2500000000182,1029.1249999999986,1243.2500000000182,707.3749999999986" /><polygon id="50224300EP034A" title="EP034A" points="1510.8750000000082,403.2500000000009,1120.7499912719686,403.2500000000009,1120.7499912719686,433.25000000000097,1086.1250000000018,433.25000000000097,1086.1250000000018,442.1874999999987,1080.7500000000068,442.1874999999987,1080.7500000000068,660.7499999999986,1086.1250000000018,660.7499999999986,1086.1250000000018,664.7500000000009,1120.7499912719686,664.7500000000009,1120.7499912719686,702.3749999999986,1248.2500000000182,702.3749999999986,1248.2500000000182,1026.000000000001,1565.1250000000082,1026.000000000001,1565.1250000000082,850.1249999999986,1818.3750000000082,850.1249999999986,1818.3750000000082,402.5000000000009,1554.6250000000082,402.5000000000009,1554.6250000000082,435.5000000000009,1510.8750000000082,435.5000000000009,1510.8750000000082,403.2500000000009" /><polygon id="50224300EP989" title="EP989" points="2811.500000000008,1618.25,2703.500000000008,1618.25,2703.500000000008,1851.5000000000005,2811.500000000008,1851.5000000000005,2811.500000000008,1618.25" /><polygon id="50224300EP985" title="EP985" points="1398.2500000000182,1047.0000000000023,1398.2500000000182,1275.0000000000018,1506.7500000000182,1275.0000000000018,1506.7500000000182,1094.1249999999982,1516.7500000000182,1094.1249999999982,1516.7500000000182,1098.000000000001,1557.6238013221239,1098.000000000001,1557.6238013221239,1096.8749999999975,1568.7500000000182,1096.8749999999975,1568.7500000000182,1040.0000000000018,1516.0000000000182,1040.0000000000018,1516.0000000000182,1047.000000000002,1398.2500000000182,1047.0000000000023" /><polygon id="50224300EP034D" title="EP034D" points="1884.5000000000184,617.7499999999976,1938.1249912719688,617.7499999999976,1938.1249912719688,514.9999999999976,1834.3750000000184,514.9999999999977,1834.3750000000182,850.4999999999975,1888.750000000018,850.4999999999975,1888.750000000018,914.8749999999975,1942.4797067454406,914.8749999999975,1942.4797067454406,796.4999999999975,1884.5000000000184,796.4999999999977,1884.5000000000184,617.7499999999976" /><polygon id="50224300EP033" title="EP033" points="1884.5000000000184,623.2499999999976,1884.5000000000184,671.2499999999976,1890.0000000000182,671.2499999999976,1890.0000000000184,790.9999999999976,1947.9797067454408,790.9999999999976,1947.9797067454408,836.1249999999976,2021.0000000000182,836.1249999999976,2021.0000000000182,795.3749999999977,2120.375000000018,795.3749999999977,2120.375000000018,710.6249999999976,1938.1249912719686,710.6249999999976,1938.1249912719686,623.2499999999976,1884.5000000000184,623.2499999999976" /><polygon id="50224300EP035" title="EP035" points="1947.4999912719688,666.0000000000009,1983.4999912719688,666.0000000000009,1983.499991271969,705.1249999999976,2120.375000000018,705.1249999999976,2120.375000000018,671.2499999999976,2125.875000000018,671.2499999999976,2125.875000000018,800.8749999999977,2026.5000000000182,800.8749999999977,2026.5000000000182,873.3750000000001,2408.9999912719686,873.3750000000001,2408.9999912719686,702.0000000000009,2379.4999912719686,702.0000000000009,2379.4999912719686,666.0000000000009,2408.9999912719686,666.0000000000009,2408.9999912719686,432.0000000000009,2379.4999912719686,432.0000000000009,2379.4999912719686,402.5000000000009,1983.4999912719686,402.5000000000009,1983.4999912719686,432.0000000000009,1947.4999912719688,432.0000000000009,1947.4999912719688,666.0000000000009" /><polygon id="50224300EP034E" title="EP034E" points="1823.375000000008,402.50000000000085,1823.375000000008,509.49999999999756,1938.1249912719686,509.49999999999756,1938.1249912719686,402.50000000000085,1823.375000000008,402.50000000000085" /><polygon id="50224300EP999" title="EP999" points="1253.2500000000182,1092.0000000000018,1253.2500000000182,1178.1249999999995,1388.2500000000182,1178.1249999999995,1388.2500000000182,1092.0000000000018,1253.2500000000182,1092.0000000000018" /><polygon id="50224300EP998" title="EP998" points="1388.2500000000182,1183.6249999999995,1253.2500000000182,1183.6249999999995,1253.2500000000182,1275.0000000000018,1388.2500000000182,1275.0000000000018,1388.2500000000182,1183.6249999999995" /><polygon id="50224300EP031C" title="EP031C" points="2130.250000000018,1563.5000000000002,2130.250000000018,1587.75,2154.750000000018,1587.75,2154.750000000018,1563.5000000000002,2130.250000000018,1563.5000000000002" /><polygon id="50224300EP994" title="EP994" points="1253.5000000000082,1655.9999999999932,1253.5000000000082,1750.0000000000011,1354.3365734862361,1750.0000000000011,1354.3365734862361,1655.9999999999932,1253.5000000000082,1655.9999999999932" /><polygon id="50224300EP993" title="EP993" points="1360.3365734862364,1655.9999999999932,1360.3365734862364,1749.999999999997,1459.500000000008,1749.999999999997,1459.500000000008,1655.9999999999932,1360.3365734862364,1655.9999999999932" /><polygon id="50224300EP991" title="EP991" points="1253.5000000000082,1950.0000000000011,1253.5000000000082,2044.000000000001,1354.3365734862364,2044.000000000001,1354.3365734862364,1950.0000000000011,1253.5000000000082,1950.0000000000011" /><polygon id="50224300EP992" title="EP992" points="1360.3365734862364,1950.0000000000011,1360.3365734862364,2044.0000000000011,1459.5000000000082,2044.0000000000011,1459.5000000000082,1950.0000000000011,1360.3365734862364,1950.0000000000011" /><polygon id="50224300EP030A" title="EP030A" points="1243.5000000000082,1608.000000000001,1464.8365734862366,1608.000000000001,1464.8365734862366,1485.124999999997,1119.4999912719686,1485.124999999997,1119.4999912719686,1512.000000000001,1080.711573486239,1512.000000000001,1080.711573486239,1624.1250000000025,1243.5000000000082,1624.1250000000025,1243.5000000000082,1608.000000000001" /><polygon id="50224300EP030B" title="EP030B" points="1808.7276520075675,1926.3750000000252,1808.7276520075584,1829.87500000003,1807.8526520075666,1829.8750000000325,1807.852652007566,1828.8773453588317,1687.3526520075698,1828.8773453588271,1687.3526520075675,1829.8678593226416,1686.4776520075748,1829.8750000000325,1686.4776520075666,1926.3750000000252,1687.3526520075657,1926.3821406774164,1687.3526520075666,1927.3726546412324,1807.8526520075757,1927.3750000000343,1807.8526520075684,1926.3750000000152,1808.7276520075675,1926.3750000000252" /><polygon id="50224300EP030" title="EP030" points="1668.9615734862364,1946.750000000025,1682.6651520075607,1946.7500000000246,1682.6651520075611,1945.5000000000246,1681.9776520075666,1945.5000000000198,1681.9776520075666,1931.8750000000325,1681.8526520075666,1931.8750000000325,1681.8526520075648,1926.3750000000161,1681.9776520075834,1926.3750000000161,1681.9776520075675,1829.8750000000307,1681.8526520075666,1829.8750000000307,1681.8526520075657,1824.3750000000737,1813.3526520075675,1824.37500000003,1813.3526520075666,1829.875000000031,1813.227652007488,1829.8750000000284,1813.2276520075677,1926.3750000000166,1813.3526520075684,1926.3750000000164,1813.3526520075675,1931.8750000000327,1813.2276520075698,1931.8750000000327,1813.2276520075675,1945.50000000002,1812.54015200756,1945.5000000000246,1812.5401520075602,1946.7500000000261,1826.5865734862375,1946.750000000031,1826.5865734862364,1927.2500000000273,1826.0865734862364,1927.2500000000273,1826.0865734862364,1922.5000000000332,1934.086573486235,1922.500000000024,1934.0865734862364,1692.125000000002,2046.2500000000182,1692.1250000000023,2046.2500000000182,1586.2500000000023,2044.5000000000182,1586.250000000002,2044.5000000000182,1476.0510213458385,1983.4999912719686,1476.0510213458385,1983.4999912719686,1512.0000000000011,1947.4999912719686,1512.0000000000011,1947.4999912719686,1476.0000000000011,2044.5000000000155,1476.0000000000011,2044.5000000000182,1291.999999999998,1984.5000000000182,1291.9999999999982,1984.5000000000182,1293.3749999999977,1080.7500000000182,1293.3749999999927,1080.750000000008,1473.6249999999977,1126.4615734862364,1473.6249999999975,1126.4615734862364,1479.8749999999975,1515.4999912719707,1479.8749999999977,1515.4999912719686,1476.0000000000014,1551.4999912719686,1476.0000000000011,1551.4999912719686,1512.0000000000011,1515.4999912719686,1512.0000000000014,1515.4999912719686,1480.3749999999973,1476.0865734862364,1480.3749999999973,1476.0865734862364,1485.1249999999973,1470.0865734862364,1485.1249999999975,1470.0865734862364,1601.4999999999914,1476.0865734862366,1601.4999999999911,1476.0865734862364,1799.8750000000011,1458.0865734862364,1799.8750000000014,1458.0865734862364,1760.8749999999977,1428.2115734862364,1760.8749999999975,1428.2115734862364,1749.9999999999975,1387.9615734862373,1750.0000000000023,1387.9615734862373,1760.8750000000023,1324.2115734862364,1760.875000000002,1324.2115734862364,1750.000000000002,1283.9615734862364,1750.0000000000057,1283.9615734862364,1760.875000000001,1252.0865734862361,1760.8749999999968,1252.0865734862364,1939.1250000000014,1283.7115734862364,1939.1250000000011,1283.7115734862364,1949.9999999999966,1327.2115734862364,1950.0000000000014,1327.2115734862364,1939.1250000000014,1387.4615734862364,1939.1250000000011,1387.4615734862364,1950.0000000000011,1425.125000000009,1950.0000000000014,1425.125000000009,1939.1250000000014,1458.0865734862364,1939.1250000000014,1458.0865734862364,1905.6250000000014,1476.0865734862364,1905.6250000000011,1476.0865734862364,1922.500000000033,1505.2115734862364,1922.5000000000332,1505.2115734862364,1927.2500000000334,1504.7115734862364,1927.2500000000332,1504.7115734862364,1946.7500000000332,1551.4766946022792,1946.7500000000339,1551.4766946022792,1944.0000000000011,1515.4999912719686,1944.0000000000011,1515.4999912719686,1908.0000000000011,1551.4999912719686,1908.0000000000011,1551.4999912719686,1946.7500000000325,1558.4615734862364,1946.750000000032,1558.4615734862364,1927.250000000033,1557.9615734862364,1927.250000000033,1557.9615734862361,1922.5000000000239,1669.4615734862361,1922.5000000000296,1669.4615734862364,1927.2500000000296,1668.9615734862364,1927.2500000000296,1668.9615734862364,1946.750000000025" /><polygon id="50224300EP031B" title="EP031B" points="2296.010368531645,1723.4999999999995,2293.2298924730853,1728.7500000000002,2154.1490734862364,1728.7500000000014,2154.1490734862364,1946.7500000000266,2379.4999912719686,1946.750000000032,2379.500000000018,1804.9999988734155,2404.2499989147846,1805.0000003973607,2404.250001085252,1769.7500000000002,2375.500000000018,1769.7500000000011,2375.500000000018,1701.0000000000002,2305.4538276473722,1701.0000000000002,2303.550681532488,1706.3459004673548,2301.1502231099666,1712.391246104495,2299.004620726283,1717.2878292192959,2297.368580307026,1720.7619548486202,2296.010368531645,1723.4999999999995" /><polygon id="50224300EP031U" title="EP031U" points="2384.750000000018,1908.000000000001,2404.250000000018,1908.000000000001,2404.250000000018,1871.5,2384.750000000018,1871.5,2384.750000000018,1908.000000000001" /><polygon id="50224300EP031D" title="EP031D" points="2379.250000000018,1510.25,2379.250000000018,1465,2415.000000000018,1465,2415.000000000018,1358,2379.250000000018,1358,2379.250000000018,1313,2053.000000000018,1313,2053.000000000018,1510.25,2379.250000000018,1510.25" /><polygon id="50224300EP031E" title="EP031E" points="2415.000000000018,1313,2384.500000000018,1313,2384.500000000018,1352.75,2415.000000000018,1352.75,2415.000000000018,1313" /></svg>
