<svg version="1.1" id="Map" class="gen-by-synoptic-designer" xmlns="http://www.w3.org/2000/svg" xmlns:xlink="http://www.w3.org/1999/xlink" viewBox="2038.4208075947067 -2792.8945079038376 2296.500000000005 1921.500000000001" xml:space="preserve"><image width="2296.500000000005" height="1921.500000000001" xlink:href=""/><polygon id="50224300794" title="794" points="2307.4208075947117,-1533.8945079038376,2204.420816322751,-1533.8945079038376,2204.420816322751,-1439.8945079038374,2307.4208075947117,-1439.8945079038374,2307.4208075947117,-1533.8945079038376" /><polygon id="50224300793" title="793" points="2307.4208075947117,-1533.8945079038376,2307.4208075947117,-1439.8945079038415,2410.420816322751,-1439.8945079038415,2410.420816322751,-1533.8945079038376,2307.4208075947117,-1533.8945079038376" /><polygon id="50224300791" title="791" points="2307.42080759471,-1145.8945079038376,2307.42080759471,-1239.8945079038376,2204.420816322751,-1239.8945079038376,2204.420816322751,-1145.8945079038376,2307.42080759471,-1145.8945079038376" /><polygon id="50224300792" title="792" points="2307.42080759471,-1145.8945079038376,2410.4208075947104,-1145.8945079038376,2410.4208075947104,-1239.8945079038376,2307.42080759471,-1239.8945079038376,2307.42080759471,-1145.8945079038376" /><polygon id="50224300796" title="796" points="2349.420807594711,-2149.894507903837,2349.420807594711,-1914.8945079038378,2457.420807594711,-1914.8945079038378,2457.420807594711,-2149.894507903837,2349.420807594711,-2149.894507903837" /><polygon id="50224300799" title="799" points="2339.42080759471,-2011.3945079038376,2339.42080759471,-2107.894507903837,2204.4208075947113,-2107.894507903837,2204.4208075947113,-2011.3945079038376,2339.42080759471,-2011.3945079038376" /><polygon id="50224300798" title="798" points="2339.42080759471,-2011.3945079038376,2204.4208075947104,-2011.3945079038376,2204.4208075947104,-1914.894507903837,2339.42080759471,-1914.894507903837,2339.42080759471,-2011.3945079038376" /><polygon id="50224300784" title="784" points="2371.420807594713,-1745.1445079038378,2371.420807594713,-1821.8945079038385,2311.420807594713,-1821.8945079038385,2311.420807594713,-1826.8945079038388,2371.420807594713,-1826.8945079038388,2371.420807594713,-1904.8945079038367,2274.670807594709,-1904.8945079038367,2274.6708075947095,-1684.8945079038385,2322.670807594709,-1684.8945079038385,2322.670807594709,-1745.1445079038378,2371.420807594713,-1745.1445079038378" /><polygon id="50224300783" title="783" points="2395.420807594709,-1821.8945079038385,2395.420807594709,-1745.1445079038376,2421.420807594709,-1745.1445079038376,2421.420807594709,-1684.1445079038376,2466.420807594709,-1684.1445079038376,2466.420807594709,-1713.8945079038376,2496.670807594709,-1713.8945079038376,2496.670807594709,-1904.8945079038378,2395.420807594709,-1904.8945079038378,2395.420807594709,-1826.8945079038385,2437.4208075947126,-1826.8945079038385,2437.4208075947126,-1821.8945079038385,2395.420807594709,-1821.8945079038385" /><polygon id="50224300789" title="789" points="3654.4208075947104,-1336.8945079038376,3762.4208075947117,-1336.8945079038376,3762.4208075947117,-1571.894507903838,3654.4208075947104,-1571.894507903838,3654.4208075947104,-1336.8945079038376" /><polygon id="50224300787" title="787" points="3539.420807594709,-1331.8945079038378,3644.4208075947117,-1331.8945079038378,3644.4208075947117,-1576.8945079016685,3539.420807594709,-1576.8945079016685,3539.420807594709,-1331.8945079038378" /><polygon id="50224300786" title="786" points="3485.420807594708,-1576.8878847260778,3485.420807594708,-1331.894507903838,3532.9208075947085,-1331.894507903838,3532.9208075947085,-1576.8878847260778,3485.420807594708,-1576.8878847260778" /><polygon id="50224300746B" title="746B" points="4334.920807594711,-904.1445079038369,4334.920807594711,-935.6445079038369,4180.795807594711,-935.6445079038369,4180.795807594711,-871.3945079038369,4302.170807594711,-871.3945079038369,4302.170807594711,-904.1445079038369,4334.920807594711,-904.1445079038369" /><polygon id="50224300746A" title="746A" points="4180.795807594711,-1068.144507903837,4180.795807594711,-940.6445079038369,4334.920807594711,-940.6445079038369,4334.920807594711,-1068.144507903837,4180.795807594711,-1068.144507903837" /><polygon id="50224300748" title="748" points="4180.795807594711,-1235.394507903837,4180.795807594711,-1073.144507903837,4334.920807594712,-1073.144507903837,4334.920807594712,-1235.394507903837,4180.795807594711,-1235.394507903837" /><polygon id="50224300746" title="746" points="3919.045807594711,-1158.3945079038372,3919.045807594711,-871.3945079038369,4175.795807594711,-871.3945079038369,4175.795807594711,-1158.3945079038372,3919.045807594711,-1158.3945079038372" /><polygon id="50224300744" title="744" points="3675.2958075947104,-1158.3945079038372,3675.2958075947104,-871.3945079038369,3762.0458075947104,-871.3945079038369,3762.045807594711,-903.8945079038368,3798.670807594711,-903.8945079038368,3798.670807594711,-871.3945079038368,3914.045807594711,-871.3945079038368,3914.045807594711,-1158.3945079038372,3675.2958075947104,-1158.3945079038372" /><polygon id="50224300742" title="742" points="3433.045807594711,-1158.3945079038372,3433.045807594711,-871.3945079038369,3670.295807594711,-871.3945079038369,3670.295807594711,-1158.3945079038372,3433.045807594711,-1158.3945079038372" /><polygon id="50224300734" title="734" points="3031.295807594711,-1158.3945079038372,3031.295807594711,-871.3945079038369,3265.545807594711,-871.3945079038369,3265.545807594711,-1158.3945079038372,3031.295807594711,-1158.3945079038372" /><polygon id="50224300732" title="732" points="2894.5698032236687,-1158.3945079038372,2894.5698032236687,-929.6445079038373,2943.920807594709,-929.6445079038373,2943.920807594709,-871.3945079038368,3026.295807594711,-871.3945079038368,3026.295807594711,-1158.3945079038372,2894.5698032236687,-1158.3945079038372" /><polygon id="50224300750" title="750" points="4147.795807594711,-1354.394507903837,4147.795807594711,-1240.394507903837,4302.920807594711,-1240.394507903837,4302.920807594711,-1281.1445079038401,4334.920807594711,-1281.1445079038401,4334.920807594711,-1354.394507903837,4147.795807594711,-1354.394507903837" /><polygon id="50224300756" title="756" points="4302.920807594711,-1713.6445079038372,4147.795807594711,-1713.6445079038372,4147.795807594711,-1599.8945079038372,4334.920807594711,-1599.8945079038372,4334.920807594711,-1676.3945079038372,4302.920807594711,-1676.3945079038372,4302.920807594711,-1713.6445079038372" /><polygon id="50224300758" title="758" points="4180.795807594711,-1881.1445079038372,4180.795807594711,-1718.6445079038372,4334.920807594711,-1718.6445079038372,4334.920807594711,-1881.1445079038372,4180.795807594711,-1881.1445079038372" /><polygon id="50224300762A" title="762A" points="4303.920807594711,-2087.89450790384,4180.795807594711,-2087.89450790384,4180.795807594711,-1886.1445079038372,4334.920807594711,-1886.1445079038372,4334.920807594711,-2057.3945079038385,4303.920807594711,-2057.3945079038385,4303.920807594711,-2087.89450790384" /><polygon id="50224300762" title="762" points="3919.295807594711,-2087.89450790384,3919.295807594711,-1795.6445079038372,4175.795807594711,-1795.6445079038372,4175.795807594711,-2087.89450790384,3919.295807594711,-2087.89450790384" /><polygon id="50224300764" title="764" points="3675.795807594711,-2087.89450790384,3675.795807594711,-1795.6445079038372,3914.295807594711,-1795.6445079038372,3914.295807594711,-2087.89450790384,3800.92080759471,-2087.89450790384,3800.9208075947104,-2057.6445079038376,3759.920807594708,-2057.6445079038376,3759.920807594708,-2087.89450790384,3675.795807594711,-2087.89450790384" /><polygon id="50224300768A" title="768A" points="3528.545807594711,-2087.89450790384,3528.545807594711,-1943.1445079038372,3670.795807594711,-1943.1445079038372,3670.795807594711,-2087.89450790384,3528.545807594711,-2087.89450790384" /><polygon id="50224300766" title="766" points="3528.545807594711,-1938.1445079038372,3528.545807594711,-1795.6445079038372,3670.795807594711,-1795.6445079038372,3670.795807594711,-1938.1445079038372,3528.545807594711,-1938.1445079038372" /><polygon id="50224300768" title="768" points="3286.7958075947113,-2057.3945079038385,3286.7958075947113,-1795.6445079038372,3523.545807594711,-1795.6445079038372,3523.545807594711,-2087.89450790384,3364.9208075947095,-2087.89450790384,3364.9208075947095,-2057.3945079038385,3286.7958075947113,-2057.3945079038385" /><polygon id="50224300769" title="769" points="3048.295807594711,-2085.3945079038367,3048.295807594711,-1795.6445079038372,3281.795807594711,-1795.6445079038372,3281.795807594711,-2085.3945079038367,3048.295807594711,-2085.3945079038367" /><polygon id="50224300753" title="753" points="3772.4208075947117,-1679.39450790384,3772.4208075947117,-1479.394507903837,4065.795807594711,-1479.394507903837,4065.795807594711,-1713.6445079038372,3796.9208075947095,-1713.6445079038372,3796.9208075947095,-1679.39450790384,3772.4208075947117,-1679.39450790384" /><polygon id="50224300751" title="751" points="4065.795807594711,-1474.394507903837,3772.4208075947117,-1474.394507903837,3772.4208075947117,-1281.8945079038374,3796.9208075947076,-1281.8945079038374,3796.9208075947076,-1240.394507903837,4065.795807594711,-1240.394507903837,4065.795807594711,-1474.394507903837" /><polygon id="50224300740B" title="740B" points="3625.920807594711,-1240.394507903837,3762.4208075947117,-1240.394507903837,3762.4208075947117,-1291.3945079038374,3625.920807594711,-1291.3945079038374,3625.920807594711,-1240.394507903837" /><polygon id="50224300740A" title="740A" points="3620.9208075947104,-1240.394507903837,3620.9208075947104,-1291.3945079038365,3484.4208075947085,-1291.3945079038365,3484.4208075947085,-1240.394507903837,3620.9208075947104,-1240.394507903837" /><polygon id="50224300757A" title="757A" points="3328.295807594711,-1288.894507903837,3369.420807594709,-1288.894507903837,3369.420807594709,-1240.394507903837,3479.420807594709,-1240.394507903837,3479.420807594709,-1366.8945079038372,3293.295807594711,-1366.8945079038372,3293.295807594711,-1263.8945079038378,3328.295807594711,-1263.8945079038378,3328.295807594711,-1288.894507903837" /><polygon id="50224300757" title="757" points="3293.295807594711,-1675.8945079038372,3293.295807594711,-1371.8945079038372,3446.6708075947085,-1371.8945079038372,3446.6708075947085,-1713.6445079038372,3364.670807594711,-1713.6445079038372,3364.670807594711,-1675.8945079038372,3293.295807594711,-1675.8945079038372" /><polygon id="50224300755" title="755" points="3451.6708075947085,-1713.6445079038372,3451.6708075947085,-1581.894507903838,3582.295807594711,-1581.894507903838,3582.295807594711,-1713.6445079038372,3451.6708075947085,-1713.6445079038372" /><polygon id="50224300759" title="759" points="3116.045807594711,-1713.6445079038372,3116.045807594711,-1572.6445079038372,3223.045807594711,-1572.6445079038372,3223.045807594711,-1713.6445079038372,3116.045807594711,-1713.6445079038372" /><polygon id="50224300761" title="761" points="3111.045807594711,-1572.6445079038372,3111.045807594711,-1713.6445079038372,3031.295807594711,-1713.6445079038372,3031.295807594711,-1572.6445079038372,3111.045807594711,-1572.6445079038372" /><polygon id="50224300733B" title="733B" points="2932.670807594711,-1713.6445079038372,2932.670807594711,-1593.3945079038374,2970.295807594711,-1593.3945079038374,2970.295807594711,-1579.6445079038372,3026.295807594711,-1579.6445079038372,3026.295807594711,-1713.6445079038372,2932.670807594711,-1713.6445079038372" /><polygon id="50224300739" title="739" points="3031.295807594711,-1567.644507903837,3031.295807594711,-1464.8945079038367,3223.045807594711,-1464.8945079038367,3223.045807594711,-1567.644507903837,3031.295807594711,-1567.644507903837" /><polygon id="50224300737" title="737" points="3031.295807594711,-1459.894507903837,3031.295807594711,-1352.394507903837,3223.045807594711,-1352.394507903837,3223.045807594711,-1459.894507903837,3031.295807594711,-1459.894507903837" /><polygon id="50224300735" title="735" points="3031.295807594711,-1347.394507903837,3031.295807594711,-1240.394507903837,3223.045807594711,-1240.394507903837,3223.045807594711,-1347.394507903837,3031.295807594711,-1347.394507903837" /><polygon id="50224300763" title="763" points="2896.170807594711,-1713.6445079038372,2773.670807594711,-1713.6445079038372,2773.670807594711,-1593.3945079038374,2927.670807594711,-1593.3945079038374,2927.670807594711,-1675.3945079038372,2896.170807594711,-1675.3945079038372,2896.170807594711,-1713.6445079038372" /><polygon id="50224300733A" title="733A" points="2566.670807594711,-1589.6445079038372,2619.170807594711,-1589.6445079038372,2619.170807594711,-1625.8945079038372,2686.170807594711,-1625.8945079038372,2686.170807594711,-1579.6445079038374,2742.170807594711,-1579.6445079038374,2742.170807594711,-1593.3945079038374,2768.670807594711,-1593.3945079038374,2768.670807594711,-1713.6445079038372,2566.670807594711,-1713.6445079038372,2566.670807594711,-1589.6445079038372" /><polygon id="50224300767" title="767" points="2868.545807594711,-1795.6445079038372,2966.295807594711,-1795.6445079038372,2966.295807594711,-1966.8945079038376,2868.545807594711,-1966.8945079038376,2868.545807594711,-1795.6445079038372" /><polygon id="50224300765" title="765" points="2863.545807594711,-1795.6445079038372,2863.545807594711,-1966.8945079038376,2742.795807594711,-1966.8945079038376,2742.795807594711,-1795.6445079038372,2863.545807594711,-1795.6445079038372" /><polygon id="50224300740" title="740" points="3031.295807594711,-1235.394507903837,3031.295807594711,-1163.3945079038372,4175.795807594711,-1163.3945079038372,4175.795807594711,-1235.394507903837,3288.295807594711,-1235.394507903837,3288.295807594711,-1718.6445079038372,3228.045807594711,-1718.6445079038372,3228.045807594711,-1235.394507903837,3031.295807594711,-1235.394507903837" /><polygon id="50224300760" title="760" points="4070.795807594711,-1718.6445079038372,4070.795807594711,-1235.394507903837,4142.795807594711,-1235.394507903837,4142.795807594711,-1718.6445079038372,4175.795807594711,-1718.6445079038372,4175.795807594711,-1790.6445079038372,2690.295807594711,-1790.6445079038372,2690.295807594711,-1718.6445079038372,3587.295807594711,-1718.6445079038372,3587.295807594711,-1581.894507903838,3762.4208075947117,-1581.894507903838,3762.4208075947136,-1718.6445079038372,4070.795807594711,-1718.6445079038372" /><polygon id="50224300716" title="716" points="3048.295807594711,-2228.8945079038367,3048.295807594711,-2090.3945079038367,3204.795807594711,-2090.3945079038367,3204.795807594711,-2228.8945079038367,3048.295807594711,-2228.8945079038367" /><polygon id="50224300718A" title="718A" points="3209.795807594711,-2228.8945079038367,3209.795807594711,-2090.3945079038367,3362.420807594717,-2090.3945079038367,3362.420807594717,-2228.8945079038367,3209.795807594711,-2228.8945079038367" /><polygon id="50224300718" title="718" points="3048.295807594711,-2472.1445079038376,3048.295807594711,-2233.8945079038363,3362.4208075947167,-2233.8945079038363,3362.4208075947167,-2472.1445079038376,3048.295807594711,-2472.1445079038376" /><polygon id="50224300720" title="720" points="2894.795807594711,-2520.394507903842,2720.295807594711,-2520.394507903842,2720.295807594711,-2237.6445079038385,2954.295807594711,-2237.6445079038385,2954.295807594711,-2472.1445079038376,2894.795807594711,-2472.1445079038376,2894.795807594711,-2520.394507903842" /><polygon id="50224300722A" title="722A" points="2595.295807594711,-2520.394507903842,2595.295807594711,-2374.3945079038385,2715.295807594711,-2374.3945079038385,2715.295807594711,-2520.394507903842,2595.295807594711,-2520.394507903842" /><polygon id="50224300720A" title="720A" points="2715.295807594711,-2369.3945079038385,2595.295807594711,-2369.3945079038385,2595.295807594711,-2237.6445079038385,2715.295807594711,-2237.6445079038385,2715.295807594711,-2369.3945079038385" /><polygon id="50224300722" title="722" points="2415.545807594711,-2237.6445079038385,2590.295807594711,-2237.6445079038385,2590.295807594711,-2520.394507903842,2501.9208075947163,-2520.394507903842,2501.9208075947163,-2489.394507903842,2466.9208075946835,-2489.394507903842,2466.9208075946835,-2520.394507903842,2415.545807594711,-2520.394507903842,2415.545807594711,-2237.6445079038385" /><polygon id="50224300719" title="719" points="3043.295807594711,-2472.1445079038376,2959.295807594711,-2472.1445079038376,2959.295807594711,-2232.6445079038385,2285.295807594711,-2232.6445079038385,2285.295807594711,-2159.8945079038376,2971.295807594711,-2159.8945079038376,2971.295807594711,-1790.6445079038372,3043.295807594711,-1790.6445079038372,3043.295807594711,-2472.1445079038376" /><polygon id="50224300782A" title="782A" points="2199.670807594709,-1904.8945079038367,2199.670807594709,-1880.1445079038367,2269.4208075947095,-1880.1445079038367,2269.4208075947095,-1904.8945079038367,2199.670807594709,-1904.8945079038367" /><polygon id="50224300733" title="733" points="2747.170807594711,-1574.6445079038374,2686.170807594711,-1574.6445079038374,2686.170807594711,-1352.394507903837,3026.295807594711,-1352.394507903837,3026.295807594711,-1574.6445079038372,2965.295807594711,-1574.6445079038372,2965.295807594711,-1588.3945079038372,2747.170807594711,-1588.3945079038372,2747.170807594711,-1574.6445079038374" /><polygon id="50224300724" title="724" points="2176.420807594707,-2520.394507903842,2176.420807594707,-2237.6445079038385,2410.545807594711,-2237.6445079038385,2410.545807594711,-2520.394507903842,2176.420807594707,-2520.394507903842" /><polygon id="50224300726" title="726" points="2171.420807594707,-2520.394507903842,2068.920807594708,-2520.394507903842,2068.920807594708,-2489.3945079038394,2038.4208075947067,-2489.394507903839,2038.4208075947067,-2333.394507903842,2171.420807594707,-2333.394507903842,2171.420807594707,-2520.394507903842" /><polygon id="50224300727" title="727" points="2171.420807594707,-2232.6445079038385,2171.420807594707,-2328.3945079038417,2038.420807594707,-2328.3945079038417,2038.4208075947072,-2100.894507903837,2194.420807594709,-2100.894507903837,2194.420807594709,-2159.8945079038385,2280.295807594711,-2159.8945079038385,2280.295807594711,-2232.6445079038385,2171.420807594707,-2232.6445079038385" /><polygon id="50224300728" title="728" points="2194.4208075947113,-2095.8945079038376,2072.170807594711,-2095.8945079038376,2072.170807594711,-2056.144507903839,2038.4208075947072,-2056.144507903839,2038.4208075947076,-1829.3945079038385,2111.4208075947076,-1829.3945079038385,2111.4208075947076,-1906.644507903839,2194.4208075947104,-1906.644507903839,2194.4208075947113,-2095.8945079038376" /><polygon id="50224300729A" title="729A" points="2116.4208075947076,-1901.644507903839,2116.4208075947076,-1783.3945079038392,2194.420807594709,-1783.3945079038392,2194.420807594709,-1901.644507903839,2116.4208075947076,-1901.644507903839" /><polygon id="50224300729" title="729" points="2111.4208075947076,-1778.3945079038392,2111.4208075947076,-1824.394507903839,2038.4208075947076,-1824.394507903839,2038.4208075947076,-1712.3945079038363,2069.920807594707,-1712.3945079038363,2069.920807594707,-1676.89450790384,2038.4208075947076,-1676.89450790384,2038.4208075947076,-1570.8945079038392,2187.420807594709,-1570.8945079038392,2187.420807594709,-1581.8945079038374,2322.670807594709,-1581.8945079038374,2322.670807594709,-1677.8945079038385,2194.420807594709,-1677.8945079038385,2194.420807594709,-1778.394507903839,2111.4208075947076,-1778.3945079038392" /><polygon id="50224300781" title="781" points="2199.6708075947095,-1730.8945079038372,2199.6708075947095,-1684.8945079038385,2269.4208075947095,-1684.8945079038385,2269.4208075947095,-1730.8945079038372,2199.6708075947095,-1730.8945079038372" /><polygon id="50224300782" title="782" points="2199.670807594709,-1874.644507903837,2199.670807594709,-1736.394507903837,2269.42080759471,-1736.394507903837,2269.42080759471,-1874.644507903837,2199.670807594709,-1874.644507903837" /><polygon id="50224300731" title="731" points="2681.170807594711,-1620.8945079038372,2624.170807594711,-1620.8945079038372,2624.170807594711,-1584.6445079038372,2561.670807594711,-1584.644507903837,2561.670807594711,-1718.6445079038372,2685.295807594711,-1718.6445079038372,2685.295807594711,-1790.644507903837,2502.420807594709,-1790.644507903837,2502.420807594709,-1677.8945079038376,2416.420807594709,-1677.8945079038376,2416.420807594709,-1738.8945079038376,2326.670807594709,-1738.8945079038376,2326.670807594709,-1581.8945079038376,2424.670807594711,-1581.8945079038378,2424.670807594711,-1445.3945079038376,2470.170807594711,-1445.3945079038376,2470.170807594711,-1404.1445079038376,2424.670807594711,-1404.1445079038376,2424.670807594711,-1319.6445079038376,2471.920807594714,-1319.6445079038376,2471.920807594714,-1325.6445079038376,2513.170807594714,-1325.6445079038376,2513.170807594714,-1251.1445079038378,2889.5698032236687,-1251.1445079038378,2889.5698032236687,-1284.1445079038378,2937.045807594711,-1284.1445079038378,2937.045807594711,-1163.3945079038372,3026.295807594711,-1163.3945079038372,3026.295807594711,-1347.394507903837,2681.170807594711,-1347.394507903837,2681.170807594711,-1620.8945079038372" /><polygon id="50224300780" title="780" points="2894.5698032236687,-1243.6445079038378,2894.5698032236687,-1163.3945079038372,2932.045807594711,-1163.3945079038372,2932.045807594711,-1243.6445079038378,2894.5698032236687,-1243.6445079038378" /><polygon id="50224300731A" title="731A" points="2502.420807594709,-1859.3945079038372,2502.420807594709,-1795.6445079038372,2607.795807594711,-1795.6445079038372,2607.795807594711,-1859.3945079038372,2502.420807594709,-1859.3945079038372" /><polygon id="50224300725A" title="725A" points="2612.795807594711,-1915.8945079038372,2612.795807594711,-1795.6445079038372,2737.795807594711,-1795.6445079038372,2737.795807594711,-1915.8945079038372,2612.795807594711,-1915.8945079038372" /><polygon id="50224300725" title="725" points="2502.420807594709,-2154.8945079038376,2502.420807594709,-1864.3945079038372,2607.795807594711,-1864.3945079038372,2607.795807594711,-1920.8945079038372,2737.795807594711,-1920.8945079038372,2737.795807594711,-2154.8945079038376,2502.420807594709,-2154.8945079038376" /><polygon id="50224300730" title="730" points="2408.920807594709,-1404.1445079038376,2408.920807594709,-1429.8945079038367,2199.420807594709,-1429.8945079038367,2199.420807594709,-1249.8945079038376,2408.920807594221,-1249.8945079038376,2408.920807594221,-1285.8945079038378,2419.6708075947113,-1285.8945079038378,2419.6708075947113,-1404.1445079038376,2408.920807594709,-1404.1445079038376" /><polygon id="50224300741" title="741" points="3270.545807594711,-1158.3945079038372,3270.545807594711,-1034.3945079038372,3428.045807594711,-1034.3945079038372,3428.045807594711,-1158.3945079038372,3270.545807594711,-1158.3945079038372" /><polygon id="50224300736" title="736" points="3270.545807594711,-1029.3945079038372,3270.545807594711,-871.3945079038369,3330.045807594711,-871.3945079038369,3330.045807594711,-903.8945079038367,3366.7958075947104,-903.8945079038367,3366.7958075947104,-871.3945079038369,3428.045807594711,-871.3945079038369,3428.045807594711,-1029.3945079038363,3270.545807594711,-1029.3945079038372" /><polygon id="50224300754" title="754" points="4147.795807594711,-1594.8945079038372,4147.795807594711,-1479.8945079038372,4334.920807594711,-1479.8945079038372,4334.920807594711,-1594.8945079038372,4147.795807594711,-1594.8945079038372" /><polygon id="50224300752" title="752" points="4334.920807594711,-1474.8945079038372,4147.795807594711,-1474.8945079038372,4147.795807594711,-1359.394507903837,4334.920807594711,-1359.394507903837,4334.920807594711,-1474.8945079038372" /><polygon id="50224300721" title="721" points="3365.420807594709,-2520.8945079038376,3365.420807594709,-2760.8945079038376,3333.420807594709,-2760.8945079038376,3333.420807594709,-2792.8945079038376,2931.420807594709,-2792.8945079038376,2931.420807594709,-2760.8945079038376,2899.420807594709,-2760.8945079038376,2899.420807594709,-2520.8945079038376,2931.420807594709,-2520.8945079038376,2931.420807594709,-2477.4692674302596,3333.420807594709,-2477.4692674302596,3333.420807594709,-2520.8945079038376,3365.420807594709,-2520.8945079038376" /><polygon id="50224300723" title="723" points="2815.1422566866117,-2154.8945079038376,2815.1422566866117,-2055.144319027448,2900.170807594709,-2055.144319027448,2900.170807594709,-2086.2695079038376,2966.295807594711,-2086.2695079038376,2966.295807594711,-2154.8945079038376,2815.1422566866117,-2154.8945079038376" /></svg>
