<svg version="1.1" id="Map" class="gen-by-synoptic-designer" xmlns="http://www.w3.org/2000/svg" xmlns:xlink="http://www.w3.org/1999/xlink" viewBox="2037.9208075947063 -2792.8945079038376 2297.5000000000036 1922.0004889144502" xml:space="preserve"><image width="2297.5000000000036" height="1922.0004889144502" xlink:href=""/><polygon id="50224300829" title="829" points="2194.42080759471,-2095.8945079038376,2072.17080759471,-2095.8945079038376,2072.17080759471,-2056.1445079038394,2037.9208075947063,-2056.1445079038394,2038.4208075947063,-1712.3945079038365,2069.9208075947063,-1712.3945079038365,2069.9208075947063,-1676.8945079038397,2038.4208075947063,-1676.8945079038406,2038.4208075947063,-1570.89450790384,2187.420807594708,-1570.8945079038397,2187.420807594708,-1581.8945079038383,2269.420807594708,-1581.8945079038383,2269.420807594708,-1593.8945079038385,2272.045807594708,-1593.8945079038385,2272.045807594708,-1665.8945079038385,2269.420807594708,-1665.8945079038385,2269.420807594708,-1677.8945079038388,2194.420807594708,-1677.8945079038388,2194.42080759471,-2095.8945079038376" /><polygon id="50224300841" title="841" points="3264.115110315539,-1548.8127789961025,3264.115110315539,-1379.8945079038376,3369.170807594708,-1379.8945079038376,3369.170807594708,-1548.8127789961025,3264.115110315539,-1548.8127789961025" /><polygon id="50224300896" title="896" points="2349.42080759471,-2149.8945079038376,2349.42080759471,-1914.894507903838,2457.42080759471,-1914.894507903838,2457.42080759471,-2149.8945079038376,2349.42080759471,-2149.8945079038376" /><polygon id="50224300882" title="882" points="2199.67080759471,-1874.6445079038372,2199.67080759471,-1684.8945079038388,2269.42080759471,-1684.8945079038388,2269.42080759471,-1874.6445079038372,2199.67080759471,-1874.6445079038372" /><polygon id="50224300882A" title="882A" points="2199.670807594708,-1904.8945079038367,2199.670807594708,-1880.1445079038367,2269.420807594708,-1880.1445079038367,2269.420807594708,-1904.8945079038367,2199.670807594708,-1904.8945079038367" /><polygon id="50224300884" title="884" points="2371.9208075947117,-1904.8945079038367,2274.670807594708,-1904.8945079038367,2274.670807594708,-1684.8945079038385,2322.670807594708,-1684.8945079038385,2322.670807594708,-1745.1445079038376,2371.4208075947117,-1745.1445079038374,2371.9208075947117,-1904.8945079038367" /><polygon id="50224300898" title="898" points="2204.42080759471,-2004.0195079038372,2204.42080759471,-1914.8945079038376,2339.42080759471,-1914.8945079038376,2339.42080759471,-2004.0195079038372,2204.42080759471,-2004.0195079038372" /><polygon id="50224300899" title="899" points="2204.42080759471,-2107.8945079038376,2204.42080759471,-2004.667434934365,2339.420807594708,-2004.667434934365,2339.420807594708,-2107.8945079038376,2204.42080759471,-2107.8945079038376" /><polygon id="50224300892" title="892" points="2308.4208075947117,-1239.8945079038367,2308.4208075947117,-1145.8945079038378,2410.42080759471,-1145.8945079038378,2410.42080759471,-1239.8945079038367,2308.4208075947117,-1239.8945079038367" /><polygon id="50224300891" title="891" points="2204.4208163227504,-1239.8945079038365,2204.4208163227504,-1145.8945079038376,2307.42080759471,-1145.8945079038376,2307.42080759471,-1239.8945079038365,2204.4208163227504,-1239.8945079038365" /><polygon id="50224300893" title="893" points="2308.42080759471,-1533.8945079038376,2308.42080759471,-1439.8945079038415,2410.42080759471,-1439.8945079038415,2410.42080759471,-1533.8945079038376,2308.42080759471,-1533.8945079038376" /><polygon id="50224300894" title="894" points="2204.4208163227504,-1533.8945079038374,2204.4208163227504,-1439.8945079038376,2308.42080759471,-1439.8945079038376,2308.42080759471,-1533.8945079038374,2204.4208163227504,-1533.8945079038374" /><polygon id="50224300883" title="883" points="2395.420807594708,-1904.8945079038367,2395.420807594708,-1745.1445079038376,2421.420807594708,-1745.1445079038376,2421.420807594708,-1684.1445079038378,2466.420807594708,-1684.1445079038376,2466.420807594708,-1713.8945079038376,2502.670807594699,-1713.8945079038376,2502.670807594699,-1905.1445079038378,2395.420807594708,-1904.8945079038367" /><polygon id="50224300835" title="835" points="3206.1088009631094,-1554.8104683889887,3147.424807594696,-1554.8104683889887,3147.924807594696,-1379.8945079038378,3259.115110315539,-1379.8945079038376,3259.115110315539,-1475.1445079038394,3206.1088009631094,-1475.1445079038394,3206.1088009631094,-1554.8104683889887" /><polygon id="50224300842" title="842" points="2513.1708075947136,-1244.3945079038376,2513.1708075947136,-908.6445079038372,2966.818091995028,-908.6445079038372,2966.483307594708,-871.3945079038369,3331.670807594708,-871.3945079038369,3331.6708075947063,-1293.6445079038376,3270.1708075947063,-1293.6445079038374,3270.1708075947063,-1246.644507903838,3216.9208075947063,-1246.644507903838,3216.9208075947063,-1293.6445079038378,2937.1908075946976,-1293.6445079038378,2937.1908075946976,-1244.3945079038376,2513.1708075947136,-1244.3945079038376" /><polygon id="50224300830" title="830" points="2408.920807594708,-1429.894507903838,2199.420807594708,-1429.894507903837,2199.420807594708,-1249.8945079038378,2408.9208075942206,-1249.8945079038376,2408.9208075942206,-1302.8945079038376,2422.67080759471,-1303.1445079038376,2422.17080759471,-1375.8945079038374,2408.920807594708,-1375.3945079038376,2408.920807594708,-1429.894507903838" /><polygon id="50224300825" title="825" points="2997.924807594696,-2093.041784624279,2997.924807594696,-2042.894507903839,3328.420807594708,-2042.894507903839,3328.420807594708,-2093.041784624279,2997.924807594696,-2093.041784624279" /><polygon id="50224300812" title="812" points="2284.920807594708,-2166.394507903836,2284.920807594708,-2238.3945079038376,2256.924807594696,-2238.3945079038376,2256.3981618266716,-2322.394507903842,2710.0315458497425,-2322.394507903842,2710.5164451786004,-2177.8945079038367,2770.545807594708,-2177.8945079038367,2770.545807594708,-2247.2224335376613,2775.170807594708,-2247.2224335376613,2774.446086886459,-2303.6445079038394,2934.603864695957,-2303.6445079038394,2934.603864695957,-2370.6445079038376,2895.1708075947063,-2370.6445079038376,2895.059750310871,-2382.394507903842,2193.920807594708,-2382.394507903842,2193.920807594708,-2166.394507903836,2284.920807594708,-2166.394507903836" /><polygon id="50224300802" title="802" points="2929.42080759471,-2177.894507903837,2929.42080759471,-2281.6445079038394,2911.17080759471,-2281.6445079038394,2911.17080759471,-2303.6445079038394,2774.446086886459,-2303.6445079038394,2775.170807594708,-2247.2224335376613,2775.170807594708,-2177.8945079038367,2929.42080759471,-2177.894507903837" /><polygon id="50224300807" title="807" points="2490.663396686061,-2387.394507903842,2621.663396686061,-2387.394507903842,2621.663396686061,-2520.394507903842,2501.9208075947154,-2520.394507903842,2501.9208075947154,-2486.1445079038394,2490.663396686061,-2486.1445079038394,2490.663396686061,-2387.394507903842" /><polygon id="50224300809" title="809" points="2486.038396686061,-2486.1445079038394,2466.9208075946826,-2486.1445079038394,2466.9208075946826,-2520.394507903842,2359.1708075947063,-2520.394507903842,2359.1708075947063,-2387.394507903842,2486.038396686061,-2387.394507903842,2486.038396686061,-2486.1445079038394" /><polygon id="50224300824" title="824" points="3369.17080759471,-1972.894507903839,3210.174807594698,-1972.894507903839,3210.174807594698,-1835.394507903839,3369.17080759471,-1835.394507903839,3369.17080759471,-1972.894507903839" /><polygon id="50224300821" title="821" points="3139.401491066241,-2037.894507903839,3002.799807594696,-2037.894507903839,3002.799807594696,-1900.1445079038392,3139.401491066241,-1900.1445079038392,3139.401491066241,-2037.894507903839" /><polygon id="50224300823" title="823" points="3205.174807594696,-1972.894507903839,3144.424807594696,-1972.894507903839,3144.424807594696,-1900.1445079038392,3205.174807594696,-1900.1445079038392,3205.174807594696,-1972.894507903839" /><polygon id="50224300820" title="820" points="3273.8473343407095,-2037.8945079038394,3144.424807594696,-2037.8945079038394,3144.424807594696,-1977.894507903839,3273.8473343407095,-1977.894507903839,3273.8473343407095,-2037.8945079038394" /><polygon id="50224300819" title="819" points="3369.17080759471,-2037.894507903839,3278.4723343407113,-2037.894507903839,3278.4723343407113,-1977.894507903839,3369.17080759471,-1977.894507903839,3369.17080759471,-2037.894507903839" /><polygon id="50224300818" title="818" points="3362.420807594717,-2262.205981728216,3218.420807594717,-2262.205981728216,3218.420807594717,-2098.041784624279,3362.420807594717,-2098.041784624279,3362.420807594717,-2262.205981728216" /><polygon id="50224300817" title="817" points="3213.795807594717,-2262.205981728216,3002.924807594698,-2262.205981728216,3002.924807594698,-2098.041784624279,3213.795807594717,-2098.041784624279,3213.795807594717,-2262.205981728216" /><polygon id="50224300816" title="816" points="3362.420807594717,-2365.1445079038394,3062.924807594696,-2365.1445079038394,3062.924807594696,-2267.205981728215,3362.420807594717,-2267.205981728215,3362.420807594717,-2365.1445079038394" /><polygon id="50224300810" title="810" points="2392.674807594696,-2317.394507903842,2258.295807594708,-2317.394507903842,2258.295807594708,-2246.144507903842,2392.674807594696,-2246.144507903842,2392.674807594696,-2317.394507903842" /><polygon id="50224300808" title="808" points="2475.170807594708,-2322.394507903842,2397.674807594696,-2322.394507903842,2397.674807594696,-2246.144507903842,2475.170807594708,-2246.144507903842,2475.170807594708,-2322.394507903842" /><polygon id="50224300806" title="806" points="2580.420807594708,-2317.394507903842,2480.170807594708,-2317.394507903842,2480.170807594708,-2246.144507903842,2580.420807594708,-2246.144507903842,2580.420807594708,-2317.394507903842" /><polygon id="50224300804" title="804" points="2705.920807594708,-2317.394507903842,2585.42080759471,-2317.394507903842,2585.420807594708,-2177.8945079038367,2705.920807594708,-2177.8945079038367,2705.920807594708,-2317.394507903842" /><polygon id="50224300803" title="803" points="2894.79580759471,-2520.394507903842,2761.913396686061,-2520.394507903842,2761.913396686061,-2387.394507903842,2894.79580759471,-2387.394507903842,2894.79580759471,-2520.394507903842" /><polygon id="50224300805" title="805" points="2757.288396686061,-2520.3945079038194,2626.288396686061,-2520.3945079038194,2626.288396686061,-2387.394507903842,2757.288396686061,-2387.394507903842,2757.288396686061,-2520.3945079038194" /><polygon id="50224300811" title="811" points="2354.1708075947063,-2520.394507903842,2193.920807594708,-2520.394507903842,2193.920807594708,-2387.394507903842,2354.1708075947063,-2387.394507903842,2354.1708075947063,-2520.394507903842" /><polygon id="50224300816A" title="816A" points="2899.42080759471,-2792.8945079038376,2899.42080759471,-2374.1445079038394,3362.420807594717,-2374.1445079038394,3365.42080759471,-2792.8945079038376,2899.42080759471,-2792.8945079038376" /><polygon id="50224300879" title="879" points="3374.17080759471,-1927.2695079038403,3374.17080759471,-1843.2695079038403,3446.8910931758746,-1843.2695079038403,3446.8910931758746,-1927.2695079038403,3374.17080759471,-1927.2695079038403" /><polygon id="50224300861" title="861" points="4190.917339966645,-1110.8914781277851,4190.917339966647,-936.019507903837,4190.919228790119,-936.0195079038369,4190.920807592325,-871.3946621809478,4302.17080759471,-871.3945079038369,4302.17080759471,-904.1445079038369,4334.92080759471,-904.1445079038369,4334.92080759471,-1110.8914781277851,4190.917339966645,-1110.8914781277851" /><polygon id="50224300873" title="873" points="3647.42080759471,-2058.8945079038376,3647.42080759471,-1907.8945079038401,3760.79580759471,-1907.8945079038401,3760.79580759471,-2087.8945079038403,3677.42080759471,-2087.8945079038403,3677.42080759471,-2058.8945079038376,3647.42080759471,-2058.8945079038376" /><polygon id="50224300874" title="874" points="3649.04580759471,-1838.64450790384,3649.04580759471,-1658.64450790384,3767.79580759471,-1658.64450790384,3767.79580759471,-1838.64450790384,3649.04580759471,-1838.64450790384" /><polygon id="50224300875" title="875" points="3642.79580759471,-2087.8945079038403,3642.79580759471,-1907.8945079038401,3522.79580759471,-1907.8945079038401,3522.79580759471,-2087.8945079038403,3642.79580759471,-2087.8945079038403" /><polygon id="50224300877" title="877" points="3374.17080759471,-2087.8945079038403,3374.17080759471,-1931.8945079038406,3518.17080759471,-1931.8945079038406,3518.17080759471,-2087.8945079038403,3374.17080759471,-2087.8945079038403" /><polygon id="50224300870" title="870" points="3861.0458075947117,-1838.64450790384,3861.0458075947117,-1768.0195079038403,3772.4208075947117,-1768.0195079038403,3772.4208075947117,-1718.64450790384,4086.17080759471,-1718.64450790384,4086.17080759471,-1838.64450790384,3861.0458075947117,-1838.64450790384" /><polygon id="50224300876" title="876" points="3374.17080759471,-1838.6445079038403,3374.17080759471,-1659.1362705917109,3554.17080759471,-1659.1362705917109,3554.17080759471,-1838.64450790384,3374.17080759471,-1838.6445079038403" /><polygon id="50224300865" title="865" points="4154.920807594712,-1558.582007903839,4154.920807594712,-1405.144507903829,4334.920807594712,-1405.1445079038292,4334.920807594712,-1558.5820079038388,4154.920807594712,-1558.582007903839" /><polygon id="50224300869" title="869" points="4154.92080759471,-1712.3945079038363,4154.92080759471,-1903.2695079038406,4334.92080759471,-1903.2695079038413,4334.92080759471,-1712.3945079038363,4154.92080759471,-1712.3945079038363" /><polygon id="50224300863" title="863" points="4334.92080759471,-1400.5239357212727,4154.718457566529,-1400.519533329832,4155.123157579452,-1208.5197189785272,4247.458092728046,-1208.5192916400981,4247.458099242176,-1208.2526498471707,4335.42080759471,-1208.7863619603222,4335.42080759471,-1246.2422085934288,4302.92080759471,-1246.2422085934288,4302.92080759471,-1281.14450790384,4334.92080759471,-1281.1445079038401,4334.92080759471,-1400.5239357212727" /><polygon id="50224300857" title="857" points="3857.6876371585004,-1110.8914781277851,4037.6876371585004,-1110.8914781277851,4037.6876371585004,-871.3945079038372,3857.6876371585004,-871.3945079038372,3857.6876371585004,-1110.8914781277851" /><polygon id="50224300871" title="871" points="4303.92080759471,-2057.3945079038385,4303.92080759471,-2087.8945079038403,3795.42080759471,-2087.8945079038403,3795.42080759471,-2058.8945079038385,3765.42080759471,-2058.8945079038376,3765.42080759471,-1907.894507903841,3882.438302502087,-1907.894507903841,3882.438302502087,-1935.8945079038406,3933.688302502087,-1935.8945079038406,3933.688302502087,-1907.894507903841,4334.92080759471,-1907.894507903841,4334.92080759471,-2057.3945079038385,4303.92080759471,-2057.3945079038385" /><polygon id="50224300867" title="867" points="4154.92080759471,-1707.7695079038367,4303.920807594712,-1707.7695079038365,4303.920807594714,-1678.894507903838,4334.920807594712,-1678.894507903838,4334.92080759471,-1563.2070079038388,4154.92080759471,-1563.2070079038388,4154.92080759471,-1707.7695079038367" /><polygon id="50224300859" title="859" points="4186.289956522318,-1110.895472305485,4042.295492969386,-1110.8919544823611,4042.295492969386,-871.4017996033178,4153.547838559791,-870.8945381034239,4186.295807594714,-871.3945079038369,4186.289956522318,-1110.895472305485" /><polygon id="50224300853" title="853" points="3704.423003496444,-1110.8930009844182,3560.4237090733513,-1110.889955271411,3560.423709073353,-871.4041742121154,3635.4210622579867,-871.4041742121153,3635.4210622579867,-871.3940189893874,3670.412087661771,-871.3940189893875,3670.412087661771,-870.8940189893873,3704.4288581697165,-871.2446424646421,3704.423003496444,-1110.8930009844182" /><polygon id="50224300866" title="866" points="4085.67080759471,-1486.0277452159667,4085.67080759471,-1714.0195079038401,3772.42080759471,-1714.0195079038397,3772.4208075947117,-1533.1527452159671,3772.4202328183,-1533.1527452159671,3772.4210094875016,-1486.0277452159667,4085.67080759471,-1486.0277452159667" /><polygon id="50224300851" title="851" points="3555.79887554798,-1110.907424600218,3373.6768540777775,-1110.875531926908,3373.6768540777775,-1110.8722624932764,3336.2988689486483,-1110.8722624932764,3336.2988689486483,-903.8980173361563,3336.2957828732942,-871.3945079038374,3375.301854077752,-871.3980173361563,3555.8022987147815,-871.3980173361563,3555.79887554798,-1110.907424600218" /><polygon id="50224300862" title="862" points="3910.4208075947117,-1481.4027452159667,3772.4208075947117,-1481.4027452159667,3772.4208075947117,-1301.8945079038376,3910.4208075947117,-1301.8945079038376,3910.4208075947117,-1481.4027452159667" /><polygon id="50224300856" title="856" points="3871.993163598352,-1297.2695079038376,3871.993163598352,-1216.2695079038376,3931.993163598352,-1216.2695079038376,3931.993163598352,-1297.2695079038376,3871.993163598352,-1297.2695079038376" /><polygon id="50224300872" title="872" points="3772.42080759471,-1839.3275206057326,3772.42080759471,-1772.6445079038403,3854.04580759471,-1772.6445079038403,3854.04580759471,-1839.3275206057326,3772.42080759471,-1839.3275206057326" /><polygon id="50224300855" title="855" points="3853.0626371571198,-1110.891478127785,3709.048003620981,-1110.8879598119033,3709.0538545098425,-871.394507903837,3765.420807594708,-871.394507903837,3765.420807594708,-900.8945079038377,3795.420807594708,-900.8945079038377,3795.420807594708,-871.3945079038369,3853.056786182302,-871.394507903837,3853.0626371571198,-1110.891478127785" /><polygon id="50224300854" title="854" points="3867.368163598352,-1297.2695079038376,3797.420807594708,-1297.2695079038376,3797.420807594708,-1246.8945079038376,3762.766669586672,-1246.8830142643485,3762.795807268447,-1297.8945079038388,3687.8685806569756,-1297.8945079038385,3687.8685806569756,-1180.141478127785,3867.368163598352,-1180.1414781277854,3867.368163598352,-1297.2695079038376" /><polygon id="50224300852" title="852" points="3484.42080759471,-1297.8945079038378,3484.42080759471,-1180.1414781277856,3683.2441307150966,-1180.1414781277856,3683.2441307150966,-1297.8945079038378,3484.42080759471,-1297.8945079038378" /><polygon id="50224300864" title="864" points="3915.0458075947117,-1481.4027452159664,3915.0458075947117,-1365.5195079038376,4085.6708075947117,-1365.5195079038376,4085.6708075947117,-1481.4027452159664,3915.0458075947117,-1481.4027452159664" /><polygon id="50224300850E" title="850E" points="3915.0458075947117,-1360.8945079038374,3915.0458075947117,-1301.8945079038376,4090.2958075947117,-1301.8945079038376,4090.2958075947117,-1360.8945079038374,3915.0458075947117,-1360.8945079038374" /><polygon id="50224300850G" title="850G" points="3558.79580759471,-1843.2695079038406,3558.79580759471,-1659.1362705917109,3644.4208075947117,-1659.1362705917109,3644.4208075947117,-1843.2695079038406,3558.79580759471,-1843.2695079038406" /><polygon id="50224300850B" title="850B" points="4090.2958075947117,-1115.5164781277854,4090.2958075947117,-1175.5164781277854,3931.993163598352,-1175.5164781277854,3931.993163598352,-1211.6445079038376,3871.993163598352,-1211.6445079038376,3871.993163598352,-1175.5164781277851,3479.7958075940805,-1175.5164781277851,3479.7958075940805,-1115.5164781277854,4090.2958075947117,-1115.5164781277854" /><polygon id="50224300889" title="889" points="3654.4208075947117,-1571.8945079038374,3654.4208075947117,-1336.8945079038383,3762.4208075947117,-1336.8945079038383,3762.4208075947117,-1571.8945079038374,3654.4208075947117,-1571.8945079038374" /><polygon id="50224300887" title="887" points="3539.420807594708,-1331.894507903838,3644.4208075947117,-1331.894507903838,3644.4208075947117,-1576.8945079016687,3539.420807594708,-1576.8945079016687,3539.420807594708,-1331.894507903838" /><polygon id="50224300886" title="886" points="3485.420807594708,-1576.8878847260778,3485.420807594708,-1331.8945079038378,3532.920807594708,-1331.8945079038378,3532.920807594708,-1576.8878847260778,3485.420807594708,-1576.8878847260778" /><polygon id="50224300815" title="815" points="2188.879972049992,-2317.394507903842,2038.420807594708,-2317.394507903842,2038.420807594708,-2100.8945079038376,2188.879972049992,-2100.8945079038376,2188.879972049992,-2317.394507903842" /><polygon id="50224300813" title="813" points="2188.92080759471,-2520.394507903842,2068.92080759471,-2520.394507903842,2068.92080759471,-2489.3945079038394,2038.420807594708,-2489.3945079038394,2038.420807594708,-2322.394507903842,2188.92080759471,-2322.394507903842,2188.92080759471,-2520.394507903842" /><polygon id="50224300828" title="828" points="2416.420807594708,-1738.8945079038376,2326.670807594708,-1738.8945079038376,2326.670807594708,-1677.8945079038385,2274.6708075947085,-1677.8945079038385,2274.6708075947085,-1581.8945079038383,2421.4208075947076,-1581.8945079038383,2421.420807594708,-1429.3945079038376,2505.6708075947117,-1429.3945079038376,2505.6708075947104,-1375.3945079038376,2580.420807594708,-1374.8945079038376,2580.42080759471,-1913.89450790384,2618.17080759471,-1913.89450790384,2618.170807594708,-2009.8945079038394,2580.42080759471,-2009.8945079038394,2580.42080759471,-2238.3945079038376,2289.920807594708,-2238.3945079038376,2289.9208075947076,-2166.3945079038363,2508.4208075946995,-2166.394507903838,2508.420807594699,-1906.612892254658,2502.42080759471,-1906.612892254658,2502.4208075947085,-1677.8945079038376,2416.420807594708,-1677.8945079038376,2416.420807594708,-1738.8945079038376" /><polygon id="50224300840" title="840" points="2426.67080759471,-1381.6445079038376,2426.67080759471,-1297.1445079038376,2467.4208075947104,-1297.1445079038376,2467.4208075947104,-1303.3945079038376,2505.6708075947104,-1303.3945079038376,2505.6708075947104,-1249.3945079038376,2881.6708075947104,-1249.3945079038376,2881.6708075947104,-1298.8945079038376,3221.9208075947067,-1298.8945079038376,3221.9208075947067,-1251.644507903838,3265.1708075947067,-1251.644507903838,3265.1708075947067,-1298.8945079038374,3446.670807594708,-1298.894507903838,3446.670807594708,-1581.8862705917109,3767.7815401515886,-1581.8862705917109,3767.7815401515886,-1654.1362705917109,3374.170807594708,-1654.1362705917109,3374.170807594708,-1374.8945079038376,2996.424807594696,-1374.8945079038376,2996.424807594696,-1413.6445079038376,2934.42080759471,-1413.6445079038376,2934.42080759471,-1374.8945079038376,2467.4208075947104,-1375.3945079038376,2467.4208075947104,-1381.6445079038376,2426.67080759471,-1381.6445079038376" /><polygon id="50224300850A" title="850A" points="3479.7958075940815,-1293.644507904518,3365.1708075947117,-1293.644507903838,3365.1708075947117,-1247.3945079038385,3335.792409601533,-1247.3945079038385,3336.296363378756,-1213.6719224773417,3423.759015463162,-1213.6495153155597,3423.88480257102,-1115.412660474627,3479.7958075940815,-1115.5164781277854,3479.7958075940815,-1293.644507904518" /><polygon id="50224300850AB" title="850AB" points="3336.296363378756,-1213.671922477314,3336.296363378756,-1115.5164781277854,3423.8218282049843,-1115.5164781277854,3423.8218282049843,-1213.671922477314,3336.296363378756,-1213.671922477314" /><polygon id="50224300835" title="835" points="3002.777640909957,-1830.4418904092618,3002.777640909957,-1676.6445079038392,3172.151774808989,-1676.6445079038392,3172.151774808989,-1830.4418904092618,3002.777640909957,-1830.4418904092618" /><polygon id="50224300836" title="836" points="3369.1708075947076,-1830.3945079038394,3177.151774808989,-1830.3945079038394,3177.151774808989,-1676.5591203195538,3332.4208075947113,-1676.1445079038392,3332.4208075947113,-1712.3945079038363,3369.1708075947076,-1712.3945079038363,3369.1708075947076,-1830.3945079038394" /><polygon id="50224300837" title="837" points="3234.716338682737,-1671.6445079038392,3234.716338682737,-1559.8104683889887,3369.17080759471,-1559.8104683889887,3369.17080759471,-1671.6445079038392,3234.716338682737,-1671.6445079038392" /><polygon id="50224300839" title="839" points="3003.174807594696,-1596.8945079038394,3003.174807594696,-1379.8945079038376,3142.924807594697,-1379.8945079038376,3142.924807594697,-1596.8945079038394,3003.174807594696,-1596.8945079038394" /><polygon id="50224300831" title="831" points="3230.091338682737,-1559.8104683889887,3230.091338682737,-1671.6445079038392,2998.1526409099592,-1671.6445079038392,2998.1526409099592,-1830.7695079038394,2934.42080759471,-1830.7695079038394,2934.42080759471,-1743.3945079038372,2904.920807594713,-1743.3945079038372,2904.9208075947126,-1712.3945079038372,2934.4208075947104,-1712.3945079038372,2934.42080759471,-1418.6445079038376,2998.174807594698,-1418.6445079038376,2998.174807594698,-1601.8945079038394,3147.9248075947,-1601.8945079038394,3147.924807594699,-1559.8104683889887,3230.091338682737,-1559.8104683889887" /><polygon id="50224300834A" title="834A" points="2645.42080759471,-1743.8945079038372,2585.42080759471,-1743.394507903837,2585.4208075947104,-1622.401815645753,2644.9208075947104,-1622.4018156457532,2644.92080759471,-1743.394507903837,2645.42080759471,-1743.8945079038372" /><polygon id="50224300834B" title="834B" points="2649.9208075947104,-1743.3945079038372,2649.9208075947104,-1602.7695079038372,2769.9424757092975,-1602.7695079038372,2769.9424757092975,-1743.3945079038372,2649.9208075947104,-1743.3945079038372" /><polygon id="50224300832A" title="832A" points="2774.5674757092975,-1618.774692921787,2913.5458075947136,-1618.7653859842267,2913.5458075947126,-1679.3945079038385,2899.920807594713,-1679.3945079038385,2899.920807594713,-1743.3945079038372,2774.567475709298,-1743.3945079038372,2774.5674757092975,-1618.774692921787" /><polygon id="50224300832" title="832" points="2933.9208075947104,-1679.3503845836553,2913.5458075947126,-1679.3945079038385,2913.545807594713,-1618.7653859842267,2774.5674757092975,-1618.774692921787,2774.5674757092975,-1598.1445079038372,2644.920807594711,-1598.1445079038372,2644.9208075947104,-1617.5796501886618,2585.42080759471,-1618.0796501886618,2585.42080759471,-1538.1445079038372,2934.42080759471,-1538.1445079038372,2933.9208075947104,-1679.3503845836553" /><polygon id="50224300833" title="833" points="2759.9208075947104,-1533.1445079038372,2759.9208075947104,-1379.8945079038376,2929.42080759471,-1379.8945079038376,2929.42080759471,-1533.1445079038372,2759.9208075947104,-1533.1445079038372" /><polygon id="50224300834" title="834" points="2585.42080759471,-1533.1445079038372,2585.42080759471,-1379.8945079038376,2754.9208075947104,-1379.8945079038376,2754.9208075947104,-1533.1445079038372,2585.42080759471,-1533.1445079038372" /><polygon id="50224300814" title="814" points="3058.299807594698,-2366.5160612531454,2993.424807594356,-2366.5160612531454,2993.424807594356,-2370.6445079038376,2934.603864695958,-2370.70726348256,2934.603864695958,-2172.667769109795,2835.9845610045604,-2173.1201512368198,2835.9845610045604,-2101.0195079038376,2929.42080759471,-2101.0195079038376,2929.42080759471,-2119.999667772685,2934.42080759471,-2119.999667772685,2934.42080759471,-1835.3945079038394,3205.174807594698,-1835.3945079038394,3205.174807594698,-1895.1445079038397,2998.152640909959,-1895.1445079038401,2997.924807594698,-2267.205981728216,3058.299807594698,-2267.205981728216,3058.299807594698,-2366.5160612531454" /><polygon id="50224300822" title="822" points="2929.17080759471,-2055.8945079038376,2900.17080759471,-2055.8945079038376,2900.17080759471,-2092.019507903838,2929.42080759471,-2091.519507903838,2929.4208075947095,-2101.0195079038376,2835.9845610045604,-2101.0195079038376,2835.674807594698,-2092.7695079038376,2831.049807594698,-2092.7695079038376,2830.674807594698,-2101.0195079038376,2814.049807594698,-2101.0195079038376,2788.674807594698,-2075.6445079038376,2788.674807594692,-2031.0195079038222,2786.3510876984747,-2024.5898208094054,2784.5928494493487,-2017.9830705835006,2783.413300952422,-2011.2488879581495,2782.82130312318,-2004.4378609534788,2782.8213031231803,-1997.6011548541803,2783.4133009524244,-1990.7901278495096,2784.5928494493523,-1984.0559452241587,2786.3510876984797,-1977.4491949982544,2788.674807594698,-1971.0195079038383,2788.674807594698,-1926.3945079038372,2814.049807594698,-1901.0195079038372,2875.362307594698,-1901.0195079038372,2875.362307594698,-1941.0195079038376,2879.987307594698,-1941.0195079038376,2879.987307594698,-1904.698033307622,2929.67080759471,-1904.698033307622,2929.17080759471,-2055.8945079038376" /><polygon id="50224300801" title="801" points="2929.42080759471,-1748.3945079038372,2929.42080759471,-1899.7070079038376,2875.362307594698,-1899.7070079038376,2875.862307594698,-1901.0195079038372,2814.049807594698,-1901.0195079038372,2788.674807594698,-1926.3945079038372,2788.674807594698,-1971.0195079038388,2786.5328432571396,-1976.792062224028,2784.852869571236,-1982.7155817029852,2783.64535472656,-1988.7531559263632,2782.9178229447175,-1994.8671637861326,2782.6748075946984,-2001.01950790383,2782.917822944716,-2007.1718520215275,2783.645354726558,-2013.285859881297,2784.8528695712325,-2019.3234341046752,2786.5328432571346,-2025.2469535836326,2788.674807594692,-2031.0195079038226,2788.674807594698,-2075.6445079038376,2814.049807594698,-2101.0195079038376,2831.0747770538055,-2101.0195079038376,2830.9854084957487,-2172.894507903837,2585.42080759471,-2172.894507903837,2585.42080759471,-2021.8945079038394,2624.9208075947104,-2021.8945079038394,2624.9208075947104,-2009.8945079038394,2623.0375382205757,-2009.8945079038394,2623.0375382205757,-1913.8945079038397,2624.9208075947104,-1913.8945079038397,2624.9208075947104,-1901.8945079038394,2585.42080759471,-1901.8945079038394,2585.42080759471,-1748.3945079038372,2929.42080759471,-1748.3945079038372" /><polygon id="50224300850F" title="850F" points="4080.5458075947113,-1843.2695079038406,4080.5458075947117,-1845.5195079038406,4092.5458075947117,-1845.5195079038403,4092.545807594712,-1841.8320079038403,4148.044403767988,-1841.8320079038403,4148.045807594711,-1845.5195079038406,4150.295807594711,-1845.5195079038403,4150.295807594712,-1903.2695079038408,3929.0633025020875,-1903.2695079038408,3929.0633025020875,-1931.2695079038403,3887.063302502087,-1931.2695079038406,3887.063302502087,-1903.269507903841,3518.170807594709,-1903.269507903841,3518.170807594709,-1927.2695079038406,3451.5160931758755,-1927.2695079038406,3451.516093175875,-1843.2695079038403,4080.5458075947113,-1843.2695079038406" /><polygon id="50224300850D" title="850D" points="4090.295807594341,-1325.304085237687,4150.295807594313,-1325.304085237699,4150.295807594339,-1833.5195079038403,4148.045807594711,-1833.5195079038403,4148.045807594711,-1837.2070079038403,4092.5458075947113,-1837.2070079038403,4092.5458075947113,-1833.5195079038403,4090.2958075947113,-1833.5195079038403,4090.295807594341,-1325.304085237687" /><polygon id="50224300850C" title="850C" points="4334.920807594711,-1203.8945079038294,4150.2958075946935,-1204.3945079038294,4150.295807594313,-1325.304085237699,4090.2958075947113,-1325.304085237687,4090.2958075947117,-1115.5164781277858,4334.920807594711,-1115.5164781277858,4334.920807594711,-1203.8945079038294" /></svg>
