<svg version="1.1" id="Map" class="gen-by-synoptic-designer" xmlns="http://www.w3.org/2000/svg" xmlns:xlink="http://www.w3.org/1999/xlink" viewBox="22.00456465620028 -1934.5000000000023 2299.4500168080467 1911.0000000000052" xml:space="preserve"><image width="2299.4500168080467" height="1911.0000000000052" xlink:href=""/><polygon id="50224300233" title="233" points="129.45458146424335,-1934.500000000002,60.07958146424255,-1934.500000000002,60.07958146424255,-1906.8750000000014,22.454581464244256,-1906.8750000000014,22.454581464244256,-1752.5000000000014,129.45458146424335,-1752.5000000000014,129.45458146424335,-1934.500000000002" /><polygon id="50224300234" title="234" points="136.45458146424352,-1752.5000000000014,242.45458146424335,-1752.5000000000014,242.45458146424335,-1934.500000000002,136.45458146424352,-1934.500000000002,136.45458146424352,-1752.5000000000014" /><polygon id="50224300235" title="235" points="249.45458146424335,-1934.500000000002,249.45458146424335,-1752.5000000000014,355.45458146424335,-1752.5000000000014,355.45458146424335,-1934.500000000002,249.45458146424335,-1934.500000000002" /><polygon id="50224300236" title="236" points="454.9545814642434,-1934.500000000002,362.45458146424335,-1934.500000000002,362.45458146424335,-1752.5000000000014,468.4545814642433,-1752.5000000000014,468.4545814642433,-1911.0000000000011,454.9545814642434,-1911.0000000000011,454.9545814642434,-1934.500000000002" /><polygon id="50224300237" title="237" points="475.45458146424335,-1906.8750000000011,475.45458146424335,-1752.5000000000014,581.4545814642433,-1752.5000000000011,581.4545814642433,-1934.500000000002,492.079581464243,-1934.500000000002,492.07958146424306,-1906.8750000000011,475.45458146424335,-1906.8750000000011" /><polygon id="50224300238" title="238" points="588.4545814642433,-1934.5000000000023,588.4545814642433,-1752.5000000000014,694.4545814642292,-1752.5000000000014,694.4545814642292,-1934.5000000000023,588.4545814642433,-1934.5000000000023" /><polygon id="50224300239" title="239" points="701.4545814642292,-1752.5000000000014,807.4545814642431,-1752.5000000000014,807.4545814642431,-1934.5000000000023,701.4545814642292,-1934.5000000000023,701.4545814642292,-1752.5000000000014" /><polygon id="50224300240" title="240" points="886.9545814642433,-1934.5000000000023,814.4545814642431,-1934.5000000000023,814.4545814642431,-1752.5000000000014,921.4545814642433,-1752.5000000000014,921.4545814642433,-1911.000000000001,886.9545814642433,-1911.000000000001,886.9545814642433,-1934.5000000000023" /><polygon id="50224300244" title="244" points="981.4545814642424,-1934.500000000002,926.4545814642435,-1934.500000000002,926.4545814642433,-1752.5000000000014,992.4545814642433,-1752.5000000000014,992.4545814642433,-1870.500000000001,981.4545814642424,-1870.500000000001,981.4545814642424,-1934.500000000002" /><polygon id="50224300250" title="250" points="1352.4545814642433,-1737.5071738805502,1352.4545814642433,-1870.500000000001,1204.9545814642372,-1870.500000000001,1204.9545814642372,-1693.0727191189221,1345.8295814642336,-1693.0727191189221,1345.8295814642336,-1737.5071738805502,1352.4545814642433,-1737.5071738805502" /><polygon id="50224300250A" title="250A" points="1352.4545814642424,-1588.7140737574573,1352.4545814642424,-1641.000000000001,1318.9545814642433,-1641.000000000001,1318.9545814642433,-1674.000000000001,1320.234803979395,-1674.000000000001,1320.234803979395,-1688.0727191189221,1269.9545814642358,-1688.0727191189221,1269.9545814642358,-1588.7140737574573,1352.4545814642424,-1588.7140737574573" /><polygon id="50224300251" title="251" points="1204.9545814642372,-1688.0727191189221,1204.9545814642372,-1588.7140737574573,1264.9545814642358,-1588.7140737574573,1264.9545814642358,-1688.0727191189221,1204.9545814642372,-1688.0727191189221" /><polygon id="50224300248" title="248" points="1038.9545814642436,-1586.5000000000027,1121.9545814642433,-1586.5000000000027,1121.9545814642433,-1672.499999999999,1038.9545814642436,-1672.499999999999,1038.9545814642436,-1586.5000000000027" /><polygon id="50224300243" title="243" points="1033.9545814642436,-1672.499999999999,919.9545814642433,-1672.499999999999,919.9545814642433,-1641.000000000001,891.9545814642443,-1641.000000000001,891.9545814642443,-1586.5000000000027,1033.9545814642436,-1586.5000000000027,1033.9545814642436,-1672.499999999999" /><polygon id="50224300243A" title="243A" points="891.9545814642444,-1581.5000000000027,891.9545814642444,-1480.500000000003,955.4545814642452,-1480.500000000003,955.4545814642452,-1581.5000000000027,891.9545814642444,-1581.5000000000027" /><polygon id="50224300243B" title="243B" points="960.4545814642452,-1480.500000000003,1023.9545814642461,-1480.500000000003,1023.9545814642461,-1581.5000000000027,960.4545814642452,-1581.5000000000027,960.4545814642452,-1480.500000000003" /><polygon id="50224300252" title="252" points="1002.9545814642432,-1475.187500000003,1002.9545814642432,-1424.2140737574605,1122.9545814642433,-1424.2140737574605,1122.9545814642433,-1581.5000000000027,1028.954581464246,-1581.5000000000027,1028.954581464246,-1475.187500000003,1002.9545814642432,-1475.187500000003" /><polygon id="50224300259" title="259" points="919.9545814642433,-1213.2478245375216,997.9545814642432,-1213.2478245375216,997.9545814642432,-1475.187500000003,907.9545814642468,-1475.187500000003,907.9545814642468,-1242.0000000000014,919.9545814642433,-1242.0000000000014,919.9545814642433,-1213.2478245375216" /><polygon id="50224300258" title="258" points="1007.9545814642432,-1238.2478245375219,1085.5213789453328,-1238.2478245375219,1085.5213789453328,-1323.7309491474914,1007.9545814642432,-1323.7309491474914,1007.9545814642432,-1238.2478245375219" /><polygon id="50224300257" title="257" points="1085.5213789453328,-1328.7309491474914,1085.5213789453328,-1419.2140737574605,1007.9545814642433,-1419.2140737574605,1007.9545814642433,-1328.7309491474914,1085.5213789453328,-1328.7309491474914" /><polygon id="50224300220A" title="220A" points="839.9545814642461,-1213.2478245375216,882.8295814642424,-1213.2478245375216,882.8295814642424,-1246.1250000000014,902.9545814642466,-1246.1250000000014,902.9545814642466,-1348.205262627544,839.954581464246,-1348.205262627544,839.9545814642461,-1213.2478245375216" /><polygon id="50224300221A" title="221A" points="839.9545814642461,-1363.205262627544,902.9545814642468,-1363.205262627544,902.9545814642468,-1475.187500000003,839.9545814642461,-1475.187500000003,839.9545814642461,-1363.205262627544" /><polygon id="50224300221" title="221" points="763.4545814642424,-1475.187500000003,763.4545814642424,-1358.205262627544,834.9545814642461,-1358.205262627544,834.9545814642461,-1475.187500000003,763.4545814642424,-1475.187500000003" /><polygon id="50224300220" title="220" points="763.4545814642424,-1353.205262627544,763.4545814642424,-1213.2478245375216,834.9545814642461,-1213.2478245375216,834.9545814642461,-1353.205262627544,763.4545814642424,-1353.205262627544" /><polygon id="50224300210" title="210" points="763.4545814642406,-1011.5000000000024,955.4545814642415,-1011.5000000000024,955.4545814642415,-1129.2478245375216,763.4545814642406,-1129.2478245375216,763.4545814642406,-1011.5000000000024" /><polygon id="50224300211" title="211" points="955.4545814642415,-1004.5000000000024,763.4545814642406,-1004.5000000000024,763.4545814642406,-888.1120364025167,955.4545814642415,-888.1120364025167,955.4545814642415,-1004.5000000000024" /><polygon id="50224300213" title="213" points="960.4545814642415,-1075.5000000000018,960.4545814642415,-958.5000000000018,1152.4545814642415,-958.5000000000018,1152.4545814642415,-1075.5000000000018,960.4545814642415,-1075.5000000000018" /><polygon id="50224300212" title="212" points="960.4545814642415,-951.5000000000018,960.4545814642415,-834.5000000000015,1152.4545814642415,-834.5000000000015,1152.4545814642415,-951.5000000000018,960.4545814642415,-951.5000000000018" /><polygon id="50224300215" title="215" points="1234.4545814642415,-1004.5000000000023,1234.4545814642415,-888.1120364025162,1426.4545814642415,-888.1120364025162,1426.4545814642415,-1004.5000000000023,1234.4545814642415,-1004.5000000000023" /><polygon id="50224300216" title="216" points="1234.4545814642415,-1129.2478245375228,1234.4545814642415,-1011.5000000000023,1426.4545814642415,-1011.5000000000023,1426.4545814642415,-1129.2478245375228,1234.4545814642415,-1129.2478245375228" /><polygon id="50224300218" title="218" points="1431.4545814642415,-1075.5000000000018,1431.4545814642415,-958.5000000000016,1623.4545814642408,-958.5000000000016,1623.4545814642408,-1075.5000000000018,1431.4545814642415,-1075.5000000000018" /><polygon id="50224300217" title="217" points="1431.4545814642415,-951.5000000000016,1431.4545814642415,-834.5000000000014,1623.4545814642408,-834.5000000000014,1623.4545814642408,-951.5000000000016,1431.4545814642415,-951.5000000000016" /><polygon id="50224300265" title="265" points="1705.4545814642415,-1129.2478245375219,1705.4545814642415,-1012.2478245375219,1897.4545814642408,-1012.2478245375219,1897.4545814642408,-1129.2478245375219,1705.4545814642415,-1129.2478245375219" /><polygon id="50224300267" title="267" points="1705.4545814642415,-1005.2478245375219,1705.4545814642415,-888.2478245375221,1897.4545814642408,-888.2478245375221,1897.4545814642408,-1005.2478245375219,1705.4545814642415,-1005.2478245375219" /><polygon id="50224300268" title="268" points="1902.4545814642408,-951.5000000000022,1902.4545814642408,-834.5000000000019,2092.9545814642433,-834.5000000000019,2092.9545814642433,-951.5000000000022,1902.4545814642408,-951.5000000000022" /><polygon id="50224300270" title="270" points="1902.4545814642408,-1075.4999999999827,1902.4545814642408,-958.5000000000022,2092.9545814642433,-958.5000000000022,2092.9545814642433,-1075.4999999999827,1902.4545814642408,-1075.4999999999827" /><polygon id="50224300222" title="222" points="455.95458146424335,-1475.500000000003,455.95458146424335,-1409.5000000000018,681.4545814642406,-1409.5000000000018,681.4545814642406,-1475.500000000003,455.95458146424335,-1475.500000000003" /><polygon id="50224300232" title="232" points="487.95458146424426,-1480.500000000003,595.9545814642443,-1480.500000000003,595.9545814642443,-1672.5000000000011,487.95458146424426,-1672.5000000000011,487.95458146424426,-1480.500000000003" /><polygon id="50224300231" title="231" points="360.95458146424426,-1672.5000000000011,360.95458146424426,-1480.500000000003,482.95458146424426,-1480.500000000003,482.95458146424426,-1626.375000000001,476.75455103691365,-1626.3750000000007,476.75455103691365,-1641.0000000000007,454.95458146424335,-1641.0000000000007,454.95458146424335,-1672.5000000000011,360.95458146424426,-1672.5000000000011" /><polygon id="50224300228B" title="228B" points="360.95458146424426,-1475.500000000003,360.95458146424426,-1409.5000000000018,450.95458146424335,-1409.5000000000018,450.95458146424335,-1475.500000000003,360.95458146424426,-1475.500000000003" /><polygon id="50224300209" title="209" points="489.4545814642433,-1327.5000000000018,489.4545814642433,-1209.5000000000018,681.4545814642402,-1209.5000000000018,681.4545814642402,-1327.5000000000018,489.4545814642433,-1327.5000000000018" /><polygon id="50224300208" title="208" points="489.4545814642432,-1202.5000000000018,489.4545814642432,-1084.5000000000018,681.4545814642402,-1084.5000000000018,681.4545814642402,-1202.5000000000018,489.4545814642432,-1202.5000000000018" /><polygon id="50224300207" title="207" points="489.4545814642431,-1077.5000000000018,489.4545814642431,-959.500000000002,681.4545814642399,-959.500000000002,681.4545814642399,-1077.5000000000018,489.4545814642431,-1077.5000000000018" /><polygon id="50224300206" title="206" points="489.4545814642431,-952.5000000000019,489.4545814642431,-834.5000000000018,681.4545814642399,-834.5000000000018,681.4545814642399,-952.5000000000019,489.4545814642431,-952.5000000000019" /><polygon id="50224300276" title="276" points="2092.9545814642433,-635.5000000000013,2092.9545814642433,-750.4999999999986,1759.4545814642458,-750.4999999999986,1759.4545814642458,-635.5000000000013,1879.4545814642433,-635.5000000000013,1879.4545814642433,-505.50000000000017,1759.4545814642436,-505.5000000000013,1759.4545814642436,-432.0000000000009,1783.9545814642433,-432.0000000000009,1783.9545814642433,-389.50000000000205,2092.9545814642433,-389.50000000000205,2092.9545814642433,-505.50000000000017,1972.9545814642431,-505.50000000000017,1972.9545814642431,-635.5000000000013,2092.9545814642433,-635.5000000000013" /><polygon id="50224300276B" title="276B" points="2092.9545814642433,-630.4999999999977,1977.9545814642431,-630.4999999999977,1977.9545814642431,-510.4999999999993,2092.9545814642433,-510.4999999999993,2092.9545814642433,-630.4999999999977" /><polygon id="50224300276A" title="276A" points="1874.4545814642436,-630.5000000000001,1759.4545814642436,-630.5000000000001,1759.4545814642436,-510.5000000000013,1874.4545814642436,-510.5000000000013,1874.4545814642436,-630.5000000000001" /><polygon id="50224300289" title="289" points="2092.9545814642433,-244.99999999999676,2092.9545814642433,-384.50000000000233,1915.9545814642415,-384.50000000000233,1915.9545814642415,-244.99999999999676,2092.9545814642433,-244.99999999999676" /><polygon id="50224300290" title="290" points="1910.9545814642415,-378.500000000001,1842.9545814642433,-378.500000000001,1842.9545814642433,-285.9999999999918,1910.9545814642415,-285.9999999999918,1910.9545814642415,-378.500000000001" /><polygon id="50224300291" title="291" points="1837.9545814642433,-285.9999999999918,1837.9545814642433,-378.5000000000023,1769.9545814642433,-378.5000000000023,1769.9545814642433,-285.9999999999918,1837.9545814642433,-285.9999999999918" /><polygon id="50224300297" title="297" points="1638.4545814642422,-449.49663311314225,1638.454581464242,-244.9999999999897,1764.9545814642431,-244.9999999999897,1764.9545814642431,-399.00000000000085,1750.9545814642433,-399.00000000000085,1750.9545814642433,-430.5000000000009,1749.454581464246,-430.5000000000009,1749.454581464246,-449.49663311314225,1638.4545814642422,-449.49663311314225" /><polygon id="50224300298" title="298" points="1513.4545814642415,-244.99999999999093,1633.4545814642422,-244.99999999999093,1633.4545814642422,-449.4964910020401,1513.4545814642415,-449.4964910020401,1513.4545814642415,-244.99999999999093" /><polygon id="50224300299A" title="299A" points="1354.4545814642415,-449.48856120252026,1354.4545814642415,-244.99999999999088,1508.4545814642415,-244.99999999999088,1508.4545814642415,-449.48856120252026,1354.4545814642415,-449.48856120252026" /><polygon id="50224300299" title="299" points="1234.4545814642418,-244.99999999999355,1349.4545814642415,-244.99999999999355,1349.4545814642415,-399.0000000000008,1318.9545814642433,-399.0000000000009,1318.9545814642433,-449.48515053606013,1234.4545814642418,-449.48515053606013,1234.4545814642418,-244.99999999999355" /><polygon id="50224300284B" title="284B" points="1335.4545814642415,-543.4999999999977,1335.4545814642415,-454.49174449323573,1466.4545814642433,-454.49174449323573,1466.4545814642433,-543.4999999999977,1335.4545814642415,-543.4999999999977" /><polygon id="50224300284A" title="284A" points="1433.7045814642424,-590.2500000000009,1433.7045814642424,-637.500000000002,1335.4545814642415,-637.500000000002,1335.4545814642415,-548.4999999999977,1466.4545814642431,-548.4999999999977,1466.4545814642431,-590.2500000000009,1433.7045814642424,-590.2500000000009" /><polygon id="50224300284" title="284" points="1330.4545814642415,-637.500000000002,1234.4545814642418,-637.500000000002,1234.4545814642418,-454.48515053807967,1330.4545814642415,-454.48515053807967,1330.4545814642415,-637.500000000002" /><polygon id="50224300285" title="285" points="1016.9545814642435,-750.5000000000016,1016.9545814642435,-683.5000000000019,1114.5213789453298,-683.5000000000019,1114.5213789453298,-750.5000000000016,1016.9545814642435,-750.5000000000016" /><polygon id="50224300249" title="249" points="1011.954581464252,-563.8739999999975,1152.454581464241,-563.8739999999975,1152.454581464241,-678.5000000000022,1011.954581464252,-678.5000000000022,1011.954581464252,-563.8739999999975" /><polygon id="50224300283" title="283" points="1011.954581464252,-558.8739999999975,1011.954581464252,-244.99999999999454,1152.4545814642413,-244.99999999999454,1152.4545814642413,-558.8739999999975,1011.954581464252,-558.8739999999975" /><polygon id="50224300292" title="292" points="1121.9545814642422,-162.99999999999656,1121.9545814642422,-23.4999999999971,1251.9545814642438,-23.4999999999971,1251.9545814642438,-162.99999999999656,1121.9545814642422,-162.99999999999656" /><polygon id="50224300281" title="281" points="1256.9545814642438,-162.99999999999528,1256.9545814642438,-23.499999999997193,1318.9545814642433,-23.499999999997186,1318.9545814642433,-54.00000000000092,1351.9545814642433,-54.00000000000092,1351.9545814642433,-23.499999999997222,1386.954581464242,-23.499999999997215,1386.954581464242,-162.99999999999406,1256.9545814642438,-162.99999999999528" /><polygon id="50224300282" title="282" points="1391.954581464242,-162.99999999999403,1391.954581464242,-23.499999999997414,1521.9545814642424,-23.499999999997414,1521.9545814642424,-162.99999999999403,1391.954581464242,-162.99999999999403" /><polygon id="50224300293" title="293" points="1526.9545814642424,-23.49999999999742,1656.954581464241,-23.499999999997414,1656.954581464241,-162.99999999999153,1526.9545814642424,-162.99999999999153,1526.9545814642424,-23.49999999999742" /><polygon id="50224300278" title="278" points="1661.954581464241,-162.9999999999917,1661.954581464241,-23.499999999997673,1750.9545814642433,-23.499999999997673,1750.9545814642433,-54.00000000000092,1783.9545814642436,-54.00000000000092,1783.9545814642436,-23.499999999997712,1791.9545814642397,-23.499999999997698,1791.9545814642397,-162.99999999999025,1661.954581464241,-162.9999999999917" /><polygon id="50224300279" title="279" points="1796.9545814642383,-23.499999999997726,1926.9545814642383,-23.499999999997726,1926.9545814642383,-162.99999999998897,1796.9545814642383,-162.99999999998897,1796.9545814642383,-23.499999999997726" /><polygon id="50224300280" title="280" points="2321.4545814642465,-399.0000000000009,2290.9545814642415,-399.0000000000009,2290.9545814642415,-432.000000000001,2321.454581464247,-432.000000000001,2321.454581464247,-709.9999999999966,2097.9545814642433,-709.9999999999966,2097.9545814642433,-239.9999999999854,1910.9545814642415,-239.99999999998715,1910.9545814642415,-167.99999999998892,1931.9545814642383,-167.99999999998892,1931.9545814642383,-23.49999999999784,2290.9545814642415,-23.49999999999784,2290.9545814642415,-54.00000000000102,2321.454581464247,-54.00000000000102,2321.4545814642465,-399.0000000000009" /><polygon id="50224300296" title="296" points="1121.9545814642413,-167.99999999998974,1910.9545814642418,-167.9999999999898,1910.9545814642415,-280.9999999999925,1769.9545814642433,-280.9999999999925,1769.9545814642433,-239.99999999999434,1121.9545814642413,-239.99999999999434,1121.9545814642413,-167.99999999998974" /><polygon id="50224300294" title="294" points="1006.9545814642519,-582.8744237731662,1006.9545814642519,-755.5000000000019,1157.4545814642415,-755.5000000000019,1157.4545814642413,-750.5000000000016,1120.02137894533,-750.5000000000016,1120.02137894533,-683.500000000002,1157.4545814642413,-683.500000000002,1157.4545814642413,-642.500000000002,1433.7045814642424,-642.5000000000019,1433.7045814642424,-755.5000000000019,1438.7045814642424,-755.5000000000019,1438.7045814642424,-733.4919709638359,1553.7045814642433,-733.4919709638359,1553.7045814642433,-755.5000000000009,1558.7045814642433,-755.5000000000009,1558.7045814642433,-733.4969695869232,1754.454581464242,-733.4969695869232,1754.454581464242,-755.5000000000014,2097.9545814642433,-755.5000000000014,2097.9545814642433,-827.5000000000019,1897.4545814642408,-827.5000000000019,1897.4545814642408,-881.247824537522,1783.9545814642436,-881.247824537522,1783.9545814642436,-827.5000000000019,1426.4545814642415,-827.5000000000014,1426.4545814642415,-883.1120364025162,1351.7579417229763,-883.1120364025162,1351.7579417229763,-827.5000000000009,1318.7579417229788,-827.5000000000011,1318.7579417229788,-883.1120364025162,1229.4545814642415,-883.1120364025162,1229.4545814642415,-827.5000000000015,955.4545814642415,-827.5000000000009,955.4545814642415,-883.1120364025167,919.9545814642439,-883.1120364025167,919.9545814642439,-827.5000000000009,886.9545814642456,-827.5000000000018,886.9545814642456,-883.1120364025167,758.4545814642424,-883.1120364025167,758.4545814642424,-827.5000000000018,686.2239709240315,-827.5000000000019,693.2956156960056,-737.7997149189368,765.9723731913119,-743.3155896972069,765.1050620884953,-754.7432165392654,775.076384909125,-755.5000000002262,789.4309546980401,-566.3652518190091,1006.9545814642519,-582.8744237731662" /><polygon id="50224300203A" title="203A" points="886.4545814642433,-400.50000000000125,886.4545814642433,-52.50000000000101,918.4545814642435,-52.50000000000101,918.4545814642435,-23.499999999996973,1116.954581464241,-23.499999999996973,1116.954581464241,-239.99999999999477,1006.954581464252,-239.99999999999477,1006.954581464252,-424.34880009518247,918.4545814642435,-424.34880009518247,918.4545814642435,-400.50000000000125,886.4545814642433,-400.50000000000125" /><polygon id="50224300275" title="275" points="1641.454581464246,-723.5000000000008,1641.454581464246,-488.50000000000125,1749.4545814642454,-488.50000000000125,1749.4545814642454,-723.5000000000008,1641.454581464246,-723.5000000000008" /><polygon id="50224300229" title="229" points="1631.4545814642452,-483.5000000000014,1631.4545814642452,-728.4956262026305,1526.4545814642427,-728.4956262026305,1526.4545814642427,-483.5000000000014,1631.4545814642452,-483.5000000000014" /><polygon id="50224300230" title="230" points="1519.9545814642427,-728.49535544388,1472.4545814642436,-728.49535544388,1472.4545814642436,-483.50000000000097,1519.9545814642427,-483.50000000000097,1519.9545814642427,-728.49535544388" /><polygon id="50224300274" title="274" points="2173.9545814642415,-849.9999999999957,2246.954581464251,-849.9999999999957,2246.954581464251,-980.000000000001,2173.9545814642415,-980.000000000001,2173.9545814642415,-849.9999999999957" /><polygon id="50224300273A" title="273A" points="2318.9545814642433,-864.0000000000009,2318.9545814642433,-874.5000000000009,2321.454581464246,-874.5000000000009,2321.454581464246,-980.000000000001,2251.954581464251,-980.000000000001,2251.954581464251,-849.9999999999957,2290.9545814642433,-849.9999999999957,2290.9545814642433,-864.0000000000009,2318.9545814642433,-864.0000000000009" /><polygon id="50224300264" title="264" points="336.4545814642452,-1301.500000000001,336.4545814642452,-1066.5000000000011,444.4545814642454,-1066.5000000000011,444.4545814642454,-1301.500000000001,336.4545814642452,-1301.500000000001" /><polygon id="50224300261" title="261" points="326.45458146424437,-1163.000000000001,326.45458146424437,-1259.500000000001,191.45458146424554,-1259.500000000001,191.45458146424554,-1163.000000000001,326.45458146424437,-1163.000000000001" /><polygon id="50224300261A" title="261A" points="326.45458146424437,-1163.000000000001,191.45458146424517,-1163.000000000001,191.45458146424517,-1066.5000000000002,326.45458146424437,-1066.5000000000002,326.45458146424437,-1163.000000000001" /><polygon id="50224300214A" title="214A" points="186.70458146424303,-1056.5000000000002,186.70458146424303,-1031.7500000000005,256.45458146424386,-1031.7500000000005,256.45458146424386,-1056.5000000000002,186.70458146424303,-1056.5000000000002" /><polygon id="50224300225" title="225" points="358.4545814642474,-896.7500000000007,358.4545814642474,-973.5000000000018,298.45458146424716,-973.5000000000018,298.45458146424716,-978.5000000000018,358.45458146424716,-978.5000000000018,358.45458146424716,-1056.5000000000005,261.7045814642436,-1056.5000000000005,261.70458146424403,-836.5000000000018,309.7045814642434,-836.5000000000018,309.7045814642434,-896.7500000000007,358.4545814642474,-896.7500000000007" /><polygon id="50224300226" title="226" points="483.7045814642432,-1056.5000000000011,382.4545814642431,-1056.5000000000011,382.4545814642431,-978.5000000000018,424.454581464247,-978.5000000000018,424.454581464247,-973.5000000000018,382.4545814642432,-973.5000000000018,382.4545814642432,-896.7500000000008,408.4545814642434,-896.7500000000009,408.4545814642436,-835.7500000000009,453.45458146424335,-835.7500000000009,453.45458146424335,-865.5000000000014,483.7045814642432,-865.5000000000014,483.7045814642432,-1056.5000000000011" /><polygon id="50224300272" title="272" points="294.45458146424613,-685.5000000000009,191.45458146424562,-685.5000000000009,191.45458146424562,-591.5000000000005,294.45458146424613,-591.5000000000005,294.45458146424613,-685.5000000000009" /><polygon id="50224300272A" title="272A" points="294.45458146424613,-685.5000000000009,294.45458146424613,-591.5000000000013,397.4545814642456,-591.5000000000013,397.4545814642456,-685.5000000000009,294.45458146424613,-685.5000000000009" /><polygon id="50224300271" title="271" points="294.4545814642442,-297.50000000000097,294.4545814642442,-391.4999999999994,191.45458146424454,-391.4999999999994,191.45458146424454,-297.50000000000097,294.4545814642442,-297.50000000000097" /><polygon id="50224300271A" title="271A" points="294.4545814642442,-297.50000000000097,397.4545814642448,-297.50000000000097,397.4545814642448,-391.5000000000004,294.4545814642442,-391.5000000000004,294.4545814642442,-297.50000000000097" /><polygon id="50224300201" title="201" points="409.45458146424386,-545.5000000000006,395.95458146424346,-545.5000000000006,395.95458146424346,-581.5000000000013,186.45458146424355,-581.5000000000013,186.45458146424355,-401.5000000000009,395.95458146424346,-401.5000000000009,395.9545814642434,-437.5000000000009,409.45458146424386,-437.5000000000009,409.45458146424386,-453.7499999986153,457.40822515555533,-453.7499999986153,451.64012958259417,-529.7500000015843,409.4545814642439,-529.7500000015854,409.45458146424386,-545.5000000000006" /><polygon id="50224300205" title="205" points="427.7059070453452,-558.9015157230642,454.2889027278918,-560.9190584091359,462.80208495440945,-448.7499999986161,414.45458146424374,-448.7499999986161,414.4545814642451,-397.5000000000033,456.45458146424335,-397.5000000000033,456.45458146424335,-430.5000000000016,486.4545814642433,-430.5000000000012,486.4545814642433,-397.50000000000125,876.4545814642432,-397.50000000000125,876.4545814642432,-400.5000000000012,888.4545814642435,-400.5000000000012,888.4545814642435,-430.3108041347604,886.5827846671741,-430.3108041347604,875.7595270554864,-572.917244661326,789.4309546980401,-566.365251819009,779.7608988063796,-693.7771919093133,769.7895759857497,-693.0204084483528,766.3507649217922,-738.329928286892,688.6603470068312,-732.433536765599,681.2086801090572,-827.5000000000019,489.45458146424517,-827.500000000002,489.45458146424295,-829.5000000000009,403.4545814642434,-829.5000000000018,403.4545814642434,-890.5000000000009,313.7045814642434,-890.5000000000009,313.7045814642434,-829.5000000000018,262.2045814642406,-829.5000000000018,262.2045814642406,-733.5000000000009,414.45458151918154,-733.5000000000009,427.7059070453452,-558.9015157230642" /><polygon id="50224300214" title="214" points="186.70458146424335,-1026.2500000000005,186.70458146424335,-836.5000000000017,256.4545814642442,-836.5000000000017,256.4545814642442,-1026.2500000000005,186.70458146424335,-1026.2500000000005" /><polygon id="50224300228" title="228" points="355.95458146424426,-1672.5000000000011,189.26308146424336,-1672.5000000000011,189.26308146424336,-1635.2140737574598,184.26308146424344,-1635.2140737574584,184.26308146424344,-1672.5000000000011,181.45458146424332,-1672.5000000000011,181.45458146424332,-1411.5000000000023,25.45458146424039,-1411.5000000000023,25.45458146424062,-1254.000000000001,181.45458146424562,-1254.000000000001,181.4545814642437,-1311.5000000000016,484.45458146424335,-1311.500000000001,484.45458146424335,-1404.5000000000018,355.95458146424426,-1404.5000000000018,355.95458146424426,-1672.5000000000011" /><polygon id="50224300204" title="204" points="489.45458146424335,-1404.5000000000018,489.45458146424335,-1332.5000000000018,686.4545814642406,-1332.5000000000018,686.4545814642405,-827.5000000000018,758.4545814642424,-827.5000000000018,758.4545814642424,-1516.5000000000032,686.4545814642406,-1516.5000000000032,686.4545814642406,-1404.5000000000018,489.45458146424335,-1404.5000000000018" /><polygon id="50224300241" title="241" points="22.454581464244256,-1747.5000000000011,22.454581464244256,-1693.2140737574582,25.454581464240277,-1693.2140737574582,25.454581464240277,-1677.5000000000011,997.4545814642435,-1677.5000000000011,997.4545814642435,-1747.5000000000014,22.454581464244256,-1747.5000000000011" /><polygon id="50224300245" title="245" points="1127.9545814642433,-1460.7991237743431,1199.9545814642372,-1460.7991237743431,1199.9545814642372,-1870.500000000001,997.4545814642436,-1870.500000000001,997.4545814642436,-1677.5000000000011,1127.9545814642433,-1677.5000000000011,1127.9545814642433,-1460.7991237743431" /><polygon id="50224300255" title="255" points="1127.9545814642383,-1209.000000000001,1318.9545814642433,-1209.000000000001,1318.9545814642433,-1251.3750000000036,1356.454581464247,-1251.3750000000036,1356.454581464247,-1419.2140737574593,1199.9545814642372,-1419.2140737574593,1199.9545814642372,-1455.7991237743431,1127.9545814642433,-1455.7991237743431,1127.9545814642433,-1419.2140737574593,1090.5213789453328,-1419.2140737574593,1090.5213789453328,-1238.2478245375219,1127.9545814642383,-1238.2478245375219,1127.9545814642383,-1209.000000000001" /><polygon id="50224300253" title="253" points="1352.4545814642433,-1522.500000000003,1352.4545814642433,-1583.7140737574573,1204.9545814642372,-1583.7140737574573,1204.9545814642372,-1424.2140737574593,1356.4545814642502,-1424.2140737574593,1356.4545814642502,-1522.5000000000027,1352.4545814642433,-1522.500000000003" /><polygon id="50224300219" title="219" points="1157.4545814642415,-1082.5000000000018,1157.4545814642415,-1136.2478245375216,1431.4545814642415,-1136.2478245375216,1431.4545814642415,-1082.500000000001,1628.4545814642415,-1082.500000000001,1628.4545814642415,-1136.2478245375216,1902.4545814642408,-1136.2478245375219,1902.4545814642408,-1082.4999999999827,2168.9545814642365,-1082.4999999999827,2168.954581464238,-1239.4999999999923,1783.9545814642433,-1239.4999999999923,1783.9545814642433,-1209.000000000001,1750.9545814642433,-1209.000000000001,1750.9545814642436,-1239.4999999999923,1351.9545814642433,-1239.4999999999923,1351.9545814642433,-1209.000000000001,1127.9545814642383,-1209.000000000001,1127.9545814642383,-1208.2478245375216,758.4545814642424,-1208.2478245375216,758.4545814642424,-1136.2478245375216,960.4545814642415,-1136.2478245375216,960.4545814642415,-1082.5000000000018,1157.4545814642415,-1082.5000000000018" /><polygon id="50224300288" title="288" points="2097.9545814642433,-1082.4999999999827,2097.9545814642433,-714.9999999999983,2168.9545814642415,-714.9999999999983,2168.9545814642415,-1082.4999999999827,2097.9545814642433,-1082.4999999999827" /><polygon id="50224300203" title="203" points="881.1235801962904,-568.3099749813803,891.5828052858197,-430.50000000000125,1006.954581464252,-429.34880009518247,1006.954581464252,-577.8600439462023,881.1235801962904,-568.3099749813803" /><polygon id="50224300287" title="287" points="1628.4545814642415,-1136.2478245375216,1628.4545814642415,-827.5000000000019,1700.4545814642415,-827.5000000000019,1700.4545814642415,-1136.2478245375216,1628.4545814642415,-1136.2478245375216" /><polygon id="50224300286" title="286" points="1157.4545814642415,-1136.2478245375216,1157.4545814642415,-827.5000000000015,1229.4545814642415,-827.5000000000015,1229.4545814642415,-1136.2478245375216,1157.4545814642415,-1136.2478245375216" /><polygon id="50224300223" title="223" points="61.4091629284876,-717.0000000000025,55.65916292848728,-717.0000000000025,55.65916292848728,-671.2500000000027,155.65916292848743,-671.2500000000027,155.65916292848743,-717.0000000000025,149.9091629284876,-717.0000000000025,149.9091629284876,-723.000000000003,174.45458146424335,-723.000000000003,174.45458146424335,-733.5000000000009,256.2045814642409,-733.5000000000009,256.2045814642409,-829.5000000000016,181.4545814642439,-829.5000000000016,181.45458146424326,-978.0000000000009,25.4545814642413,-978.0000000000009,25.4545814642413,-864.0000000000013,55.954581464245166,-864.0000000000013,55.954581464245166,-831.0000000000013,25.45458146424133,-831.0000000000013,25.454581464241357,-723.000000000003,61.4091629284876,-723.000000000003,61.4091629284876,-717.0000000000025" /><polygon id="50224300269" title="269" points="22.00456465620028,-663.7500000000027,22.00456465620028,-287.5000000000009,174.454581464244,-287.5000000000009,174.454581464244,-663.7500000000027,22.00456465620028,-663.7500000000027" /><polygon id="50224300202" title="202" points="181.45458146424562,-1248.000000000001,55.95458146424497,-1248.000000000001,55.95458146424493,-1209.0000000000011,25.454581464241414,-1209.0000000000011,25.454581464241414,-984.0000000000009,181.45458146424562,-984.0000000000009,181.45458146424562,-1248.000000000001" /><polygon id="50224300277" title="277" points="2318.9545814642433,-714.9999999999983,2318.9545814642433,-831.0000000000009,2290.9545814642433,-831.0000000000009,2290.9545814642433,-844.9999999999957,2173.9545814642415,-844.9999999999957,2173.9545814642415,-714.9999999999983,2318.9545814642433,-714.9999999999983" /><polygon id="50224300242" title="242" points="763.4545814642424,-1480.500000000003,886.9545814642441,-1480.500000000003,886.9545814642441,-1677.5000000000011,600.9545814642443,-1677.5000000000011,600.954581464244,-1480.500000000003,681.4545814642406,-1480.500000000003,681.4545814642406,-1521.5000000000032,763.4545814642424,-1521.5000000000032,763.4545814642424,-1480.500000000003" /><polygon id="50224300228A" title="228A" points="25.454581464243716,-1635.2140737574582,25.454581464243716,-1411.5000000000025,181.45458146424332,-1411.5000000000023,181.45458146424332,-1672.5000000000011,55.95458146424244,-1672.5000000000011,55.95458146424244,-1635.2140737574582,25.454581464243716,-1635.2140737574582" /><polygon id="50224300295" title="295" points="1157.4545814642413,-642.5000000000019,1157.4545814642413,-239.99999999999358,1229.454581464242,-239.99999999999358,1229.454581464242,-642.5000000000019,1157.4545814642413,-642.5000000000019" /><polygon id="50224300273" title="273" points="2290.9545814642433,-1239.4999999999923,2175.9545814642365,-1239.4999999999923,2175.9545814642365,-985.000000000001,2321.454581464246,-985.000000000001,2321.454581464246,-1209.000000000001,2290.9545814642433,-1209.000000000001,2290.9545814642433,-1239.4999999999923" /></svg>
