<svg version="1.1" id="Map" class="gen-by-synoptic-designer" xmlns="http://www.w3.org/2000/svg" xmlns:xlink="http://www.w3.org/1999/xlink" viewBox="33.749999999999545 -1097.25 1702.500000000003 1063.500000000001" xml:space="preserve"><image width="1702.500000000003" height="1063.500000000001" xlink:href=""/><polygon id="50227500304" title="304" points="848.2500000000005,-1097.249999999999,969.2500000000005,-1097.249999999999,969.2500000000005,-1092.1502663884257,974.2500000000005,-1092.1502663884257,974.2500000000005,-1097.249999999999,1085.2500000000005,-1097.249999999999,1085.2500000000005,-961.7499999999991,974.2500000000005,-961.7499999999991,974.2500000000005,-968.2499999999991,848.2500000000005,-968.2499999999991,848.2500000000005,-1097.249999999999" /><polygon id="50227500306" title="306" points="1090.2500000000005,-1097.2499999999995,1218.2499999999995,-1097.2499999999995,1218.2499999999995,-977.2499999999997,1090.2500000000005,-977.2499999999997,1090.2500000000005,-1097.2499999999995" /><polygon id="50227500307" title="307" points="1223.2499999999995,-1097.2499999999877,1286.2499999999995,-1097.2499999999877,1286.2499999999995,-1047.874999999999,1223.2499999999995,-1047.874999999999,1223.2499999999995,-1097.2499999999877" /><polygon id="50227500315" title="315" points="1218.2499999999995,-972.2499999999995,1218.2499999999995,-852.2499999999995,1090.2500000000005,-852.2499999999995,1090.2500000000005,-972.2499999999995,1218.2499999999995,-972.2499999999995" /><polygon id="50227500317" title="317" points="1291.2499999999995,-972.2499999999997,1411.2499999999995,-972.2499999999997,1411.2499999999995,-852.2499999999995,1291.2499999999995,-852.2499999999995,1291.2499999999995,-972.2499999999997" /><polygon id="50227500308" title="308" points="1291.2499999999995,-1097.2499999999995,1411.2499999999995,-1097.2499999999995,1411.2499999999995,-977.2499999999997,1291.2499999999995,-977.2499999999997,1291.2499999999995,-1097.2499999999995" /><polygon id="50227500310" title="310" points="1536.2500000000005,-1097.2499999999995,1536.2500000000005,-977.2499999999997,1416.2499999999995,-977.2499999999997,1416.2499999999995,-1097.2499999999995,1536.2500000000005,-1097.2499999999995" /><polygon id="50227500319" title="319" points="1536.2500000000005,-853.2499999999995,1416.2499999999995,-853.7499999999995,1415.7499999999995,-972.2499999999997,1536.2500000000005,-972.2499999999997,1536.2500000000005,-853.2499999999995" /><polygon id="50227500309" title="309" points="1604.2500000000005,-1097.2499999999993,1604.2500000000005,-1044.499999999999,1541.2500000000005,-1044.499999999999,1541.2500000000005,-1097.2499999999993,1604.2500000000005,-1097.2499999999993" /><polygon id="50227500312" title="312" points="1736.2500000000007,-1097.2499999999995,1736.2500000000007,-977.7499999999991,1609.2500000000005,-977.7499999999991,1609.2500000000005,-1097.2499999999995,1736.2500000000007,-1097.2499999999995" /><polygon id="50227500314" title="314" points="1736.2500000000007,-851.9999999999991,1609.2500000000005,-851.9999999999991,1609.2500000000005,-972.7499999999991,1736.2500000000007,-972.7499999999991,1736.2500000000007,-851.9999999999991" /><polygon id="50227500316" title="316" points="1609.2500000000005,-846.9999999999991,1736.2500000000005,-846.9999999999991,1736.2500000000005,-726.9999999999991,1670.5000000000005,-726.9999999999991,1670.5000000000005,-702.9999999999991,1609.2500000000005,-702.9999999999991,1609.2500000000005,-846.9999999999991" /><polygon id="50227500318" title="318" points="1675.5000000000005,-697.9999999999991,1675.5000000000005,-721.9999999999991,1736.2500000000005,-721.9999999999991,1736.2500000000014,-595.2499999999991,1609.2500000000002,-595.2499999999991,1609.2500000000002,-697.9999999999991,1675.5000000000005,-697.9999999999991" /><polygon id="50227500318A" title="318A" points="1736.2500000000025,-590.2499999999991,1736.2500000000025,-499.4999999999991,1609.2500000000005,-499.4999999999991,1609.2500000000005,-590.2499999999991,1736.2500000000025,-590.2499999999991" /><polygon id="50227500320" title="320" points="1736.2500000000014,-410.4999999999991,1609.2500000000005,-410.4999999999991,1609.2500000000005,-494.4999999999991,1736.2500000000014,-494.4999999999991,1736.2500000000014,-410.4999999999991" /><polygon id="50227500322" title="322" points="1736.2500000000023,-405.49999999999903,1736.2500000000023,-285.49999999999915,1609.2500000000005,-285.49999999999915,1609.2500000000005,-405.49999999999903,1736.2500000000023,-405.49999999999903" /><polygon id="50227500324" title="324" points="1736.2500000000005,-159.7499999999991,1609.2500000000002,-159.7499999999991,1609.2500000000002,-280.49999999999915,1736.2500000000005,-280.49999999999915,1736.2500000000005,-159.7499999999991" /><polygon id="50227500326" title="326" points="1736.2500000000005,-154.74999999999915,1736.2500000000005,-33.74999999999912,1609.2500000000002,-33.74999999999912,1609.2500000000002,-154.74999999999915,1736.2500000000005,-154.74999999999915" /><polygon id="50227500328" title="328" points="1413.2500000000007,-33.74999999999915,1413.2500000000007,-154.00000000000028,1534.2500000000007,-154.00000000000028,1534.2500000000007,-33.74999999999915,1413.2500000000007,-33.74999999999915" /><polygon id="50227500329" title="329" points="1413.2500000000007,-277.2500000000003,1534.2500000000007,-277.2500000000003,1534.2500000000007,-159.00000000000028,1413.2500000000007,-159.00000000000028,1413.2500000000007,-277.2500000000003" /><polygon id="50227500330" title="330" points="1408.2500000000007,-33.750000000000085,1206.5000000000007,-33.750000000000085,1206.5000000000007,-165.75000000000028,1275.0000000000007,-165.75000000000028,1275.0000000000007,-278.7500000000003,1408.2500000000007,-278.7500000000003,1408.2500000000007,-33.750000000000085" /><polygon id="50227500327" title="327" points="1365,-413.0000000000003,1365,-348.7500000000003,1274.75,-348.7500000000003,1274.75,-413.0000000000003,1365,-413.0000000000003" /><polygon id="50227500325" title="325" points="1375.7500000000002,-460.7500000000002,1375.7500000000002,-418.0000000000003,1337.2500000000007,-418.0000000000003,1337.2500000000007,-460.7500000000002,1375.7500000000002,-460.7500000000002" /><polygon id="50227500321" title="321" points="1435.2500000000005,-541.2499999999994,1536.2500000000005,-541.2499999999994,1536.2500000000005,-444.24999999999943,1440.2500000000005,-444.24999999999943,1440.2500000000005,-465.7500000000002,1337.25,-465.75000000000034,1337.25,-704.2499999999994,1435.2500000000005,-704.2499999999994,1435.2500000000005,-541.2499999999994" /><polygon id="50227500313" title="313" points="1368.5,-782.2499999999994,1368.5,-709.2499999999994,1295.75,-709.2499999999994,1295.75,-782.2499999999994,1368.5,-782.2499999999994" /><polygon id="50227500311" title="311" points="1290.75,-782.2499999999994,1290.75,-695.4999999999989,1176.75,-695.4999999999989,1176.75,-782.2499999999994,1290.75,-782.2499999999994" /><polygon id="50227500305" title="305" points="1007.7500000000001,-695.499999999999,1007.7500000000001,-761.1294192830273,1026.1249052237658,-782.2499999999994,1171.75,-782.2499999999994,1171.75,-695.499999999999,1007.7500000000001,-695.499999999999" /><polygon id="50227500333" title="333" points="1201.5000000000007,-370.7499999999993,1201.5000000000007,-236.49999999999932,1112.6249999999993,-236.49999999999932,1112.6249999999993,-370.7499999999993,1201.5000000000007,-370.7499999999993" /><polygon id="50227500332" title="332" points="1201.5000000000007,-147.25000000000028,1201.5000000000007,-33.75000000000007,1064.1249999999993,-33.75000000000007,1064.1249999999993,-147.25000000000028,1201.5000000000007,-147.25000000000028" /><polygon id="50227500334" title="334" points="1059.1249999999993,-147.25000000000028,1059.1249999999993,-33.75000000000034,915.6249999999993,-33.75000000000034,915.6249999999993,-147.25000000000028,1059.1249999999993,-147.25000000000028" /><polygon id="50227500337" title="337" points="1107.6249999999993,-370.7499999999993,1107.6249999999993,-218.49999999999935,915.6249999999993,-218.49999999999935,915.6249999999993,-370.7499999999993,1107.6249999999993,-370.7499999999993" /><polygon id="50227500336" title="336" points="1112.6249999999993,-231.49999999999932,1201.5000000000007,-231.49999999999932,1201.5000000000007,-152.25000000000028,956.0000000000007,-152.25000000000028,956.0000000000007,-213.49999999999935,1112.6249999999993,-213.49999999999935,1112.6249999999993,-231.49999999999932" /><polygon id="50227500339" title="339" points="842.6249999999993,-278.74999999999915,842.6249999999993,-158.74999999999915,713.8749999999993,-158.74999999999915,713.8749999999993,-278.74999999999915,842.6249999999993,-278.74999999999915" /><polygon id="50227500338" title="338" points="842.6249999999993,-33.75000000000023,713.8749999999993,-33.75000000000023,713.8749999999993,-153.74999999999915,842.6249999999993,-153.74999999999915,842.6249999999993,-33.75000000000023" /><polygon id="50227500352" title="352" points="580.2499999999993,-33.75000000000023,580.2499999999993,-153.74999999999915,708.8749999999993,-153.74999999999915,708.8749999999993,-33.75000000000023,580.2499999999993,-33.75000000000023" /><polygon id="50227500351" title="351" points="580.2499999999993,-277.24999999999915,708.8749999999993,-277.24999999999915,708.8749999999993,-158.7499999999997,580.2499999999993,-158.7499999999997,580.2499999999993,-277.24999999999915" /><polygon id="50227500362" title="362" points="435.2499999999993,-248.74999999999915,440.2499999999993,-248.74999999999915,440.2499999999993,-278.74999999999915,507.2499999999993,-278.74999999999915,507.2499999999993,-33.75000000000023,238.24999999999937,-33.75000000000023,238.24999999999937,-201.50000000000026,363.2499999999993,-201.50000000000026,363.2499999999993,-278.74999999999915,435.2499999999993,-278.74999999999915,435.2499999999993,-248.74999999999915" /><polygon id="50227500362A" title="362A" points="358.2499999999993,-230.50000000000028,358.2499999999993,-206.50000000000026,326.7499999999993,-206.50000000000026,326.7499999999993,-230.50000000000028,358.2499999999993,-230.50000000000028" /><polygon id="50227500361" title="361" points="358.2499999999993,-302.7500000000002,358.2499999999993,-235.50000000000028,321.7499999999993,-235.50000000000028,321.7499999999993,-206.50000000000026,238.24999999999937,-206.50000000000026,238.24999999999937,-302.7500000000002,358.2499999999993,-302.7500000000002" /><polygon id="50227500364" title="364" points="165.2499999999993,-155.25000000000023,165.2499999999993,-33.75000000000141,33.749999999999545,-33.75000000000141,33.749999999999545,-155.25000000000023,165.2499999999993,-155.25000000000023" /><polygon id="50227500366" title="366" points="33.749999999999545,-160.25000000000023,33.749999999999545,-281.0000000000002,165.24999999999932,-281.0000000000002,165.24999999999932,-160.25000000000023,33.749999999999545,-160.25000000000023" /><polygon id="50227500368" title="368" points="33.749999999999545,-404.5,165.24999999999937,-404.5,165.24999999999937,-286.0000000000002,33.749999999999545,-286.0000000000002,33.749999999999545,-404.5" /><polygon id="50227500370" title="370" points="33.74999999999997,-409.5,33.74999999999997,-721.5000000000002,165.24999999999937,-721.5000000000002,165.24999999999937,-409.5,33.74999999999997,-409.5" /><polygon id="50227500372" title="372" points="33.75000000000003,-726.5000000000002,33.75000000000003,-846,165.24999999999946,-846,165.24999999999946,-726.5000000000002,33.75000000000003,-726.5000000000002" /><polygon id="50227500374" title="374" points="33.75000000000003,-851,33.75000000000003,-972,165.2499999999995,-972,165.2499999999995,-851,33.75000000000003,-851" /><polygon id="50227500376" title="376" points="33.749999999999545,-977,33.749999999999545,-1097.25,165.24999999999952,-1097.25,165.24999999999952,-977,33.749999999999545,-977" /><polygon id="50227500375" title="375" points="376.24999999999955,-1097.25,376.24999999999955,-953.2500000000002,238.24999999999957,-953.2500000000002,238.24999999999957,-1097.25,376.24999999999955,-1097.25" /><polygon id="50227500373" title="373" points="376.24999999999955,-828.2500000000001,238.24999999999946,-828.2500000000001,238.24999999999946,-948.2500000000001,376.24999999999955,-948.2500000000001,376.24999999999955,-828.2500000000001" /><polygon id="50227500301A" title="301A" points="323.24999999999943,-823.2500000000001,376.2499999999995,-823.2500000000001,376.2499999999995,-759.2499999999992,323.24999999999943,-759.2499999999992,323.24999999999943,-823.2500000000001" /><polygon id="50227500367" title="367" points="355.24999999999727,-512.2499999999998,355.24999999999727,-439.9999999999997,238.2499999999994,-439.9999999999997,238.2499999999994,-512.2499999999998,355.24999999999727,-512.2499999999998" /><polygon id="50227500353" title="353" points="580.2499999999993,-435.74999999999926,676.7499999999993,-435.74999999999926,676.7499999999993,-351.49999999999915,580.2499999999993,-351.49999999999915,580.2499999999993,-435.74999999999926" /><polygon id="50227500388" title="388" points="551.4999999999995,-578.7499999999993,620.5,-578.7499999999993,620.5,-449.2499999999992,572.4999999999995,-449.2499999999992,572.4999999999995,-509.24999999999943,507.4999999999995,-509.24999999999943,507.4999999999995,-551.2499999999993,551.4999999999995,-551.2499999999993,551.4999999999995,-578.7499999999993" /><polygon id="50227500398" title="398" points="502.4999999999995,-566.2499999999994,502.4999999999995,-440.7499999999993,455.9999999999995,-440.7499999999993,455.9999999999995,-566.2499999999994,502.4999999999995,-566.2499999999994" /><polygon id="50227500396" title="396" points="542.9999999999995,-559.7499999999993,510.4999999999995,-559.7499999999993,510.4999999999995,-574.2499999999994,444.75,-574.2499999999994,444.75,-686.9999999999991,625,-686.9999999999991,625,-587.2499999999993,542.9999999999995,-587.2499999999993,542.9999999999995,-559.7499999999993" /><polygon id="50227500397" title="397" points="1261.4999999999995,-574.2499999999994,1261.4999999999995,-559.7499999999992,1229.4999999999995,-559.7499999999992,1229.4999999999995,-587.2499999999993,1145.4999999999995,-587.2499999999993,1145.4999999999995,-686.9999999999991,1325.2499999999995,-686.9999999999991,1325.2499999999995,-574.2499999999994,1261.4999999999995,-574.2499999999994" /><polygon id="50227500389" title="389" points="1199.4999999999995,-509.2499999999995,1199.4999999999995,-449.2499999999994,1152,-449.2499999999994,1152,-578.7499999999993,1220.9999999999995,-578.7499999999993,1220.9999999999995,-551.2499999999994,1264.4999999999995,-551.2499999999994,1264.4999999999995,-509.2499999999995,1199.4999999999995,-509.2499999999995" /><polygon id="50227500387" title="387" points="1317.25,-566.2499999999995,1317.25,-440.74999999999943,1269.4999999999995,-440.74999999999943,1269.4999999999995,-566.2499999999995,1317.25,-566.2499999999995" /><polygon id="50227500305A" title="305A" points="1118.5,-656.4999999999993,1047.5,-656.4999999999993,1047.5,-690.4999999999993,1118.5,-690.4999999999993,1118.5,-656.4999999999993" /><polygon id="50227500300" title="300" points="944.75,-654.4999999999994,944.75,-476.7499999999993,825.7500000000001,-476.7499999999993,825.7500000000001,-654.4999999999994,944.75,-654.4999999999994" /><polygon id="50227500392" title="392" points="735,-460.24999999999926,735,-565.6249999999991,819.25,-565.6249999999991,819.25,-460.24999999999926,735,-460.24999999999926" /><polygon id="50227500390" title="390" points="735,-670.9999999999991,819.25,-670.9999999999991,819.25,-565.6249999999991,735,-565.6249999999991,735,-670.9999999999991" /><polygon id="50227500391" title="391" points="1035.5,-682.999999999999,1035.5,-562.6249999999991,951.25,-562.6249999999991,951.25,-682.999999999999,1035.5,-682.999999999999" /><polygon id="50227500393" title="393" points="1035.5,-460.2499999999992,951.25,-460.2499999999992,951.25,-562.6249999999991,1035.5,-562.6249999999991,1035.5,-460.2499999999992" /><polygon id="50227500394" title="394" points="683,-669.4999999999993,683,-688.4999999999989,722.9999999999995,-688.4999999999989,722.9999999999995,-481.7499999999992,633,-481.7499999999992,633,-669.4999999999993,683,-669.4999999999993" /><polygon id="50227500395" title="395" points="1087.2499999999998,-461.9999999999996,1087.2499999999998,-440.7499999999994,1047.5,-440.7499999999994,1047.5,-649.4999999999993,1137.5,-649.4999999999993,1137.5,-461.9999999999996,1087.2499999999998,-461.9999999999996" /><polygon id="50227500303" title="303" points="1517.250000000001,-283.7500000000003,1517.250000000001,-279.2500000000011,1430.250000000001,-279.2500000000011,1430.250000000001,-283.7500000000002,1270.0000000000007,-283.7500000000003,1270.0000000000007,-170.75000000000028,1206.5000000000007,-170.75000000000028,1206.5000000000007,-354.7500000000003,1270.0000000000007,-354.7500000000003,1270.0000000000007,-343.75000000000017,1380.7500000000002,-343.75000000000017,1380.7500000000002,-460.7500000000002,1435.2500000000005,-460.7500000000002,1435.2500000000005,-439.24999999999943,1541.2500000000005,-439.2499999999994,1541.2500000000005,-546.2499999999994,1440.2500000000005,-546.2499999999994,1440.2500000000005,-709.2499999999994,1385.7500000000005,-709.2499999999994,1385.7500000000005,-787.2499999999995,1023.8474999999997,-787.2499999999998,1006.285857975438,-767.0642045694688,862.076000193913,-900.681638491855,885.7752259560783,-927.9221278736547,882.0030105631897,-931.2039552654678,858.4065381638486,-904.0815731972589,825.5729436412574,-934.5034924338984,848.2500000000005,-960.5690744554424,848.2500000000005,-963.2499999999991,969.2500000000005,-963.2499999999991,969.2500000000005,-908.4999999999995,924.7500000000005,-908.4999999999995,924.7500000000005,-903.4999999999995,974.2500000000005,-903.4999999999995,974.2500000000005,-956.7499999999991,1085.2500000000005,-956.7499999999991,1085.2500000000005,-847.2499999999995,1223.2499999999995,-847.2499999999995,1223.2499999999995,-1042.874999999999,1286.2499999999995,-1042.874999999999,1286.2499999999995,-847.2499999999995,1432.2500000000002,-847.2499999999995,1432.2500000000002,-851.7499999999989,1519.2500000000002,-851.7499999999989,1519.2500000000002,-847.2499999999995,1541.2500000000005,-847.2499999999993,1541.2500000000005,-1039.499999999999,1604.2500000000005,-1039.499999999999,1604.2500000000002,-33.75000000000023,1539.2500000000011,-33.75000000000023,1539.2500000000011,-283.7500000000003,1517.250000000001,-283.7500000000003" /><polygon id="50227500335" title="335" points="1264.4999999999995,-435.74999999999915,1269.75,-435.74999999999943,1269.75,-359.7500000000003,1206.5000000000007,-359.7500000000003,1206.5000000000007,-375.7499999999993,910.6249999999993,-375.7499999999993,910.6249999999993,-351.49999999999915,824.1249999999993,-351.49999999999915,824.1249999999993,-435.7499999999992,825.75,-435.7499999999992,825.75,-471.7499999999993,944.75,-471.7499999999993,944.75,-435.7499999999992,1220.75,-435.74999999999943,1220.75,-449.24999999999926,1204.4999999999995,-449.2499999999993,1204.4999999999995,-504.24999999999955,1264.4999999999995,-504.24999999999955,1264.4999999999995,-435.74999999999915" /><polygon id="50227500369" title="369" points="170.24999999999955,-457.5000000000002,165.24999999999937,-457.5000000000002,165.24999999999937,-673.5000000000002,170.24999999999955,-673.5000000000002,170.24999999999955,-1097.249999999998,233.24999999999926,-1097.249999999998,233.24999999999943,-771.1127856429874,258.99999999999966,-746.2499999999998,309.4999999999995,-746.2499999999999,309.4999999999995,-623.2499999999999,355.24999999999744,-623.2499999999999,355.24999999999744,-517.2499999999999,233.24999999999926,-517.2499999999991,233.24999999999926,-434.99999999999966,301.8749999999972,-434.99999999999966,301.8749999999972,-381.0000000000001,258.3749999999966,-381.0000000000001,233.24999999999926,-366.61666753379825,233.24999999999926,-33.750000000001364,170.24999999999955,-33.750000000001364,170.24999999999955,-457.5000000000002" /><polygon id="50227500365" title="365" points="368.8749999999973,-307.7500000000002,314.3749999999973,-307.7500000000002,314.3749999999973,-366.99999999999955,368.8749999999973,-366.99999999999955,368.8749999999973,-307.7500000000002" /><polygon id="50227500350" title="350" points="363.2499999999993,-283.74999999999915,363.2499999999993,-307.7500000000002,368.8749999999973,-307.7500000000002,368.8749999999973,-340.99999999999966,373.8749999999973,-340.99999999999966,373.8749999999973,-371.99999999999955,306.8749999999973,-371.9999999999996,306.8749999999973,-434.99999999999966,360.2499999999973,-434.99999999999966,360.2499999999975,-673.0000000000011,341.9999999999995,-691.2499999999992,314.4999999999995,-691.2499999999992,314.4999999999995,-754.2499999999992,433.75,-754.2499999999992,433.75,-435.7499999999993,507.4999999999995,-435.7499999999993,507.4999999999995,-504.24999999999943,567.4999999999995,-504.24999999999943,567.4999999999995,-449.24999999999926,552.4999999999994,-449.24999999999926,552.4999999999994,-435.7499999999993,575.2499999999993,-435.74999999999926,575.2499999999993,-346.4999999999991,910.6249999999993,-346.49999999999915,910.6249999999993,-213.49999999999937,951.0000000000007,-213.49999999999937,951.0000000000007,-152.25000000000028,910.6249999999993,-152.25000000000028,910.6249999999993,-33.7500000000004,847.6249999999993,-33.7500000000004,847.6249999999993,-283.74999999999915,575.2499999999993,-283.74999999999915,575.2499999999993,-33.749999999999545,512.2499999999993,-33.749999999999545,512.2499999999993,-283.74999999999915,363.2499999999993,-283.74999999999915" /><polygon id="50227500301" title="301" points="818.6200460197392,-934.1293632410793,1002.75,-763.5240222638868,1002.75,-695.499999999999,944.7499999999999,-695.4999999999991,944.7499999999999,-659.4999999999994,825.7500000000001,-659.4999999999994,825.7500000000001,-695.4999999999991,433.75000000000006,-695.5000000000002,433.75000000000006,-754.2499999999993,381.2499999999995,-754.2499999999992,381.24999999999955,-1097.2499999999998,843.2500000000005,-1097.2499999999998,843.2500000000005,-962.4396551724146,818.6200460197392,-934.1293632410793" /><polygon id="50227500363" title="363" points="259.7049244749656,-376.00000000000017,301.87499999999716,-376.0000000000003,301.8749999999972,-307.7500000000002,238.24999999999937,-307.7500000000002,238.24999999999937,-363.7176791339016,259.7049244749656,-376.00000000000017" /><polygon id="50227500369A" title="369A" points="314.4999999999995,-678.2499999999999,347.9289321881331,-678.25,355.24999999999744,-670.9289321881356,355.24999999999744,-628.2499999999999,314.49999999999943,-628.2499999999998,314.4999999999995,-678.2499999999999" /><polygon id="50227500384" title="384" points="681.7499999999993,-440.74999999999926,633,-440.74999999999926,633,-476.7499999999992,723,-476.7499999999992,723,-435.7499999999993,819.1249999999993,-435.7499999999993,819.1249999999993,-351.49999999999915,681.7499999999993,-351.49999999999915,681.7499999999993,-440.74999999999926" /><polygon id="50227500371" title="371" points="309.49999999999955,-823.2499999999999,309.4999999999995,-751.2499999999998,261.0199148763424,-751.2499999999999,238.2499999999995,-773.2353791331874,238.24999999999946,-823.25,309.49999999999955,-823.2499999999999" /></svg>
