<svg version="1.1" id="Map" class="gen-by-synoptic-designer" xmlns="http://www.w3.org/2000/svg" xmlns:xlink="http://www.w3.org/1999/xlink" viewBox="13.000000000000398 -1117.9999999999995 2323.2499999999986 1200.124999999952" xml:space="preserve"><image width="2323.2499999999986" height="1200.124999999952" xlink:href=""/><polygon id="50227500NC021" title="NC021" points="206.00000000000043,-1117.9999999999984,40.999999999999545,-1117.9999999999984,40.999999999999545,-1097.9999999999995,32.999999999999545,-1097.9999999999995,32.999999999999574,-1089.9999999999995,13.000000000000398,-1089.9999999999995,13.000000000000398,-1028,106.00000000000041,-1028,106.00000000000043,-924,13.000000000000398,-924,13.000000000000398,-893.0000000000005,32.999999999999545,-893.0000000000003,32.999999999999545,-877.0000000000003,13.000000000000398,-877.0000000000003,13.000000000000398,-680.0000000000003,32.999999999999545,-680.0000000000003,32.999999999999545,-664.0000000000003,13.000000000000398,-664.0000000000003,13.000000000000398,-467.00000000000034,32.999999999999545,-467.0000000000002,32.999999999999545,-451.0000000000002,13.000000000000455,-451.0000000000002,13.000000000000455,-440.7499999999992,436.75,-440.7499999999992,436.75,-519.4999999999992,392.25,-519.4999999999992,392.25,-488.7499999999992,387.25,-488.7499999999992,387.25,-536.9999999999991,206.00000000000043,-536.9999999999991,206.00000000000043,-1117.9999999999984" /><polygon id="50227500NC021A" title="NC021A" points="13.000000000000455,-1020.0000000000001,13.000000000000455,-932.0000000000001,98.00000000000045,-932.0000000000001,98.00000000000045,-1020.0000000000001,13.000000000000455,-1020.0000000000001" /><polygon id="50227500NC021B" title="NC021B" points="214.00000000000045,-1117.9999999999986,214.0000000000004,-544.9999999999994,395.25,-544.9999999999994,395.25,-527.4999999999994,436.75,-527.4999999999994,436.75,-574.2499999999993,510.5,-574.2499999999993,510.5,-559.7499999999993,543,-559.7499999999993,543,-587.2499999999994,621,-587.2499999999994,621,-670.9999999999991,624.9999999999999,-670.9999999999991,624.9999999999999,-1117.9999999999986,467.0000000000017,-1117.9999999999986,467.0000000000016,-1098.0000000000005,451.0000000000017,-1098.0000000000005,451.0000000000017,-1117.9999999999986,254.0000000000018,-1117.9999999999986,254.0000000000018,-1098.0000000000005,237.99999999999957,-1097.9999999999998,237.99999999999957,-1117.9999999999986,214.00000000000045,-1117.9999999999986" /><polygon id="50227500NC022A" title="NC022A" points="127.00000000000006,-435.74999999999943,13.000000000000455,-435.74999999999943,13.000000000000455,-254.00000000000057,32.9999999999996,-254.00000000000057,32.9999999999996,-238.50000000000057,127.00000000000006,-238.50000000000057,127.00000000000006,-435.74999999999943" /><polygon id="50227500NC022" title="NC022" points="132,-238.50000000000057,372.75,-238.50000000000057,372.75,-435.74999999999943,132,-435.74999999999943,132,-238.50000000000057" /><polygon id="50227500NC119A" title="NC119A" points="456,-566.2499999999992,456,-440.7499999999993,502.50000000000006,-440.7499999999993,502.50000000000006,-566.2499999999992,456,-566.2499999999992" /><polygon id="50227500NC119" title="NC119" points="620.5,-579.2499999999993,551.5,-579.2499999999993,551.5,-551.2499999999992,507.50000000000006,-551.2499999999992,507.50000000000006,-509.2499999999992,572.5,-509.2499999999992,572.5,-449.24999999999915,620.5,-449.24999999999915,620.5,-579.2499999999993" /><polygon id="50227500NC010" title="NC010" points="664.0000000000007,-1117.9999999999986,632.9999999999999,-1117.9999999999986,632.9999999999999,-765.4999999999991,1011,-765.4999999999991,1011,-1117.9999999999995,893.0000000000017,-1117.9999999999995,893.0000000000017,-1097.9999999999995,877.0000000000016,-1097.9999999999995,877.0000000000016,-1117.9999999999986,680.0000000000016,-1117.9999999999986,680.0000000000017,-1097.9999999999995,664.0000000000007,-1097.9999999999995,664.0000000000007,-1117.9999999999986" /><polygon id="50227500NC003" title="NC003" points="632.9999999999999,-757.4999999999992,632.9999999999999,-676.9999999999992,723,-676.9999999999992,723,-694.9999999999992,1091,-694.9999999999992,1091,-1097.9999999999995,1090.0000000000016,-1097.9999999999995,1090.0000000000016,-1117.9999999999995,1019,-1117.9999999999995,1019,-757.4999999999992,632.9999999999999,-757.4999999999992" /><polygon id="50227500NC009C" title="NC009C" points="1303.000000000001,-925.9999999999987,1303.000000000001,-1117.9999999999986,1106.0000000000016,-1117.9999999999986,1106.0000000000016,-1097.9999999999995,1099,-1097.9999999999995,1099,-925.9999999999986,1303.000000000001,-925.9999999999987" /><polygon id="50227500NC009A" title="NC009A" points="1327.2499999999998,-554.2499999999993,1549.7500000000007,-554.2499999999993,1549.7500000000007,-917.9999999999987,1099,-917.9999999999987,1099,-694.9999999999992,1151.5,-694.9999999999992,1151.5,-587.2499999999995,1229.5,-587.2499999999995,1229.5,-559.7499999999992,1261.5000000000002,-559.7499999999992,1261.5000000000002,-574.2499999999992,1327.25,-574.2499999999992,1327.2499999999998,-554.2499999999993" /><polygon id="50227500NC009B" title="NC009B" points="1549.75,-925.9999999999986,1549.75,-1026.9999999999986,1516.0000000000014,-1026.9999999999986,1516.0000000000014,-1117.9999999999986,1319.0000000000016,-1117.9999999999986,1319.0000000000014,-1097.9999999999995,1311.0000000000014,-1097.9999999999995,1311.0000000000014,-925.9999999999986,1549.75,-925.9999999999986" /><polygon id="50227500NC117" title="NC117" points="825.7499999999999,-476.7499999999994,945.2499999999999,-476.7499999999994,945.2499999999999,-682.999999999999,825.7499999999999,-682.999999999999,825.7499999999999,-476.7499999999994" /><polygon id="50227500NC009" title="NC009" points="1729.0000000000005,-1117.9999999999986,1532.0000000000016,-1117.9999999999986,1532.0000000000016,-1097.9999999999995,1524.0000000000016,-1097.9999999999995,1524.0000000000011,-1034.9999999999986,1557.750000000001,-1034.9999999999989,1557.75,-546.2499999999992,1327.2499999999998,-546.2499999999992,1327.2499999999998,-444.2499999999993,1737.0000000000023,-444.2499999999993,1737.0000000000023,-467.00000000000057,1759.0000000000023,-467.00000000000057,1759.0000000000023,-664.0000000000005,1737.0000000000023,-664.0000000000005,1737.0000000000023,-680.0000000000005,1759.000000000003,-680.0000000000005,1759.000000000003,-877.0000000000006,1736.9999999999998,-877.0000000000006,1736.9999999999998,-893.0000000000006,1759.000000000003,-893.0000000000006,1759.000000000003,-1089.9999999999998,1729.0000000000005,-1089.9999999999998,1729.0000000000005,-1117.9999999999986" /><polygon id="50227500NC002" title="NC002" points="1264.5,-504.2499999999994,1204.5,-504.2499999999994,1204.5,-449.2499999999993,1220.75,-449.2499999999993,1220.75,-435.7499999999995,944.75,-435.74999999999926,944.75,-471.74999999999903,825.75,-471.74999999999903,825.75,-435.7499999999995,775.2500000000007,-435.7499999999993,775.2500000000007,-440.7499999999994,751.2500000000005,-440.7499999999994,751.2500000000005,-435.7499999999995,552.5,-435.7499999999993,552.5,-449.2499999999993,567.5,-449.2499999999993,567.5,-504.2499999999994,507.5,-504.2499999999994,507.5,-435.7499999999995,377.75,-435.7499999999995,377.75,-341.2499999999995,450.99999999999955,-341.2499999999995,450.99999999999955,-375.7499999999995,827.7499999999995,-375.7499999999995,827.7499999999995,-315.7499999999995,894.2500000000001,-315.7499999999995,894.2500000000002,1.99999999995066,1014.0000000000016,1.99999999995066,1014.0000000000016,-314.74999999999363,1194.8749999999982,-314.74999999999363,1194.8749999999982,-315.2499999999994,1890.7499999999993,-315.2499999999993,1890.7499999999993,-418.2499999999994,1877.499999999999,-418.2499999999994,1877.499999999999,-436.74999999999943,1771.999999999999,-436.74999999999943,1771.999999999999,-436.2499999999993,1327.25,-436.2499999999993,1327.2500000000002,-435.7499999999995,1264.5,-435.7499999999993,1264.5,-504.2499999999994" /><polygon id="50227500NC011A" title="NC011A" points="1269.5,-440.74999999999943,1317.25,-440.74999999999943,1317.25,-566.2499999999991,1269.5,-566.2499999999991,1269.5,-440.74999999999943" /><polygon id="50227500NC011" title="NC011" points="1152,-449.2499999999994,1199.5,-449.2499999999994,1199.5,-509.24999999999943,1264.5,-509.24999999999943,1264.5,-551.2499999999993,1221,-551.2499999999993,1221,-578.7499999999995,1152,-578.7499999999995,1152,-449.2499999999994" /><polygon id="50227500NC993" title="NC993" points="633,-670.9999999999992,633,-440.7499999999994,723,-440.7499999999994,723,-597.4999999999992,677.9999999999999,-597.4999999999992,677.9999999999999,-670.9999999999992,633,-670.9999999999992" /><polygon id="50227500NC001" title="NC001" points="1912.1249999999984,-881.7499999999993,1772.000000000003,-881.7499999999993,1772.000000000003,-877.0000000000003,1767.000000000003,-877.0000000000003,1767.000000000003,-684.2499999999993,1783.499999999999,-684.2499999999993,1783.499999999999,-667.2499999999993,1888.8749999999989,-667.2499999999993,1888.8749999999989,-653.7499999999993,1912.1249999999984,-653.7499999999993,1912.1249999999984,-881.7499999999993" /><polygon id="50227500NC013" title="NC013" points="1859.4999999999966,-662.2499999999992,1783.499999999999,-662.2499999999992,1783.499999999999,-647.9999999999991,1771.999999999999,-647.9999999999991,1771.999999999999,-441.74999999999926,1881.499999999999,-441.74999999999926,1881.499999999999,-422.24999999999926,1890.7499999999995,-422.24999999999926,1890.7499999999995,-529.9999999999992,1892.7499999999995,-529.9999999999992,1892.7499999999995,-531.9999999999992,2336.249999999999,-531.9999999999992,2336.249999999999,-647.9999999999991,1859.4999999999966,-647.9999999999991,1859.4999999999966,-662.2499999999992" /><polygon id="50227500NC008" title="NC008" points="1340.249999999998,-310.2499999999992,1340.249999999998,-221.6249999999992,1640.2499999999982,-221.6249999999992,1640.2499999999982,-310.2499999999992,1340.249999999998,-310.2499999999992" /><polygon id="50227500NC016E" title="NC016E" points="1753.7499999999982,-199.50000000000057,1770.4999999999982,-199.50000000000057,1770.499999999998,-238.00000000000054,1736.9999999999998,-238.00000000000054,1736.9999999999998,-254.00000000000054,1770.499999999998,-254.00000000000054,1770.499999999998,-310.2499999999993,1645.249999999998,-310.2499999999993,1645.249999999998,-216.6249999999993,1340.249999999998,-216.62499999999932,1340.249999999998,-100.62499999999932,1347.249999999998,-100.62499999999932,1347.249999999998,-12.249999999999318,1514.8749999999989,-12.249999999999318,1514.8749999999989,-34.0000000000006,1533.1249999999989,-34.0000000000006,1533.1249999999989,-12.249999999999318,1725.9999999999998,-12.249999999999318,1725.9999999999998,-44.00000000000176,1753.7499999999984,-44.00000000000176,1753.7499999999982,-199.50000000000057" /><polygon id="50227500NC016H" title="NC016H" points="1890.7499999999995,-210.50000000000057,1890.7499999999995,-310.2499999999993,1775.4999999999982,-310.2499999999993,1775.499999999998,-199.50000000000054,1877.2499999999975,-199.50000000000054,1877.2499999999975,-210.50000000000043,1890.7499999999995,-210.50000000000057" /><polygon id="50227500NC016G" title="NC016G" points="1759.2499999999982,-194.50000000000057,1759.2499999999982,-109.87500000000058,1890.7499999999995,-109.87500000000058,1890.7499999999995,-194.50000000000057,1759.2499999999982,-194.50000000000057" /><polygon id="50227500NC016B" title="NC016B" points="1334.749999999998,-310.24999999999943,1222.374999999998,-310.24999999999943,1222.374999999998,-202.24999999999943,1272.749999999998,-202.24999999999943,1272.749999999998,-177.99999999999943,1340.249999999998,-177.9999999999994,1340.249999999998,-212.4999999999994,1334.749999999998,-212.4999999999994,1334.749999999998,-310.24999999999943" /><polygon id="50227500NC016D" title="NC016D" points="1272.749999999998,-153.74999999999943,1334.749999999998,-153.74999999999943,1334.749999999998,-172.9999999999994,1272.749999999998,-172.9999999999994,1272.749999999998,-153.74999999999943" /><polygon id="50227500NC016" title="NC016" points="1237.749999999998,-148.7499999999992,1267.749999999998,-148.7499999999992,1267.749999999998,-202.24999999999923,1237.749999999998,-202.24999999999923,1237.749999999998,-197.2499999999992,1217.374999999998,-197.2499999999992,1217.374999999998,-310.2499999999992,1194.8749999999982,-310.2499999999992,1194.8749999999982,-310.7499999999936,1017.8749999999983,-310.7499999999936,1017.8750000000019,-194.74999999999352,1018.874999999998,-194.74999999999352,1018.874999999998,-146.2499999999992,1181.374999999998,-146.2499999999992,1181.374999999998,-141.24999999999932,1217.3749999999977,-141.24999999999932,1217.374999999998,-153.7499999999992,1237.749999999998,-153.7499999999992,1237.749999999998,-148.7499999999992" /><polygon id="50227500NC016A" title="NC016A" points="1018.874999999998,-141.24999999999932,1018.874999999998,-9.999999999999318,1088.874999999998,-9.999999999999318,1088.874999999998,-34.00000000000057,1107.124999999998,-34.00000000000057,1107.124999999998,-9.999999999999318,1217.374999999998,-9.999999999999318,1217.374999999998,-141.24999999999943,1018.874999999998,-141.24999999999932" /><polygon id="50227500NC016C" title="NC016C" points="1222.374999999998,-148.7499999999992,1222.374999999998,-9.999999999999204,1301.8749999999977,-9.999999999999204,1301.8749999999977,-34.000000000000455,1334.749999999998,-34.000000000000455,1334.749999999998,-148.7499999999992,1222.374999999998,-148.7499999999992" /><polygon id="50227500NC030" title="NC030" points="455.99999999999955,-370.74999999999943,455.99999999999955,-304.74999999999943,670.9999999999995,-304.74999999999943,670.9999999999995,-315.74999999999943,822.7499999999995,-315.74999999999943,822.7499999999995,-370.74999999999943,455.99999999999955,-370.74999999999943" /><polygon id="50227500NC025" title="NC025" points="455.99999999999955,-33.00000000000193,593.2499999999995,-33.00000000000193,593.2499999999995,-133.00000000000193,455.99999999999955,-133.00000000000193,455.99999999999955,-33.00000000000193" /><polygon id="50227500NC027" title="NC027" points="455.99999999999955,-3.0000000000019327,455.99999999999955,77.12500000000044,593.2499999999995,77.12500000000044,593.2499999999995,-18.37499999999956,466.99999999999955,-18.37499999999956,466.99999999999955,-3.0000000000019327,455.99999999999955,-3.0000000000019327" /><polygon id="50227500NC035" title="NC035" points="377.75,-336.24999999999943,377.7499999999989,82.12499999995242,450.99999999999847,82.12499999995242,450.99999999999955,-336.24999999999943,377.75,-336.24999999999943" /><polygon id="50227500NC023" title="NC023" points="251,-233.50000000000057,251,-112.75000000000057,372.75,-112.75000000000057,372.75,-233.50000000000057,251,-233.50000000000057" /><polygon id="50227500NC026" title="NC026" points="372.75,-107.75000000000057,251,-107.75000000000057,251,-33.00000000000193,253.99999999999977,-33.00000000000192,253.99999999999977,-3.0000000000019185,252.75,-3.0000000000019185,252.75,18.49999999999943,290.75,18.49999999999943,290.75,-15.250000000000568,295.75,-15.250000000000568,295.75,18.49999999999943,372.75,18.49999999999943,372.75,-107.75000000000057" /><polygon id="50227500NC023A" title="NC023A" points="237.99999999999983,-11.000000000001933,237.99999999999983,-33.00000000000193,246.00000000000006,-33.00000000000193,246.00000000000006,-233.50000000000057,13.000000000000455,-233.50000000000057,13.000000000000455,-113.50000000000055,30.250000000000057,-113.50000000000055,30.250000000000057,-41.50000000000023,42.87500000000006,-41.50000000000023,42.87500000000006,-11.000000000001933,83.62500000000006,-11.000000000001933,83.62500000000006,-44.75000000000193,88.62500000000006,-44.75000000000193,88.62500000000006,-11.000000000001933,237.99999999999983,-11.000000000001933" /><polygon id="50227500NC994" title="NC994" points="1137.5,-686.9999999999992,1047.5,-686.9999999999992,1047.5,-440.7499999999995,1087.2499999999998,-440.7499999999995,1087.2499999999998,-461.9999999999997,1137.5,-461.9999999999997,1137.5,-686.9999999999992" /><polygon id="50227500NC016F" title="NC016F" points="1770,-12.24999999999934,1890.7499999999995,-12.24999999999934,1890.7499999999995,-104.8750000000006,1753.7499999999984,-104.8750000000006,1753.7499999999984,-43.99999999999966,1770,-43.99999999999966,1770,-12.24999999999934" /><polygon id="50227500NC998" title="NC998" points="801.2499999999999,-688.999999999999,734.9999999999999,-688.999999999999,734.9999999999999,-565.6249999999992,819.2499999999999,-565.6249999999992,819.2499999999999,-670.999999999999,801.2499999999999,-670.999999999999,801.2499999999999,-688.999999999999" /><polygon id="50227500NC999" title="NC999" points="801.25,-460.24999999999926,819.25,-460.24999999999926,819.25,-565.6249999999993,735,-565.6249999999993,735,-442.24999999999915,744.7500000000005,-442.24999999999915,744.7500000000005,-447.2499999999992,781.7500000000005,-447.2499999999992,781.7500000000005,-442.24999999999926,801.2499999999999,-442.24999999999926,801.25,-460.24999999999926" /><polygon id="50227500NC996" title="NC996" points="951.25,-565.6249999999992,1035.5,-565.6249999999992,1035.5,-682.9999999999989,951.25,-682.9999999999989,951.25,-565.6249999999992" /><polygon id="50227500NC997" title="NC997" points="951.2499999999999,-565.6249999999992,951.2499999999999,-460.2499999999995,1035.5,-460.2499999999995,1035.5,-565.6249999999992,951.2499999999999,-565.6249999999992" /><polygon id="50227500NC995" title="NC995" points="683.9999999999999,-670.9999999999992,683.9999999999999,-603.4999999999992,723,-603.4999999999992,723,-670.9999999999992,683.9999999999999,-670.9999999999992" /><polygon id="50227500NC032A" title="NC032A" points="798.7500000000001,77.12500000000045,873.7500000000001,77.12500000000045,873.7500000000001,3.1250000000004547,798.7500000000001,3.1250000000004547,798.7500000000001,77.12500000000045" /><polygon id="50227500NC032B" title="NC032B" points="723.7500000000001,77.12500000000045,798.7500000000001,77.12500000000045,798.7500000000001,3.1250000000004547,723.7500000000001,3.1250000000004547,723.7500000000001,77.12500000000045" /><polygon id="50227500NC032" title="NC032" points="598.2499999999995,77.12500000000045,723.7500000000001,77.12500000000045,723.7500000000001,3.1250000000004547,873.7500000000001,3.1250000000004547,873.7500000000001,-33.624999999999545,889.2500000000001,-33.624999999999545,889.2500000000001,-222.49999999999943,589.2500000000001,-222.49999999999943,589.2500000000001,-299.49999999999943,530.9999999999995,-299.49999999999943,530.9999999999995,-151.49999999999943,455.99999999999955,-151.49999999999943,455.99999999999955,-138.00000000000193,598.2499999999995,-138.00000000000193,598.2499999999995,-184.87499999999955,823.2499999999995,-184.87499999999955,823.2499999999995,-34.874999999999545,682.124999999998,-34.874999999999545,682.124999999998,23.125000000000455,662.4999999999995,23.125000000000455,662.4999999999995,-34.874999999999545,598.2499999999995,-34.87499999999952,598.2499999999995,77.12500000000045" /><polygon id="50227500NC032E" title="NC032E" points="748.2499999999995,-34.874999999999545,823.2499999999995,-34.874999999999545,823.2499999999995,-109.87499999999955,748.2499999999995,-109.87499999999955,748.2499999999995,-34.874999999999545" /><polygon id="50227500NC032D" title="NC032D" points="748.2499999999995,-34.874999999999545,748.2499999999995,-109.87499999999955,673.2499999999995,-109.87499999999955,673.2499999999995,-34.874999999999545,748.2499999999995,-34.874999999999545" /><polygon id="50227500NC032C" title="NC032C" points="598.2499999999995,-34.874999999999545,673.2499999999995,-34.874999999999545,673.2499999999995,-109.87499999999955,598.2499999999995,-109.87499999999955,598.2499999999995,-34.874999999999545" /><polygon id="50227500NC032H" title="NC032H" points="598.2499999999995,-109.87499999999955,673.2499999999995,-109.87499999999955,673.2499999999995,-184.87499999999955,598.2499999999995,-184.87499999999955,598.2499999999995,-109.87499999999955" /><polygon id="50227500NC032G" title="NC032G" points="673.2499999999995,-109.87499999999955,748.2499999999995,-109.87499999999955,748.2499999999995,-184.87499999999955,673.2499999999995,-184.87499999999955,673.2499999999995,-109.87499999999955" /><polygon id="50227500NC032F" title="NC032F" points="748.2499999999995,-109.87499999999955,823.2499999999995,-109.87499999999955,823.2499999999995,-184.87499999999955,748.2499999999995,-184.87499999999955,748.2499999999995,-109.87499999999955" /><polygon id="50227500NC032J" title="NC032J" points="455.99999999999955,-151.49999999999943,530.9999999999995,-151.49999999999943,530.9999999999995,-225.4999999999994,455.99999999999955,-225.4999999999994,455.99999999999955,-151.49999999999943" /><polygon id="50227500NC032K" title="NC032K" points="455.99999999999955,-225.4999999999994,530.9999999999995,-225.4999999999994,530.9999999999995,-299.49999999999943,455.99999999999955,-299.49999999999943,455.99999999999955,-225.4999999999994" /><polygon id="50227500NC032L" title="NC032L" points="589.2500000000001,-222.49999999999943,664.2500000000001,-222.49999999999943,664.2500000000001,-299.49999999999943,589.2500000000001,-299.49999999999943,589.2500000000001,-222.49999999999943" /><polygon id="50227500NC032M" title="NC032M" points="664.2500000000001,-222.49999999999943,739.2500000000001,-222.49999999999943,739.2500000000001,-299.50000000000114,664.2500000000001,-299.50000000000114,664.2500000000001,-222.49999999999943" /><polygon id="50227500NC032N" title="NC032N" points="739.2500000000001,-222.49999999999943,814.2500000000001,-222.49999999999943,814.2500000000001,-299.49999999999943,739.2500000000001,-299.49999999999943,739.2500000000001,-222.49999999999943" /><polygon id="50227500NC032P" title="NC032P" points="814.2500000000001,-222.49999999999943,889.2500000000001,-222.49999999999943,889.2500000000001,-299.49999999999943,814.2500000000001,-299.49999999999943,814.2500000000001,-222.49999999999943" /></svg>
