<svg version="1.1" id="Map" class="gen-by-synoptic-designer" xmlns="http://www.w3.org/2000/svg" xmlns:xlink="http://www.w3.org/1999/xlink" viewBox="33.749999999998565 -1097.2500000000005 1702.5000000000032 1063.500000000001" xml:space="preserve"><image width="1702.5000000000032" height="1063.500000000001" xlink:href=""/><polygon id="50227500516" title="516" points="1615.1875000000005,-626.4375,1615.1875000000005,-682.6874999999998,1736.2500000000005,-682.6874999999998,1736.2500000000018,-502.5624999999999,1567.6875000000007,-502.5624999999999,1567.6875000000007,-626.4375,1615.1875000000005,-626.4375" /><polygon id="50227500517A" title="517A" points="1408.3125000000007,-599.8750000000002,1408.3125000000007,-535.3125000000002,1337.25,-535.3125000000002,1337.25,-647.6250000000002,1377.8125,-647.6250000000002,1377.8125,-599.8750000000002,1408.3125000000007,-599.8750000000002" /><polygon id="50227500519" title="519" points="1337.2500000000002,-521.8750000000002,1408.3125000000007,-521.8750000000002,1408.3125000000007,-443.6250000000005,1337.2500000000002,-443.6250000000005,1337.2500000000002,-521.8750000000002" /><polygon id="50227500516A" title="516A" points="1700.5625000000005,-497.5624999999993,1736.2500000000014,-497.5624999999993,1736.2500000000014,-474.18749999999943,1700.5625000000005,-474.18749999999943,1700.5625000000005,-497.5624999999993" /><polygon id="50227500518" title="518" points="1616.687500000001,-497.5624999999997,1695.5625000000005,-497.5624999999997,1695.5625000000005,-469.18749999999943,1736.2500000000016,-469.1874999999993,1736.2500000000016,-342.0624999999999,1616.6875000000007,-342.0624999999999,1616.687500000001,-497.5624999999997" /><polygon id="50227500520" title="520" points="1736.250000000001,-337.0624999999999,1736.250000000001,-158.49999999999866,1616.6875000000007,-158.49999999999866,1616.6875000000007,-337.0624999999999,1736.250000000001,-337.0624999999999" /><polygon id="50227500522" title="522" points="1736.2500000000005,-33.75000000000023,1518.8125,-33.75000000000023,1518.8125,-153.49999999999864,1736.2500000000005,-153.49999999999864,1736.2500000000005,-33.75000000000023" /><polygon id="50227500524" title="524" points="1513.8125000000002,-33.75000000000023,1359.6249999999998,-33.75000000000023,1359.6249999999998,-153.49999999999943,1513.8125000000002,-153.49999999999943,1513.8125000000002,-33.75000000000023" /><polygon id="50227500521" title="521" points="1562.6875000000007,-371.93750000000017,1562.6875000000007,-293.6249999999998,1499.3750000000011,-293.6249999999998,1499.3750000000011,-371.93750000000017,1562.6875000000007,-371.93750000000017" /><polygon id="50227500523" title="523" points="1331.875,-380.18750000000034,1362.875,-380.18750000000034,1362.875,-265.5000000000009,1246.3750000000002,-265.5000000000009,1246.3750000000002,-370.1250000000003,1331.875,-370.1250000000003,1331.875,-380.18750000000034" /><polygon id="50227500587" title="587" points="1269.4999999999995,-566.2499999999997,1317.2499999999998,-566.2499999999997,1317.2499999999998,-440.74999999999943,1269.4999999999995,-440.74999999999943,1269.4999999999995,-566.2499999999997" /><polygon id="50227500589" title="589" points="1199.4999999999995,-509.24999999999943,1199.4999999999995,-449.2499999999995,1152,-449.2499999999995,1151.9999999999998,-578.7499999999994,1220.9999999999995,-578.7499999999994,1220.9999999999995,-551.2499999999994,1264.4999999999995,-551.2499999999994,1264.4999999999995,-509.24999999999926,1199.4999999999995,-509.24999999999943" /><polygon id="50227500595" title="595" points="1087.2499999999998,-461.9999999999996,1087.2499999999998,-440.7499999999994,1047.5,-440.7499999999994,1047.5,-649.4999999999993,1137.5,-649.4999999999993,1137.5,-461.9999999999996,1087.2499999999998,-461.9999999999996" /><polygon id="50227500597" title="597" points="1261.4999999999995,-574.2499999999992,1261.4999999999995,-559.7499999999992,1229.4999999999995,-559.7499999999992,1229.4999999999995,-587.2499999999997,1145.5,-587.2499999999997,1145.5,-686.9999999999991,1325.2499999999995,-686.9999999999991,1325.2499999999995,-574.2499999999992,1261.4999999999995,-574.2499999999992" /><polygon id="50227500591" title="591" points="1035.5,-682.999999999999,1035.5,-562.6249999999991,951.25,-562.6249999999991,951.25,-682.999999999999,1035.5,-682.999999999999" /><polygon id="50227500593" title="593" points="1035.5,-460.2499999999992,951.25,-460.2499999999992,951.25,-562.6249999999991,1035.5,-562.6249999999991,1035.5,-460.2499999999992" /><polygon id="50227500592" title="592" points="801.25,-460.2499999999992,801.25,-442.2499999999992,781.7500000000005,-442.2499999999992,781.7500000000005,-457.9999999999994,744.7500000000005,-457.9999999999993,744.7500000000005,-442.24999999999915,735,-442.24999999999915,734.9999999999999,-565.6249999999991,819.2499999999999,-565.6249999999991,819.2499999999999,-460.2499999999992,801.25,-460.2499999999992" /><polygon id="50227500590" title="590" points="734.9999999999999,-670.9999999999991,819.25,-670.9999999999991,819.25,-565.6249999999991,734.9999999999999,-565.6249999999991,734.9999999999999,-670.9999999999991" /><polygon id="50227500594" title="594" points="683,-669.4999999999993,683,-688.4999999999989,722.9999999999995,-688.4999999999989,722.9999999999995,-481.7499999999992,633,-481.7499999999992,633,-669.4999999999993,683,-669.4999999999993" /><polygon id="50227500596" title="596" points="624.9999999999995,-686.9999999999991,624.9999999999995,-587.2499999999995,542.9999999999995,-587.2499999999995,542.9999999999995,-559.7499999999994,510.4999999999995,-559.7499999999994,510.4999999999995,-574.2499999999994,444.7500000000001,-574.2499999999994,444.7500000000001,-686.9999999999991,624.9999999999995,-686.9999999999991" /><polygon id="50227500588" title="588" points="620.5,-578.7499999999993,620.5,-449.24999999999926,572.4999999999995,-449.24999999999926,572.4999999999995,-509.2499999999994,507.49999999999955,-509.2499999999994,507.49999999999955,-551.2499999999993,551.4999999999995,-551.2499999999993,551.4999999999995,-578.7499999999993,620.5,-578.7499999999993" /><polygon id="50227500598" title="598" points="502.4999999999995,-440.7499999999993,455.9999999999995,-440.7499999999993,455.9999999999995,-566.2499999999994,502.4999999999995,-566.2499999999994,502.4999999999995,-440.7499999999993" /><polygon id="50227500584" title="584" points="723,-476.7499999999992,723,-440.7499999999992,633,-440.7499999999992,633,-476.7499999999992,723,-476.7499999999992" /><polygon id="50227500500" title="500" points="944.75,-654.4999999999994,944.75,-476.7499999999993,825.7500000000001,-476.7499999999993,825.7500000000001,-654.4999999999994,944.75,-654.4999999999994" /><polygon id="50227500531" title="531" points="722.3125,-203.87500000000037,578.1874999999999,-203.87500000000037,578.1874999999999,-317.25000000000045,590.9375000000001,-317.25000000000045,590.9375000000001,-370.1250000000004,722.3125,-370.1250000000004,722.3125,-203.87500000000037" /><polygon id="50227500534" title="534" points="497.8750000000001,-63.750000000000256,497.8750000000001,-153.75000000000028,592.4375000000001,-153.75000000000028,592.4375,-33.75000000000023,502.3125,-33.75000000000023,502.3125,-63.750000000000256,497.8750000000001,-63.750000000000256" /><polygon id="50227500539" title="539" points="278.9999999999999,-198.8750000000004,345.9999999999996,-198.8750000000004,345.9999999999996,-142.1250000000004,278.9999999999999,-142.1250000000004,278.9999999999999,-198.8750000000004" /><polygon id="50227500535" title="535" points="411.3125,-317.2500000000005,573.1875,-317.2500000000005,573.1875,-203.87500000000037,411.3125,-203.87500000000037,411.3125,-317.2500000000005" /><polygon id="50227500540" title="540" points="406.3125000000001,-203.8750000000004,278.9999999999999,-203.8750000000004,278.9999999999999,-317.25000000000045,406.3125000000001,-317.25000000000045,406.3125000000001,-203.8750000000004" /><polygon id="50227500545" title="545" points="273.9999999999999,-317.25000000000057,273.9999999999999,-228.8125000000005,227.43749999999997,-228.8125000000005,227.43749999999997,-221.2500000000005,158.625,-221.2500000000005,158.625,-317.25000000000057,273.9999999999999,-317.25000000000057" /><polygon id="50227500542" title="542" points="153.62499999999994,-162.06250000000023,153.62499999999994,-33.750000000000114,33.75000000000003,-33.750000000000114,33.75000000000003,-162.06250000000023,153.62499999999994,-162.06250000000023" /><polygon id="50227500546" title="546" points="33.75000000000003,-329.9375000000002,100.75000000000006,-329.9375000000002,100.75000000000003,-167.0625000000002,33.75000000000003,-167.0625000000002,33.75000000000003,-329.9375000000002" /><polygon id="50227500547" title="547" points="436.25000000000006,-435.7499999999993,441.99999999999983,-435.7499999999993,441.99999999999983,-375.1250000000005,269.93749999999983,-375.1250000000005,269.93749999999983,-517.2500000000002,436.25000000000006,-517.2500000000002,436.25000000000006,-435.7499999999993" /><polygon id="50227500550" title="550" points="151.75000000000006,-581.3750000000002,33.750000000000014,-581.3750000000002,33.750000000000014,-719.3750000000002,151.75000000000006,-719.3750000000002,151.75000000000006,-581.3750000000002" /><polygon id="50227500564" title="564" points="151.75000000000023,-724.3750000000002,33.75000000000003,-724.3750000000002,33.75000000000003,-888.5625000000002,151.7500000000002,-888.5625000000002,151.75000000000023,-724.3750000000002" /><polygon id="50227500567" title="567" points="156.75000000000014,-926.0625000000001,353.5625000000001,-926.0625000000001,353.5625000000001,-810.0000000000001,156.7500000000001,-810.0000000000001,156.75000000000014,-926.0625000000001" /><polygon id="50227500570" title="570" points="250.5,-1097.25,250.5,-979.1875000000005,156.68750000000017,-979.1875000000005,156.68750000000017,-1097.25,250.5,-1097.25" /><polygon id="50227500572" title="572" points="255.50000000000023,-1097.25,347.68750000000006,-1097.25,347.68750000000006,-979.1875000000005,255.50000000000023,-979.1875000000005,255.50000000000023,-1097.25" /><polygon id="50227500574" title="574" points="445.18750000000006,-1097.25,445.18750000000006,-979.1875000000006,352.6875000000002,-979.1875000000006,352.6875000000002,-1097.25,445.18750000000006,-1097.25" /><polygon id="50227500576" title="576" points="502.1875000000002,-995.4374999999999,502.1875000000002,-979.1875000000003,450.1875000000002,-979.1875000000003,450.1875000000002,-1097.2499999999998,591.1875000000002,-1097.2499999999998,591.1875000000002,-995.4374999999999,502.1875000000002,-995.4374999999999" /><polygon id="50227500571A" title="571A" points="507.18750000000017,-990.4375000000001,591.1875000000002,-990.4375000000001,591.1875000000002,-979.1875000000006,507.18750000000017,-979.1875000000006,507.18750000000017,-990.4375000000001" /><polygon id="50227500578" title="578" points="596.1875000000002,-1097.2499999999995,705.5625000000002,-1097.2499999999995,705.5625000000002,-979.1875000000005,596.1875000000002,-979.1875000000005,596.1875000000002,-1097.2499999999995" /><polygon id="50227500580" title="580" points="788.9375000000002,-1097.2500000000005,788.9375000000002,-979.1875000000009,710.5625000000002,-979.1875000000009,710.5625000000002,-1097.2500000000005,788.9375000000002,-1097.2500000000005" /><polygon id="50227500573" title="573" points="547.3125,-919.0000000000006,547.3125,-823.1875000000003,451.5625000000002,-823.1875000000003,451.5625000000002,-919.0000000000006,547.3125,-919.0000000000006" /><polygon id="50227500562A" title="562A" points="502.56250000000017,-805.3750000000003,502.56250000000017,-750.1875000000003,451.56250000000017,-750.1875000000003,451.56250000000017,-805.3750000000003,502.56250000000017,-805.3750000000003" /><polygon id="50227500571" title="571" points="788.9375000000005,-974.1875000000005,788.9375000000002,-924.0000000000005,413.65769837157507,-924.0000000000005,413.65769837157507,-931.0625000000002,151.7500000000001,-931.0625000000003,151.7500000000001,-893.5625000000002,109.75000000000013,-893.5625000000002,109.75000000000013,-974.1875000000003,788.9375000000005,-974.1875000000005" /><polygon id="50227500585" title="585" points="507.4999999999995,-435.7499999999993,507.49999999999955,-504.24999999999943,567.4999999999995,-504.24999999999943,567.4999999999995,-449.24999999999926,552.4999999999994,-449.24999999999926,552.4999999999994,-435.7499999999993,825.75,-435.7499999999993,825.75,-471.7499999999993,944.75,-471.7499999999993,944.75,-435.7499999999993,1220.7500000000005,-435.7499999999993,1220.7500000000005,-449.24999999999926,1204.4999999999995,-449.2499999999993,1204.4999999999995,-504.24999999999955,1264.4999999999995,-504.24999999999955,1264.4999999999995,-435.7499999999993,1326.875,-435.7499999999993,1326.875,-375.1250000000003,446.99999999999983,-375.1250000000003,446.99999999999983,-435.7499999999993,507.4999999999995,-435.7499999999993" /><polygon id="50227500568" title="568" points="151.6875000000001,-1097.25,151.6875000000001,-979.1875000000006,33.75000000000003,-979.1875000000006,33.75000000000003,-1097.25,151.6875000000001,-1097.25" /><polygon id="50227500566" title="566" points="104.75000000000011,-974.1875000000006,104.75000000000011,-893.5625000000002,33.749999999998565,-893.5625000000002,33.749999999998565,-974.1875000000006,104.75000000000011,-974.1875000000006" /><polygon id="50227500514A" title="514A" points="1736.250000000001,-925,1736.250000000001,-874,1681.000000000001,-874,1681.000000000001,-925,1736.250000000001,-925" /><polygon id="50227500514" title="514" points="1705.6250000000011,-830.8125000000001,1705.6250000000011,-835.8125000000001,1681.000000000001,-835.8125000000001,1681.000000000001,-869,1736.2500000000016,-869,1736.2500000000018,-687.6875000000001,1615.1875000000005,-687.6875000000001,1615.1875000000005,-869,1676.000000000001,-869,1676.000000000001,-830.8125000000001,1705.6250000000011,-830.8125000000001" /><polygon id="50227500501A" title="501A" points="1223.7500000000002,-808.4375000000005,1269.7500000000002,-808.4375000000005,1269.7500000000002,-760.4375000000005,1223.7500000000002,-760.4375000000005,1223.7500000000002,-808.4375000000005" /><polygon id="50227500548" title="548" points="100.74999999999997,-576.3750000000002,100.74999999999997,-465.6250000000002,33.75000000000003,-465.6250000000002,33.75000000000003,-576.3750000000002,100.74999999999997,-576.3750000000002" /><polygon id="50227500599" title="599" points="1137.5,-690.4999999999993,1137.5,-656.4999999999993,1047.5,-656.4999999999993,1047.5,-690.4999999999993,1137.5,-690.4999999999993" /><polygon id="50227500501B" title="501B" points="1269.7500000000002,-925.375,1223.3750000000002,-925.375,1223.3750000000002,-813.4375000000005,1269.7500000000002,-813.4375000000005,1269.7500000000002,-925.375" /><polygon id="50227500532" title="532" points="597.4351486308661,-147.75000000000017,597.4351486308661,-33.74999999999986,722.3101486308659,-33.74999999999986,722.310148630866,-153.75000000000023,722.310148630866,-198.87500000000026,636.9375000000001,-198.87500000000026,636.9375000000001,-147.75000000000028,597.4351486308661,-147.75000000000017" /><polygon id="50227500537" title="537" points="350.9999999999996,-198.87500000000037,350.9999999999996,-158.75000000000028,597.4375000000001,-158.75000000000028,597.4375000000001,-152.75000000000028,632.189467638058,-152.75000000000028,632.189467638058,-198.87500000000037,350.9999999999996,-198.87500000000037" /><polygon id="50227500536" title="536" points="283.2222222222231,-129.93750000000028,283.2222222222231,-33.74999999999953,492.87499999999994,-33.74999999999953,492.87499999999994,-153.7500000000003,350.99999999999955,-153.7500000000003,350.99999999999955,-129.93750000000028,283.2222222222231,-129.93750000000028" /><polygon id="50227500543" title="543" points="158.62499999999997,-33.750000000001336,278.2222222222231,-33.74999999999953,278.2222222222231,-116.56250000000028,273.9999999999999,-116.56250000000028,273.9999999999999,-216.2500000000005,158.62499999999997,-216.2500000000005,158.62499999999997,-33.750000000001336" /><polygon id="50227500551" title="551" points="217.75000000000136,-689.0000000000002,353.56250000000125,-689.0000000000002,353.56250000000125,-805.0000000000001,217.75000000000136,-805.0000000000001,217.75000000000136,-689.0000000000002" /><polygon id="50227500503" title="503" points="636.8125000000002,-695.4999999999992,825.75,-695.4999999999992,825.75,-659.4999999999994,944.7499999999998,-659.4999999999994,944.7499999999999,-695.4999999999991,1218.7500000000002,-695.4999999999989,1269.7500000000002,-695.4999999999989,1269.7500000000002,-747.1874999999989,1218.7500000000002,-747.1874999999989,1218.7500000000002,-755.4375000000005,944.7499999999998,-755.4375000000005,825.75,-755.4375000000005,636.8125000000002,-755.4375000000005,553.4375000000002,-755.4375000000005,553.4375000000002,-745.1875000000002,446.5625000000001,-745.1875000000002,426.8125,-745.1875000000001,400.5625,-745.1875,391.8125000000002,-745.1875000000002,358.56250000000006,-745.1875000000002,358.5625,-684.0000000000002,391.81250000000017,-684.0000000000002,436.25000000000006,-684.0000000000002,436.25000000000006,-695.5000000000001,636.8125000000002,-695.4999999999992" /><polygon id="50227500575" title="575" points="507.56250000000017,-750.1875000000003,548.4375000000002,-750.1875000000003,548.4375000000002,-760.4375000000005,788.9375000000002,-760.4375000000005,788.9375000000002,-818.1875000000003,788.9375000000002,-919.0000000000006,552.3125000000002,-919.0000000000006,552.3125000000002,-818.1875000000003,507.56250000000017,-818.1875000000003,507.56250000000017,-750.1875000000003" /><polygon id="50227500562" title="562" points="358.56249999999994,-926.0625000000002,358.5625,-750.1875000000001,446.5625000000001,-750.1875000000002,446.56249999999994,-924.0000000000006,413.65769837157507,-924.0000000000006,413.65769837157507,-926.0625000000002,358.56249999999994,-926.0625000000002" /><polygon id="50227500552" title="552" points="436.25000000000006,-522.2500000000002,436.25000000000006,-637.3125000000006,204.62500000000017,-637.3125000000006,204.62500000000017,-522.2500000000002,436.25000000000006,-522.2500000000002" /><polygon id="50227500541" title="541" points="105.7500000000033,-167.06250000000082,153.62500000000333,-167.06250000000082,153.62500000000333,-322.25000000000125,590.9375000000034,-322.25000000000125,590.9375000000034,-370.12500000000097,153.62500000000023,-370.12500000000085,153.62500000000333,-522.2500000000009,199.62500000000352,-522.2500000000009,199.62500000000352,-642.3125000000011,436.2500000000034,-642.3125000000011,436.2500000000034,-684.0000000000009,212.75000000000347,-684.0000000000009,212.75000000000347,-805.0000000000009,156.75000000000242,-805.0000000000009,156.75000000000375,-576.3750000000007,105.75000000000355,-576.3750000000007,105.75000000000334,-465.62500000000085,110.75000000000337,-465.62500000000085,110.75000000000337,-445.31250000000085,105.75000000000331,-445.31250000000085,105.7500000000033,-167.06250000000082" /><polygon id="50227500549" title="549" points="158.6250000000033,-375.12500000000114,264.9375000000035,-375.12500000000114,264.9375000000035,-517.2500000000009,158.62500000000335,-517.2500000000009,158.6250000000033,-375.12500000000114" /><polygon id="50227500541A" title="541A" points="33.75000000000338,-460.62500000000085,33.75000000000338,-334.93750000000085,105.75000000000341,-334.93750000000085,105.7500000000034,-461.12500000000085,33.75000000000338,-460.62500000000085" /><polygon id="50227500526" title="526" points="1241.3750000000002,-370.1250000000001,727.3124999999994,-370.1250000000001,727.3124999999994,-33.75000000000017,1217.9999999999993,-33.75000000000017,1217.9999999999995,-265.50000000000074,1241.375,-265.5000000000007,1241.3750000000002,-370.1250000000001" /><polygon id="50227500526A" title="526A" points="1222.6249999999993,-33.75000000000003,1354.6249999999998,-33.75000000000003,1354.6249999999998,-260.5000000000004,1222.6249999999993,-260.5000000000004,1222.6249999999993,-33.75000000000003" /><polygon id="50227500528" title="528" points="1499.0000000000011,-207.37499999999952,1562.687500000001,-207.37499999999952,1562.687500000001,-288.6249999999997,1499.0000000000011,-288.6249999999997,1499.0000000000011,-207.37499999999952" /><polygon id="50227500525" title="525" points="1494.3750000000014,-380.1874999999999,1417.4375000000005,-380.1874999999999,1417.4375000000002,-233.81250000000028,1433.562500000001,-233.81250000000028,1433.562500000001,-207.37499999999972,1494.3750000000011,-207.37499999999972,1494.3750000000014,-380.1874999999999" /><polygon id="50227500517" title="517" points="1459.937500000001,-443.625,1562.687500000001,-443.6250000000001,1562.687500000001,-626.4375000000002,1459.9375000000007,-626.4375000000002,1459.937500000001,-443.625" /><polygon id="50227500527" title="527" points="1413.312500000001,-599.8750000000002,1413.312500000001,-438.6250000000002,1337.2500000000005,-438.62500000000625,1337.2500000000005,-435.74999999999915,1331.8750000000002,-435.74999999999915,1331.8750000000002,-385.18750000000034,1367.8750000000002,-385.1875000000003,1367.875,-202.37499999999923,1359.6250000000002,-202.37499999999923,1359.6250000000002,-158.4999999999999,1611.6875000000007,-158.49999999999955,1611.6875000000025,-497.5624999999996,1567.687500000001,-497.5624999999996,1567.6875000000002,-202.37499999999918,1412.4375000000002,-202.37499999999957,1412.4375000000007,-385.1875000000001,1494.3750000000014,-385.1874999999895,1494.3750000000014,-386.9374999999998,1567.6875000000005,-386.93749999999966,1567.6875000000007,-438.62499999999966,1455.312500000001,-438.62500000000006,1455.312500000001,-599.8750000000002,1413.312500000001,-599.8750000000002" /><polygon id="50227500509" title="509" points="1561.5623190343545,-795.9999999999999,1543.78125,-795.9999999999999,1543.78125,-925.3681577146766,1431.5000000000002,-924.9999999999999,1274.7500000000002,-924.9999999999999,1274.7500000000002,-695.4999999999987,1333.75,-695.4999999999987,1333.75,-652.625,1377.8125,-652.625,1377.8125,-670.8750000000001,1382.8125,-670.8750000000001,1382.8125,-604.8750000000001,1425.9375000000007,-604.8750000000001,1425.9375000000007,-631.4375000000002,1561.562500000002,-631.4375,1561.5623190343545,-795.9999999999999" /><polygon id="50227500512" title="512" points="1736.2500000000002,-1097.25,1615.1875000000007,-1097.2499999999995,1615.1875000000005,-978.75,1736.2500000000005,-978.75,1736.2500000000002,-1097.25" /><polygon id="50227500512A" title="512A" points="1697.2236729174117,-930,1736.2500000000005,-930,1736.2500000000005,-973.75,1697.2236729174117,-973.75,1697.2236729174117,-930" /><polygon id="50227500511" title="511" points="1274.75,-930,1548.78125,-930.3750046816848,1548.7812499999998,-801,1566.1432685219331,-801,1566.1875000000016,-684.0625,1610.1875000000002,-684.0625,1610.1875,-869,1592.78125,-869,1592.7812500000002,-973.75,1274.75,-973.75,1274.75,-972.5,1269.75,-972.5,1269.75,-930,1274.75,-930" /><polygon id="50227500513" title="513" points="1597.78125,-874,1667.1875000000002,-874,1667.1875000000002,-930,1683.411172917412,-930,1683.411172917412,-973.75,1597.7812500000002,-973.75,1597.78125,-874" /><polygon id="50227500510" title="510" points="1534.375,-1097.2499999999877,1534.375,-978.75,1610.1875000000005,-978.75,1610.1875000000007,-1097.2499999999877,1534.375,-1097.2499999999877" /><polygon id="50227500581" title="581" points="793.9375000000005,-1097.2499999999995,793.9375000000005,-760.4375000000006,1044.4375000000005,-760.4375000000005,1044.4375000000005,-929.2785909814565,1057.2501,-929.2785909814564,1056.7500000000005,-1097.249999999999,793.9375000000005,-1097.2499999999995" /><polygon id="50227500502" title="502" points="1061.7500000000005,-1097.2499999996453,1062.2501,-929.2785909811024,1169.1464954149362,-929.2833558167403,1169.0784629147167,-1097.249322239405,1061.7500000000005,-1097.2499999996453" /><polygon id="50227500504" title="504" points="1174.070791729849,-977.5000000000001,1269.7500000000002,-977.5000000000001,1269.7500000000002,-1097.249999999999,1174.0707917298491,-1097.249999999999,1174.070791729849,-977.5000000000001" /><polygon id="50227500501" title="501" points="1269.7500000000002,-972.4999999999998,1174.0397751621695,-972.4999999999998,1174.070791729849,-924.2785909814561,1049.4375000000002,-924.2785909814561,1049.4375000000002,-755.4375000000002,1146.7500000000002,-755.4375000000002,1146.7500000000002,-851.4374497968154,1218.7500000000002,-851.4374497968154,1218.7500000000002,-929.9999999999998,1269.7500000000002,-929.9999999999998,1269.7500000000002,-972.4999999999998" /><polygon id="50227500506" title="506" points="1274.7500000000002,-1097.2499999999989,1274.7500000000002,-978.7499999999998,1385.7500000000002,-978.7499999999998,1385.7500000000002,-1097.2499999999884,1274.7500000000002,-1097.2499999999989" /><polygon id="50227500508" title="508" points="1390.7500000000002,-978.7499999999998,1529.3750000000002,-978.7499999999997,1529.3750000000002,-1097.2499999999875,1390.7500000000002,-1097.2499999999884,1390.7500000000002,-978.7499999999998" /></svg>
