<svg version="1.1" id="Map" class="gen-by-synoptic-designer" xmlns="http://www.w3.org/2000/svg" xmlns:xlink="http://www.w3.org/1999/xlink" viewBox="33.74999999999761 -1097.2500000000002 1702.500000000004 1063.5000000000018" xml:space="preserve"><image width="1702.500000000004" height="1063.5000000000018" xlink:href=""/><polygon id="50227500762" title="762" points="33.75000000000006,-407.37500000000006,151.87500000000006,-407.37500000000006,151.87500000000006,-453.3749999999998,156.5,-453.3749999999998,156.5,-531.8750000000001,33.74999999999761,-531.8750000000001,33.75000000000006,-407.37500000000006" /><polygon id="50227500756" title="756" points="213.00000000000003,-144.00000000000017,33.75000000000003,-144.00000000000017,33.75000000000003,-33.750000000000256,191.75000000000006,-33.750000000000256,191.75000000000006,-91.99999999999977,161.75000000000006,-91.99999999999977,161.75000000000006,-96.99999999999989,213.00000000000003,-96.99999999999989,213.00000000000003,-144.00000000000017" /><polygon id="50227500742" title="742" points="581.8749999999998,-144.2499999999999,581.8749999999998,-33.7499999999998,711.875,-33.7499999999998,711.875,-144.2499999999999,581.8749999999998,-144.2499999999999" /><polygon id="50227500740" title="740" points="716.875,-144.2499999999995,716.875,-33.74999999999979,847.375,-33.74999999999979,847.375,-144.2499999999995,716.875,-144.2499999999995" /><polygon id="50227500738" title="738" points="852.375,-144.24999999999906,852.375,-33.75000000000006,995.875,-33.75000000000006,995.875,-144.24999999999906,852.375,-144.24999999999906" /><polygon id="50227500736" title="736" points="1000.875,-144.24999999999864,1000.875,-33.74999999999832,1096.875,-33.74999999999832,1096.875,-144.24999999999864,1000.875,-144.24999999999864" /><polygon id="50227500735" title="735" points="1096.875,-209.24999999999784,840.6250000000003,-209.24999999999784,840.6250000000003,-266.24999999999903,739.3750000000005,-266.24999999999903,739.3750000000005,-334.2499999999991,684.8750000000005,-334.2499999999991,684.8750000000005,-209.24999999999906,581.8749999999998,-209.24999999999906,581.8749999999998,-149.2499999999999,1096.875,-149.2499999999999,1096.875,-209.24999999999784" /><polygon id="50227500746" title="746" points="1372.3750000000002,-281.24999999999955,1372.3750000000002,-341.2499999999997,1275.5,-341.2499999999997,1275.5,-370.74999999999926,1089.125,-370.74999999999926,1089.125,-337.4999999999993,1026.125,-337.4999999999993,1026.125,-214.24999999999784,1096.875,-214.24999999999784,1096.875,-281.24999999999955,1225.8750000000002,-281.24999999999955,1225.8750000000002,-33.7499999999998,1294.8750000000002,-33.7499999999998,1294.8750000000002,-281.24999999999955,1372.3750000000002,-281.24999999999955" /><polygon id="50227500728" title="728" points="1616.8750000000005,-153.12499999999986,1616.8750000000005,-33.74999999999912,1736.2500000000005,-33.74999999999912,1736.2500000000005,-153.12499999999986,1616.8750000000005,-153.12499999999986" /><polygon id="50227500726" title="726" points="1616.8750000000005,-277.875,1616.8750000000005,-158.1249999999995,1736.2499999999993,-158.1249999999995,1736.2499999999993,-277.875,1616.8750000000005,-277.875" /><polygon id="50227500724" title="724" points="1616.8750000000045,-398.87499999999994,1616.8750000000045,-282.87499999999966,1736.2500000000005,-282.87499999999966,1736.2500000000005,-398.87499999999994,1616.8750000000045,-398.87499999999994" /><polygon id="50227500722" title="722" points="1616.875,-403.8749999999999,1736.2500000000002,-403.8749999999999,1736.2500000000002,-519.8749999999995,1616.875,-519.8749999999995,1616.875,-403.8749999999999" /><polygon id="50227500720" title="720" points="1616.8750000000005,-524.875,1736.2500000000005,-524.875,1736.2500000000005,-640.6249999999995,1616.8750000000005,-640.6249999999995,1616.8750000000005,-524.875" /><polygon id="50227500730" title="730" points="1424.1250000000005,-33.74999999999977,1544.1250000000007,-33.74999999999977,1544.1250000000007,-152.99999999999915,1424.1250000000005,-152.99999999999915,1424.1250000000005,-33.74999999999977" /><polygon id="50227500729" title="729" points="1544.1250000000007,-157.99999999999915,1544.1250000000007,-276.2499999999986,1468.1250000000005,-276.2499999999986,1468.1250000000005,-271.9999999999997,1424.1250000000005,-271.99999999999966,1424.1250000000005,-157.99999999999915,1544.1250000000007,-157.99999999999915" /><polygon id="50227500732" title="732" points="1299.8750000000002,-33.75000000000023,1419.1250000000005,-33.75000000000023,1419.1250000000005,-152.9999999999995,1299.8750000000002,-152.9999999999995,1299.8750000000002,-33.75000000000023" /><polygon id="50227500731" title="731" points="1299.8750000000002,-157.99999999999983,1419.1250000000005,-157.99999999999983,1419.1250000000005,-271.99999999999966,1372.3750000000002,-271.99999999999966,1372.3750000000002,-276.24999999999864,1299.8750000000002,-276.24999999999864,1299.8750000000002,-157.99999999999983" /><polygon id="50227500733" title="733" points="1101.875,-158.24999999999983,1220.8750000000002,-158.24999999999983,1220.8750000000002,-276.2499999999991,1101.875,-276.2499999999991,1101.875,-158.24999999999983" /><polygon id="50227500734" title="734" points="1101.875,-33.74999999999832,1220.8750000000002,-33.74999999999832,1220.8750000000002,-153.2499999999995,1101.875,-153.2499999999995,1101.875,-33.74999999999832" /><polygon id="50227500721" title="721" points="1544.1250000000005,-690.4999999999985,1423.8750000000007,-690.4999999999985,1423.8750000000007,-576.4999999999989,1334.25,-576.4999999999989,1334.25,-482.4999999999992,1364.25,-482.4999999999992,1364.25,-477.4999999999989,1334.25,-477.4999999999989,1334.25,-411.5,1387.8750000000007,-411.4999999999999,1387.8750000000007,-346.24999999999966,1544.1250000000007,-346.24999999999966,1544.1250000000005,-690.4999999999985" /><polygon id="50227500737" title="737" points="845.6250000000001,-214.24999999999855,1021.1250000000001,-214.2499999999981,1021.1250000000001,-305.24999999999835,941.8750000000006,-305.24999999999835,941.8750000000003,-370.7500000000003,845.6250000000001,-370.7500000000003,845.6250000000001,-214.24999999999855" /><polygon id="50227500750" title="750" points="226.62500000000014,-221,277.6250000000001,-221,277.6250000000001,-243.00000000000037,454.87499999999994,-243.00000000000037,454.87499999999994,-370.75000000000176,436.25,-370.75000000000176,436.25,-467.00000000000017,296.125,-467.00000000000017,296.125,-435.7499999999995,226.62500000000009,-435.7499999999995,226.62500000000014,-221" /><polygon id="50227500737A" title="737A" points="946.8750000000005,-310.24999999999835,1009.2500000000002,-310.24999999999835,1009.2500000000002,-370.7500000000001,946.8750000000005,-370.7500000000001,946.8750000000005,-310.24999999999835" /><polygon id="50227500727" title="727" points="1280.5,-346.24999999999983,1372.3750000000005,-346.24999999999983,1372.3750000000005,-406.4999999999999,1280.5,-406.4999999999999,1280.5,-346.24999999999983" /><polygon id="50227500745" title="745" points="441.25,-435.7499999999993,441.25,-375.74999999999926,684.8750000000005,-375.74999999999926,684.8750000000005,-339.24999999999926,739.3750000000005,-339.24999999999926,739.3750000000005,-375.74999999999926,1026.1249999999998,-375.74999999999983,1026.1249999999998,-342.4999999999993,1084.1250000000005,-342.4999999999993,1084.1250000000005,-375.74999999999926,1275.5,-375.74999999999926,1275.5,-435.7499999999993,1265.7499999999995,-435.74999999999943,1265.7499999999995,-449.2499999999993,1264.4999999999995,-449.2499999999993,1264.4999999999995,-504.24999999999955,1204.4999999999995,-504.24999999999955,1204.4999999999995,-449.2499999999993,1220.7500000000005,-449.24999999999926,1220.7500000000005,-435.7499999999993,944.75,-435.7499999999992,944.75,-471.7499999999993,825.75,-471.7499999999993,825.75,-435.7499999999992,552.4999999999994,-435.7499999999993,552.4999999999994,-449.24999999999926,567.4999999999995,-449.24999999999926,567.4999999999995,-504.24999999999943,507.49999999999955,-504.24999999999943,507.4999999999996,-435.7499999999993,441.25,-435.7499999999993" /><polygon id="50227500700" title="700" points="825.7500000000001,-654.4999999999994,825.7500000000001,-476.7499999999993,944.75,-476.7499999999993,944.75,-654.4999999999994,825.7500000000001,-654.4999999999994" /><polygon id="50227500790" title="790" points="819.25,-670.9999999999991,735,-670.9999999999991,735,-565.6249999999991,819.25,-565.6249999999991,819.25,-670.9999999999991" /><polygon id="50227500792" title="792" points="735,-565.6249999999991,735,-442.24999999999915,744.7500000000005,-442.24999999999915,744.7500000000005,-457.9999999999994,781.7500000000005,-457.9999999999994,781.7500000000005,-442.2499999999992,801.25,-442.2499999999992,801.25,-460.24999999999926,819.25,-460.24999999999926,819.25,-565.6249999999991,735,-565.6249999999991" /><polygon id="50227500791" title="791" points="951.25,-682.999999999999,951.25,-562.6249999999991,1035.5,-562.6249999999991,1035.5,-682.999999999999,951.25,-682.999999999999" /><polygon id="50227500793" title="793" points="1035.5,-562.6249999999991,951.25,-562.6249999999991,951.25,-460.2499999999992,1035.5,-460.2499999999992,1035.5,-562.6249999999991" /><polygon id="50227500794" title="794" points="633,-669.4999999999993,633,-481.7499999999992,723,-481.7499999999992,723,-688.4999999999989,683,-688.4999999999989,683,-669.4999999999993,633,-669.4999999999993" /><polygon id="50227500784" title="784" points="633.0000000000005,-440.74999999999915,722.9999999999995,-440.74999999999915,722.9999999999995,-476.74999999999915,633.0000000000005,-476.74999999999915,633.0000000000005,-440.74999999999915" /><polygon id="50227500796" title="796" points="444.74999999999955,-686.9999999999991,444.74999999999955,-574.2499999999994,510.49999999999955,-574.2499999999994,510.49999999999955,-559.7499999999993,542.9999999999995,-559.7499999999993,542.9999999999995,-587.2499999999995,624.9999999999995,-587.2499999999995,624.9999999999995,-686.9999999999991,444.74999999999955,-686.9999999999991" /><polygon id="50227500798" title="798" points="455.9999999999995,-440.7499999999993,502.4999999999995,-440.7499999999993,502.4999999999995,-566.2499999999994,455.9999999999995,-566.2499999999994,455.9999999999995,-440.7499999999993" /><polygon id="50227500788" title="788" points="572.4999999999995,-509.2499999999994,572.4999999999995,-449.24999999999926,620.5,-449.24999999999926,620.5,-578.7499999999993,551.4999999999995,-578.7499999999993,551.4999999999995,-551.2499999999993,507.4999999999996,-551.2499999999993,507.4999999999996,-509.2499999999994,572.4999999999995,-509.2499999999994" /><polygon id="50227500795" title="795" points="1137.5,-461.9999999999996,1137.5,-649.4999999999993,1047.5,-649.4999999999993,1047.5,-440.7499999999994,1087.2499999999998,-440.7499999999994,1087.2499999999998,-461.9999999999996,1137.5,-461.9999999999996" /><polygon id="50227500797" title="797" points="1325.25,-686.9999999999991,1145.5,-686.9999999999991,1145.5,-587.2499999999997,1229.4999999999995,-587.2499999999997,1229.4999999999995,-559.7499999999992,1261.4999999999995,-559.7499999999992,1261.4999999999995,-574.2499999999992,1325.2499999999995,-574.2499999999992,1325.25,-686.9999999999991" /><polygon id="50227500787" title="787" points="1269.4999999999995,-440.74999999999943,1317.2499999999998,-440.74999999999943,1317.2499999999998,-566.2499999999995,1269.4999999999995,-566.2499999999995,1269.4999999999995,-440.74999999999943" /><polygon id="50227500789" title="789" points="1152,-449.2499999999995,1199.4999999999995,-449.2499999999995,1199.4999999999995,-509.2499999999995,1264.4999999999995,-509.2499999999995,1264.4999999999995,-551.2499999999994,1220.9999999999995,-551.2499999999995,1220.9999999999995,-578.7499999999997,1151.9999999999998,-578.7499999999997,1152,-449.2499999999995" /><polygon id="50227500754" title="754" points="218.00000000000006,-144.00000000000017,218.00000000000003,-91.99999999999969,196.75000000000006,-91.99999999999977,196.75000000000003,-33.75000000000152,328.375,-33.7499999999998,328.3750000000001,-143.9999999999999,218.00000000000006,-144.00000000000017" /><polygon id="50227500758" title="758" points="33.75000000000003,-149.00000000000063,156.49999999999997,-149.00000000000063,156.49999999999997,-272.9999999999996,33.75000000000003,-272.9999999999996,33.75000000000003,-149.00000000000063" /><polygon id="50227500760" title="760" points="151.87500000000006,-357.0000000000004,151.87500000000006,-402.37500000000006,33.75000000000003,-402.37500000000006,33.75000000000003,-277.9999999999992,156.5,-277.9999999999992,156.5,-357.0000000000004,151.87500000000006,-357.0000000000004" /><polygon id="50227500764" title="764" points="33.75000000000003,-661.2500000000001,33.75000000000003,-536.8749999999998,156.5,-536.8749999999998,156.5,-661.2500000000001,33.75000000000003,-661.2500000000001" /><polygon id="50227500766" title="766" points="33.750000000001705,-790.5000000000001,33.750000000001705,-666.2499999999998,156.5,-666.2499999999998,156.5,-790.5000000000001,33.750000000001705,-790.5000000000001" /><polygon id="50227500751A" title="751A" points="226.62500000000006,-511.49999999999943,226.62500000000006,-440.7499999999993,291.125,-440.7499999999993,291.125,-511.49999999999943,226.62500000000006,-511.49999999999943" /><polygon id="50227500743" title="743" points="459.875,-214.2499999999997,576.875,-214.2499999999997,576.875,-370.7500000000014,459.875,-370.7500000000014,459.875,-214.2499999999997" /><polygon id="50227500741" title="741" points="581.8749999999999,-244.24999999999935,679.8750000000005,-244.24999999999935,679.8750000000005,-370.75000000000114,581.8749999999999,-370.75000000000114,581.8749999999999,-244.24999999999935" /><polygon id="50227500739" title="739" points="744.3750000000005,-370.75000000000097,744.3750000000005,-271.2499999999991,840.6250000000002,-271.2499999999991,840.6250000000002,-370.75000000000097,744.3750000000005,-370.75000000000097" /><polygon id="50227500735A" title="735A" points="581.8749999999999,-214.24999999999932,679.8750000000005,-214.24999999999932,679.8750000000005,-239.24999999999906,581.8749999999999,-239.24999999999906,581.8749999999999,-214.24999999999932" /><polygon id="50227500717" title="717" points="1334.25,-690.4999999999991,1334.25,-581.499999999999,1418.8750000000007,-581.499999999999,1418.8750000000007,-690.4999999999991,1334.25,-690.4999999999991" /><polygon id="50227500725" title="725" points="1549.1250000000005,-640.6249999999995,1549.1250000000005,-341.2499999999996,1377.3750000000007,-341.2499999999997,1377.3750000000002,-276.9999999999998,1463.1250000000005,-276.9999999999996,1463.1250000000005,-281.2499999999988,1549.1250000000007,-281.24999999999864,1549.1250000000007,-33.75000000000023,1611.8749999999982,-33.75,1611.8750000000002,-640.6249999999995,1549.1250000000005,-640.6249999999995" /><polygon id="50227500701" title="701" points="825.7500000000001,-695.4999999999991,825.7500000000001,-659.4999999999994,944.7499999999999,-659.4999999999994,944.7499999999999,-695.4999999999991,990.9599718108742,-695.499999999999,990.459971810874,-760.4903129976736,786.1882677493369,-964.7620170592055,768.9095354579412,-964.7620170592057,768.9095354579412,-1097.2499999999995,550.2500000000002,-1097.25,550.2500000000002,-695.4999999999997,825.7500000000001,-695.4999999999991" /><polygon id="50227500702" title="702" points="1055.459971810874,-904.3870170592047,1055.4599718108739,-969.3870170592055,1143.2422289715892,-969.3870170592046,1143.2422289715892,-1097.2499999999995,773.5345354579395,-1097.2499999999995,773.5345354579409,-969.3870170592055,800.4095354579393,-969.3870170592055,800.4095354579395,-957.0814870765786,853.1040054753129,-904.3870170592052,1055.459971810874,-904.3870170592047" /><polygon id="50227500703" title="703" points="1055.459971810874,-899.7620170592048,857.7290054753128,-899.7620170592052,995.0849718108742,-762.4060507236492,995.0849718108742,-694.9999999999991,1047.5,-694.9999999999991,1047.5,-656.4999999999993,1137.5000000000002,-656.4999999999993,1137.5,-695.499999999999,1549.1250000000005,-695.4999999999986,1549.1250000000005,-640.6249999999995,1611.875,-640.6249999999995,1611.8750000000002,-645.625,1633.2233392151643,-645.6249999999999,1633.2233392151643,-750.7499999999985,1388.2931199699306,-750.7500000000011,1388.2931199699308,-755.7500000000019,1300.5395292728533,-755.750000000002,1300.5395292728533,-750.7500000000015,1055.4599718108743,-750.750000000002,1055.459971810874,-899.7620170592048" /><polygon id="50227500705A" title="705A" points="1172.9385218862167,-964.7620170592046,1060.0849718108736,-964.7620170592046,1060.0849718108736,-916.4981238190602,1172.9385218862167,-916.4981238190602,1172.9385218862167,-964.7620170592046" /><polygon id="50227500705" title="705" points="1172.938521886217,-911.8731238190608,1060.0849718108743,-911.8731238190608,1060.0849718108743,-755.3750000000022,1172.938521886217,-755.3750000000022,1172.938521886217,-911.8731238190608" /><polygon id="50227500709" title="709" points="1558.640196043688,-904.994007625456,1467.6378373627165,-904.994007625456,1467.6378373627165,-843.7440076254557,1558.640196043688,-843.7440076254557,1558.640196043688,-904.994007625456" /><polygon id="50227500716" title="716" points="1736.2500000000005,-904.9940076254559,1637.8483392151643,-904.9940076254559,1637.8483392151643,-755.3749999999984,1736.2500000000005,-755.3749999999984,1736.2500000000005,-904.9940076254559" /><polygon id="50227500718" title="718" points="1736.2500000000018,-750.7499999999973,1637.8483392151643,-750.7499999999973,1637.8483392151643,-645.6249999999999,1736.2500000000018,-645.6249999999999,1736.2500000000018,-750.7499999999973" /><polygon id="50227500707" title="707" points="1558.6401960436888,-839.1190076254547,1458.6378373627165,-839.1190076254558,1458.6378373627165,-904.9940076254559,1322.122601229435,-904.9940076254558,1322.122601229435,-760.3750000000019,1392.9181199699306,-760.3750000000019,1392.9181199699306,-755.3750000000011,1558.6401960436872,-755.3749999999993,1558.6401960436888,-839.1190076254547" /><polygon id="50227500715" title="715" points="1633.2233392151645,-904.9940076254559,1563.265196043688,-904.994007625456,1563.2651960436872,-755.3749999999993,1633.2233392151643,-755.3749999999985,1633.2233392151645,-904.9940076254559" /><polygon id="50227500708" title="708" points="1736.2500000000005,-909.1190076254561,1736.2500000000005,-1097.2500000000002,1288.2651960436885,-1097.2499999999877,1288.2651960436897,-961.3870170591998,1350.622601229435,-961.3870170591999,1350.6226012294353,-909.6190076254558,1736.2500000000005,-909.1190076254561" /><polygon id="50227500706A" title="706A" points="1283.6401960436885,-1097.2499999999993,1147.867228971589,-1097.2500000000002,1147.867228971589,-969.3870170592046,1177.5635218862164,-969.3870170592045,1177.5635218862167,-941.7084287102837,1232.0199117093346,-941.7084287102838,1232.0199117093346,-969.3870170592049,1283.6401960436895,-969.3870170592049,1283.6401960436885,-1097.2499999999993" /><polygon id="50227500706" title="706" points="1317.497601229435,-909.6190076254558,1345.997601229435,-909.6190076254559,1345.9976012294348,-956.7620170592,1283.6401960436892,-956.7620170591999,1283.6401960436895,-964.7620170592049,1236.6449117093348,-964.762017059205,1236.6449117093348,-937.083428710284,1177.5635218862167,-937.0834287102839,1177.563521886217,-853.9521414772677,1201.6292807092957,-853.9521414772676,1201.629280709296,-849.3271414772676,1177.563521886217,-849.3271414772677,1177.5635218862174,-755.3750000000018,1265.0907668461396,-755.3750000000016,1265.0907668461396,-760.375000000002,1317.497601229435,-760.375000000002,1317.497601229435,-909.6190076254558" /><polygon id="50227500767" title="767" points="436.25,-690.8750000000001,296.125,-690.8750000000001,296.125,-473.6249999999993,436.25,-473.6249999999993,436.25,-690.8750000000001" /><polygon id="50227500765" title="765" points="291.5,-690.8750000000001,226.2500000000001,-690.8750000000001,226.2500000000001,-518.4999999999994,291.5,-518.4999999999994,291.5,-690.8750000000001" /><polygon id="50227500771" title="771" points="356.3750000000003,-961.625,226.2500000000001,-961.625,226.2500000000001,-760.1250000000002,356.3750000000003,-760.1250000000002,356.3750000000003,-961.625" /><polygon id="50227500768" title="768" points="156.5,-961.625,33.75000000000004,-961.625,33.75000000000004,-795.5000000000001,156.5,-795.5000000000001,156.5,-961.625" /><polygon id="50227500770" title="770" points="221.62500000000003,-1097.2499999999977,33.74999999999861,-1097.2499999999977,33.74999999999861,-966.25,221.62500000000003,-966.25,221.62500000000003,-1097.2499999999977" /><polygon id="50227500779" title="779" points="421.0000000000003,-1097.2499999999995,226.2500000000001,-1097.2499999999995,226.2500000000001,-966.25,421.0000000000003,-966.25,421.0000000000003,-1097.2499999999995" /><polygon id="50227500777" title="777" points="545.6250000000002,-1097.25,425.6250000000003,-1097.25,425.6250000000003,-906.2499999999998,545.6250000000002,-906.2499999999998,545.6250000000002,-1097.25" /><polygon id="50227500769" title="769" points="277.6250000000001,-149,277.6250000000001,-215.99999999999991,221.62500000000014,-216.00000000000009,221.62500000000009,-695.5000000000001,545.6250000000002,-695.4999999999997,545.6250000000002,-755.5000000000005,421.0000000000003,-755.5000000000002,421.0000000000003,-961.5,361.0000000000003,-961.5,361.0000000000003,-755.5000000000003,221.6250000000001,-755.5000000000003,221.6250000000001,-961.625,161.5,-961.6645868220621,161.5,-448.75000000000034,156.87500000000006,-448.7500000000004,156.87500000000006,-362.0000000000004,161.5,-362.0000000000004,161.49999999999997,-149.0000000000003,277.6250000000001,-149" /><polygon id="50227500752" title="752" points="576.8749999999999,-209.24999999999937,435.3750000000005,-209.24999999999983,435.37500000000057,-237.99999999999986,282.6250000000003,-238.00000000000034,282.6250000000001,-149,333.3750000000001,-148.9999999999999,333.375,-33.74999999999969,576.8749999999998,-33.749999999999716,576.8749999999999,-209.24999999999937" /><polygon id="50227500773" title="773" points="545.6249999999998,-901.6249999999997,488.12500000000006,-901.6249999999997,488.12500000000017,-901.6249999999997,483.31250000000017,-901.6249999999997,483.31250000000017,-901.6249999999998,425.62500000000034,-901.6249999999998,425.6250000000003,-760.1250000000002,545.6250000000002,-760.1250000000005,545.75,-830.6250000000001,545.6249999999998,-901.6249999999997" /></svg>
