<svg version="1.1" id="Map" class="gen-by-synoptic-designer" xmlns="http://www.w3.org/2000/svg" xmlns:xlink="http://www.w3.org/1999/xlink" viewBox="35.93750000000949 -1095.6250000000002 1696.562499999998 1133.079685843635" xml:space="preserve"><image width="1696.562499999998" height="1133.079685843635" xlink:href=""/><polygon id="50227500NP011" title="NP011" points="42.65004315275928,-157.98894112727794,42.65004315275928,-55.50000000000469,143.65004315275928,-55.50000000000469,143.65004315275928,-68.75000000000469,152.15004315275922,-68.75000000000469,170.47060021875825,-109.81818233018969,160.17214837383108,-114.91913347734669,150.3038156004632,-120.80927959455276,140.92595985053504,-127.45259462106641,131.75743565755863,-134.27521489486978,122.05121644229484,-140.30839745658204,111.87510141711728,-145.5099997358863,101.30017207817113,-149.84368785964432,90.40029569181283,-153.2791904487591,79.25160932208104,-155.79251006772205,67.93198800333332,-157.36609084984298,56.52050077293242,-157.98894112727794,42.65004315275928,-157.98894112727794" /><polygon id="50227500NP011A" title="NP011A" points="230.49524579648374,-96.99999934582031,219.14011238089455,-97.4393736488426,207.85288170699823,-98.75486913657397,196.70105046380996,-100.93861925676592,185.75130566315036,-103.97756536757728,175.06912585692973,-107.85353482715277,157.62500000000114,-68.75000000000527,157.62500000000114,-55.50000000000543,161.62500000000114,-55.500000000005436,161.62500000000114,-41.000000000005485,222.75000000000114,-41.000000000005485,222.75000000000114,-55.500000000005436,250.75000000000108,-55.500000000005436,250.75000000000108,-97.00000000000546,230.49524579648374,-96.99999934582031" /><polygon id="50227500NP003" title="NP003" points="668.1982592512775,-290.1274415689919,635.1982592512763,-290.12744156899214,635.1982592512763,-294.37744156899214,668.1982592512763,-294.3774415689922,668.1982592512032,-330.4086915689921,623.734780274691,-330.37744156899214,623.734780274691,-362.50244156899106,341.95767532325334,-362.50244156899305,341.957675323253,-257.87499999999966,351.87500000000273,-257.87499999999886,351.8750000000037,-234.37499999999886,345.957675323253,-234.37499999999886,345.95767532325283,-110.08668082052901,359.7230047229028,-110.086680820529,359.7230047229027,-85.6249999999995,453.0000000000032,-85.6249999999995,453.0000000000032,-77.99999999999824,359.7230047229027,-77.99999999999824,359.72300472290266,-33.78259193441562,353.4482592512786,-33.78259193441558,353.44825925127844,33.32968584363431,355.72300472290254,33.32968584363431,355.72300472290254,37.454685843634195,447.14689305244997,37.45468584363465,447.1468930524514,-39.670314156368704,473.146893052453,-39.67031415636848,473.1468930524514,-3.0453141563652366,503.0218930524507,-3.0453141563652366,503.0218930524507,2.9546858436347634,606.0218930524502,2.9546858436351044,606.0218930524502,-3.0453141563648956,660.0218930524513,-3.0453141563648956,660.0218930524478,-39.04531415636629,659.3968930524478,-39.04531415636629,659.3968930524478,-40.67031415636629,661.0218930524478,-40.67031415636629,661.0218930524478,-40.045314156364725,668.1982592512759,-40.045314156364725,668.1982592512775,-290.1274415689919" /><polygon id="50227500NP001" title="NP001" points="767.9576753232523,-1.750000000001819,872.0000000000006,-1.9999999999986753,872.0000000000027,-43.99999999999529,898.0000000000026,-43.99999999999926,898.0000000000025,-1.7500000000016596,1019.6250000000043,-1.7500000000016596,1019.6250000000048,-44.6249999999993,1003.8750000000045,-44.625000000000576,1003.8750000000045,-66.37499999999979,1019.8750000000027,-66.37499999999967,1019.8750000000043,-302.9999999999987,1003.8750000000045,-303.0000000000005,1003.8750000000045,-324.7499999999997,1019.875000000004,-324.7499999999996,1019.8750000000043,-368.74999999999983,1334.8750000000025,-368.49999999999886,1334.8750000000032,-435.74999999999926,1264.5000000000036,-435.7499999999992,1264.5000000000036,-504.249999999999,1204.5000000000034,-504.249999999999,1204.5000000000032,-449.24999999999875,1220.7500000000034,-449.2499999999987,1220.7500000000036,-435.74999999999864,552.5000000000034,-435.7499999999987,552.5000000000034,-449.2499999999987,567.5000000000034,-449.24999999999875,567.5000000000033,-504.249999999999,507.50000000000347,-504.249999999999,507.5000000000034,-435.74999999999915,432.6875000000053,-435.74999999999875,432.68750000000523,-368.50244156899225,767.9576753232529,-368.5024415689911,767.9576753232523,-1.750000000001819" /><polygon id="50227500NP010" title="NP010" points="42.81250000000682,-856,349.93750000000523,-856,349.93750000000523,-891.9715566629565,381.56250000000523,-891.9715566629565,381.56250000000523,-1095.6250000000002,143.56250000000514,-1095.6250000000002,143.56250000000514,-975.6250000000002,316.1875000000053,-975.6250000000003,316.1875000000053,-970.3750000000003,42.81250000000682,-970.3750000000003,42.81250000000682,-856" /><polygon id="50227500NP010A" title="NP010A" points="42.812500000005,-1095.625,42.812500000005,-975.625,138.312500000005,-975.625,138.312500000005,-1095.625,42.812500000005,-1095.625" /><polygon id="50227500NP008A" title="NP008A" points="386.81250000000546,-873.9999999999991,458.4375000000056,-873.9999999999991,458.4375000000056,-1095.625,386.81250000000546,-1095.625,386.81250000000546,-873.9999999999991" /><polygon id="50227500NP009" title="NP009" points="945.3125000000056,-1095.625,463.6875000000055,-1095.625,463.6875000000055,-907.5737288511291,517.5625000000055,-907.5737288511291,517.5625000000055,-860.5332957111377,517.5880065944503,-859.9847865071661,517.6601609415475,-859.4404459121371,517.7784381462916,-858.9042337936247,517.9419777877034,-858.3800508876764,518.14959017806,-857.8717104224643,518.3997650174126,-857.3829103785235,518.6906823804366,-856.9172065873722,519.0202259556842,-856.4779868642102,519.3859984409336,-856.0684463628724,519.7853389826363,-855.6915643323188,520.2153425325988,-855.350082443749,520.6728809810865,-855.0464848460031,521.1546259126131,-854.7829800943383,521.6570728188788,-854.5614850840429,522.176566592713,-854.3836111057633,522.7093281175686,-854.2506521239865,523.251481759134,-854.1635753639489,649.825026485468,-854.1635753639487,655.5595812468648,-854.8587379896954,661.2132855976812,-856.0436415728,666.7443941175726,-857.7095371064032,672.1120666005771,-859.8441240694689,676.3301649572164,-861.5896000575839,680.6830273735754,-862.9649650839019,685.1382474528359,-863.9599797655641,689.6626567609903,-864.5672363700191,694.2225717607746,-864.7822139644617,768.6524282392729,-864.7822139644618,773.2123432390455,-864.5672363700171,777.7367525471884,-863.9599797655619,782.1919726264374,-862.9649650839013,786.5448350427855,-861.5896000575871,790.7629333994146,-859.8441240694776,795.3195891514881,-857.9948647576282,800.0035192820501,-856.4969761845429,804.7876733044028,-855.3591089094298,809.6444219219651,-854.5878343077645,814.5457165921215,-854.1876066204883,945.3125000000056,-854.187606620488,945.3125000000056,-1095.625" /><polygon id="50227500NP007" title="NP007" points="1244.8125000000055,-1095.6249999999998,950.5625000000055,-1095.6249999999998,950.5625000000055,-999.875,1095.5625000000055,-999.875,1095.5625000000052,-994.125,950.5625000000055,-994.125,950.5625000000048,-851.5882090469961,973.3771850320834,-855.458633631576,996.0359164047994,-860.1567111274219,1018.5086794833353,-865.6762182787802,1042.6236442705062,-869.8920307450891,1066.8567226116272,-873.3651439811741,1091.1850461871338,-876.0922804726295,1130.0845650066976,-878.8900359313456,1168.3579719242057,-879.7821500255296,1206.630059042295,-878.8351060690302,1244.8125000000052,-876.0510897003281,1244.8125000000055,-1095.6249999999998" /><polygon id="50227500NP004A" title="NP004A" points="1250.0625000000055,-898.2499999999982,1322.0625000000055,-898.2499999999982,1322.0625000000055,-1095.6249999999995,1250.0625000000055,-1095.6249999999995,1250.0625000000055,-898.2499999999982" /><polygon id="50227500NP006" title="NP006" points="1602.000000013228,-1095.6249999999995,1327.0625000000052,-1095.6249999999995,1327.0625000000052,-863.6862538478839,1348.5465150228383,-860.2038269972794,1348.5465150228383,-868.4999999999999,1394.5465150228383,-868.4999999999999,1394.5465150228383,-974,1552.0465150228385,-974,1552.0465150228385,-868.5,1593.5465150360646,-868.5,1593.5465150360646,-881.25,1602.000000013228,-881.25,1602.000000013228,-1095.6249999999995" /><polygon id="50227500NP006B" title="NP006B" points="1607.500000000002,-881.2499999999999,1725.6250000000045,-881.2499999999999,1725.625000000005,-1095.6249999999995,1607.5000000000025,-1095.6249999999995,1607.500000000002,-881.2499999999999" /><polygon id="50227500NP004" title="NP004" points="825.7500000000036,-435.7499999999991,944.7500000000035,-435.7499999999991,944.7500000000035,-695.4999999999987,1334.8750000000034,-695.4999999999987,1334.8749999999989,-857.2843457985952,1327.0625000000114,-858.6105166665504,1322.062500000005,-859.4999999999987,1322.0625000000055,-893.2499999999986,1250.0625000000055,-893.2499999999986,1250.0625000000055,-870.9566831898934,1244.8125000000055,-870.9566831898934,1244.8125000000052,-871.03411190611,1206.7502526414107,-873.8298752547065,1168.59750945407,-874.7886004337478,1130.4428817323887,-873.9080607650976,1093.2441850759938,-871.266506780301,1056.19109556664,-867.0487587791996,1019.3503698182142,-861.2624156578236,994.9305156720983,-854.9026977791995,970.2320118573,-849.7297685003779,945.3125000000055,-845.7557004577428,945.3125000000056,-854.1876066204882,814.5457165921142,-854.1876066204882,811.012898709518,-854.2081586747106,807.4918088534386,-854.4965174858096,804.0027189525737,-855.051022889036,800.5657167026602,-855.8684824370347,797.2005899158225,-856.944189779685,793.9267125964373,-858.2719517599128,790.7629333994086,-859.8441240694809,786.5448350427772,-861.5896000575905,782.1919726264268,-862.9649650839044,777.7367525471753,-863.9599797655643,773.2123432390302,-864.5672363700185,768.6524282392554,-864.7822139644618,694.2225717607622,-864.7822139644618,689.6626567609864,-864.5672363700188,685.1382474528401,-863.9599797655649,680.6830273735877,-862.9649650839051,676.3301649572362,-861.589600057591,672.1120666006038,-859.8441240694813,668.9482874035747,-858.2719517599128,665.6744100841889,-856.9441897796847,662.3092832973507,-855.8684824370343,658.8722810474368,-855.0510228890355,655.3831911465714,-854.4965174858092,651.8621012904915,-854.2081586747104,648.3292834078948,-854.1876066204882,523.2931051164302,-854.187606620488,522.7478566200178,-854.2672179764236,522.2115134734933,-854.3935901252925,521.6880781536651,-854.5657800111453,521.1814568122986,-854.7825026617974,520.6954301263407,-855.0421407779714,520.233625084505,-855.3427568024423,519.7994879207595,-855.6821073791159,519.3962583967029,-856.057660094141,519.0269456247462,-856.466612374124,518.6943056125208,-856.9059124004162,518.4008206960896,-857.3722818834026,518.1486810154391,-857.8622405268361,517.9397681704947,-858.3721319996524,517.7756411796242,-858.8981512214509,517.6575248454172,-859.4363727580203,517.5863006145584,-859.9827801150097,517.5625000000056,-860.533295711138,517.5625000000055,-865.187606620488,512.3125000000055,-865.187606620488,512.3125000000055,-902.5737288511292,463.6875000000055,-902.5737288511292,463.6875000000055,-858.9559520485709,458.43750000000557,-858.9559520485709,458.43750000000546,-695.4999999999987,825.7500000000036,-695.4999999999987,825.7500000000036,-435.7499999999991" /><polygon id="50227500NP986" title="NP986" points="625.0000000000036,-686.9999999999987,444.75000000000364,-686.9999999999987,444.75000000000364,-574.2499999999991,510.50000000000364,-574.2499999999991,510.50000000000364,-559.7499999999991,543.0000000000036,-559.7499999999991,543.0000000000036,-587.2499999999992,625.0000000000036,-587.2499999999992,625.0000000000036,-686.9999999999987" /><polygon id="50227500NP119A" title="NP119A" points="456.00000000000364,-566.2499999999991,456.00000000000364,-440.74999999999915,502.5000000000037,-440.74999999999915,502.5000000000037,-566.2499999999991,456.00000000000364,-566.2499999999991" /><polygon id="50227500NP119" title="NP119" points="572.5000000000036,-449.2499999999991,620.5000000000036,-449.2499999999991,620.5000000000036,-578.7499999999993,551.5000000000036,-578.7499999999993,551.5000000000036,-551.2499999999991,507.5000000000037,-551.2499999999991,507.5000000000037,-509.24999999999915,572.5000000000036,-509.24999999999915,572.5000000000036,-449.2499999999991" /><polygon id="50227500NP993" title="NP993" points="723.0000000000036,-670.999999999999,633.0000000000036,-670.999999999999,633.0000000000036,-481.7499999999991,682.5000000000032,-481.74999999999903,682.5000000000032,-440.7499999999991,723.0000000000036,-440.7499999999991,723.0000000000036,-670.999999999999" /><polygon id="50227500NP999" title="NP999" points="735.0000000000036,-565.6249999999991,735.0000000000036,-442.249999999999,744.7500000000041,-442.249999999999,744.7500000000041,-447.24999999999903,781.7500000000041,-447.24999999999903,781.7500000000041,-442.24999999999903,801.2500000000036,-442.24999999999903,801.2500000000036,-460.24999999999903,819.2500000000036,-460.24999999999903,819.2500000000036,-565.6249999999991,735.0000000000036,-565.6249999999991" /><polygon id="50227500NP998" title="NP998" points="735.0000000000036,-565.6249999999991,819.2500000000036,-565.6249999999991,819.2500000000036,-670.9999999999989,735.0000000000036,-670.9999999999989,735.0000000000036,-565.6249999999991" /><polygon id="50227500NP997" title="NP997" points="951.2500000000036,-682.9999999999991,951.2500000000036,-565.6249999999994,1035.5000000000036,-565.6249999999994,1035.5000000000036,-682.9999999999991,951.2500000000036,-682.9999999999991" /><polygon id="50227500NP996" title="NP996" points="1035.5000000000036,-565.6249999999991,951.2500000000036,-565.6249999999991,951.2500000000036,-460.2499999999994,1035.5000000000036,-460.2499999999994,1035.5000000000036,-565.6249999999991" /><polygon id="50227500NP994" title="NP994" points="1137.5000000000036,-461.99999999999903,1137.5000000000036,-690.4999999999987,1047.5000000000036,-690.4999999999987,1047.5000000000036,-440.74999999999886,1087.2500000000034,-440.74999999999886,1087.2500000000034,-461.99999999999903,1137.5000000000036,-461.99999999999903" /><polygon id="50227500NP987" title="NP987" points="1325.2500000000036,-686.9999999999987,1145.5000000000036,-686.9999999999987,1145.5000000000036,-587.2499999999991,1229.5000000000036,-587.2499999999991,1229.5000000000036,-559.7499999999987,1261.5000000000036,-559.7499999999987,1261.5000000000036,-574.2499999999987,1325.2500000000036,-574.2499999999987,1325.2500000000036,-686.9999999999987" /><polygon id="50227500NP118" title="NP118" points="1221.0000000000036,-551.2499999999991,1221.0000000000036,-578.7499999999993,1152.0000000000036,-578.7499999999993,1152.0000000000036,-449.24999999999915,1199.5000000000036,-449.24999999999915,1199.5000000000036,-509.2499999999992,1264.5000000000036,-509.2499999999992,1264.5000000000036,-551.2499999999991,1221.0000000000036,-551.2499999999991" /><polygon id="50227500NP118A" title="NP118A" points="1269.5000000000036,-566.2499999999991,1269.5000000000036,-440.7499999999993,1317.2500000000036,-440.7499999999993,1317.2500000000036,-566.2499999999991,1269.5000000000036,-566.2499999999991" /><polygon id="50227500NP002" title="NP002" points="1113.5000000000036,-44.87500000000632,1113.5000000000036,-4.770835109515119,1299.3780586670673,-4.770835109515119,1299.3780586670673,-45.25000000000126,1326.2500000000025,-45.250000000001194,1326.2500000000025,-8.125000000001307,1431.8750000000036,-8.125000000000966,1431.8750000000036,-45.62500000000068,1417.7945999843187,-45.62500000000068,1417.7945999843187,-82.6249999999996,1326.2500000000018,-82.73377607958105,1320.0000000000018,-82.7337760795811,1320.0000000000018,-122.86117275986567,1290.0000013105548,-122.86117275986578,1290.0000013441634,-123.2361568848782,1172.8325721599547,-122.86113521642625,1109.1083894797257,-123.23617275986652,1025.7500000000025,-123.23617275986715,1025.6250000000036,-8.000000000002274,1086.3750000000025,-8.000000000004277,1086.3750000000034,-44.87500000000211,1113.5000000000036,-44.87500000000632" /><polygon id="50227500NP002A" title="NP002A" points="1025.8750000000036,-131.2361727598664,1325.875000000002,-131.2361727598664,1325.875000000002,-131.48794260968754,1326.250000000002,-131.48794260968754,1326.2500000000498,-82.73377607958076,1362.6250000000034,-82.62499999999943,1362.6250000000034,-88.49999999999949,1434.1250000000032,-88.4999999999992,1434.1250000000034,-149.98617588822316,1366.9999999999986,-149.98617588822316,1366.999999999999,-252.00180088824487,1343.937634256392,-252.00180088824493,1343.937634256392,-363.1249999999992,1025.8750268342194,-363.1250000000002,1025.8750000000036,-131.2361727598664" /><polygon id="50227500NP002C" title="NP002C" points="1347.9376342563899,-357.87680088824453,1347.937634256392,-256.00180088822344,1418.3750000000027,-256.00180088822333,1418.3750000000027,-279.4999999999999,1428.9376342563942,-279.4999999999999,1428.937634256394,-357.87680088824453,1347.9376342563899,-357.87680088824453" /><polygon id="50227500NP002B" title="NP002B" points="1370.9999999999986,-153.98617588820161,1429.000000000001,-153.98617588820161,1429.0000000000007,-219.999999999999,1418.3750000000027,-219.999999999999,1418.3750000000027,-251.9861758882438,1370.9999999999986,-252.00180088824436,1370.9999999999986,-153.98617588820161" /><polygon id="50227500NP008" title="NP008" points="328.8750000000043,-660.6249999999993,328.8750000000043,-683.6250000000001,351.87500000000324,-683.6250000000001,351.8750000000035,-674.6249999999993,432.6875000000052,-674.6250000000045,432.6875000000056,-695.4999999999993,458.4375000000057,-695.4999999999993,458.4375000000056,-868.7499999999994,386.81250000000546,-868.7499999999994,386.81250000000523,-846.297705582524,374.54980069736894,-844.615507571587,362.25656891865077,-843.1732743138922,349.93750000000546,-841.9715566629563,349.93750000000546,-856,42.812500000005286,-856,42.812500000005286,-874.0000000000033,35.93750000000949,-874.0000000000033,35.93750000000949,-683.0000000000033,73.50000000000091,-683.0000000000033,73.50000000000091,-661,35.93750000000949,-661,35.93750000000949,-470.00000000000347,73.50000000000091,-470.00000000000347,73.50000000000091,-448.00000000000006,35.93750000000949,-448.00000000000006,35.93750000000949,-257.0000000000023,73.5000000000017,-257.0000000000023,73.5000000000017,-235.00000000000227,35.93750000000949,-235.00000000000227,35.93750000000949,-162.98894112727874,61.23470180500857,-162.98894112727862,61.228020169353556,-162.8422196050517,72.43611802207623,-161.88426157198992,83.53301536999255,-160.04089228746807,94.44887875216251,-157.3237121883373,105.1150139655827,-153.74982065691782,115.4642983620517,-149.34170841352898,125.43160325514489,-144.12711598099588,134.95420377906368,-138.13885911182473,143.9721736200928,-131.41462227664385,153.60438963314886,-124.62622225017967,163.76635791521892,-118.65995366121436,174.38807870250835,-113.55691459039238,185.39638526928405,-109.3522568429228,196.71544792999055,-106.07494380867172,208.26729638491494,-103.74755095057219,219.97235681127108,-102.38611029566871,231.75000000000182,-102.00000000000546,231.75000000000136,-115.75000000000614,255.75000000000142,-115.75000000000614,255.75000000000142,-30.750000000005798,258.5000000000014,-30.750000000005798,258.5000000000014,9.094947017729282e-13,347.44825925127844,1.3642420526593924e-12,347.44825925127844,-33.782591934415564,337.7076753232528,-33.78259193441568,337.7076753232528,-38.03259193441568,328.4730047229023,-38.03259193441545,328.4730047229014,-101.21168082052873,337.7076753232528,-101.21168082052895,337.70767532325294,-234.37499999999886,328.3750000000037,-234.37499999999886,328.3750000000037,-257.87499999999886,337.70767532325306,-257.87499999999955,337.7076753232532,-368.49999999999983,432.68750000000546,-368.50244156899294,432.68750000000523,-456.12500000000455,351.87500000000364,-456.1249999999994,351.8750000000033,-447.12499999999903,328.8750000000043,-447.12499999999903,328.8750000000043,-470.12499999999983,351.8750000000033,-470.12499999999983,351.8750000000033,-461.1249999999994,432.6875000000051,-461.12500000000455,432.6875000000056,-669.6250000000045,351.87500000000364,-669.6249999999993,351.87500000000324,-660.6249999999993,328.8750000000043,-660.6249999999993" /><polygon id="50227500NP005" title="NP005" points="1334.8750000000034,-368.4999999999991,1439.5000000000036,-368.499999999999,1439.500000000004,-224.4597061182027,1439.750000000004,-224.4597061182027,1439.7500000000039,-48,1438.1250000000036,-47.999999999999034,1438.1250000000039,1.7621459846850485e-12,1513.0000000000052,1.6484591469634324e-12,1513.0000000000052,-67.87499999999454,1538.875000000002,-67.87499999999454,1538.875000000002,1.4210854715202004e-12,1726.000000000002,1.4210854715202004e-12,1726.000000000002,-43.99999999999562,1732.5000000000025,-43.99999999999562,1732.5000000000025,-235.0000000000004,1696.5000000000045,-234.99999999999918,1696.5000000000045,-257.00000000000045,1732.5000000000025,-257.00000000000153,1732.5000000000025,-448.00000000000034,1696.5000000000045,-447.9999999999992,1696.5000000000045,-470.0000000000005,1732.5000000000032,-470.0000000000014,1732.5000000000032,-661.0000000000002,1696.5000000000055,-660.9999999999991,1696.5000000000055,-683.0000000000007,1732.5000000000075,-683.0000000000016,1732.5000000000075,-874.0000000000005,1694.6031301391886,-874.0000000000002,1694.6031301391886,-876.2500000000002,1599.046515022839,-876.2500000000002,1599.046515022839,-863.5000000000002,1556.4326398013668,-863.5000000000002,1556.432639801367,-852.3096237527278,1501.1050925981556,-847.6839858679682,1445.5891755986636,-846.9649830376477,1390.1603902443107,-850.1561833612741,1390.1603902443107,-863.5000000000002,1353.5465150228385,-863.5000000000002,1353.5465150228385,-854.4272716157263,1347.5761441966308,-855.2931266083929,1340.287453072943,-856.4109229371022,1334.8750000000034,-857.2843457985941,1334.8750000000034,-674.6250000000041,1416.7500000000032,-674.6249999999991,1416.7500000000032,-683.6249999999986,1439.7500000000036,-683.6249999999986,1439.7500000000036,-660.6249999999991,1416.7500000000032,-660.6249999999991,1416.7500000000032,-669.6249999999991,1334.8750000000034,-669.6250000000041,1334.8750000000034,-461.12500000000426,1416.7500000000032,-461.12499999999915,1416.7500000000032,-470.1249999999983,1439.7500000000036,-470.1249999999983,1439.7500000000036,-447.124999999999,1416.7500000000032,-447.124999999999,1416.7500000000032,-456.12499999999915,1334.8750000000034,-456.12500000000426,1334.8750000000034,-368.4999999999991" /><polygon id="50227500NP006A" title="NP006A" points="1547.0465150228388,-863.5,1547.0465150228388,-969,1399.5465150228383,-969,1399.5465150228383,-863.4999999999999,1390.1603902443105,-863.4999999999999,1390.1603902443073,-850.1561833612741,1445.58917559866,-846.9649830376475,1501.105092598151,-847.6839858679679,1556.4326398013613,-852.3096237527271,1556.4326398013666,-863.4999999999999,1547.0465150228388,-863.5" /><polygon id="50227500NP003A" title="NP003A" points="668.1982592512763,-330.4086915689916,674.1982592512763,-330.4086915689916,674.1982592512729,-40.04531415636404,686.0218930524518,-40.04531415636529,686.0218930524513,-3.0453141563642134,734.8326753232507,-3.045314156363986,734.8326753232508,-27.045314156363986,739.7076753232507,-27.045314156363986,739.7076753232507,-3.045314156364043,763.707675323256,-3.0453141563648956,763.7076753232557,-44.62500000000006,745.6250000000052,-44.625000000000625,745.6250000000044,-65.87499999999903,763.7076753232523,-65.875,763.7076753232608,-303,745.6250000000051,-303.0000000000007,745.6250000000044,-324.249999999999,763.7076753232541,-324.2499999999996,763.7076753232529,-364.2524415689912,627.984780274691,-364.2524415689916,627.9847802746908,-330.3774415689916,668.1982592512763,-330.4086915689916" /></svg>
