<svg version="1.1" id="Map" class="gen-by-synoptic-designer" xmlns="http://www.w3.org/2000/svg" xmlns:xlink="http://www.w3.org/1999/xlink" viewBox="33.7499999999975 -1097.2500000000002 1702.5000000000034 1063.5000000000011" xml:space="preserve"><image width="1702.5000000000034" height="1063.5000000000011" xlink:href=""/><polygon id="50227500432" title="432" points="1736.2500000000005,-33.74999999999932,1616.8750000000005,-33.74999999999932,1616.8750000000005,-195.99999999999915,1736.2500000000005,-195.99999999999915,1736.2500000000005,-33.74999999999932" /><polygon id="50227500434" title="434" points="1611.8750000000005,-33.74999999999915,1518.5625000000005,-33.75000000000023,1518.5625000000005,-64.99999999999979,1516.3750000000005,-64.99999999999979,1516.3750000000005,-146.99999999999918,1611.8750000000005,-146.99999999999918,1611.8750000000005,-33.74999999999915" /><polygon id="50227500436" title="436" points="1511.3750000000005,-33.75000000000004,1408.8750000000005,-33.75000000000004,1408.8750000000005,-64.9999999999998,1406.6875000000005,-64.9999999999998,1406.6875000000005,-146.99999999999918,1511.3750000000005,-146.99999999999918,1511.3750000000005,-33.75000000000004" /><polygon id="50227500438" title="438" points="1401.6875000000005,-33.75000000000023,1261.9375000000005,-33.75000000000023,1261.9375000000005,-146.99999999999918,1401.6875000000005,-146.99999999999918,1401.6875000000005,-33.75000000000023" /><polygon id="50227500440" title="440" points="1089.4375000000005,-33.75000000000023,1089.4375000000005,-260.9999999999991,1256.9375000000005,-260.9999999999991,1256.9375000000005,-33.75000000000023,1089.4375000000005,-33.75000000000023" /><polygon id="50227500426" title="426" points="1334.1875000000005,-200.99999999999915,1334.1875000000005,-332.4999999999992,1444.1875000000005,-332.4999999999992,1444.1875000000005,-200.99999999999915,1334.1875000000005,-200.99999999999915" /><polygon id="50227500435" title="435" points="1293.1875000000005,-260.9999999999991,1293.1875000000005,-265.9999999999992,1329.1875000000005,-265.9999999999992,1329.1875000000005,-195.99999999999915,1611.8750000000005,-195.99999999999915,1611.8750000000005,-151.99999999999918,1261.9375000000005,-151.99999999999918,1261.9375000000005,-195.99999999999915,1293.1875000000005,-195.99999999999915,1293.1875000000005,-200.99999999999915,1261.9375000000005,-200.99999999999915,1261.9375000000005,-260.9999999999991,1293.1875000000005,-260.9999999999991" /><polygon id="50227500487" title="487" points="1317.25,-566.2499999999995,1317.25,-440.74999999999943,1269.4999999999995,-440.74999999999943,1269.4999999999995,-566.2499999999995,1317.25,-566.2499999999995" /><polygon id="50227500489" title="489" points="1152,-578.7499999999997,1220.9999999999995,-578.7499999999997,1220.9999999999995,-551.2499999999994,1264.4999999999995,-551.2499999999994,1264.4999999999995,-509.2499999999995,1199.4999999999995,-509.24999999999955,1199.4999999999995,-449.2499999999995,1152,-449.2499999999995,1152,-578.7499999999997" /><polygon id="50227500495" title="495" points="1047.5,-440.7499999999994,1047.5,-649.4999999999993,1137.5,-649.4999999999993,1137.5,-461.9999999999996,1087.2499999999998,-461.9999999999996,1087.2499999999998,-440.7499999999994,1047.5,-440.7499999999994" /><polygon id="50227500498" title="498" points="455.9999999999995,-566.2499999999994,502.4999999999996,-566.2499999999994,502.4999999999996,-440.7499999999993,455.9999999999995,-440.7499999999993,455.9999999999995,-566.2499999999994" /><polygon id="50227500488" title="488" points="551.4999999999995,-578.7499999999993,620.5,-578.7499999999993,620.5,-449.24999999999926,572.4999999999995,-449.24999999999926,572.4999999999995,-509.2499999999994,507.4999999999996,-509.2499999999994,507.4999999999996,-551.2499999999993,551.4999999999995,-551.2499999999993,551.4999999999995,-578.7499999999993" /><polygon id="50227500494" title="494" points="683,-669.4999999999993,683,-688.4999999999989,723,-688.4999999999989,723,-481.7499999999992,633,-481.7499999999992,633,-669.4999999999993,683,-669.4999999999993" /><polygon id="50227500493" title="493" points="951.25,-562.6249999999991,1035.5,-562.6249999999991,1035.5,-460.2499999999992,951.25,-460.2499999999992,951.25,-562.6249999999991" /><polygon id="50227500491" title="491" points="951.25,-562.6249999999991,951.25,-682.999999999999,1035.5,-682.999999999999,1035.5,-562.6249999999991,951.25,-562.6249999999991" /><polygon id="50227500490" title="490" points="819.25,-565.6249999999991,735,-565.6249999999991,735,-670.9999999999991,819.25,-670.9999999999991,819.25,-565.6249999999991" /><polygon id="50227500492" title="492" points="819.25,-565.6249999999991,819.25,-460.24999999999926,801.25,-460.24999999999926,801.25,-442.2499999999992,781.7500000000005,-442.2499999999992,781.7500000000005,-457.9999999999994,744.7500000000005,-457.9999999999994,744.7500000000005,-442.24999999999915,735,-442.24999999999915,735,-565.6249999999991,819.25,-565.6249999999991" /><polygon id="50227500441A" title="441A" points="1084.4375000000005,-154.74999999999974,1084.4375000000005,-33.75000000000023,889.1250000000003,-33.75000000000023,889.1250000000003,-154.74999999999974,1084.4375000000005,-154.74999999999974" /><polygon id="50227500442" title="442" points="884.1250000000003,-33.7499999999998,761.6250000000003,-33.7499999999998,761.6250000000003,-154.74999999999974,884.1250000000003,-154.74999999999974,884.1250000000003,-33.7499999999998" /><polygon id="50227500444" title="444" points="636.8125000000003,-33.7499999999998,636.8125000000003,-154.7499999999997,756.6250000000003,-154.7499999999997,756.6250000000003,-33.7499999999998,636.8125000000003,-33.7499999999998" /><polygon id="50227500446" title="446" points="631.8125000000003,-33.74999999999953,511.62500000000034,-33.74999999999953,511.62500000000034,-154.74999999999974,631.8125000000003,-154.74999999999974,631.8125000000003,-33.74999999999953" /><polygon id="50227500448" title="448" points="388.00000000000034,-33.74999999999953,388.00000000000034,-154.74999999999966,506.62500000000034,-154.74999999999966,506.62500000000034,-33.74999999999953,388.00000000000034,-33.74999999999953" /><polygon id="50227500450" title="450" points="383.00000000000034,-33.75000000000023,263.0000000000003,-33.75000000000023,263.0000000000003,-154.74999999999974,383.00000000000034,-154.74999999999974,383.00000000000034,-33.75000000000023" /><polygon id="50227500452" title="452" points="33.74999999999818,-33.75000000000023,33.74999999999818,-192.2499999999998,258.00000000000034,-192.2499999999998,258.00000000000034,-33.75000000000023,33.74999999999818,-33.75000000000023" /><polygon id="50227500441B" title="441B" points="1084.4375000000005,-213.49999999999974,889.1250000000005,-213.49999999999974,889.1250000000005,-370.7499999999993,1084.4375000000005,-370.7499999999993,1084.4375000000005,-213.49999999999974" /><polygon id="50227500451" title="451" points="661.0000000000005,-234.62499999999932,661.0000000000005,-370.7499999999993,796.2500000000005,-370.7499999999993,796.2500000000005,-234.62499999999932,661.0000000000005,-234.62499999999932" /><polygon id="50227500456" title="456" points="152.25000000000043,-197.2499999999998,33.75000000000003,-197.2499999999998,33.750000000000036,-379.9374999999998,152.25000000000045,-379.9374999999998,152.25000000000043,-197.2499999999998" /><polygon id="50227500460" title="460" points="33.749999999997556,-384.9374999999998,33.749999999997556,-535.9374999999998,152.25000000000048,-535.9374999999998,152.25000000000048,-384.9374999999998,33.749999999997556,-384.9374999999998" /><polygon id="50227500462" title="462" points="33.7499999999975,-635.1249999999998,152.25000000000054,-635.1249999999998,152.25000000000054,-540.9374999999998,33.7499999999975,-540.9374999999998,33.7499999999975,-635.1249999999998" /><polygon id="50227500464" title="464" points="33.74999999999761,-640.1249999999998,33.74999999999761,-736.8749999999998,152.2500000000005,-736.8749999999998,152.2500000000005,-640.1249999999998,33.74999999999761,-640.1249999999998" /><polygon id="50227500466" title="466" points="33.74999999999761,-918.6874999999998,152.2500000000006,-918.6874999999998,152.2500000000006,-741.8749999999998,33.74999999999761,-741.8749999999998,33.74999999999761,-918.6874999999998" /><polygon id="50227500467" title="467" points="436.24999999999994,-691.3749999999992,436.24999999999994,-538.8749999999993,330.3750000000007,-538.8749999999993,330.3750000000007,-691.3749999999992,436.24999999999994,-691.3749999999992" /><polygon id="50227500463" title="463" points="222.0625000000006,-632.6874999999993,293.0625000000006,-632.6874999999993,293.0625000000006,-627.5624999999993,325.3750000000007,-627.5624999999993,325.3750000000007,-538.8749999999993,222.0625000000006,-538.8749999999993,222.0625000000006,-632.6874999999993" /><polygon id="50227500465" title="465" points="222.0625000000006,-691.3749999999993,325.3750000000007,-691.3749999999993,325.3750000000007,-637.6874999999993,222.0625000000006,-637.6874999999993,222.0625000000006,-691.3749999999993" /><polygon id="50227500453" title="453" points="656.0000000000005,-370.7499999999993,656.0000000000005,-310.1249999999993,534.0000000000005,-310.1249999999993,534.0000000000005,-370.7499999999993,656.0000000000005,-370.7499999999993" /><polygon id="50227500441" title="441" points="1084.4375000000005,-208.4999999999997,1084.4375000000005,-159.74999999999972,889.1250000000003,-159.74999999999972,889.1250000000003,-208.4999999999997,1084.4375000000005,-208.4999999999997" /><polygon id="50227500461" title="461" points="436.24999999999994,-533.8749999999993,436.24999999999994,-375.7499999999993,219.56250000000057,-375.7499999999993,219.56250000000057,-533.8749999999993,436.24999999999994,-533.8749999999993" /><polygon id="50227500469" title="469" points="431.75,-740.1249999999993,431.75,-696.3749999999994,217.0625000000006,-696.3749999999994,217.0625000000006,-533.8749999999993,218.56250000000057,-533.8749999999993,218.56250000000057,-375.7499999999993,157.25000000000045,-375.7499999999992,157.25000000000057,-953.8124999999991,217.0625000000006,-953.8124999999991,217.0625000000006,-740.1249999999993,431.75,-740.1249999999993" /><polygon id="50227500455" title="455" points="522.5000000000005,-233.49999999999932,464.3693470521184,-233.49999999999932,464.3693470521184,-234.99999999999932,353.31250000000045,-234.99999999999932,353.31250000000045,-370.7499999999993,522.5000000000005,-370.7499999999993,522.5000000000005,-233.49999999999932" /><polygon id="50227500447" title="447" points="796.2500000000005,-370.7499999999993,884.1250000000005,-370.7499999999993,884.1250000000005,-229.62499999999932,796.2500000000005,-229.62499999999932,796.2500000000005,-370.7499999999993" /><polygon id="50227500496" title="496" points="542.9999999999995,-559.7499999999993,510.49999999999955,-559.7499999999993,510.49999999999955,-574.2499999999994,444.75000000000006,-574.2499999999994,444.75000000000006,-686.9999999999991,624.9999999999995,-686.9999999999991,624.9999999999995,-587.2499999999995,542.9999999999995,-587.2499999999995,542.9999999999995,-559.7499999999993" /><polygon id="50227500497" title="497" points="1261.4999999999995,-574.2499999999995,1261.4999999999995,-559.7499999999993,1229.4999999999995,-559.7499999999993,1229.4999999999995,-587.2499999999997,1145.5,-587.2499999999997,1145.5,-686.9999999999991,1325.2499999999995,-686.9999999999991,1325.2499999999995,-574.2499999999995,1261.4999999999995,-574.2499999999995" /><polygon id="50227500400" title="400" points="944.75,-654.4999999999994,944.75,-476.7499999999993,825.7500000000001,-476.7499999999993,825.7500000000001,-654.4999999999994,944.75,-654.4999999999994" /><polygon id="50227500485" title="485" points="751.2500000000005,-435.74999999999926,751.2500000000005,-451.4999999999994,775.2500000000005,-451.4999999999994,775.2500000000005,-435.7499999999992,825.75,-435.74999999999926,825.75,-471.7499999999993,944.75,-471.7499999999993,944.75,-435.74999999999926,1220.7500000000005,-435.74999999999926,1220.7500000000005,-449.24999999999926,1204.4999999999995,-449.2499999999993,1204.4999999999995,-504.24999999999955,1264.4999999999995,-504.24999999999955,1264.4999999999995,-435.74999999999926,1277.4375,-435.74999999999926,1277.4375,-375.7499999999993,615.1250000000001,-375.7499999999993,615.1250000000001,-435.74999999999926,751.2500000000005,-435.74999999999926" /><polygon id="50227500484" title="484" points="723,-476.7499999999992,723,-440.7499999999992,633,-440.7499999999992,633,-476.7499999999992,723,-476.7499999999992" /><polygon id="50227500486" title="486" points="510.8750000000001,-383.3749999999993,457.0000000000001,-383.3749999999993,457.0000000000001,-435.7499999999993,507.4999999999996,-435.7499999999993,507.49999999999955,-504.24999999999943,567.4999999999995,-504.24999999999943,567.4999999999995,-449.24999999999926,552.4999999999994,-449.24999999999926,552.4999999999994,-435.7499999999993,610.1250000000001,-435.74999999999926,610.1250000000001,-375.7499999999993,510.8750000000001,-375.7499999999993,510.8750000000001,-383.3749999999993" /><polygon id="50227500405" title="405" points="944.7500000000001,-695.499999999999,944.7500000000001,-659.4999999999994,825.7500000000001,-659.4999999999994,825.7500000000001,-695.4999999999991,502.7500000000001,-695.499999999999,502.7500000000001,-755.4999999999992,1022.1875,-755.4999999999992,1022.1875,-695.499999999999,944.7500000000001,-695.499999999999" /><polygon id="50227500402" title="402" points="829.6875000000005,-1097.2500000000002,953.6875000000005,-1097.2500000000002,953.6875000000005,-935.4374999999991,829.6875000000005,-935.4374999999991,829.6875000000005,-1097.2500000000002" /><polygon id="50227500404" title="404" points="1104.0000000000005,-1097.2499999999993,1104.0000000000005,-984.562499999999,958.6875000000005,-984.562499999999,958.6875000000005,-1097.2499999999993,1104.0000000000005,-1097.2499999999993" /><polygon id="50227500409" title="409" points="1118.5,-690.4999999999993,1118.5,-656.4999999999993,1047.5,-656.4999999999993,1047.5,-690.4999999999993,1118.5,-690.4999999999993" /><polygon id="50227500414" title="414" points="1616.6250000000005,-1097.2500000000002,1736.2500000000005,-1097.2500000000002,1736.2500000000005,-920.1249999999989,1616.6250000000005,-920.1249999999989,1616.6250000000005,-1097.2500000000002" /><polygon id="50227500420" title="420" points="1337.25,-690.4999999999989,1736.2500000000005,-690.4999999999989,1736.2500000000005,-440.7499999999995,1337.25,-440.7499999999995,1337.25,-690.4999999999989" /><polygon id="50227500428" title="428" points="1568.1250000000005,-200.99999999999915,1568.1250000000005,-262.81249999999915,1591.9375000000005,-262.81249999999915,1591.9375000000007,-435.74999999999955,1736.250000000001,-435.74999999999955,1736.250000000001,-200.99999999999915,1568.1250000000005,-200.99999999999915" /><polygon id="50227500401" title="401" points="882.6875,-930.4374999999991,1022.1875,-930.4374999999991,1022.1875,-760.499999999999,882.6875,-760.499999999999,882.6875,-930.4374999999991" /><polygon id="50227500401A" title="401A" points="829.6875000000005,-903.9999999999992,829.6875000000005,-930.4374999999991,877.6875000000005,-930.4374999999991,877.6875,-760.499999999999,792.5625,-760.499999999999,792.5625,-903.9999999999992,829.6875000000005,-903.9999999999992" /><polygon id="50227500478" title="478" points="680.6875000000005,-953.8124999999992,636.1875000000005,-953.8124999999992,636.1875000000005,-1097.2499999999995,824.6875000000005,-1097.249999999999,824.6875000000005,-908.9999999999992,680.6875000000005,-908.9999999999992,680.6875000000005,-953.8124999999992" /><polygon id="50227500473A" title="473A" points="580.1250000000005,-1097.2499999999995,631.1875000000005,-1097.2499999999995,631.1875000000005,-1034.9375000000002,580.1250000000005,-1034.9375000000002,580.1250000000005,-1097.2499999999995" /><polygon id="50227500473" title="473" points="573.3750000000005,-1029.9375000000002,631.1875000000005,-1029.9375000000002,631.1875000000005,-953.8124999999992,157.25000000000057,-953.8124999999991,157.25000000000057,-997.5624999999992,573.3750000000005,-997.5624999999992,573.3750000000005,-1029.9375000000002" /><polygon id="50227500474" title="474" points="568.3750000000005,-1002.5624999999994,406.1250000000005,-1002.5624999999994,406.1250000000005,-1097.25,568.3750000000005,-1097.25,568.3750000000005,-1002.5624999999994" /><polygon id="50227500472" title="472" points="286.8125000000006,-1065.562499999999,286.8125000000006,-1097.2499999999995,398.8750000000006,-1097.2499999999995,398.8750000000006,-1065.562499999999,401.12500000000057,-1065.562499999999,401.12500000000057,-1002.5624999999993,284.56250000000057,-1002.5624999999993,284.56250000000057,-1065.562499999999,286.8125000000006,-1065.562499999999" /><polygon id="50227500470" title="470" points="157.25000000000057,-1097.25,279.5625000000006,-1097.25,279.5625000000006,-1002.5624999999992,157.25000000000057,-1002.5624999999992,157.25000000000057,-1097.25" /><polygon id="50227500468" title="468" points="152.25000000000057,-1097.25,152.25000000000057,-923.6874999999998,33.749999999999545,-923.6874999999998,33.749999999999545,-1097.25,152.25000000000057,-1097.25" /><polygon id="50227500479" title="479" points="787.5625,-903.9999999999992,787.5625,-760.4999999999992,680.6875000000005,-760.4999999999992,680.6875000000005,-903.9999999999992,787.5625,-903.9999999999992" /><polygon id="50227500477" title="477" points="675.6875000000005,-760.4999999999993,483.3125000000005,-760.4999999999993,483.3125000000005,-948.8124999999992,675.6875000000005,-948.8124999999992,675.6875000000005,-760.4999999999993" /><polygon id="50227500471" title="471" points="431.75,-745.1249999999994,222.0625000000006,-745.1249999999994,222.06250000000065,-850.6249999999993,222.06250000000065,-898.6104165937904,222.06250000000065,-948.8124999999992,478.31250000000057,-948.8124999999992,478.31250000000057,-760.4999999999992,431.75,-760.4999999999992,431.75,-745.1249999999994" /><polygon id="50227500475" title="475" points="497.75000000000006,-755.4999999999992,497.75000000000006,-695.4999999999998,436.75,-695.4999999999998,436.75,-755.4999999999992,497.75000000000006,-755.4999999999992" /><polygon id="50227500459A" title="459A" points="348.81250000000045,-370.7499999999993,228.3125000000004,-370.7499999999992,228.3125000000004,-278.4110642739404,265.84098175246896,-240.88258252147182,348.3125000000004,-240.88258252147182,348.81250000000045,-370.7499999999993" /><polygon id="50227500459" title="459" points="157.25000000000037,-370.7499999999992,157.25000000000037,-197.24999999999977,263.0000000000004,-197.24999999999977,263.0000000000004,-159.74999999999974,884.1250000000002,-159.74999999999974,884.1250000000002,-229.62499999999932,656.0000000000005,-229.62499999999932,527.5000000000005,-228.4999999999993,449.3125000000004,-228.4999999999993,449.3125000000004,-230.99999999999932,362.0625000000004,-230.99999999999932,362.0625000000004,-228.49999999999932,348.3125000000004,-228.4999999999993,348.3125000000004,-240.88258252147182,265.84098175246896,-240.88258252147182,228.3125000000004,-278.4110642739404,228.3125000000004,-370.7499999999992,157.25000000000037,-370.7499999999992" /><polygon id="50227500459B" title="459B" points="527.5000000000005,-305.1364702283843,527.5000000000005,-228.49999999999932,656.0000000000005,-229.62499999999932,656.0000000000005,-305.1249999999993,527.5000000000005,-305.1364702283843" /><polygon id="50227500407" title="407" points="1227.6875000000005,-862.3749999999991,1122.6875,-862.3149095645673,1122.6875,-746.4999999999992,1027.1875,-746.4999999999992,1027.1875,-695.4999999999992,1227.6875000000005,-695.4999999999992,1227.6875000000005,-862.3749999999991" /><polygon id="50227500408" title="408" points="1611.6250000000002,-977.2500000000001,1232.6875000000005,-977.2500000000001,1232.6875000000005,-703.687499999999,1283.8125,-703.687499999999,1283.8125,-695.499999999999,1736.2500000000005,-695.499999999999,1736.2500000000005,-915.124999999999,1611.6250000000005,-915.124999999999,1611.6250000000002,-977.2500000000001" /><polygon id="50227500408C" title="408C" points="1611.6250000000002,-977.2500000000001,1488.7034865974424,-977.2500000000001,1488.7034865974424,-1097.249999999999,1611.6250000000002,-1097.249999999999,1611.6250000000002,-977.2500000000001" /><polygon id="50227500408B" title="408B" points="1483.7034865974424,-977.2500000000001,1359.6167195186717,-977.2500000000001,1359.6167195186717,-1097.2499999999995,1483.7034865974424,-1097.2499999999995,1483.7034865974424,-977.2500000000001" /><polygon id="50227500408A" title="408A" points="1354.6167195186717,-977.2500000000001,1232.6875000000005,-977.2500000000001,1232.6875000000005,-1097.2499999999995,1354.6167195186717,-1097.2499999999995,1354.6167195186717,-977.2500000000001" /><polygon id="50227500407A" title="407A" points="1122.6875,-746.4999999999992,1122.6875,-862.3749999999991,1027.1875,-862.3749999999991,1027.1875,-746.4999999999992,1122.6875,-746.4999999999992" /><polygon id="50227500406" title="406" points="1109.0000000000005,-1031.249999999999,1227.6875000000005,-1031.249999999999,1227.6875000000005,-1097.249999999999,1109.0000000000005,-1097.249999999999,1109.0000000000005,-1031.249999999999" /><polygon id="50227500403A" title="403A" points="1167.6875000000002,-1026.249999999999,1167.687500000001,-927.8749999999991,1227.6875000000005,-927.8749999999991,1227.6875000000005,-1026.249999999999,1167.6875000000002,-1026.249999999999" /><polygon id="50227500403" title="403" points="958.6875000000005,-979.562499999999,958.6875000000005,-935.4374999999991,1072.6875,-935.4374999999991,1072.6875,-930.4374999999991,1027.1875,-930.437499999999,1027.1875,-867.374999999999,1232.6875000000005,-867.374999999999,1232.6875000000005,-915.3749999999991,1162.6875000000007,-915.374999999999,1162.6875,-1026.249999999999,1109.0000000000005,-1026.249999999999,1109.0000000000005,-979.562499999999,958.6875000000005,-979.562499999999" /><polygon id="50227500429" title="429" points="1449.1875000000005,-262.8124999999991,1449.1875000000005,-200.9999999999991,1563.1250000000005,-200.99999999999906,1563.1250000000005,-262.8124999999991,1449.1875000000005,-262.8124999999991" /><polygon id="50227500425" title="425" points="1334.1875000000005,-387.99999999999926,1334.1875000000005,-337.4999999999992,1433.6875000000005,-337.4999999999992,1433.6875000000005,-387.9999999999992,1334.1875000000005,-387.99999999999926" /><polygon id="50227500439" title="439" points="1329.1875000000005,-340.2872801006447,1329.1875000000005,-343.84765005434883,1329.1875000000005,-360.41021143643957,1329.1875000000005,-360.76241298885134,1329.1875000000005,-365.2731256385938,1329.1875000000005,-370.7499999999993,1293.1875000000005,-370.7499999999993,1110.6875000000005,-370.7499999999993,1089.4375000000005,-370.7499999999993,1089.4375000000005,-330.7499999999993,1089.4375000000005,-328.54741287164734,1089.4375000000005,-326.76376004074746,1089.4375000000005,-325.7499999999993,1089.4375000000005,-289.7499999999993,1089.4375000000005,-288.0936055872303,1089.4375000000005,-286.32693203546023,1089.4375000000005,-284.7499999999993,1089.4375000000005,-265.9999999999991,1110.6875000000005,-265.9999999999991,1293.1875000000005,-265.9999999999991,1329.1875000000005,-265.9999999999991,1329.1875000000005,-337.4999999999992,1329.1875000000005,-340.2872801006447" /><polygon id="50227500424" title="424" points="1334.1875000000005,-392.9999999999992,1449.1875000000005,-392.99999999999915,1449.1875000000005,-435.7499999999995,1282.4375,-435.74999999999943,1282.4375,-370.7499999999993,1329.1875000000005,-370.7499999999993,1329.1875000000005,-392.99999999999926,1332.7810213295497,-392.99999999999926,1334.1875000000005,-392.9999999999992" /><polygon id="50227500427" title="427" points="1586.9375000000007,-435.74999999999955,1449.1875000000005,-435.74999999999955,1449.1875000000005,-387.37499999999955,1449.1875000000005,-385.3214622969426,1449.1875000000005,-383.75634396806936,1449.1875000000005,-382.37499999999955,1449.1875000000005,-267.81249999999915,1586.9375000000007,-267.81249999999915,1586.9375000000007,-435.74999999999955" /></svg>
