<svg version="1.1" id="Map" class="gen-by-synoptic-designer" xmlns="http://www.w3.org/2000/svg" xmlns:xlink="http://www.w3.org/1999/xlink" viewBox="33.74999999999869 -1097.2500000000002 1702.500000000002 1063.5000000000011" xml:space="preserve"><image width="1702.500000000002" height="1063.5000000000011" xlink:href=""/><polygon id="50227500631" title="631" points="849.0000000000002,-371.2499999999998,849.0000000000002,-33.749999999999986,1137.1875000000002,-33.749999999999986,1137.1875000000002,-63.74999999999976,1142.1875000000002,-63.74999999999976,1142.1875000000002,-33.749999999999986,1230.6875000000005,-33.749999999999986,1230.6875000000005,-371.2499999999998,849.0000000000002,-371.2499999999998" /><polygon id="50227500627" title="627" points="1344.5625000000002,-158.4374999999998,1344.5625000000002,-216.4374999999998,1235.6875000000005,-216.4374999999998,1235.6875000000005,-33.74999999999977,1344.5625000000002,-33.74999999999977,1344.5625000000002,-152.81249999999977,1311.178884140569,-152.8124999999998,1311.178884140569,-158.4374999999998,1344.5625000000002,-158.4374999999998" /><polygon id="50227500628" title="628" points="1358.6875000000005,-216.4374999999998,1358.6875000000005,-33.74999999999912,1736.2500000000007,-33.74999999999912,1736.2500000000005,-278.9374999999998,1389.1875000000005,-278.9374999999998,1389.1875000000005,-216.4374999999998,1358.6875000000005,-216.4374999999998" /><polygon id="50227500622" title="622" points="1389.1875000000005,-283.9374999999998,1736.2500000000005,-283.9374999999998,1736.2500000000005,-491.8124999999998,1389.1875000000005,-491.8124999999998,1389.1875000000005,-283.9374999999998" /><polygon id="50227500629" title="629" points="1235.6875000000005,-371.2499999999998,1235.6875000000005,-221.43749999999977,1384.1875000000005,-221.43749999999977,1384.1875000000005,-491.8124999999997,1333.75,-491.8124999999997,1333.75,-435.74999999999926,1286.5625000000005,-435.74999999999943,1286.5625000000005,-371.2499999999998,1235.6875000000005,-371.2499999999998" /><polygon id="50227500609" title="609" points="1736.2500000000005,-496.8124999999998,1736.2500000000005,-1097.2499999999995,1350.1250000000005,-1097.2499999999995,1350.1250000000005,-763.4999999999989,1248.8125000000005,-763.4999999999989,1248.8125000000005,-754.4375000000013,1187.75,-754.4375000000013,1187.75,-695.499999999999,1333.75,-695.4999999999989,1333.75,-496.8124999999998,1736.2500000000005,-496.8124999999998" /><polygon id="50227500610" title="610" points="1236.3125000000005,-1097.249999999999,1236.3125000000005,-768.4999999999989,1345.1250000000005,-768.4999999999989,1345.1250000000005,-1097.249999999999,1236.3125000000005,-1097.249999999999" /><polygon id="50227500670" title="670" points="871.5625000000005,-759.4375000000015,871.5625000000005,-1097.2499999999998,725.8125000000005,-1097.2499999999998,725.8125000000005,-897.7500000000002,677.9375000000005,-897.7500000000002,677.9375000000005,-759.4375000000015,871.5625000000005,-759.4375000000015" /><polygon id="50227500669" title="669" points="654.4375000000005,-977.2500000000027,720.8125000000005,-977.2500000000027,720.8125000000005,-1097.2499999999998,654.4375000000005,-1097.2499999999998,654.4375000000005,-977.2500000000027" /><polygon id="50227500668" title="668" points="649.4375000000005,-977.2500000000027,649.4375000000005,-1097.2500000000002,553.5625000000005,-1097.2500000000002,553.5625000000005,-977.2500000000027,649.4375000000005,-977.2500000000027" /><polygon id="50227500664" title="664" points="548.5625000000005,-1097.2500000000002,424.9375000000004,-1097.2500000000002,424.9375000000004,-977.2500000000027,548.5625000000005,-977.2500000000027,548.5625000000005,-1097.2500000000002" /><polygon id="50227500662" title="662" points="419.93750000000034,-977.2500000000026,419.93750000000034,-1097.25,297.93750000000034,-1097.25,297.93750000000034,-977.2500000000026,419.93750000000034,-977.2500000000026" /><polygon id="50227500660" title="660" points="292.9375000000004,-1097.2500000000002,181.3125000000004,-1097.2500000000002,181.3125000000004,-977.2500000000027,228.5625000000004,-977.2500000000027,228.5625000000004,-972.2500000000027,210.9375000000004,-972.2500000000027,210.9375000000004,-927.2500000000027,292.9375000000004,-927.2500000000027,292.9375000000004,-1097.2500000000002" /><polygon id="50227500661" title="661" points="720.8125000000005,-972.2500000000027,297.9375000000004,-972.2500000000027,297.9375000000004,-927.2500000000027,497.9375000000004,-927.2500000000026,497.9375000000004,-759.4375000000014,547.9375000000005,-759.4375000000014,547.9375000000005,-927.2500000000026,677.9375000000005,-927.2500000000027,677.9375000000005,-902.7500000000002,720.8125000000005,-902.7500000000002,720.8125000000005,-972.2500000000027" /><polygon id="50227500667" title="667" points="552.9375000000005,-922.2500000000027,552.9375000000005,-845.5625000000028,588.9375000000005,-845.5625000000028,588.9375000000005,-850.5625000000028,672.9375000000002,-850.5625000000028,672.9375000000002,-922.2500000000027,552.9375000000005,-922.2500000000027" /><polygon id="50227500665" title="665" points="672.9375000000005,-845.5625000000028,552.9375000000005,-845.5625000000028,552.9375000000005,-759.4375000000015,677.9375000000005,-759.4375000000014,677.9375000000005,-815.5625000000027,672.9375000000005,-815.5625000000027,672.9375000000005,-845.5625000000028" /><polygon id="50227500666" title="666" points="437.6875000000004,-922.2500000000027,437.6875000000004,-868.812500000003,492.9375000000004,-868.812500000003,492.9375000000004,-922.2500000000027,437.6875000000004,-922.2500000000027" /><polygon id="50227500663" title="663" points="492.9375000000004,-855.8125000000017,437.6875000000004,-855.8125000000017,437.6875000000004,-801.8125000000017,492.9375000000004,-801.8125000000017,492.9375000000004,-855.8125000000017" /><polygon id="50227500696" title="696" points="444.74999999999994,-686.9999999999991,444.74999999999994,-574.2499999999994,510.49999999999955,-574.2499999999994,510.49999999999955,-559.7499999999993,542.9999999999995,-559.7499999999993,542.9999999999995,-587.2499999999995,624.9999999999995,-587.2499999999995,624.9999999999995,-686.9999999999991,444.74999999999994,-686.9999999999991" /><polygon id="50227500698" title="698" points="455.9999999999995,-566.2499999999994,455.9999999999995,-440.7499999999993,502.49999999999955,-440.7499999999993,502.49999999999955,-566.2499999999994,455.9999999999995,-566.2499999999994" /><polygon id="50227500688" title="688" points="551.4999999999995,-551.2499999999993,507.49999999999955,-551.2499999999993,507.49999999999955,-509.2499999999994,572.4999999999995,-509.2499999999994,572.4999999999995,-449.24999999999926,620.5,-449.24999999999926,620.5,-578.7499999999993,551.4999999999995,-578.7499999999993,551.4999999999995,-551.2499999999993" /><polygon id="50227500694" title="694" points="633,-669.4999999999993,633,-481.7499999999992,723,-481.7499999999992,723,-688.4999999999989,683,-688.4999999999989,683,-669.4999999999993,633,-669.4999999999993" /><polygon id="50227500684" title="684" points="633,-440.7499999999992,722.9999999999995,-440.7499999999992,722.9999999999995,-476.7499999999992,633,-476.7499999999992,633,-440.7499999999992" /><polygon id="50227500690" title="690" points="819.25,-670.9999999999991,735,-670.9999999999991,735,-565.6249999999991,819.25,-565.6249999999991,819.25,-670.9999999999991" /><polygon id="50227500692" title="692" points="735,-565.6249999999991,735,-442.24999999999915,744.7500000000005,-442.24999999999915,744.7500000000005,-457.9999999999994,781.7500000000005,-457.9999999999994,781.7500000000005,-442.2499999999992,801.25,-442.2499999999992,801.25,-460.24999999999926,819.25,-460.24999999999926,819.25,-565.6249999999991,735,-565.6249999999991" /><polygon id="50227500600" title="600" points="825.7500000000001,-654.4999999999994,825.7500000000001,-476.7499999999993,944.75,-476.7499999999993,944.75,-654.4999999999994,825.7500000000001,-654.4999999999994" /><polygon id="50227500691" title="691" points="951.25,-682.999999999999,951.25,-562.6249999999991,1035.5,-562.6249999999991,1035.5,-682.999999999999,951.25,-682.999999999999" /><polygon id="50227500693" title="693" points="1035.5,-562.6249999999991,951.25,-562.6249999999991,951.25,-460.2499999999992,1035.5,-460.2499999999992,1035.5,-562.6249999999991" /><polygon id="50227500695" title="695" points="1137.5,-461.9999999999996,1137.5,-649.4999999999993,1047.5,-649.4999999999993,1047.5,-440.7499999999994,1087.2499999999989,-440.7499999999994,1087.2499999999989,-461.9999999999996,1137.5,-461.9999999999996" /><polygon id="50227500697" title="697" points="1325.2500000000002,-686.9999999999991,1145.4999999999995,-686.9999999999991,1145.4999999999995,-587.2499999999997,1229.4999999999995,-587.2499999999997,1229.4999999999995,-559.7499999999992,1261.4999999999995,-559.7499999999992,1261.4999999999995,-574.2499999999992,1325.2499999999995,-574.2499999999992,1325.2500000000002,-686.9999999999991" /><polygon id="50227500687" title="687" points="1269.4999999999995,-566.2499999999995,1269.4999999999995,-440.74999999999943,1317.25,-440.74999999999943,1317.25,-566.2499999999995,1269.4999999999995,-566.2499999999995" /><polygon id="50227500689" title="689" points="1220.9999999999993,-578.7499999999994,1151.9999999999998,-578.7499999999994,1152,-449.2499999999995,1199.4999999999995,-449.2499999999995,1199.4999999999995,-509.2499999999995,1264.4999999999995,-509.2499999999995,1264.4999999999995,-551.2499999999994,1220.9999999999998,-551.2499999999994,1220.9999999999993,-578.7499999999994" /><polygon id="50227500604" title="604" points="1231.3125000000005,-948.75,1231.3125000000005,-1097.2499999999993,1110.8125000000005,-1097.2499999999993,1110.8125000000005,-932.5000000000002,1149.8125000000005,-932.5000000000002,1149.8125000000005,-948.75,1231.3125000000005,-948.75" /><polygon id="50227500602B" title="602B" points="1105.8125000000002,-932.5000000000002,1105.8125000000002,-1004.2500000000001,1040.0625000000005,-1004.2500000000001,1040.0625000000005,-932.5000000000002,1105.8125000000002,-932.5000000000002" /><polygon id="50227500602A" title="602A" points="1105.8125000000005,-1009.2500000000001,1105.8125000000005,-1097.2499999999995,1006.5625000000006,-1097.2499999999995,1006.5625000000006,-1009.2500000000001,1105.8125000000005,-1009.2500000000001" /><polygon id="50227500602" title="602" points="1001.5625000000006,-1097.2499999999995,876.5625000000005,-1097.2499999999995,876.5625000000005,-932.5000000000001,1035.0625000000005,-932.5000000000001,1035.0625000000005,-1004.2499999999999,1001.5625000000005,-1004.2499999999999,1001.5625000000006,-1097.2499999999995" /><polygon id="50227500606" title="606" points="1178.9375000000005,-937.5,1178.9375000000005,-884.5,1231.3125000000005,-884.5,1231.3125000000005,-937.5,1178.9375000000005,-937.5" /><polygon id="50227500607" title="607" points="1231.3125000000005,-879.5,1134.9375000000005,-879.5,1134.9375000000005,-768.4999999999989,1231.3125000000005,-768.4999999999989,1231.3125000000005,-879.5" /><polygon id="50227500605" title="605" points="1129.9375000000005,-759.4375000000013,1129.9375000000005,-879.3437500000007,1040.0625000000005,-879.3437500000007,1040.0625000000005,-759.4375000000013,1129.9375000000005,-759.4375000000013" /><polygon id="50227500601" title="601" points="1035.0625000000005,-927.5000000000002,876.5625000000005,-927.5000000000002,876.5625000000005,-759.4375000000013,1035.0625000000005,-759.4375000000013,1035.0625000000005,-927.5000000000002" /><polygon id="50227500603" title="603" points="1040.0625000000005,-927.5000000000002,1040.0625000000005,-884.5,1173.9375000000005,-884.5,1173.9375000000005,-943.75,1154.8125000000005,-943.75,1154.8125000000005,-927.5000000000002,1040.0625000000005,-927.5000000000002" /><polygon id="50227500686" title="686" points="1047.5,-690.4999999999993,1047.5,-656.4999999999993,1137.5,-656.4999999999993,1137.5,-690.4999999999993,1047.5,-690.4999999999993" /><polygon id="50227500685" title="685" points="466.0000054747598,-435.7499999999994,466.0000054747598,-388.749999999999,537.0000054747597,-388.749999999999,537.0000054747597,-376.2499999999998,1281.5625000000005,-376.24999999999983,1281.5625000000005,-435.7499999999995,1264.499999999999,-435.74999999999943,1264.499999999999,-504.2499999999995,1204.4999999999995,-504.2499999999995,1204.4999999999995,-449.2499999999994,1220.7500000000005,-449.2499999999993,1220.75,-435.7499999999993,944.75,-435.7499999999994,944.75,-471.7499999999993,825.75,-471.7499999999993,825.75,-435.74999999999926,552.4999999999993,-435.74999999999926,552.4999999999994,-449.24999999999926,567.4999999999995,-449.2499999999993,567.4999999999995,-504.2499999999994,507.49999999999955,-504.2499999999994,507.49999999999955,-435.7499999999994,466.0000054747598,-435.7499999999994" /><polygon id="50227500699" title="699" points="437.68750000000045,-754.4375000000013,437.68750000000034,-695.5,825.75,-695.4999999999991,825.7500000000001,-659.4999999999995,944.7500000000001,-659.4999999999994,944.7499999999998,-695.499999999999,1182.75,-695.499999999999,1182.75,-754.4375000000013,437.68750000000045,-754.4375000000013" /><polygon id="50227500653" title="653" points="432.6875000000004,-922.2500000000026,33.74999999999869,-922.2499999999983,33.74999999999943,-33.750000000000114,436.24999999999983,-33.749999999999545,436.2499999999999,-388.74999999999886,461.00000547475975,-388.74999999999886,461.00000547475975,-435.74999999999915,432.6875000000004,-435.7499999999992,432.6875000000004,-922.2500000000026" /><polygon id="50227500641" title="641" points="554.5000054747597,-371.2499999999998,441.24999999999994,-371.2499999999998,441.24999999999994,-265.12500039541067,554.5000054747597,-265.12500039541067,554.5000054747597,-371.2499999999998" /><polygon id="50227500683" title="683" points="679.7500054747597,-371.2499999999997,559.5000054747594,-371.2499999999997,559.5000054747594,-265.12500039541067,679.7500054747597,-265.12500039541067,679.7500054747597,-371.2499999999997" /><polygon id="50227500640" title="640" points="844.0000000000002,-371.2499999999998,684.7500054747597,-371.24999999999966,684.7500054747599,-260.12500039541067,441.25000000000074,-260.12500039541067,441.2500000000007,-33.74999999999977,844.0000000000002,-33.74999999999977,844.0000000000002,-371.2499999999998" /><polygon id="50227500659A" title="659A" points="205.9375000000009,-972.2500000000028,159.00000547475975,-972.2500000000028,159.00000547475975,-927.250000000003,205.9375000000009,-927.250000000003,205.9375000000009,-972.2500000000028" /><polygon id="50227500659" title="659" points="176.3125000000004,-977.2500000000028,176.3125000000004,-1097.249999999998,33.749999999999545,-1097.25,33.749999999999204,-927.250000000003,154.00000547475975,-927.2500000000028,154.00000547475975,-977.2500000000028,176.3125000000004,-977.2500000000028" /><polygon id="50227500653E" title="653E" points="493.43750000000045,-795.9464745962171,437.68750000000045,-795.9464745962171,437.68750000000045,-759.4375000000013,493.43750000000045,-759.4375000000013,493.43750000000045,-795.9464745962171" /></svg>
