<svg version="1.1" id="Map" class="gen-by-synoptic-designer" xmlns="http://www.w3.org/2000/svg" xmlns:xlink="http://www.w3.org/1999/xlink" viewBox="33.74999999999811 -1097.500000000001 1702.5000497402868 1063.7500000000018" xml:space="preserve"><image width="1702.5000497402868" height="1063.7500000000018" xlink:href=""/><polygon id="502275001096" title="1096" points="444.7499999999995,-686.9999999999989,444.7499999999995,-574.2499999999994,510.4999999999995,-574.2499999999994,510.4999999999995,-559.7499999999993,542.9999999999995,-559.7499999999993,542.9999999999995,-587.2499999999995,625,-587.2499999999995,625,-686.9999999999989,444.7499999999995,-686.9999999999989" /><polygon id="502275001098" title="1098" points="455.9999999999995,-566.2499999999994,455.9999999999995,-440.7499999999993,502.4999999999995,-440.7499999999993,502.4999999999995,-566.2499999999994,455.9999999999995,-566.2499999999994" /><polygon id="502275001088" title="1088" points="620.5,-578.7499999999995,551.4999999999995,-578.7499999999995,551.4999999999995,-551.2499999999993,507.4999999999995,-551.2499999999993,507.4999999999995,-509.24999999999943,572.4999999999995,-509.2499999999994,572.4999999999995,-449.2499999999992,620.5,-449.2499999999992,620.5,-578.7499999999995" /><polygon id="502275001094" title="1094" points="633,-669.4999999999993,633,-481.7499999999992,722.9999999999995,-481.7499999999992,723,-688.4999999999989,683,-688.4999999999989,683,-669.4999999999993,633,-669.4999999999993" /><polygon id="502275001099" title="1099" points="633,-476.7499999999992,633,-440.7499999999992,723,-440.7499999999992,723,-476.7499999999992,633,-476.7499999999992" /><polygon id="502275001090" title="1090" points="735,-565.6249999999991,819.25,-565.6249999999991,819.25,-670.9999999999991,735,-670.9999999999991,735,-565.6249999999991" /><polygon id="502275001092" title="1092" points="819.2499999999999,-460.2499999999992,819.2499999999999,-565.6249999999991,734.9999999999999,-565.6249999999991,735,-442.24999999999915,744.7500000000005,-442.24999999999915,744.7500000000005,-457.9999999999994,781.7500000000005,-457.9999999999994,781.7500000000005,-442.2499999999992,801.25,-442.2499999999992,801.25,-460.2499999999992,819.2499999999999,-460.2499999999992" /><polygon id="502275001099C" title="1099C" points="825.7500000000001,-654.4999999999994,825.7500000000001,-476.7499999999993,944.75,-476.7499999999993,944.75,-654.4999999999994,825.7500000000001,-654.4999999999994" /><polygon id="502275001091" title="1091" points="951.25,-562.6249999999991,1035.5,-562.6249999999991,1035.5,-682.999999999999,951.25,-682.999999999999,951.25,-562.6249999999991" /><polygon id="502275001093" title="1093" points="951.25,-562.6249999999991,951.25,-460.2499999999996,1035.5,-460.2499999999996,1035.5,-562.6249999999991,951.25,-562.6249999999991" /><polygon id="502275001083" title="1083" points="1047.5,-690.4999999999993,1047.5,-656.4999999999993,1118.5,-656.4999999999993,1118.5,-690.4999999999993,1047.5,-690.4999999999993" /><polygon id="502275001095" title="1095" points="1047.5,-649.4999999999993,1047.5,-440.7499999999994,1087.2499999999998,-440.7499999999994,1087.2499999999998,-461.9999999999996,1137.5,-461.9999999999996,1137.5,-649.4999999999993,1047.5,-649.4999999999993" /><polygon id="502275001089" title="1089" points="1220.9999999999995,-551.2499999999994,1220.9999999999995,-578.7499999999997,1152,-578.7499999999997,1152,-449.2499999999995,1199.4999999999995,-449.2499999999995,1199.4999999999995,-509.2499999999995,1264.4999999999995,-509.2499999999995,1264.4999999999995,-551.2499999999994,1220.9999999999995,-551.2499999999994" /><polygon id="502275001087" title="1087" points="1269.4999999999993,-566.2499999999994,1269.4999999999993,-440.74999999999943,1317.25,-440.74999999999943,1317.25,-566.2499999999994,1269.4999999999993,-566.2499999999994" /><polygon id="502275001097" title="1097" points="1325.2499999999975,-686.9999999999991,1145.5,-686.9999999999991,1145.5,-587.2499999999997,1229.4999999999995,-587.2499999999997,1229.4999999999995,-559.7499999999994,1261.4999999999995,-559.7499999999994,1261.4999999999995,-574.2499999999994,1325.2499999999975,-574.2499999999994,1325.2499999999975,-686.9999999999991" /><polygon id="502275001030A" title="1030A" points="239.24999999999955,-311.75000000000057,239.24999999999955,-206.8077600163516,331.24999999999955,-206.8077600163516,331.24999999999955,-311.75000000000057,239.24999999999955,-311.75000000000057" /><polygon id="502275001030B" title="1030B" points="335.24999999999955,-311.75000000000057,335.24999999999955,-206.8077600163516,434.63678603884864,-206.8077600163516,434.63678603884864,-311.75000000000057,335.24999999999955,-311.75000000000057" /><polygon id="502275001030C" title="1030C" points="297.87499999999955,-383.62500000000057,297.87499999999955,-362.87500000000057,366.74999999999955,-362.87500000000057,366.74999999999955,-383.62500000000057,297.87499999999955,-383.62500000000057" /><polygon id="502275001030D" title="1030D" points="371.37499999999955,-383.62500000000057,371.37499999999955,-362.87500000000057,439.12499999999966,-362.87500000000057,439.12499999999966,-383.62500000000057,371.37499999999955,-383.62500000000057" /><polygon id="502275001031" title="1031" points="157.49999999999955,-152.62500000000057,157.49999999999955,-33.75000000000057,294.8194444444453,-33.75000000000057,294.8194444444453,-152.62500000000057,157.49999999999955,-152.62500000000057" /><polygon id="502275001029" title="1029" points="299.4444444444452,-152.62500000000057,299.4444444444452,-33.75000000000057,406.24999999999955,-33.75000000000057,406.24999999999955,-152.62500000000057,299.4444444444452,-152.62500000000057" /><polygon id="502275001025" title="1025" points="492.37499999999955,-201.62500000000057,492.37499999999955,-153.37500000000057,543.2499999999995,-153.37500000000057,543.2499999999995,-201.62500000000057,492.37499999999955,-201.62500000000057" /><polygon id="502275001024" title="1024" points="494.3750000000012,-370.7499999999992,494.3750000000012,-250.87499999999943,705.1249999999995,-250.87499999999943,705.1249999999995,-370.7499999999992,494.3750000000012,-370.7499999999992" /><polygon id="502275001020" title="1020" points="709.7499999999995,-370.7499999999992,709.7499999999995,-33.749999999999204,892.8750000000005,-33.749999999999204,892.8750000000005,-370.7499999999992,709.7499999999995,-370.7499999999992" /><polygon id="502275001021" title="1021" points="897.8660254037851,-200.7499999999998,897.8660254037851,-33.749999999999886,1018.7083333333342,-33.749999999999886,1018.7083333333342,-200.7499999999998,897.8660254037851,-200.7499999999998" /><polygon id="502275001019" title="1019" points="1023.3333333333342,-200.7499999999997,1023.3333333333342,-33.749999999999204,1146.8194444444457,-33.749999999999204,1146.8194444444457,-200.7499999999997,1023.3333333333342,-200.7499999999997" /><polygon id="502275001017" title="1017" points="1151.4444444444457,-200.74999999999943,1151.4444444444457,-33.750000000000085,1283.4375000000011,-33.750000000000114,1283.4375000000011,-200.74999999999943,1151.4444444444457,-200.74999999999943" /><polygon id="502275001015" title="1015" points="1288.0625000000014,-200.74999999999955,1288.0625000000014,-33.75000000000006,1419.8263888888891,-33.75000000000006,1419.8263888888891,-200.74999999999955,1288.0625000000014,-200.74999999999955" /><polygon id="502275001013" title="1013" points="1424.451388888889,-200.74999999999952,1424.451388888889,-33.75000000000017,1556.2222222222235,-33.75000000000017,1556.2222222222235,-200.74999999999952,1424.451388888889,-200.74999999999952" /><polygon id="502275001011" title="1011" points="1561.0625000000007,-152.0624999999992,1561.0625000000007,-33.74999999999912,1736.2500000000002,-33.74999999999912,1736.2500000000002,-152.0624999999992,1561.0625000000007,-152.0624999999992" /><polygon id="502275001009" title="1009" points="1620.875000000001,-308.2499999999992,1620.875000000001,-156.6874999999992,1736.250000000002,-156.6874999999992,1736.250000000002,-308.2499999999992,1620.875000000001,-308.2499999999992" /><polygon id="502275001007" title="1007" points="1565.8750013843535,-446.750000000001,1565.8750013843535,-312.8749999999992,1736.2500000000005,-312.8749999999992,1736.2500000000005,-446.750000000001,1565.8750013843535,-446.750000000001" /><polygon id="502275001006" title="1006" points="1384.7699501271334,-428.1249999999992,1384.7699501271334,-312.8749999999992,1561.2500013843533,-312.8749999999992,1561.2500013843533,-428.1249999999992,1384.7699501271334,-428.1249999999992" /><polygon id="502275001084" title="1084" points="897.5000000000008,-370.7499999999992,897.5000000000008,-264.24999999999943,990.5000000000008,-264.24999999999943,990.5000000000008,-370.7499999999992,897.5000000000008,-370.7499999999992" /><polygon id="502275001018" title="1018" points="995.1250000000008,-370.7499999999992,995.1250000000008,-264.24999999999943,1181.500000000001,-264.24999999999943,1181.500000000001,-370.7499999999992,995.1250000000008,-370.7499999999992" /><polygon id="502275001016" title="1016" points="1186.125000000001,-370.7499999999992,1186.125000000001,-264.24999999999943,1325.500000000001,-264.24999999999943,1325.500000000001,-370.7499999999992,1186.125000000001,-370.7499999999992" /><polygon id="502275001004" title="1004" points="1384.7699501271334,-561.7430555555549,1384.7699501271334,-432.7499999999992,1561.2500013843533,-432.7499999999992,1561.2500013843533,-561.7430555555549,1384.7699501271334,-561.7430555555549" /><polygon id="502275001005" title="1005" points="1565.8750013843533,-619.368055555555,1565.8750013843533,-451.375000000001,1736.2499999999993,-451.37500000000057,1736.249999999999,-619.368055555555,1565.8750013843533,-619.368055555555" /><polygon id="502275001003" title="1003" points="1565.8750013843533,-759.9999999950893,1565.8750013843533,-623.9930555555549,1736.250049740285,-623.9930555555549,1736.250049740285,-759.9999999950893,1565.8750013843533,-759.9999999950893" /><polygon id="502275001002" title="1002" points="1384.7699501271334,-692.3680555555549,1384.7699501271334,-566.3680555555549,1504.789015636834,-566.3680555555549,1504.789015636834,-692.3680555555549,1384.7699501271334,-692.3680555555549" /><polygon id="502275001001A" title="1001A" points="1443.859802497675,-805.9999999999992,1443.859802497675,-751.7497814924383,1497.8076810229024,-751.7497814924383,1497.8076810229024,-805.9999999999992,1443.859802497675,-805.9999999999992" /><polygon id="502275001001" title="1001" points="1443.8626127578934,-924.3749999999992,1443.8626127578934,-810.6249999999992,1563.5000000000018,-810.6249999999992,1563.5000000000018,-924.3749999999992,1443.8626127578934,-924.3749999999992" /><polygon id="502275001067" title="1067" points="1616.7508460495987,-918.5972222222227,1616.7508460495987,-764.6249999950893,1736.2500000000014,-764.6249999950893,1736.2500000000014,-918.5972222222227,1616.7508460495987,-918.5972222222227" /><polygon id="502275001063" title="1063" points="1438.7222222222229,-1097.2499999999993,1438.7222222222229,-977.4375000000013,1567.250005224715,-977.4375000000013,1567.250005224715,-1097.2499999999993,1438.7222222222229,-1097.2499999999993" /><polygon id="502275001061" title="1061" points="1303.6250000000005,-1097.2499999999986,1303.6250000000005,-977.4375000000009,1433.5954920640597,-977.4375000000009,1433.5954920640597,-1097.2499999999986,1303.6250000000005,-1097.2499999999986" /><polygon id="502275001062" title="1062" points="1303.6250000000005,-924.3749999999992,1303.6250000000005,-760.1309038924398,1439.233628068263,-760.1309038924398,1439.233628068263,-924.3749999999992,1303.6250000000005,-924.3749999999992" /><polygon id="502275001058" title="1058" points="1008.625000000001,-924.3749999999992,1008.625000000001,-760.1253493254544,1299.249075881499,-760.1253493254544,1299.249075881499,-924.3749999999992,1008.625000000001,-924.3749999999992" /><polygon id="502275001059" title="1059" points="1178.4999999999995,-1097.500000000001,1178.4999999999995,-977.4375000000013,1299.0000000000005,-977.4375000000013,1299.0000000000005,-1097.500000000001,1178.4999999999995,-1097.500000000001" /><polygon id="502275001057" title="1057" points="923.3750052247156,-1097.500000000001,923.3750052247156,-977.4375000000013,1173.8749999999995,-977.4375000000013,1173.8749999999995,-1097.500000000001,923.3750052247156,-1097.500000000001" /><polygon id="502275001056" title="1056" points="884.1250000000005,-924.3749999999992,884.1250000000005,-841.8749999999986,999.8750000000008,-841.8749999999986,999.8750000000008,-924.3749999999992,884.1250000000005,-924.3749999999992" /><polygon id="502275001058A" title="1058A" points="884.1250000000007,-837.2499999999992,884.1250000000007,-760.1249999999992,1004.0000000000007,-760.1249999999992,1004.0000000000007,-837.2499999999992,884.1250000000007,-837.2499999999992" /><polygon id="502275001050" title="1050" points="536.5000000000009,-925.1249999999992,536.5000000000009,-759.6249999999992,671.1250000000003,-759.6249999999992,671.1250000000003,-925.1249999999992,536.5000000000009,-925.1249999999992" /><polygon id="502275001048" title="1048" points="394.8750000000009,-925.1249999999992,394.8750000000009,-760.1249999999992,531.8750000000009,-760.1249999999992,531.8750000000009,-925.1249999999992,394.8750000000009,-925.1249999999992" /><polygon id="502275001053" title="1053" points="555.0138888888895,-1097.25,555.0138888888895,-977.2500000000011,747.0416666666677,-977.2500000000011,747.0416666666677,-1097.25,555.0138888888895,-1097.25" /><polygon id="502275001047" title="1047" points="341.88888888888937,-1097.25,341.88888888888937,-977.2500000000011,550.3888888888895,-977.2500000000011,550.3888888888895,-1097.25,341.88888888888937,-1097.25" /><polygon id="502275001045A" title="1045A" points="33.74999999999841,-939.6250000000006,33.74999999999841,-879.2500000000006,124.62499999999955,-879.2500000000006,124.62499999999955,-939.6250000000006,33.74999999999841,-939.6250000000006" /><polygon id="502275001037" title="1037" points="33.74999999999833,-435.73480473652194,33.74999999999833,-326.17990387905195,153.87499999999955,-326.17990387905195,153.87499999999955,-435.73480473652194,33.74999999999833,-435.73480473652194" /><polygon id="502275001023" title="1023" points="705.1249999999995,-201.62500000000057,556.2499999999995,-201.62500000000057,556.2499999999995,-148.75000000000057,555.1363802503112,-148.71467258823827,555.1363802503113,-33.74999999999963,705.1249999999995,-33.75000000000057,705.1249999999995,-201.62500000000057" /><polygon id="502275001027" title="1027" points="550.511380250311,-148.71467258823827,487.77039629069026,-148.71467258823824,487.7499999999995,-152.62500000000057,410.8749999999995,-152.62500000000057,410.8749999999995,-33.75000000000058,550.5113802503109,-33.75000000000031,550.511380250311,-148.71467258823827" /><polygon id="502275001033" title="1033" points="152.87499999999952,-160.01725263662095,119.64104888733027,-195.90469749022571,33.74999999999811,-195.90469749022571,33.74999999999953,-33.750000000000256,152.87499999999952,-33.75000000000054,152.87499999999952,-160.01725263662095" /><polygon id="502275001035" title="1035" points="33.74999999999814,-200.52969749022594,121.91601084687964,-200.52969749022571,153.87499999999955,-222.90762260880246,153.87499999999955,-321.55490387905195,33.74999999999853,-321.55490387905195,33.74999999999814,-200.52969749022594" /><polygon id="502275001039" title="1039" points="33.74999999999835,-440.35980473652194,342.37499999999955,-440.35980473652194,342.37499999999955,-550.2500000000006,336.62499999999955,-550.2500000000006,336.62499999999955,-874.6250000000006,33.749999999999545,-874.6250000000006,33.74999999999835,-440.35980473652194" /><polygon id="502275001045" title="1045" points="128.74999999999955,-879.2500000000006,336.74999999999955,-879.25,336.74999999999903,-1097.2498243331174,33.74999999999956,-1097.2498243331174,33.749999999998764,-944.2500000000006,129.24999999999966,-944.2500000000006,128.74999999999955,-879.2500000000006" /><polygon id="502275001055" title="1055" points="919.2500052247156,-1097.2499999999995,751.6666666666677,-1097.2500000000005,751.6666666666677,-972.6250000000011,919.2500052247156,-972.8125000000013,919.2500052247156,-1097.2499999999995" /><polygon id="502275001065" title="1065" points="1616.7507616343678,-923.2222222222227,1736.2500000000007,-923.2222222222227,1736.2500000000005,-1097.25,1571.875005224715,-1097.2500000000002,1571.875005224715,-977.4375000000013,1616.749772085321,-977.4383190516364,1616.7507616343678,-923.2222222222227" /><polygon id="502275001054" title="1054" points="675.2500000000009,-929.7499999999992,675.2500000000009,-760.1249999999992,879.5000000000007,-760.1249999999992,879.5000000000005,-928.9999999999993,675.2500000000009,-929.7499999999992" /><polygon id="502275001099A" title="1099A" points="1231.3750000000002,-746.9999999999992,1178.25,-746.9999999999992,1178.25,-755.4999999999992,626.5000000000009,-755.4999999999992,626.5000000000009,-695.624988709506,825.7500000000001,-695.624988709506,825.7500000000001,-659.4999999999994,944.7499999999999,-659.4999999999994,944.7499999999999,-695.4999999999991,1231.3750000000002,-695.499999999999,1231.3750000000002,-746.9999999999992" /><polygon id="502275001099B" title="1099B" points="1325.5000000000007,-375.3749999999992,1325.5000000000007,-435.74999999999943,1264.4999999999995,-435.74999999999943,1264.4999999999995,-504.2499999999995,1204.4999999999995,-504.2499999999995,1204.4999999999995,-449.2499999999994,1220.7500000000005,-449.24999999999926,1220.75,-435.7499999999993,944.75,-435.7499999999993,944.75,-471.7499999999993,825.75,-471.7499999999993,825.75,-435.7499999999992,775.2500000000005,-435.7499999999992,775.2500000000005,-451.4999999999994,751.2500000000005,-451.4999999999994,751.2500000000005,-435.74999999999915,552.4999999999994,-435.74999999999926,552.4999999999994,-449.24999999999926,567.4999999999995,-449.24999999999926,567.4999999999995,-504.24999999999943,507.49999999999955,-504.24999999999943,507.49999999999955,-435.7499999999993,494.40131374366547,-435.7499999999993,494.40131374366547,-375.3749999999992,1325.5000000000007,-375.3749999999992" /><polygon id="502275001030" title="1030" points="439.12499999999966,-358.25000000000057,293.24999999999955,-358.25000000000057,293.24999999999955,-383.62500000000057,234.87499999999955,-383.62500000000057,234.87499999999955,-315.75000000000057,439.12499999999966,-315.7500000000006,439.12499999999966,-358.25000000000057" /><polygon id="502275001066" title="1066" points="1568.1250000000018,-805.9999999999991,1612.12790115212,-806.0008031383913,1612.124856514732,-972.8125000000014,341.37499999999886,-972.625000000001,341.37499999999886,-554.8750000000003,436.24999999999955,-554.8750000000003,436.24999999999955,-695.5,621.8750000000006,-695.6249887095059,621.8750000000006,-755.4999999999991,390.25000000000045,-755.4999999999992,390.25000000000045,-929.7499999999992,675.2500000000007,-929.7499999999992,879.5000000000001,-928.9999999999993,1568.1250000000018,-928.9999999999992,1568.1250000000018,-805.9999999999991" /><polygon id="502275001032" title="1032" points="124.93353467702701,-196.99650794980064,157.49999999999955,-161.8298428610543,157.49999999999955,-157.25000000000054,487.74999999999955,-157.25000000000054,487.7499999999995,-206.25000000000054,443.7499999999996,-206.25000000000054,443.74999999999943,-197.75000000000028,230.24999999999957,-197.75000000000057,230.24999999999955,-388.25000000000057,436.25000000000006,-388.25000000000057,436.25000000000006,-550.2500000000006,346.99999999999955,-550.2500000000006,346.99999999999955,-435.7348047365218,158.49999999999955,-435.73480473652165,158.49999999999955,-220.50000000000063,124.93353467702701,-196.99650794980064" /><polygon id="502275001032A" title="1032A" points="489.75000000000136,-435.7348077530115,441.2499999999999,-435.7499999999993,441.2499999999999,-440.7499999999993,436.25,-440.7499999999993,436.25000000000006,-388.25000000000057,443.74999999999966,-388.25000000000057,443.74999999999955,-206.2500000000005,705.1249999999995,-206.25000000000054,705.1249999999995,-246.24999999999918,489.75000000000085,-246.24999999999926,489.75000000000136,-435.7348077530115" /></svg>
