<svg version="1.1" id="Map" class="gen-by-synoptic-designer" xmlns="http://www.w3.org/2000/svg" xmlns:xlink="http://www.w3.org/1999/xlink" viewBox="33.7499999999975 -1097.2513495703238 1702.5000000000032 1063.501349570327" xml:space="preserve"><image width="1702.5000000000032" height="1063.501349570327" xlink:href=""/><polygon id="50227500854B" title="854B" points="108.7499999999995,-206.1250000000002,108.7499999999995,-186.06249999999997,141.00000000000006,-186.06249999999997,141.00000000000006,-206.1250000000002,108.7499999999995,-206.1250000000002" /><polygon id="50227500845" title="845" points="295.125,-146.12499999999886,803.5,-146.12499999999886,803.5,-193.87499999999886,759.75,-193.87499999999886,759.75,-206.12499999999977,295.1250000000001,-206.12499999999983,295.125,-146.12499999999886" /><polygon id="50227500862" title="862" points="33.75000000000002,-546.5,33.749999999997804,-427.25,39.12500000000001,-427.25,39.12500000000001,-440.3750000000001,141.00000000000006,-440.3750000000001,141.00000000000006,-548.75,72.00000000000004,-548.75,72.00000000000003,-546.5,33.75000000000002,-546.5" /><polygon id="50227500860" title="860" points="33.7499999999995,-422.3750000000002,33.7499999999995,-275.0000000000002,141.00000000000006,-275.0000000000002,141.00000000000003,-420,140.7499999999995,-420,140.7499999999995,-435.50000000000034,44,-435.50000000000034,44,-422.3750000000002,33.7499999999995,-422.3750000000002" /><polygon id="50227500858" title="858" points="33.74999999999784,-270.1250000000002,33.74999999999784,-211.0000000000002,141.00000000000006,-211.0000000000002,141.00000000000006,-270.1250000000002,33.74999999999784,-270.1250000000002" /><polygon id="50227500859" title="859" points="210.74999999999991,-525.9999999999991,210.75000000000003,-441.74999999999915,276.8749999999999,-441.74999999999915,276.8749999999999,-525.9999999999991,210.74999999999991,-525.9999999999991" /><polygon id="50227500842" title="842" points="759.25,-287.25,653,-287.25,653,-211,759.25,-211.00000000000006,759.25,-287.25" /><polygon id="50227500843" title="843" points="653,-371.7499999999991,653,-292.125,759.25,-292.125,759.25,-371.7499999999991,653,-371.7499999999991" /><polygon id="50227500841" title="841" points="764.125,-371.8124999999991,764.125,-198.8124999999991,920.875,-198.8124999999991,920.875,-371.8124999999991,764.125,-371.8124999999991" /><polygon id="50227500850" title="850" points="372.00000000000006,-141.2499999999987,372.00000000000006,-52.99999999999871,374.37500000000006,-52.99999999999871,374.37500000000006,-33.750000000000526,492.1250000000001,-33.75000000000058,492.1250000000001,-40.124999999999616,479.8750000000001,-40.124999999999616,479.8750000000001,-141.2499999999987,372.00000000000006,-141.2499999999987" /><polygon id="50227500848" title="848" points="484.75000000000006,-141.2499999999988,484.75000000000006,-45.374999999999716,497.3750000000001,-45.37499999999972,497.3750000000001,-33.74999999999971,592.875,-33.750000000000156,592.875,-141.2499999999988,484.75000000000006,-141.2499999999988" /><polygon id="50227500844" title="844" points="712.875,-141.2499999999991,712.875,-57.25,715.25,-57.25,715.25,-33.750000000000256,803.5,-33.750000000000256,803.5,-141.2499999999991,712.875,-141.2499999999991" /><polygon id="50227500846" title="846" points="597.75,-141.24999999999886,597.75,-33.74999999999973,708,-33.749999999999744,708,-141.24999999999886,597.75,-141.24999999999886" /><polygon id="50227500841A" title="841A" points="808.375,-33.75000000000003,920.8750000000002,-33.75,920.8750000000002,-193.87499999999906,808.375,-193.87499999999912,808.375,-33.75000000000003" /><polygon id="50227500852" title="852" points="145.8750000000001,-548.7499999999991,145.87500000000014,-211,409.2500000000002,-211,409.2500000000001,-371.7499999999991,205.87500000000006,-371.7499999999991,205.87500000000006,-548.7499999999991,145.8750000000001,-548.7499999999991" /><polygon id="50227500851" title="851" points="295.12500000000006,-141.24999999999886,295.12500000000006,-33.75000000000068,367.12500000000006,-33.75000000000068,367.12500000000006,-141.24999999999886,295.12500000000006,-141.24999999999886" /><polygon id="50227500849" title="849" points="414.12500000000017,-371.74999999999886,414.12500000000017,-210.99999999999977,535.25,-210.99999999999977,535.25,-371.74999999999886,414.12500000000017,-371.74999999999886" /><polygon id="50227500808" title="808" points="1509.25,-1097.249999999999,1303,-1097.249999999999,1303,-953.2499999999997,1509.25,-953.2499999999997,1509.25,-1097.249999999999" /><polygon id="50227500812" title="812" points="1514.25,-1097.249999999999,1514.25,-953.2499999999997,1736.2500000000002,-953.2499999999997,1736.2500000000002,-1097.249999999999,1514.25,-1097.249999999999" /><polygon id="50227500813B" title="813B" points="1490.375,-895.2499999999995,1490.375,-843.3749999999995,1541.375,-843.3749999999995,1541.375,-895.2499999999995,1490.375,-895.2499999999995" /><polygon id="50227500811" title="811" points="1485.375,-895.2499999999995,1328.625,-895.2499999999995,1328.625,-759.4374999999995,1485.375,-759.4374999999995,1485.375,-895.2499999999995" /><polygon id="50227500896" title="896" points="444.74999999999966,-686.9999999999989,444.74999999999966,-574.2499999999992,510.4999999999991,-574.2499999999992,510.4999999999991,-559.7499999999991,542.9999999999991,-559.7499999999991,542.9999999999991,-587.2499999999993,624.9999999999991,-587.2499999999993,624.9999999999991,-686.9999999999989,444.74999999999966,-686.9999999999989" /><polygon id="50227500800" title="800" points="825.7499999999997,-654.4999999999993,825.7499999999997,-476.7499999999992,944.7499999999995,-476.7499999999992,944.7499999999995,-654.4999999999993,825.7499999999997,-654.4999999999993" /><polygon id="50227500888" title="888" points="551.4999999999991,-551.2499999999991,504.9999999999996,-551.2499999999991,504.9999999999996,-509.4999999999991,572.4999999999995,-509.4999999999991,572.4999999999995,-449.4999999999991,620.5,-449.4999999999991,620.4999999999995,-578.7499999999991,551.4999999999991,-578.7499999999991,551.4999999999991,-551.2499999999991" /><polygon id="50227500898" title="898" points="455.999999999999,-566.2499999999992,455.9999999999995,-441.74999999999915,499.7499999999996,-441.74999999999915,499.7499999999996,-566.2499999999992,455.999999999999,-566.2499999999992" /><polygon id="50227500894" title="894" points="632.9999999999995,-669.4999999999991,632.9999999999995,-481.9999999999991,722.9999999999995,-481.9999999999991,722.9999999999995,-686.9999999999991,683,-687.0185185185168,682.9999999999995,-669.4999999999991,632.9999999999995,-669.4999999999991" /><polygon id="50227500884" title="884" points="632.9999999999995,-476.74999999999886,632.9999999999995,-442.1249999999991,722.9999999999995,-442.1249999999991,722.9999999999995,-476.74999999999886,632.9999999999995,-476.74999999999886" /><polygon id="50227500890" title="890" points="819.2499999999995,-670.9999999999989,734.9999999999995,-670.9999999999989,734.9999999999995,-565.6249999999989,819.2499999999995,-565.6249999999989,819.2499999999995,-670.9999999999989" /><polygon id="50227500892" title="892" points="734.9999999999995,-565.6249999999989,734.9999999999995,-443.3749999999991,744.75,-443.3749999999991,744.75,-457.99999999999915,781.75,-457.99999999999915,781.7500000000005,-443.3749999999991,801.2499999999995,-443.3749999999991,801.2499999999995,-460.24999999999903,819.2499999999995,-460.24999999999903,819.2499999999995,-565.6249999999989,734.9999999999995,-565.6249999999989" /><polygon id="50227500893" title="893" points="1035.4999999999995,-562.6249999999989,951.2499999999995,-562.6249999999989,951.2499999999995,-460.249999999999,1035.4999999999995,-460.249999999999,1035.4999999999995,-562.6249999999989" /><polygon id="50227500891" title="891" points="951.2499999999995,-682.9999999999989,951.2499999999995,-562.624999999999,1035.4999999999995,-562.624999999999,1035.4999999999995,-682.9999999999989,951.2499999999995,-682.9999999999989" /><polygon id="50227500895" title="895" points="1047.4999999999995,-649.4999999999991,1047.4999999999995,-440.74999999999915,1087.2499999999984,-440.74999999999915,1087.2499999999984,-461.9999999999994,1137.4999999999995,-461.9999999999994,1137.4999999999995,-649.4999999999991,1047.4999999999995,-649.4999999999991" /><polygon id="50227500897" title="897" points="1325.249999999999,-686.9999999999989,1145.499999999999,-686.9999999999989,1145.499999999999,-587.2499999999994,1229.499999999999,-587.2499999999994,1229.499999999999,-559.749999999999,1261.499999999999,-559.749999999999,1261.499999999999,-574.249999999999,1325.249999999999,-574.249999999999,1325.249999999999,-686.9999999999989" /><polygon id="50227500889" title="889" points="1264.499999999999,-509.2499999999994,1264.499999999999,-551.2499999999993,1220.999999999999,-551.2499999999993,1220.999999999999,-578.7499999999995,1151.9999999999993,-578.7499999999995,1151.9999999999995,-449.2499999999994,1199.499999999999,-449.2499999999994,1199.499999999999,-509.24999999999926,1264.499999999999,-509.2499999999994" /><polygon id="50227500887" title="887" points="1269.499999999999,-566.2499999999991,1269.4999999999995,-442.1249999999991,1317.2499999999995,-442.1249999999991,1317.2499999999995,-566.2499999999991,1269.499999999999,-566.2499999999991" /><polygon id="50227500802" title="802" points="925.5000000000001,-1097.2499999999993,806,-1097.2499999999993,806,-953.9374999999995,938,-953.9374999999995,938,-1003.3124999999995,925.5000000000001,-1003.3124999999995,925.5000000000001,-1097.2499999999993" /><polygon id="50227500801" title="801" points="806,-760.4999999999995,938,-760.4999999999995,1048.7500000000002,-760.4999999999999,1048.7500000000002,-900.1875000000001,938.0000000000006,-900.1875000000002,938,-948.9374999999995,806,-948.9374999999995,806,-760.4999999999995" /><polygon id="50227500807" title="807" points="1053.7500000000002,-760.4999999999999,1186.3750000000002,-760.4999999999999,1186.3750000000002,-900.1875,1154,-900.1875,1120.0625000000002,-900.1875,1053.7500000000002,-900.1875,1053.7500000000002,-760.4999999999999" /><polygon id="50227500806" title="806" points="1053.75,-953.9374999999998,1186.375,-953.9374999999998,1186.375,-1097.2499999999995,1053.75,-1097.2499999999995,1053.75,-953.9374999999998" /><polygon id="50227500804" title="804" points="1048.75,-1008.3124999999995,1048.75,-1097.2499999999993,934,-1097.2499999999993,934,-1065.2499999999995,930.5,-1065.2499999999995,930.5,-1008.3124999999995,1048.75,-1008.3124999999995" /><polygon id="50227500805A" title="805A" points="988,-953.9374999999998,1042,-953.9374999999998,1042,-1003.3124999999997,988,-1003.3124999999997,988,-953.9374999999998" /><polygon id="50227500805" title="805" points="983,-1003.3124999999995,943,-1003.3124999999995,943,-905.1874999999997,1053.75,-905.1874999999997,1067.1875000000002,-905.1875000000001,1191.375,-905.1875,1191.375,-945.9374999999998,1154,-945.9374999999997,1154,-948.9374999999998,1090.75,-948.9374999999997,983,-948.9374999999997,983,-1003.3124999999995" /><polygon id="50227500883" title="883" points="1047.4999999999995,-690.4999999999991,1047.4999999999995,-656.4999999999991,1137.4999999999995,-656.4999999999991,1137.4999999999995,-690.4999999999991,1047.4999999999995,-690.4999999999991" /><polygon id="50227500899" title="899" points="595.7693879571099,-755.4998033960841,596.016779505537,-695.4999999999993,825.7499999999997,-695.4999999999986,825.7499999999997,-659.4999999999992,944.7499999999997,-659.4999999999992,944.7499999999997,-695.4999999999986,1268.8749999999995,-695.4999999999986,1268.8749999999995,-703.4999999999986,1300.25,-703.4999999999986,1300.25,-755.4999999999995,595.7693879571099,-755.4998033960841" /><polygon id="50227500885" title="885" points="775.25,-436.8749999999991,775.25,-451.49999999999903,751.25,-451.49999999999903,751.25,-436.8749999999991,552.2499999999994,-436.8749999999991,552.2499999999994,-449.4999999999991,567.2499999999995,-449.4999999999991,567.2499999999995,-504.2499999999991,504.9999999999996,-504.2499999999991,504.99999999999966,-436.87499999999915,501.75,-436.8749999999991,501.75,-384.7499999999991,549.75,-384.7499999999991,549.75,-376.6249999999991,1264.2499999999995,-376.6249999999991,1264.2499999999995,-504.2499999999991,1204.499999999999,-504.24999999999915,1204.499999999999,-449.49999999999915,1220.7500000000005,-449.4999999999991,1220.75,-436.8749999999991,944.7499999999995,-436.8749999999991,944.7499999999995,-471.749999999999,825.7499999999995,-471.749999999999,825.7499999999995,-436.8749999999991,775.25,-436.8749999999991" /><polygon id="50227500854" title="854" points="290.25000000000006,-206.125,145.74999999999955,-206.125,145.74999999999955,-181.06249999999977,108.62499999999955,-181.06249999999977,108.62499999999953,-141.12499999999977,39.25000000000007,-141.12499999999977,39.250000000000085,-150.125,33.749999999999545,-150.125,33.749999999999545,-33.74999999999977,290.25,-33.75,290.25000000000006,-206.125" /><polygon id="50227500847" title="847" points="540.125,-211,648.125,-211,648.125,-371.7499999999991,540.125,-371.7499999999991,540.125,-211" /><polygon id="50227500854A" title="854A" points="33.75,-206.12499999999997,33.75,-155,44.12500000000003,-155,44.12500000000003,-146,103.75,-145.99999999999997,103.75,-206.12499999999997,33.75,-206.12499999999997" /><polygon id="50227500855" title="855" points="210.8541717201168,-436.8749999999991,210.8541717201168,-376.6249999999991,306.875,-376.6249999999991,306.875,-436.8749999999991,210.8541717201168,-436.8749999999991" /><polygon id="50227500856" title="856" points="311.75,-436.8749999999991,311.75,-376.6249999999991,496.875,-376.6249999999991,496.875,-436.8749999999991,311.75,-436.8749999999991" /><polygon id="50227500838" title="838" points="1149.937499999999,-65.24999999999727,1150.249999999999,-33.74999999999724,1344.4999999999986,-33.74999999999726,1344.7499999999989,-65.24999999999731,1344.4999999999986,-153.06249999999727,1150.249999999999,-153.06249999999727,1150.249999999999,-65.24999999999727,1149.937499999999,-65.24999999999727" /><polygon id="50227500840" title="840" points="1207.674282338554,-371.7499999999965,925.7500000000002,-371.7499999999964,925.7499999999989,-33.7499999999967,1144.999999999999,-33.75,1144.999999999999,-207.18749999999727,1207.6871196902787,-207.18749999999733,1207.674282338554,-371.7499999999965" /><polygon id="50227500825" title="825" points="1562.8124999999995,-207.18749999999727,1562.8124999999995,-302.71261485231906,1309.812499999999,-302.71261485231946,1309.8124999999993,-207.18749999999727,1562.8124999999995,-207.18749999999727" /><polygon id="50227500820" title="820" points="1269.687499999999,-207.18749999999727,1269.687499999999,-235.93749999999727,1304.5624999999993,-235.9374999999973,1304.5624999999995,-349.55793970332115,1304.5624999999995,-371.7499999999965,1256.937499999999,-371.7499999999965,1256.937499999999,-351.4999999999966,1251.687499999999,-351.49999999999636,1251.687499999999,-371.6874999999965,1212.9242628522843,-371.6874999999965,1212.937499999999,-207.18749999999727,1269.687499999999,-207.18749999999727" /><polygon id="50227500823" title="823" points="1611.8124999999995,-351.94434360056005,1309.8124999999993,-351.94434360056005,1309.8124999999993,-307.9626148523196,1568.0624999999993,-307.9626148523196,1568.0624999999993,-158.3124999999975,1611.8124999999995,-158.31249999999724,1611.8124999999995,-351.94434360056005" /><polygon id="50227500821" title="821" points="1335.3749999999986,-577.4374999999973,1335.3749999999986,-357.19434360055993,1472.249999999999,-357.19434360055993,1472.249999999999,-577.4374999999973,1335.3749999999986,-577.4374999999973" /><polygon id="50227500826" title="826" points="1617.062499999999,-379.0752556964047,1617.062499999999,-271.0624999999974,1736.2499999999998,-271.0624999999974,1736.2499999999998,-379.0752556964047,1617.062499999999,-379.0752556964047" /><polygon id="50227500828" title="828" points="1617.0624999999995,-265.81249999999727,1617.0624999999995,-158.31249999999739,1736.25,-158.31249999999739,1736.25,-265.81249999999727,1617.0624999999995,-265.81249999999727" /><polygon id="50227500830" title="830" points="1736.2500000000007,-153.06249999999727,1526.999999999999,-153.06249999999724,1526.9999999999989,-33.749999999996874,1736.2499999999993,-33.749999999996874,1736.2500000000007,-153.06249999999727" /><polygon id="50227500834" title="834" points="1521.749999999999,-153.06249999999724,1349.7499999999986,-153.06249999999727,1349.7499999999989,-33.74999999999709,1521.749999999999,-33.74999999999706,1521.749999999999,-153.06249999999724" /><polygon id="50227500829" title="829" points="1150.249999999999,-202.31249999999747,1150.249999999999,-158.3124999999975,1568.062499999999,-158.31249999999747,1568.062499999999,-202.31249999999756,1150.249999999999,-202.31249999999747" /><polygon id="50227500829A" title="829A" points="1274.937499999999,-230.6874999999972,1274.937499999999,-207.18749999999727,1304.5624999999993,-207.18749999999727,1304.5624999999993,-230.6874999999973,1274.937499999999,-230.6874999999972" /><polygon id="50227500821A" title="821A" points="1283.2499999999986,-436.87499999999636,1283.2499999999986,-376.6249999999965,1309.8124999999993,-376.6249999999965,1309.8124999999995,-357.19434360055993,1330.1249999999986,-357.19434360055993,1330.1249999999986,-436.8749999999999,1283.2499999999986,-436.87499999999636" /><polygon id="50227500815" title="815" points="1586.9999999999995,-722.3177488173504,1546.3750000000005,-754.4375,1305.2500000000005,-754.4375,1305.2500000000005,-695.499999999999,1337.2499999999986,-695.4999999999964,1337.2499999999986,-582.6874999999975,1477.499999999999,-582.6874999999975,1477.499999999999,-351.94434360056005,1611.8124999999995,-351.94434360056005,1611.8124999999995,-539.9399167394267,1586.9999999999995,-539.9399167394267,1586.9999999999995,-722.3177488173504" /><polygon id="50227500818" title="818" points="1592.2499999999995,-717.5624999999973,1592.2499999999995,-545.1899167394266,1736.2499999999989,-545.1899167394266,1736.2499999999993,-717.5624999999973,1592.2499999999995,-717.5624999999973" /><polygon id="50227500824" title="824" points="1617.0624999999995,-539.9399167394267,1617.0624999999989,-384.07525569640484,1736.2499999999993,-384.0752556964048,1736.2499999999993,-539.9399167394267,1617.0624999999995,-539.9399167394267" /><polygon id="50227500814" title="814" points="1593.125,-948.2499999999998,1593.125,-895.2499999999998,1546.374999999999,-895.2499999999972,1546.3741269015575,-760.6528338354468,1594.2345089239286,-722.8124999999973,1736.2499999999989,-722.812499999997,1736.2499999999989,-948.25,1593.125,-948.2499999999998" /><polygon id="50227500813A" title="813A" points="1490.374999999999,-831.4375,1490.374999999999,-759.6875,1541.1250000000005,-759.6875,1541.1250000000005,-831.4375,1490.374999999999,-831.4375" /><polygon id="50227500809" title="809" points="1297.7500000000005,-948.25,1297.7500000000005,-948.2500000000001,1191.1250000000005,-948.2500000000001,1191.1250000000005,-761.6874999999997,1323.3750000000005,-761.6776327909062,1323.3750000000005,-948.25,1297.7500000000005,-948.25" /><polygon id="50227500813" title="813" points="1328.3750000000005,-948.25,1328.3750000000005,-900.2499999999999,1587.0000000000005,-900.2499999999999,1587.0000000000005,-948.25,1328.3750000000005,-948.25" /><polygon id="50227500810" title="810" points="1191.1250000000005,-1097.2499999999995,1297.7500000000005,-1097.2499999999995,1297.7500000000005,-953.2500000000001,1191.1250000000005,-953.2500000000001,1191.1250000000005,-1097.2499999999995" /><polygon id="50227500868" title="868" points="33.749999999999986,-856.1875000000003,163.26568255752863,-856.1875000000003,163.26568255752863,-1097.2499999999986,33.75,-1097.2499999999986,33.749999999999986,-856.1875000000003" /><polygon id="50227500869" title="869" points="168.51568255752863,-960.5000000000009,280.63939169049905,-960.501349570324,280.63939169049905,-1097.2513495703236,168.51568255752863,-1097.2500000000005,168.51568255752863,-960.5000000000009" /><polygon id="50227500870" title="870" points="285.88941116589586,-960.500763274499,420.6904020679474,-960.500763274499,420.69040024444644,-1097.2500000000005,285.8894093423949,-1097.2500000000005,285.88941116589586,-960.500763274499" /><polygon id="50227500871" title="871" points="425.9404011561969,-960.5000000000009,545.9360480606556,-960.5000000000009,545.9360480606556,-1097.2500000000005,425.9404011561969,-1097.2500000000005,425.9404011561969,-960.5000000000009" /><polygon id="50227500875" title="875" points="551.1860480606556,-960.5000000000009,675.7500000000005,-960.5000000000009,675.7500000000005,-1097.2500000000005,551.1860480606556,-1097.2500000000005,551.1860480606556,-960.5000000000009" /><polygon id="50227500876" title="876" points="681.0000000000005,-960.5000000000009,800.7500000000005,-960.5000000000009,800.7500000000005,-1097.2499999999995,681.0000000000005,-1097.2499999999995,681.0000000000005,-960.5000000000009" /><polygon id="50227500857" title="857" points="168.5154049008166,-619.9380219835751,216.50000000000006,-619.9913149960521,216.50000000000006,-695.6492862894717,495.1403710081796,-695.4999999999998,495.14037100817956,-700.4999999999995,590.7695374141658,-700.4999999999994,590.5195348750364,-755.4777872057185,225.49999999999966,-755.500324144094,225.49999999999955,-905.5000000000007,595.7499999999995,-905.5000000000003,595.769576127871,-955.2500000000008,168.51568255752863,-955.250000000001,168.5154049008166,-619.9380219835751" /><polygon id="50227500874" title="874" points="484.86810054730864,-760.73104165191,590.5000071324555,-760.73104165191,590.4999928675436,-900.2500000000006,484.86808628239675,-900.2500000000006,484.86810054730864,-760.73104165191" /><polygon id="50227500873" title="873" points="355.7500147223564,-760.7384506597474,479.61809364357504,-760.7384506597474,479.6180789212183,-900.2500000000006,355.74999999999966,-900.2500000000006,355.7500147223564,-760.7384506597474" /><polygon id="50227500872" title="872" points="230.7500152067107,-760.7462955051346,350.50000760335513,-760.7462955051346,350.4999923966441,-900.2500000000005,230.74999999999966,-900.2500000000005,230.7500152067107,-760.7462955051346" /><polygon id="50227500866" title="866" points="33.79596857651268,-709.7463673359366,163.26568255752863,-709.7463673359366,163.26568255752863,-850.9375000000007,81.5,-850.9375000000003,81.5,-843.6875000000003,33.7499999999975,-843.6875000000003,33.79596857651268,-709.7463673359366" /><polygon id="50227500864" title="864" points="33.75000000000006,-553.6250000000003,163.26568255752863,-553.6250000000003,163.26568255752863,-704.7463673359366,33.75000000000006,-704.7463673359366,33.75000000000006,-553.6250000000003" /><polygon id="50227500863" title="863" points="168.51568255752863,-553.6250000000003,205.875,-553.6250000000003,205.875,-614.7297889974777,168.51568255752863,-614.7297889974777,168.51568255752863,-553.6250000000003" /><polygon id="50227500861" title="861" points="281.7499999999999,-441.74999999999915,436.25,-441.74999999999915,436.25000000000006,-690.5000000000003,221.75000000000006,-690.5000000000003,221.75000000000006,-614.7471425526809,210.74999999999997,-614.7349256498179,210.74999999999997,-541.75,281.7499999999999,-541.75,281.7499999999999,-441.74999999999915" /><polygon id="50227500877A" title="877A" points="595.7500000751147,-760.761145263145,671.9286961640934,-760.738830620528,671.9286960889783,-905.2500000000005,595.7499999999997,-905.2500000000005,595.7500000751147,-760.761145263145" /><polygon id="50227500877" title="877" points="671.9286961610347,-760.7484915305379,800.7500000360286,-760.7514197996624,800.7499999639723,-955.2500000000009,595.7695761278709,-955.2500000000009,595.7499999999995,-905.2500000002907,671.9286960889783,-905.2500000000005,671.9286961610347,-760.7484915305379" /></svg>
