<svg version="1.1" id="Map" class="gen-by-synoptic-designer" xmlns="http://www.w3.org/2000/svg" xmlns:xlink="http://www.w3.org/1999/xlink" viewBox="33.749999999999545 -1097.25 1702.5000000000023 1063.5000000000007" xml:space="preserve"><image width="1702.5000000000023" height="1063.5000000000007" xlink:href=""/><polygon id="50227500276" title="276" points="153.74999999999974,-1097.25,153.74999999999974,-983.5000000000002,33.749999999999545,-983.5000000000002,33.749999999999545,-1097.25,153.74999999999974,-1097.25" /><polygon id="50227500273" title="273" points="153.7499999999997,-978.5000000000002,153.7499999999997,-906.5000000000002,98.74999999999976,-906.5000000000002,98.74999999999976,-978.5000000000002,153.7499999999997,-978.5000000000002" /><polygon id="50227500275" title="275" points="232.9999999999995,-1097.2499999999982,232.9999999999995,-1043.2499999999995,166.74999999999957,-1043.2499999999995,166.74999999999957,-1097.2499999999982,232.9999999999995,-1097.2499999999982" /><polygon id="50227500274" title="274" points="153.7499999999997,-901.5000000000002,153.7499999999997,-726.5000000000002,33.75,-726.5000000000002,33.75,-901.5000000000002,153.7499999999997,-901.5000000000002" /><polygon id="50227500271" title="271" points="433.7499999999997,-771.7499999999997,229.74999999999963,-771.7499999999997,229.74999999999963,-1001.2499999999998,237.9999999999995,-1001.2499999999998,237.99999999999946,-1097.249999999999,433.7499999999998,-1097.249999999999,433.7499999999997,-771.7499999999997" /><polygon id="50227500270" title="270" points="153.74999999999966,-721.5000000000002,153.74999999999966,-580.5000000000001,33.74999999999997,-580.5000000000001,33.74999999999997,-721.5000000000002,153.74999999999966,-721.5000000000002" /><polygon id="50227500268" title="268" points="153.74999999999963,-575.5000000000001,153.74999999999963,-471.5000000000002,33.749999999999545,-471.5000000000002,33.749999999999545,-575.5000000000001,153.74999999999963,-575.5000000000001" /><polygon id="50227500265" title="265" points="433.75,-766.7499999999995,433.75,-570.2499999999995,229.74999999999955,-570.2499999999995,229.74999999999955,-766.7499999999995,433.75,-766.7499999999995" /><polygon id="50227500263" title="263" points="378.12499999999943,-565.2499999999995,378.12499999999943,-439.9999999999998,229.74999999999943,-439.9999999999998,229.74999999999943,-565.2499999999995,378.12499999999943,-565.2499999999995" /><polygon id="50227500259" title="259" points="436.74999999999994,-565.2499999999995,436.74999999999994,-439.9999999999997,383.1249999999995,-439.9999999999997,383.1249999999995,-565.2499999999995,436.74999999999994,-565.2499999999995" /><polygon id="50227500264" title="264" points="153.7499999999996,-405.00000000000017,199.9999999999998,-358.5000000000002,213.99999999999957,-358.5000000000002,213.99999999999957,-322.0000000000002,153.74999999999963,-322.0000000000002,153.74999999999963,-286.0000000000002,33.749999999999545,-286.0000000000002,33.749999999999545,-466.5000000000002,153.74999999999963,-466.5000000000002,153.7499999999996,-405.00000000000017" /><polygon id="50227500261" title="261" points="230.99999999999957,-317.0000000000002,230.99999999999957,-256.2500000000002,166.49999999999957,-256.2500000000002,166.49999999999957,-317.0000000000002,230.99999999999957,-317.0000000000002" /><polygon id="50227500262" title="262" points="153.74999999999963,-251.25000000000026,230.99999999999957,-251.25000000000026,230.99999999999957,-158.75000000000114,198.99999999999957,-158.75000000000114,198.99999999999957,-33.75000000000128,33.749999999999545,-33.750000000000256,33.749999999999545,-281.0000000000002,153.74999999999963,-281.0000000000002,153.74999999999963,-251.25000000000026" /><polygon id="50227500260" title="260" points="385.24999999999955,-153.75000000000114,385.24999999999955,-33.75000000000114,203.99999999999963,-33.75000000000114,203.99999999999963,-153.75000000000114,385.24999999999955,-153.75000000000114" /><polygon id="50227500256" title="256" points="439.99999999999955,-153.75000000000117,439.99999999999955,-98.24999999999974,390.24999999999955,-98.24999999999974,390.24999999999955,-153.75000000000117,439.99999999999955,-153.75000000000117" /><polygon id="50227500254" title="254" points="499.24999999999955,-93.24999999999974,499.24999999999955,-33.74999999999953,390.2499999999996,-33.74999999999953,390.2499999999996,-93.24999999999974,499.24999999999955,-93.24999999999974" /><polygon id="50227500257" title="257" points="432.9999999999996,-370.7499999999993,432.9999999999996,-250.75000000000028,312.9999999999998,-250.75000000000028,312.9999999999998,-370.7499999999993,432.9999999999996,-370.7499999999993" /><polygon id="50227500255" title="255" points="437.9999999999996,-370.7499999999993,547.2499999999997,-370.7499999999993,547.2499999999997,-250.75000000000028,437.9999999999996,-250.75000000000028,437.9999999999996,-370.7499999999993" /><polygon id="50227500251" title="251" points="672.2499999999997,-370.7499999999993,672.2499999999997,-250.7500000000003,552.2499999999997,-250.7500000000003,552.2499999999997,-370.7499999999993,672.2499999999997,-370.7499999999993" /><polygon id="50227500243" title="243" points="677.2499999999997,-370.7499999999993,797.2499999999997,-370.7499999999993,797.2499999999997,-238.75000000000023,677.2499999999997,-238.75000000000023,677.2499999999997,-370.7499999999993" /><polygon id="50227500241" title="241" points="922.2499999999995,-370.7499999999993,922.2499999999995,-238.7500000000002,802.2499999999997,-238.7500000000002,802.2499999999997,-370.7499999999993,922.2499999999995,-370.7499999999993" /><polygon id="50227500242" title="242" points="922.2499999999995,-33.75000000000114,802.2499999999995,-33.75000000000114,802.2499999999995,-165.75000000000114,922.2499999999995,-165.75000000000114,922.2499999999995,-33.75000000000114" /><polygon id="50227500244" title="244" points="677.2499999999995,-33.75000000000114,677.2499999999995,-165.75000000000114,797.2499999999995,-165.75000000000114,797.2499999999995,-33.75000000000114,677.2499999999995,-33.75000000000114" /><polygon id="50227500252" title="252" points="672.2499999999995,-33.75000000000114,504.24999999999955,-33.75000000000114,504.24999999999955,-153.75000000000117,672.2499999999995,-153.75000000000117,672.2499999999995,-33.75000000000114" /><polygon id="50227500240" title="240" points="1085.7500000000005,-33.75000000000017,927.2499999999995,-33.75000000000017,927.2499999999995,-170.7500000000011,872.2499999999994,-170.7500000000011,872.2499999999994,-233.75000000000017,927.2499999999994,-233.75000000000017,927.2499999999995,-343.24999999999915,974.2179377667652,-343.24999999999915,974.2179377667652,-370.7499999999993,1085.7500000000005,-370.7499999999993,1085.7500000000005,-33.75000000000017" /><polygon id="50227500232" title="232" points="1090.7500000000005,-154.00000000000028,1216.2500000000005,-154.00000000000028,1216.2500000000005,-33.75000000000023,1090.7500000000005,-33.75000000000023,1090.7500000000005,-154.00000000000028" /><polygon id="50227500233" title="233" points="1090.7500000000005,-159.00000000000028,1090.7500000000005,-279.0000000000002,1216.2500000000005,-279.0000000000002,1216.2500000000005,-159.00000000000028,1090.7500000000005,-159.00000000000028" /><polygon id="50227500284" title="284" points="1090.7500000000005,-370.7499999999993,1205.0000000000007,-370.7499999999993,1205.0000000000007,-284.0000000000002,1090.7500000000005,-284.0000000000002,1090.7500000000005,-370.7499999999993" /><polygon id="50227500231" title="231" points="1409.2500000000005,-279.00000000000017,1409.2500000000005,-159.00000000000028,1289.2500000000005,-159.00000000000028,1289.2500000000005,-279.00000000000017,1409.2500000000005,-279.00000000000017" /><polygon id="50227500230" title="230" points="1409.2500000000005,-33.7500000000002,1289.2500000000005,-33.7500000000002,1289.2500000000005,-154.00000000000028,1409.2500000000005,-154.00000000000028,1409.2500000000005,-33.7500000000002" /><polygon id="50227500228" title="228" points="1414.2500000000005,-154.00000000000028,1534.2500000000007,-154.00000000000028,1534.2500000000007,-33.74999999999926,1414.2500000000005,-33.74999999999926,1414.2500000000005,-154.00000000000028" /><polygon id="50227500229" title="229" points="1414.2500000000005,-159.00000000000028,1414.2500000000005,-277.5000000000002,1534.2500000000007,-277.5000000000002,1534.2500000000007,-159.00000000000028,1414.2500000000005,-159.00000000000028" /><polygon id="50227500227" title="227" points="1370.25,-412.5000000000004,1370.25,-348.7500000000003,1274.75,-348.7500000000003,1274.75,-412.5000000000004,1370.25,-412.5000000000004" /><polygon id="50227500226" title="226" points="1607.2500000000005,-154.00000000000028,1736.2500000000005,-154.00000000000028,1736.2500000000005,-33.75000000000023,1607.2500000000005,-33.75000000000023,1607.2500000000005,-154.00000000000028" /><polygon id="50227500224" title="224" points="1607.2500000000023,-159.00000000000028,1607.2500000000023,-280.0000000000002,1736.250000000001,-280.0000000000002,1736.250000000001,-159.00000000000028,1607.2500000000023,-159.00000000000028" /><polygon id="50227500222" title="222" points="1607.2500000000005,-518.5000000000002,1736.2500000000014,-518.5000000000002,1736.2500000000014,-285.00000000000017,1607.2500000000005,-285.00000000000017,1607.2500000000005,-518.5000000000002" /><polygon id="50227500220" title="220" points="1673.2500000000005,-523.5000000000002,1607.2500000000007,-523.5000000000002,1607.2500000000007,-592.2500000000002,1673.2500000000005,-592.2500000000002,1673.2500000000005,-523.5000000000002" /><polygon id="50227500218" title="218" points="1632.0000000000011,-697.2500000000002,1607.2500000000023,-697.2500000000002,1607.2500000000023,-747.7500000000002,1736.2500000000002,-747.7500000000002,1736.2500000000002,-597.2500000000002,1632.0000000000007,-597.2500000000002,1632.0000000000011,-697.2500000000002" /><polygon id="50227500287" title="287" points="1269.5,-566.2499999999991,1317.25,-566.2499999999991,1317.25,-440.74999999999943,1269.5,-440.74999999999943,1269.5,-566.2499999999991" /><polygon id="50227500289" title="289" points="1220,-509.2499999999993,1199.5,-509.2499999999993,1199.5,-449.24999999999926,1152,-449.24999999999926,1152,-578.7499999999994,1221,-578.7499999999994,1221,-551.2499999999992,1264.5,-551.2499999999992,1264.5,-509.271967725741,1220,-509.271967725741,1220,-509.2499999999993" /><polygon id="50227500225" title="225" points="1378.2500000000002,-461.0000000000002,1378.2500000000002,-417.5000000000004,1337.2500000000007,-417.5000000000004,1337.2500000000007,-461.0000000000002,1378.2500000000002,-461.0000000000002" /><polygon id="50227500221" title="221" points="1438.2500000000007,-621.0000000000002,1534.250000000001,-621.0000000000002,1534.250000000001,-446.0000000000003,1438.2500000000007,-446.0000000000003,1438.2500000000007,-621.0000000000002" /><polygon id="50227500223" title="223" points="1337.25,-466.00000000000017,1337.25,-705.0000000000002,1433.2500000000007,-705.0000000000002,1433.2500000000007,-466.00000000000017,1337.25,-466.00000000000017" /><polygon id="50227500216" title="216" points="1736.2500000000018,-752.7500000000002,1607.2500000000005,-752.7500000000002,1607.2500000000005,-846.7500000000002,1736.2500000000018,-846.7500000000002,1736.2500000000018,-752.7500000000002" /><polygon id="50227500214" title="214" points="1607.2500000000005,-972.2500000000002,1736.2500000000005,-972.2500000000002,1736.2500000000005,-851.7500000000002,1607.2500000000005,-851.7500000000002,1607.2500000000005,-972.2500000000002" /><polygon id="50227500212" title="212" points="1607.2500000000005,-977.2500000000001,1607.2500000000005,-1097.2499999999995,1736.2500000000002,-1097.2499999999995,1736.2500000000002,-977.2500000000001,1607.2500000000005,-977.2500000000001" /><polygon id="50227500210" title="210" points="1534.2500000000014,-977.2499999999997,1414.2500000000005,-977.2499999999997,1414.2500000000005,-1097.2499999999993,1534.2500000000014,-1097.2499999999993,1534.2500000000014,-977.2499999999997" /><polygon id="50227500219" title="219" points="1534.2500000000014,-972.2499999999997,1534.2500000000014,-853.7499999999995,1414.250000000001,-853.7499999999995,1414.250000000001,-972.2499999999997,1534.2500000000014,-972.2499999999997" /><polygon id="50227500213" title="213" points="1372.5,-710.0000000000002,1296.5,-710.0000000000002,1296.5,-783.0000000000002,1372.5,-783.0000000000002,1372.5,-710.0000000000002" /><polygon id="50227500217" title="217" points="1289.2500000000005,-972.2499999999997,1409.2500000000005,-972.2499999999997,1409.2500000000005,-852.2499999999995,1289.2500000000005,-852.2499999999995,1289.2500000000005,-972.2499999999997" /><polygon id="50227500208" title="208" points="1289.2500000000005,-977.2499999999997,1289.2500000000005,-1097.2499999999995,1409.2500000000005,-1097.2499999999995,1409.2500000000005,-977.2499999999997,1289.2500000000005,-977.2499999999997" /><polygon id="50227500206" title="206" points="1216.2500000000005,-977.2499999999997,1096.2500000000005,-977.2499999999997,1096.2500000000005,-1097.2499999999995,1216.2500000000005,-1097.2499999999995,1216.2500000000005,-977.2499999999997" /><polygon id="50227500215" title="215" points="1216.2500000000005,-972.2499999999995,1216.2500000000005,-852.2499999999995,1096.2500000000005,-852.2499999999995,1096.2500000000005,-972.2499999999995,1216.2500000000005,-972.2499999999995" /><polygon id="50227500211" title="211" points="1291.5,-695.4999999999989,1219.5,-695.4999999999989,1219.5,-783.0000000000002,1291.5,-783.0000000000002,1291.5,-695.4999999999989" /><polygon id="50227500209" title="209" points="1118,-695.4999999999989,1118,-783.0000000000002,1214.5,-783.0000000000002,1214.5,-695.4999999999989,1118,-695.4999999999989" /><polygon id="50227500205" title="205" points="1007.7500000000001,-695.4999999999993,1007.7500000000001,-761.1294192830273,1026.7774052237664,-783.0000000000002,1113,-783.0000000000002,1113,-695.4999999999993,1007.7500000000001,-695.4999999999993" /><polygon id="50227500295" title="295" points="1137.5,-649.4999999999993,1137.5,-461.9999999999996,1087.2499999999998,-461.9999999999996,1087.2499999999998,-440.7499999999994,1047.5,-440.7499999999994,1047.5,-649.4999999999993,1137.5,-649.4999999999993" /><polygon id="50227500293" title="293" points="1035.5,-460.2499999999992,951.25,-460.2499999999992,951.25,-562.6249999999991,1035.5,-562.6249999999991,1035.5,-460.2499999999992" /><polygon id="50227500291" title="291" points="951.25,-562.6249999999991,951.25,-682.999999999999,1035.5,-682.999999999999,1035.5,-562.6249999999991,951.25,-562.6249999999991" /><polygon id="50227500200" title="200" points="944.75,-654.4999999999994,944.75,-476.7499999999993,825.7500000000001,-476.7499999999993,825.7500000000001,-654.4999999999994,944.75,-654.4999999999994" /><polygon id="50227500202" title="202" points="1091.2500000000005,-1097.2499999999995,1091.2500000000005,-961.7499999999995,980.2500000000005,-961.7499999999995,980.2500000000003,-908.4999999999994,935.9656023977205,-908.4999999999994,881.3233229263926,-930.4227051082295,858.4065381638486,-904.0815731972592,825.5729436412571,-934.5034924338981,851.9999999999998,-964.8794192830278,852,-1097.2499999999995,1091.2500000000005,-1097.2499999999995" /><polygon id="50227500201" title="201" points="818.620046019739,-934.129363241079,1002.75,-763.5240222638868,1002.7500000000002,-695.4999999999991,944.7499999999998,-695.4999999999991,944.7499999999998,-659.4999999999994,825.75,-659.4999999999994,825.75,-695.499999999999,438.74999999999966,-695.4999999999991,438.7499999999998,-1097.249999999999,847.0000000000001,-1097.249999999999,847.0000000000001,-966.7500000000005,818.620046019739,-934.129363241079" /><polygon id="50227500290" title="290" points="735,-670.9999999999991,819.25,-670.9999999999991,819.25,-565.6249999999991,735,-565.6249999999991,735,-670.9999999999991" /><polygon id="50227500292" title="292" points="819.25,-565.6249999999991,819.25,-460.24999999999926,801.25,-460.24999999999926,801.25,-442.24999999999926,781.7500000000005,-442.24999999999926,781.7500000000005,-457.99999999999943,744.7500000000005,-457.99999999999943,744.7500000000005,-442.2499999999992,735,-442.2499999999992,735,-565.6249999999991,819.25,-565.6249999999991" /><polygon id="50227500286" title="286" points="722.9999999999995,-476.7499999999992,722.9999999999995,-440.74999999999926,633,-440.74999999999926,633,-476.7499999999992,722.9999999999995,-476.7499999999992" /><polygon id="50227500288" title="288" points="551.5,-578.7499999999993,620.5,-578.7499999999993,620.5,-449.24999999999926,572.5,-449.24999999999926,572.5,-509.2499999999993,507.50000000000006,-509.2499999999993,507.50000000000006,-551.2499999999993,551.5,-551.2499999999993,551.5,-578.7499999999993" /><polygon id="50227500298" title="298" points="456,-440.7499999999993,456,-566.2499999999993,502.5,-566.2499999999993,502.5,-440.7499999999993,456,-440.7499999999993" /><polygon id="50227500235" title="235" points="507.50000000000006,-435.7499999999993,507.5,-504.24999999999926,567.5,-504.24999999999926,567.5,-449.24999999999926,552.4999999999999,-449.24999999999926,552.4999999999999,-435.7499999999993,751.2500000000005,-435.7499999999993,751.2500000000005,-451.49999999999943,775.2500000000005,-451.49999999999943,775.2500000000005,-435.7499999999993,825.75,-435.7499999999993,825.75,-471.7499999999993,944.75,-471.7499999999993,944.75,-435.7499999999993,1220.7500000000005,-435.7499999999993,1220.7500000000005,-449.2499999999992,1204.5,-449.2499999999993,1204.5,-504.2499999999994,1264.5,-504.2499999999994,1264.5,-435.7499999999995,1269.75,-435.7499999999993,1269.75,-359.37499999999943,1210.0000000000007,-359.37499999999943,1210.0000000000007,-375.7499999999993,969.2179377667653,-375.7499999999993,969.2179377667653,-348.24999999999915,927.2499999999995,-348.24999999999915,927.2499999999995,-375.7499999999993,441.0000000000004,-375.7499999999993,441.0000000000004,-435.7499999999993,507.50000000000006,-435.7499999999993" /><polygon id="50227500294" title="294" points="682.9999999999995,-669.4999999999993,682.9999999999995,-688.4999999999989,723,-688.4999999999989,722.9999999999995,-481.7499999999992,633,-481.7499999999992,633,-669.4999999999993,682.9999999999995,-669.4999999999993" /><polygon id="50227500250" title="250" points="607.2499999999995,-170.75000000000114,607.2499999999997,-158.75000000000114,499.24999999999955,-158.75000000000114,499.24999999999955,-98.24999999999974,444.99999999999955,-98.24999999999974,444.99999999999955,-158.75000000000117,235.99999999999955,-158.75000000000114,235.99999999999955,-322.0000000000002,218.99999999999955,-322.0000000000002,218.99999999999955,-358.5000000000002,235.99999999999955,-358.5000000000002,235.99999999999955,-363.5000000000002,202.07896690302601,-363.5000000000002,158.74999999999966,-407.06317753493465,158.74999999999977,-1038.2499999999995,224.74999999999937,-1038.2499999999995,224.74999999999937,-434.9999999999998,436.0000000000004,-434.9999999999997,436.0000000000004,-375.7499999999993,307.9999999999998,-375.7499999999993,307.9999999999998,-245.75000000000034,672.2499999999997,-245.7500000000003,672.2499999999997,-233.75000000000017,867.2499999999995,-233.75000000000017,867.2499999999995,-170.7500000000011,607.2499999999995,-170.75000000000114" /><polygon id="50227500203" title="203" points="1517.250000000001,-284.0000000000002,1517.250000000001,-279.500000000001,1430.250000000001,-279.500000000001,1430.250000000001,-284.0000000000002,1284.2500000000005,-284.0000000000002,1284.2500000000005,-33.75000000000022,1221.2500000000005,-33.75000000000022,1221.2500000000005,-284.0000000000002,1210.0000000000007,-284.0000000000002,1210.0000000000007,-354.37499999999943,1269.75,-354.37499999999943,1269.75,-343.7500000000003,1383.2500000000002,-343.7500000000003,1383.2500000000002,-461.0000000000002,1433.2500000000007,-461.0000000000002,1433.2500000000007,-441.0000000000001,1539.2500000000007,-441.0000000000001,1539.2500000000007,-626.0000000000001,1438.2500000000005,-626.0000000000001,1438.2500000000005,-710.0000000000002,1385.7500000000005,-710.0000000000002,1385.7500000000005,-788.0000000000001,1024.5000000000002,-788.0000000000001,1006.2858579754379,-767.0642045694685,862.0760001939132,-900.6816384918548,882.7616444200725,-924.4582410506594,935.0000000000005,-903.4999999999997,985.2500000000005,-903.4999999999994,985.2500000000005,-956.7499999999995,1091.2500000000005,-956.7499999999995,1091.2500000000005,-847.2499999999994,1221.2500000000005,-847.2499999999994,1221.2500000000005,-1097.2499999999995,1284.2500000000005,-1097.2499999999995,1284.2500000000005,-847.2499999999995,1430.2500000000011,-847.2499999999993,1430.2500000000011,-851.7499999999987,1517.2500000000011,-851.7499999999987,1517.2500000000011,-847.2499999999993,1539.2500000000007,-847.2499999999993,1539.2500000000007,-1097.2499999999995,1602.2500000000007,-1097.2499999999995,1602.2500000000005,-692.2500000000002,1627.000000000001,-692.2500000000002,1627.000000000001,-597.2500000000002,1602.2500000000005,-597.2500000000002,1602.2500000000007,-33.75000000000023,1539.2500000000007,-33.75000000000022,1539.2500000000007,-284.0000000000002,1517.250000000001,-284.0000000000002" /><polygon id="50227500296" title="296" points="543,-559.7499999999993,510.50000000000006,-559.7499999999993,510.50000000000006,-574.2499999999993,444.75,-574.2499999999993,444.75,-686.9999999999991,625,-686.9999999999991,625,-587.2499999999994,543,-587.2499999999994,543,-559.7499999999993" /><polygon id="50227500297" title="297" points="1261.5,-574.2499999999992,1261.5,-559.7499999999991,1229.5,-559.7499999999991,1229.5,-587.2499999999994,1145.5,-587.2499999999994,1145.5,-686.9999999999991,1325.25,-686.9999999999991,1325.25,-574.2499999999992,1261.5,-574.2499999999992" /></svg>
