<svg version="1.1" id="Map" class="gen-by-synoptic-designer" xmlns="http://www.w3.org/2000/svg" xmlns:xlink="http://www.w3.org/1999/xlink" viewBox="33.74999999999733 -1097.2500000000002 1702.500000000004 1063.5000000000002" xml:space="preserve"><image width="1702.500000000004" height="1063.5000000000002" xlink:href=""/><polygon id="50227500913" title="913" points="1261.5625000000005,-760.4999999999989,1304.9375000000005,-760.4999999999989,1304.9375000000005,-985.4375000000002,1261.5625000000005,-985.4375000000002,1261.5625000000005,-760.4999999999989" /><polygon id="50227500915" title="915" points="1309.9375000000005,-808.6250000000002,1433.8750000000005,-808.6250000000002,1433.8750000000005,-895.8125000000002,1309.9375000000005,-895.8125000000002,1309.9375000000005,-808.6250000000002" /><polygon id="50227500912" title="912" points="1438.8750000000005,-954.7500000000002,1563.2500000000005,-954.7500000000002,1563.2500000000005,-1097.2499999999995,1438.8750000000005,-1097.2499999999995,1438.8750000000005,-954.7500000000002" /><polygon id="50227500908" title="908" points="1094.3125000000005,-990.4375000000002,1194.3125000000005,-990.4375000000002,1194.3125000000005,-1086.0000000000002,1194.3125,-1097.249999999999,1189.3125000000005,-1097.2499999999993,1094.3125000000005,-1097.2499999999993,1094.3125000000005,-990.4375000000002" /><polygon id="50227500909" title="909" points="625.7500000000005,-760.4999999999987,719.4375000000005,-760.4999999999987,719.4375000000005,-781.8124999999989,721.7500000000005,-781.8124999999989,721.7500000000005,-884.1250000000002,625.7500000000005,-884.1250000000002,625.7500000000005,-760.4999999999987" /><polygon id="50227500904" title="904" points="969.5,-938.1250000000002,969.5,-1097.2499999999995,850.7500000000005,-1097.2499999999993,850.7500000000005,-938.1250000000002,969.5,-938.1250000000002" /><polygon id="50227500902A" title="902A" points="839.2500000000005,-1097.249999999999,761.2500000000003,-1097.249999999999,761.25,-938.1249999999989,845.75,-938.1249999999989,845.75,-984.1249999999989,839.2500000000009,-984.1249999999989,839.2500000000005,-1097.249999999999" /><polygon id="50227500902" title="902" points="756.2500000000005,-1097.2499999999995,636.2500000000005,-1097.2499999999995,636.2500000000005,-938.1250000000002,756.2500000000005,-938.1250000000002,756.2500000000005,-1097.2499999999995" /><polygon id="50227500991" title="991" points="951.25,-682.999999999999,951.25,-562.6249999999991,1035.5,-562.6249999999991,1035.5,-682.999999999999,951.25,-682.999999999999" /><polygon id="50227500990" title="990" points="735,-670.9999999999991,735,-565.6249999999991,819.25,-565.6249999999991,819.25,-670.9999999999991,735,-670.9999999999991" /><polygon id="50227500996" title="996" points="625,-587.2499999999995,625,-686.9999999999989,444.7499999999995,-686.9999999999989,444.7499999999995,-574.2499999999994,510.49999999999955,-574.2499999999994,510.49999999999955,-559.7499999999993,542.9999999999995,-559.7499999999993,542.9999999999995,-587.2499999999995,625,-587.2499999999995" /><polygon id="50227500998" title="998" points="455.9999999999995,-566.2499999999994,455.9999999999995,-440.7499999999993,502.4999999999996,-440.7499999999993,502.4999999999996,-566.2499999999994,455.9999999999995,-566.2499999999994" /><polygon id="50227500988" title="988" points="620.5,-578.7499999999995,551.4999999999995,-578.7499999999995,551.4999999999995,-551.2499999999993,507.4999999999996,-551.2499999999993,507.4999999999996,-509.24999999999943,572.4999999999995,-509.24999999999943,572.4999999999995,-449.24999999999926,620.5,-449.24999999999926,620.5,-578.7499999999995" /><polygon id="50227500994" title="994" points="633,-669.4999999999993,633,-481.7499999999992,722.9999999999995,-481.7499999999992,722.9999999999995,-688.4999999999989,683,-688.4999999999989,683,-669.4999999999993,633,-669.4999999999993" /><polygon id="50227500984" title="984" points="633,-476.7499999999992,633,-440.7499999999992,723,-440.7499999999992,723,-476.7499999999992,633,-476.7499999999992" /><polygon id="50227500992" title="992" points="819.2499999999999,-460.2499999999992,819.2499999999999,-565.6249999999991,734.9999999999999,-565.6249999999991,735,-442.24999999999915,744.7500000000005,-442.24999999999915,744.7500000000005,-457.9999999999993,781.7500000000005,-457.9999999999994,781.7500000000005,-442.2499999999992,801.25,-442.2499999999992,801.25,-460.24999999999926,819.2499999999999,-460.2499999999992" /><polygon id="50227500900" title="900" points="825.7500000000001,-654.4999999999994,825.7500000000001,-476.7499999999993,944.75,-476.7499999999993,944.75,-654.4999999999994,825.7500000000001,-654.4999999999994" /><polygon id="50227500993" title="993" points="951.25,-460.2499999999992,1035.5,-460.2499999999992,1035.5,-562.6249999999991,951.25,-562.6249999999991,951.25,-460.2499999999992" /><polygon id="50227500983" title="983" points="1047.5,-690.4999999999993,1047.5,-656.4999999999993,1118.5,-656.4999999999993,1118.5,-690.4999999999993,1047.5,-690.4999999999993" /><polygon id="50227500995" title="995" points="1047.5,-649.4999999999993,1047.5,-440.7499999999994,1087.2499999999998,-440.7499999999994,1087.2499999999998,-461.9999999999996,1137.5,-461.9999999999996,1137.5,-649.4999999999993,1047.5,-649.4999999999993" /><polygon id="50227500997" title="997" points="1325.2499999999995,-686.9999999999991,1145.4999999999995,-686.9999999999991,1145.4999999999995,-587.2499999999997,1229.4999999999995,-587.2499999999997,1229.4999999999995,-559.7499999999993,1261.4999999999995,-559.7499999999993,1261.4999999999995,-574.2499999999994,1325.2499999999995,-574.2499999999994,1325.2499999999995,-686.9999999999991" /><polygon id="50227500989" title="989" points="1220.9999999999995,-551.2499999999994,1220.9999999999995,-578.7499999999997,1152,-578.7499999999997,1152,-449.2499999999993,1199.4999999999995,-449.2499999999993,1199.4999999999995,-509.2499999999993,1264.4999999999995,-509.2499999999993,1264.4999999999995,-551.2499999999994,1220.9999999999995,-551.2499999999994" /><polygon id="50227500987" title="987" points="1269.4999999999995,-566.2499999999995,1269.4999999999995,-440.74999999999943,1317.25,-440.74999999999943,1317.25,-566.2499999999995,1269.4999999999995,-566.2499999999995" /><polygon id="50227500914" title="914" points="1736.2500000000005,-1097.2500000000002,1617.2500000000005,-1097.2500000000002,1617.2500000000005,-990.3750000000005,1730.2500000000005,-990.3750000000005,1730.2500000000005,-981.0625000000002,1736.2500000000005,-981.0625000000002,1736.2500000000005,-1097.2500000000002" /><polygon id="50227500976" title="976" points="629.0000000000005,-1061.2500000000002,629.0000000000005,-1097.2499999999995,512.2500000000005,-1097.2499999999995,512.2500000000005,-938.1250000000002,631.2500000000005,-938.1250000000002,631.2500000000005,-1061.2500000000002,629.0000000000005,-1061.2500000000002" /><polygon id="50227500974" title="974" points="411.4375,-1097.2499999999995,411.4375,-938.1250000000002,507.25000000000045,-938.1250000000002,507.25000000000045,-1097.2499999999995,411.4375,-1097.2499999999995" /><polygon id="50227500972" title="972" points="285.75,-1097.2499999999995,285.75,-938.1250000000002,406.4375,-938.1250000000002,406.4375,-1097.2499999999995,285.75,-1097.2499999999995" /><polygon id="50227500970" title="970" points="158.75,-1097.2499999999984,158.75,-938.1250000000002,280.75,-938.1250000000002,280.75,-1097.2499999999984,158.75,-1097.2499999999984" /><polygon id="50227500968" title="968" points="33.75000000000003,-1097.2499999999984,33.75000000000003,-938.1250000000002,153.75,-938.1250000000002,153.75,-1097.2499999999984,33.75000000000003,-1097.2499999999984" /><polygon id="50227500966" title="966" points="33.75000000000003,-933.1250000000002,33.75000000000003,-889.1250000000003,105.00000000000001,-889.1250000000003,105.00000000000001,-933.1250000000002,33.75000000000003,-933.1250000000002" /><polygon id="50227500971B" title="971B" points="609.375,-933.1250000000002,609.375,-889.1250000000003,660.3125000000005,-889.1250000000003,660.3125000000005,-933.1250000000002,609.375,-933.1250000000002" /><polygon id="50227500971A" title="971A" points="570.125,-884.1250000000002,570.125,-830.7500000000002,620.7500000000005,-830.7500000000002,620.7500000000005,-884.1250000000002,570.125,-884.1250000000002" /><polygon id="50227500969" title="969" points="468.125,-884.1250000000003,468.125,-760.4999999999989,620.7500000000005,-760.4999999999989,620.7500000000005,-818.8749999999989,565.125,-818.8749999999989,565.125,-884.1250000000003,468.125,-884.1250000000003" /><polygon id="50227500967" title="967" points="371.75,-760.4999999999989,463.125,-760.4999999999989,463.125,-884.1250000000003,371.75,-884.1250000000003,371.75,-760.4999999999989" /><polygon id="50227500965" title="965" points="294.75,-884.1250000000003,294.75,-760.4999999999989,366.75,-760.4999999999989,366.75,-884.1250000000003,294.75,-884.1250000000003" /><polygon id="50227500964" title="964" points="289.75,-884.1250000000003,33.75000000000003,-884.1250000000003,33.75000000000003,-680.0625000000002,289.75,-680.0625000000002,289.75,-884.1250000000003" /><polygon id="50227500964A" title="964A" points="294.75,-755.4999999999989,294.75,-680.0625000000002,366.5,-680.0625000000002,366.5,-702.9999999999989,371.5,-702.9999999999989,371.5,-680.0625000000002,407.5,-680.0625000000002,407.5,-702.9999999999989,412.5,-702.9999999999989,412.5,-680.0625000000002,436.25,-680.0625000000002,436.25,-755.4999999999989,294.75,-755.4999999999989" /><polygon id="50227500999" title="999" points="441.2499999999998,-755.4999999999989,441.24999999999983,-695.4999999999991,825.7500000000002,-695.4999999999991,825.7500000000002,-659.4999999999994,944.7499999999999,-659.4999999999994,944.7499999999999,-695.4999999999991,1256.5625000000005,-695.4999999999991,1256.5625000000005,-703.4999999999989,1304.9375000000005,-703.4999999999989,1304.9375000000005,-755.4999999999989,441.2499999999998,-755.4999999999989" /><polygon id="50227500971" title="971" points="110,-933.1250000000002,110,-889.1250000000003,604.375,-889.1250000000003,604.375,-933.1250000000002,110,-933.1250000000002" /><polygon id="50227500923" title="923" points="1337.25,-592.8750000000002,1337.25,-470.9375000000005,1537.9999999999998,-470.9375000000005,1537.9999999999998,-592.8750000000002,1337.25,-592.8750000000002" /><polygon id="50227500924" title="924" points="1625.8749999999995,-592.8749999999992,1625.8749999999995,-423.8750000000002,1736.2500000000002,-423.8750000000002,1736.2500000000002,-592.8749999999992,1625.8749999999995,-592.8749999999992" /><polygon id="50227500926" title="926" points="1736.2500000000005,-418.8750000000002,1625.8750000000005,-418.8750000000002,1625.8750000000005,-256.8750000000002,1736.2500000000005,-256.8750000000002,1736.2500000000005,-418.8750000000002" /><polygon id="50227500928" title="928" points="1625.8750000000002,-251.8750000000002,1625.8750000000002,-155.43750000000026,1736.2500000000007,-155.43750000000026,1736.2500000000007,-251.8750000000002,1625.8750000000002,-251.8750000000002" /><polygon id="50227500930" title="930" points="1736.250000000001,-150.43750000000028,1578.3750000000005,-150.43750000000028,1578.3750000000005,-33.750000000000014,1736.250000000001,-33.750000000000014,1736.250000000001,-150.43750000000028" /><polygon id="50227500932" title="932" points="1573.7500000000005,-33.75,1573.7500000000005,-150.43750000000028,1468.6875000000002,-150.43750000000028,1468.6875000000002,-33.75,1573.7500000000005,-33.75" /><polygon id="50227500934" title="934" points="1464.0625000000002,-150.43750000000028,1316.8750000000005,-150.43750000000028,1316.8750000000005,-33.75000000000003,1464.0625000000002,-33.75000000000003,1464.0625000000002,-150.43750000000028" /><polygon id="50227500938" title="938" points="1312.2500000000005,-33.750000000000014,1312.2500000000005,-150.43750000000028,1142.6250000000002,-150.43750000000028,1142.6250000000002,-33.750000000000014,1312.2500000000005,-33.750000000000014" /><polygon id="50227500940" title="940" points="1138.0000000000002,-150.43750000000028,981.4375000000003,-150.43750000000028,981.4375000000003,-33.75000000000007,1138.0000000000002,-33.75000000000007,1138.0000000000002,-150.43750000000028" /><polygon id="50227500942" title="942" points="976.8125000000002,-33.75,976.8125000000002,-150.43750000000026,877.5625000000001,-150.43750000000026,877.5625000000001,-33.75,976.8125000000002,-33.75" /><polygon id="50227500944" title="944" points="872.9375000000001,-150.43750000000028,711.0625000000005,-150.43750000000028,711.0625000000005,-33.75000000000004,872.9375000000001,-33.75000000000004,872.9375000000001,-150.43750000000028" /><polygon id="50227500946" title="946" points="706.4375000000003,-33.75,706.4375000000003,-150.43750000000026,597.5625000000005,-150.43750000000026,597.5625000000005,-33.75,706.4375000000003,-33.75" /><polygon id="50227500948" title="948" points="592.9375000000001,-150.0714745962156,464.56250000000045,-150.0714745962156,464.56250000000045,-33.75000000000004,592.9375000000001,-33.75000000000004,592.9375000000001,-150.0714745962156" /><polygon id="50227500950" title="950" points="459.93750000000045,-33.750000000000014,459.93750000000045,-150.43750000000026,259.1250000000002,-150.43750000000026,259.1250000000002,-33.750000000000014,459.93750000000045,-33.750000000000014" /><polygon id="50227500952" title="952" points="254.50000000000026,-152.4375000000015,33.749999999999545,-152.4375000000015,33.749999999999545,-33.750000000000256,254.50000000000026,-33.750000000000256,254.50000000000026,-152.4375000000015" /><polygon id="50227500954" title="954" points="33.74999999999821,-157.4375000000015,152.93749999999798,-157.4375000000015,152.93749999999798,-302.2500000000003,33.74999999999821,-302.2500000000003,33.74999999999821,-157.4375000000015" /><polygon id="50227500958" title="958" points="152.93749999999798,-307.2500000000002,152.93749999999798,-451.0000000000002,33.74999999999912,-451.0000000000002,33.74999999999912,-307.2500000000002,152.93749999999798,-307.2500000000002" /><polygon id="50227500960" title="960" points="152.93749999999778,-456.3125000000002,152.93749999999778,-550.3750000000002,33.74999999999744,-550.3750000000002,33.74999999999744,-456.3125000000002,152.93749999999778,-456.3125000000002" /><polygon id="50227500962" title="962" points="33.74999999999733,-555.3750000000002,201.8749999999972,-555.3750000000002,201.8749999999972,-675.0625000000002,33.74999999999733,-675.0625000000002,33.74999999999733,-555.3750000000002" /><polygon id="50227500963" title="963" points="206.4999999999972,-675.0625000000002,206.4999999999972,-555.3750000000003,304.9999999999974,-555.3750000000003,304.9999999999974,-675.0625000000002,206.4999999999972,-675.0625000000002" /><polygon id="50227500961" title="961" points="309.6249999999974,-555.3750000000002,436.25,-555.3750000000002,436.25,-675.0625000000002,309.6249999999974,-675.0625000000002,309.6249999999974,-555.3750000000002" /><polygon id="50227500957" title="957" points="250.68750000000088,-496.9375000000001,199.9375000000009,-496.9375000000001,199.9375000000009,-446.62500000000017,250.68750000000088,-446.62500000000017,250.68750000000088,-496.9375000000001" /><polygon id="50227500956" title="956" points="199.93750000000088,-441.62500000000017,199.93750000000088,-391.8750000000002,250.68750000000102,-391.8750000000002,250.68750000000102,-441.62500000000017,199.93750000000088,-441.62500000000017" /><polygon id="50227500955A" title="955A" points="255.31250000000088,-505.18750000000017,255.31250000000088,-386.6250000000002,360.62500000000045,-386.6250000000002,360.62500000000045,-505.18750000000017,255.31250000000088,-505.18750000000017" /><polygon id="50227500947" title="947" points="456.37500000000034,-371.8124999999979,456.37500000000034,-270.5624999999984,578.3750000000006,-270.5624999999984,578.3750000000006,-371.8124999999979,456.37500000000034,-371.8124999999979" /><polygon id="50227500949" title="949" points="578.3750000000006,-265.5624999999984,456.375000000001,-265.5624999999984,456.375000000001,-205.56249999999844,578.3750000000006,-205.56249999999844,578.3750000000006,-265.5624999999984" /><polygon id="50227500941" title="941" points="758.8125000000002,-371.81249999999847,758.8125000000002,-205.5624999999984,865.8750000000009,-205.5624999999984,865.8750000000009,-371.81249999999847,758.8125000000002,-371.81249999999847" /><polygon id="50227500927" title="927" points="1320.1875000000011,-371.81249999999955,1320.1875000000011,-208.68749999999994,1437.1250000000016,-208.68749999999994,1437.1250000000016,-371.81249999999955,1320.1875000000011,-371.81249999999955" /><polygon id="50227500929" title="929" points="1444.7500000000016,-208.68749999999994,1568.812500000001,-208.68749999999994,1568.812500000001,-371.81250000000006,1444.7500000000016,-371.81250000000006,1444.7500000000016,-208.68749999999994" /><polygon id="50227500925B" title="925B" points="1568.812500000001,-376.43750000000006,1568.812500000001,-413.56250000000045,1481.5625000000005,-413.56250000000045,1481.5625000000005,-376.43750000000006,1568.812500000001,-376.43750000000006" /><polygon id="50227500925A" title="925A" points="1476.9375000000005,-413.56250000000045,1389.6875,-413.56250000000045,1389.6875,-376.4374999999997,1476.9375000000005,-376.4374999999997,1476.9375000000005,-413.56250000000045" /><polygon id="50227500937" title="937" points="1039.7500000000007,-371.81249999999903,1039.7500000000014,-208.68749999999997,1231.5625000000011,-208.68749999999997,1231.5625000000011,-285.3125000000002,1315.5625000000011,-285.31250000000017,1315.5625000000011,-371.81249999999903,1039.7500000000007,-371.81249999999903" /><polygon id="50227500931" title="931" points="1243.5625000000014,-208.68749999999994,1315.5625000000011,-208.68749999999994,1315.5625000000011,-280.68750000000017,1243.5625000000014,-280.68750000000017,1243.5625000000014,-208.68749999999994" /><polygon id="50227500925" title="925" points="1035.1250000000007,-203.68749999999994,1035.1250000000007,-155.43750000000028,1621.2500000000007,-155.43750000000028,1621.2500000000002,-466.31250000000006,1337.25,-466.31250000000006,1337.25,-435.74999999999943,1276.375,-435.74999999999943,1276.375,-376.43749999999966,1385.0625,-376.43749999999966,1385.0625,-418.1875000000007,1573.437500000001,-418.18750000000057,1573.437500000001,-203.68749999999994,1035.1250000000007,-203.68749999999994" /><polygon id="50227500999B" title="999B" points="507.4999999999996,-504.24999999999943,507.4999999999996,-435.7499999999993,456.3750000000001,-435.7499999999993,456.37500000000034,-376.4374999999979,1271.7500000000005,-376.4374999999995,1271.75,-435.74999999999943,1264.4999999999995,-435.74999999999943,1264.4999999999995,-504.2499999999993,1204.4999999999995,-504.2499999999993,1204.4999999999995,-449.2499999999994,1220.7500000000005,-449.24999999999926,1220.75,-435.74999999999926,944.75,-435.7499999999993,944.75,-471.7499999999993,825.75,-471.7499999999993,825.75,-435.7499999999992,552.4999999999994,-435.74999999999926,552.4999999999994,-449.24999999999926,567.4999999999995,-449.24999999999926,567.4999999999995,-504.24999999999943,507.4999999999996,-504.24999999999943" /><polygon id="50227500922" title="922" points="1369.2500000000005,-690.8749999999989,1337.25,-690.8749999999989,1337.25,-597.8750000000002,1450.25,-597.8750000000002,1450.25,-735.8968261197733,1369.2500000000005,-735.8968261197733,1369.2500000000005,-690.8749999999989" /><polygon id="50227500921" title="921" points="1454.875,-735.8968261197733,1454.875,-597.8750000000002,1563.2500000000005,-597.8750000000002,1563.2500000000005,-735.8968261197733,1454.875,-735.8968261197733" /><polygon id="50227500919" title="919" points="1612.2500000000002,-1030.8125,1568.2500000000005,-1030.8125,1568.2500000000005,-803.6250000000002,1309.9375000000005,-803.6250000000002,1309.9375,-695.4999999999989,1364.6250000000005,-695.4999999999989,1364.6250000000005,-740.5218261197733,1567.8750000000005,-740.5218261197733,1567.8897575567335,-592.8750000000002,1542.6249999999995,-592.8750000000002,1542.6249999999998,-470.9375000000005,1614.6249999999995,-470.9375000000007,1614.6249999999993,-535.4375000000003,1621.25,-535.4375000000003,1621.2499999999998,-592.8749999999992,1612.5698787783667,-592.8750000000002,1612.2500000000002,-790.1875000000002,1612.2500000000002,-1030.8125" /><polygon id="50227500918" title="918" points="1617.2500000000005,-871.8750000000002,1617.2500000000002,-768.3750000000002,1672.062500000001,-768.3750000000002,1672.062500000001,-759.1875000000002,1736.2500000000005,-759.1875000000002,1736.2500000000005,-871.8750000000002,1617.2500000000005,-871.8750000000002" /><polygon id="50227500916" title="916" points="1617.2500000000005,-876.8750000000002,1736.2500000000005,-876.8750000000002,1736.2500000000005,-976.0625000000002,1725.2500000000005,-976.0625000000002,1725.2500000000005,-985.3750000000005,1617.2500000000005,-985.3750000000005,1617.2500000000005,-876.8750000000002" /><polygon id="50227500919A" title="919A" points="1568.2500000000005,-1097.2500000000002,1568.2500000000005,-1035.8125000000002,1612.2500000000005,-1035.8125000000002,1612.2500000000005,-1097.2500000000002,1568.2500000000005,-1097.2500000000002" /><polygon id="50227500917" title="917" points="1438.8750000000005,-949.7500000000002,1438.8750000000005,-808.6250000000002,1563.2500000000005,-808.6250000000002,1563.2500000000005,-949.7500000000002,1438.8750000000005,-949.7500000000002" /><polygon id="50227500920" title="920" points="1617.2500000000018,-754.1875000000002,1617.2500000000018,-597.8750000000002,1736.2500000000014,-597.8750000000002,1736.2500000000014,-754.1875000000002,1617.2500000000018,-754.1875000000002" /><polygon id="50227500910" title="910" points="1309.9375000000005,-900.8124999999993,1433.8750000000005,-900.8124999999993,1433.8750000000005,-1097.2499999999984,1261.5625000000005,-1097.2499999999984,1261.5625000000005,-990.4374999999993,1309.9375000000005,-990.4374999999993,1309.9375000000005,-900.8124999999993" /><polygon id="50227500953" title="953" points="360.62500000000034,-381.62500000000034,199.93750000000105,-381.62500000000034,199.93750000000102,-294.6250000000004,360.62500000000034,-294.6250000000004,360.62500000000034,-381.62500000000034" /><polygon id="50227500951" title="951" points="199.93750000000105,-207.62500000000045,360.62500000000034,-207.62500000000045,360.62500000000034,-288.1250000000004,199.93750000000105,-288.1250000000004,199.93750000000105,-207.62500000000045" /><polygon id="50227500945" title="945" points="583.0000000000007,-371.8124999999985,583.0000000000007,-205.5624999999985,668.5937500000003,-205.5624999999985,668.5937500000003,-371.8124999999985,583.0000000000007,-371.8124999999985" /><polygon id="50227500945A" title="945A" points="754.1875000000001,-205.5624999999985,754.1875000000001,-371.8124999999985,668.5937500000003,-371.8124999999985,668.5937500000003,-205.5624999999985,754.1875000000001,-205.5624999999985" /><polygon id="50227500939" title="939" points="1035.1250000000005,-371.8124999999991,870.5000000000007,-371.8124999999991,870.5000000000007,-200.5624999999985,918.6582295108053,-200.5624999999985,918.6582295108053,-297.2314581697239,1035.1250000000011,-297.2314581697239,1035.1250000000005,-371.8124999999991" /><polygon id="50227500939A" title="939A" points="1035.1250000000014,-200.5624999999985,1035.1250000000014,-297.23145816972396,918.6582295108055,-297.23145816972396,918.6582295108055,-200.5624999999985,1035.1250000000014,-200.5624999999985" /><polygon id="50227500955" title="955" points="436.2499999999998,-550.3750000000003,365.250000000001,-550.3750000000003,365.250000000001,-510.18750000000045,365.250000000001,-202.62500000000048,195.31250000000068,-202.6250000000004,195.31250000000068,-510.1875000000004,365.250000000001,-510.18750000000045,365.250000000001,-550.3750000000003,157.56249999999773,-550.3750000000003,157.56249999999818,-157.4375000000016,293.250000000001,-157.4375000000016,293.250000000001,-155.43750000000028,1035.1250000000007,-155.43750000000045,1035.1250000000005,-200.56249999999852,451.7500000000009,-200.56249999999855,451.7499,-435.75000000000034,436.2499999999998,-435.74999999999943,436.2499999999998,-550.3750000000003" /><polygon id="50227500908A" title="908A" points="1194.3125000000005,-1047.4374999999993,1256.562500000001,-1047.4374999999993,1256.562500000001,-1097.2499999999982,1194.312500000001,-1097.2499999999982,1194.312500000001,-1086.9999999999993,1199.3125,-1086.9999999999989,1199.3125000000005,-1074.3224981995095,1194.312500000001,-1074.3224981995095,1194.3125000000005,-1047.4374999999993" /><polygon id="50227500905" title="905" points="830.2500000000005,-792.4999999999984,830.2500000000005,-760.4999999999984,923.9375000000005,-760.4999999999984,923.9375000000005,-884.1249999999999,828,-884.1249999999999,827.9375000000005,-792.4999999999984,830.2500000000005,-792.4999999999984" /><polygon id="50227500907" title="907" points="726.7500000000005,-884.1249999999998,726.7500000000005,-760.4999999999983,823,-760.4999999999989,823,-884.1249999999998,726.7500000000005,-884.1249999999998" /><polygon id="50227500906" title="906" points="974.5000000000009,-1097.2499999999993,974.5,-990.4374999999993,1089.3125,-990.4374999999993,1089.3125000000005,-1097.2499999999989,974.5000000000009,-1097.2499999999993" /><polygon id="50227500911" title="911" points="1199.3125000000005,-990.4375000000002,1251.312500000001,-990.4374999999993,1251.312500000001,-1042.4374999999993,1199.3125000000005,-1042.4374999999989,1199.3125000000005,-990.4375000000002" /><polygon id="50227500903" title="903" points="1157.3124999999998,-760.499999999998,1193.5624999999998,-760.499999999998,1193.5624999999998,-910.4999999999982,1256.5624999999998,-910.4999999999982,1256.5624999999998,-985.4374999999991,975.7499999999998,-985.4374999999991,975.7556495187922,-933.1249999999991,1013.7556495187921,-933.124999999999,1013.7556495187922,-938.124999999999,1094.3125,-938.1249999999989,1094.3124999999998,-910.4999999999982,1157.3124999999998,-910.4999999999982,1157.3124999999998,-760.499999999998" /><polygon id="50227500903A" title="903A" points="1094.3124999999998,-835.4999999999981,1157.3124999999998,-835.4999999999981,1157.3124999999998,-910.4999999999982,1094.3124999999998,-910.4999999999982,1094.3124999999998,-835.4999999999981" /><polygon id="50227500903B" title="903B" points="1094.3124999999998,-760.499999999998,1157.3124999999998,-760.499999999998,1157.3124999999998,-835.4999999999981,1094.3124999999998,-835.4999999999981,1094.3124999999998,-760.499999999998" /><polygon id="50227500903C" title="903C" points="1193.5624999999998,-760.499999999998,1256.5624999999998,-760.499999999998,1256.5624999999998,-835.4999999999981,1193.5624999999998,-835.4999999999981,1193.5624999999998,-760.499999999998" /><polygon id="50227500903D" title="903D" points="1193.5624999999998,-835.4999999999981,1256.5624999999998,-835.4999999999981,1256.5624999999998,-910.4999999999982,1193.5624999999998,-910.4999999999982,1193.5624999999998,-835.4999999999981" /><polygon id="50227500901" title="901" points="1026.3125,-832.4999999999984,1026.3125,-933.1249999999994,665.3125,-933.1249999999999,665.3125000000001,-889.1249999999999,928.9375000000001,-889.1249999999998,928.9375,-760.4999999999984,1018.5625,-760.4999999999984,1018.5625,-832.4999999999984,1026.3125,-832.4999999999984" /><polygon id="50227500901B" title="901B" points="1026.3125,-832.4999999999984,1089.3125,-832.4999999999984,1089.3125,-933.1249999999993,1026.3125,-933.1249999999993,1026.3125,-832.4999999999984" /><polygon id="50227500901A" title="901A" points="1018.5624999999999,-760.4999999999984,1081.5625,-760.4999999999984,1081.5625,-818.9999999999984,1089.3125,-818.9999999999984,1089.3125,-832.4999999999984,1018.5624999999999,-832.4999999999984,1018.5624999999999,-760.4999999999984" /></svg>
